<svg width="1920" height="280" viewBox="0 0 1920 280" fill="none" xmlns="http://www.w3.org/2000/svg">
<rect width="1920" height="280" fill="#F3F7FF"/>
<rect width="567" height="280" transform="translate(1113)" fill="#F3F7FF"/>
<path d="M1319 109H1435C1438.87 109 1442 112.134 1442 116V190C1442 193.866 1438.87 197 1435 197H1319C1315.13 197 1312 193.866 1312 190V116C1312 112.255 1314.94 109.196 1318.64 109.009L1319 109Z" fill="white" stroke="#D6E0EB" stroke-width="2"/>
<path d="M1335 132H1358.5H1382" stroke="#D6E0EB" stroke-width="8" stroke-linecap="round"/>
<path d="M1335 150H1366.5H1398" stroke="#D6E0EB" stroke-width="8" stroke-linecap="round"/>
<circle cx="1339" cy="173" r="7" fill="#EEF2F7"/>
<path d="M1361 173L1390.5 173L1420 173" stroke="#EEF2F7" stroke-width="8" stroke-linecap="round"/>
<circle cx="1257" cy="69" r="6" fill="white" stroke="#6D7882" stroke-width="2"/>
<path d="M1249 120.555C1249.79 122.582 1250.92 124.265 1252.29 125.435C1253.65 126.605 1255.2 127.221 1256.78 127.221C1258.35 127.221 1259.9 126.605 1261.27 125.435C1262.63 124.265 1263.77 122.582 1264.56 120.555" stroke="#6D7882" stroke-width="2" stroke-linecap="round" stroke-linejoin="round"/>
<path d="M1227.87 113.865C1227.44 114.343 1227.15 114.936 1227.04 115.574C1226.94 116.211 1227.02 116.865 1227.28 117.457C1227.54 118.048 1227.97 118.55 1228.51 118.904C1229.05 119.257 1229.68 119.445 1230.33 119.445H1283.66C1284.31 119.446 1284.94 119.258 1285.48 118.906C1286.03 118.553 1286.45 118.051 1286.71 117.46C1286.98 116.87 1287.06 116.216 1286.96 115.578C1286.85 114.94 1286.57 114.346 1286.13 113.869C1281.7 109.299 1277 104.442 1277 89.4453C1277 84.141 1274.89 79.0539 1271.14 75.3032C1267.39 71.5524 1262.3 69.4453 1257 69.4453C1251.69 69.4453 1246.61 71.5524 1242.86 75.3032C1239.1 79.0539 1237 84.141 1237 89.4453C1237 104.442 1232.29 109.299 1227.87 113.865Z" fill="white" stroke="#6D7882" stroke-width="2" stroke-linecap="round" stroke-linejoin="round"/>
<path d="M1485 202.331C1497.88 202.331 1508.33 191.884 1508.33 178.997C1508.33 166.111 1497.88 155.664 1485 155.664C1472.11 155.664 1461.66 166.111 1461.66 178.997C1461.66 191.884 1472.11 202.331 1485 202.331Z" stroke="#0B50D0" stroke-width="3" stroke-linecap="round" stroke-linejoin="round"/>
<path d="M1476.5 179L1481.67 184.667L1493.5 173.5" stroke="#0B50D0" stroke-width="3" stroke-linecap="round" stroke-linejoin="round"/>
<path d="M1545 128H1603C1606.87 128 1610 131.134 1610 135V187C1610 190.866 1606.87 194 1603 194H1545C1541.13 194 1538 190.866 1538 187V135C1538 131.134 1541.13 128 1545 128Z" fill="white"/>
<path d="M1545 128H1603C1606.87 128 1610 131.134 1610 135V187C1610 190.866 1606.87 194 1603 194H1545C1541.13 194 1538 190.866 1538 187V135C1538 131.134 1541.13 128 1545 128Z" stroke="#98ACC5" stroke-width="2"/>
<mask id="path-12-inside-1_1811_7327" fill="white">
<path d="M1539 135C1539 131.686 1541.69 129 1545 129H1603C1606.31 129 1609 131.686 1609 135V145H1539V135Z"/>
</mask>
<path d="M1539 135C1539 131.686 1541.69 129 1545 129H1603C1606.31 129 1609 131.686 1609 135V145H1539V135Z" fill="#ECF2FE"/>
<path d="M1539 129H1609H1539M1609 147H1539V143H1609V147ZM1609 143M1539 145V129V145M1539 145M1609 129V145V129" fill="#98ACC5" mask="url(#path-12-inside-1_1811_7327)"/>
<path d="M1549 156C1549 154.895 1549.9 154 1551 154H1559C1560.1 154 1561 154.895 1561 156V162C1561 163.105 1560.1 164 1559 164H1551C1549.9 164 1549 163.105 1549 162V156Z" fill="#EEF2F7"/>
<path d="M1568 156C1568 154.895 1568.9 154 1570 154H1578C1579.1 154 1580 154.895 1580 156V162C1580 163.105 1579.1 164 1578 164H1570C1568.9 164 1568 163.105 1568 162V156Z" fill="#EEF2F7"/>
<path d="M1587 156C1587 154.895 1587.9 154 1589 154H1597C1598.1 154 1599 154.895 1599 156V162C1599 163.105 1598.1 164 1597 164H1589C1587.9 164 1587 163.105 1587 162V156Z" fill="#EEF2F7"/>
<path d="M1549 174C1549 172.895 1549.9 172 1551 172H1559C1560.1 172 1561 172.895 1561 174V180C1561 181.105 1560.1 182 1559 182H1551C1549.9 182 1549 181.105 1549 180V174Z" fill="#EEF2F7"/>
<path d="M1568 174C1568 172.895 1568.9 172 1570 172H1578C1579.1 172 1580 172.895 1580 174V180C1580 181.105 1579.1 182 1578 182H1570C1568.9 182 1568 181.105 1568 180V174Z" fill="#EEF2F7"/>
<path d="M1587 174C1587 172.895 1587.9 172 1589 172H1597C1598.1 172 1599 172.895 1599 174V180C1599 181.105 1598.1 182 1597 182H1589C1587.9 182 1587 181.105 1587 180V174Z" fill="#EEF2F7"/>
<path d="M1557 122C1558.66 122 1560 123.343 1560 125V132C1560 133.657 1558.66 135 1557 135C1555.34 135 1554 133.657 1554 132V125C1554 123.343 1555.34 122 1557 122Z" fill="white" stroke="#98ACC5" stroke-width="2"/>
<path d="M1591 122C1592.66 122 1594 123.343 1594 125V132C1594 133.657 1592.66 135 1591 135C1589.34 135 1588 133.657 1588 132V125C1588 123.343 1589.34 122 1591 122Z" fill="white" stroke="#98ACC5" stroke-width="2"/>
<path d="M1492 69C1492 67.8954 1492.9 67 1494 67V67C1495.1 67 1496 67.8954 1496 69V81C1496 82.1046 1495.1 83 1494 83V83C1492.9 83 1492 82.1046 1492 81V69Z" fill="#D8E5FD"/>
<path d="M1500 73C1501.1 73 1502 73.8954 1502 75V75C1502 76.1046 1501.1 77 1500 77L1488 77C1486.9 77 1486 76.1046 1486 75V75C1486 73.8954 1486.9 73 1488 73L1500 73Z" fill="#D8E5FD"/>
<path d="M1186 39C1186 37.8954 1186.9 37 1188 37V37C1189.1 37 1190 37.8954 1190 39V51C1190 52.1046 1189.1 53 1188 53V53C1186.9 53 1186 52.1046 1186 51V39Z" fill="#D8E5FD"/>
<path d="M1194 43C1195.1 43 1196 43.8954 1196 45V45C1196 46.1046 1195.1 47 1194 47L1182 47C1180.9 47 1180 46.1046 1180 45V45C1180 43.8954 1180.9 43 1182 43L1194 43Z" fill="#D8E5FD"/>
<circle cx="1530.5" cy="64.5" r="2.5" fill="#D8E5FD"/>
<circle cx="1542.5" cy="64.5" r="2.5" fill="#D8E5FD"/>
<circle cx="1139.5" cy="126.5" r="2.5" transform="rotate(90 1139.5 126.5)" fill="#B1CEFB"/>
<circle cx="1139.5" cy="138.5" r="2.5" transform="rotate(90 1139.5 138.5)" fill="#B1CEFB"/>
<circle cx="1139.5" cy="150.5" r="2.5" transform="rotate(90 1139.5 150.5)" fill="#B1CEFB"/>
<g clip-path="url(#clip0_1811_7327)">
<path d="M1639.9 220.609C1640.01 220.516 1640.09 220.386 1640.12 220.243C1640.33 218.961 1640.94 217.779 1641.86 216.86C1642.78 215.941 1643.96 215.331 1645.24 215.116C1645.39 215.089 1645.52 215.013 1645.61 214.901C1645.7 214.789 1645.75 214.647 1645.75 214.501C1645.75 214.356 1645.7 214.214 1645.61 214.102C1645.52 213.99 1645.39 213.914 1645.24 213.887C1643.96 213.672 1642.78 213.062 1641.86 212.143C1640.94 211.224 1640.33 210.042 1640.12 208.76C1640.09 208.617 1640.01 208.487 1639.9 208.394C1639.79 208.301 1639.65 208.25 1639.5 208.25C1639.36 208.25 1639.21 208.301 1639.1 208.394C1638.99 208.487 1638.91 208.617 1638.89 208.76C1638.67 210.042 1638.06 211.224 1637.14 212.143C1636.22 213.062 1635.04 213.672 1633.76 213.887C1633.62 213.914 1633.49 213.99 1633.39 214.102C1633.3 214.214 1633.25 214.356 1633.25 214.501C1633.25 214.647 1633.3 214.789 1633.39 214.901C1633.49 215.013 1633.62 215.089 1633.76 215.116C1635.04 215.331 1636.22 215.941 1637.14 216.86C1638.06 217.779 1638.67 218.961 1638.89 220.243C1638.91 220.386 1638.99 220.516 1639.1 220.609C1639.21 220.702 1639.36 220.753 1639.5 220.753C1639.65 220.753 1639.79 220.702 1639.9 220.609Z" stroke="#D8E5FD" stroke-width="2" stroke-linecap="round" stroke-linejoin="round"/>
</g>
<defs>
<clipPath id="clip0_1811_7327">
<rect width="15" height="15" fill="white" transform="translate(1632 207)"/>
</clipPath>
</defs>
</svg>
