<svg width="1920" height="280" viewBox="0 0 1920 280" fill="none" xmlns="http://www.w3.org/2000/svg">
<rect width="1920" height="280" fill="#F3F7FF"/>
<circle cx="1376" cy="121" r="75.5" stroke="#D8E5FD" stroke-dasharray="2 2"/>
<circle cx="1376" cy="121" r="89.5" stroke="#B1CEFB" stroke-dasharray="2 2"/>
<g clip-path="url(#clip0_1843_26671)">
<g filter="url(#filter0_d_1843_26671)">
<circle cx="1376" cy="122" r="55" fill="#FAFCFF"/>
</g>
<path d="M1338.29 111.246C1338.05 110.449 1337.41 109.957 1336.48 109.957C1335.17 109.957 1334.28 110.965 1334.28 112.746C1334.28 114.539 1335.15 115.559 1336.5 115.559C1337.71 115.559 1338.43 114.873 1338.45 113.801H1336.61V112.477H1340.15V113.531C1340.15 115.758 1338.63 117.117 1336.48 117.117C1334.11 117.117 1332.49 115.453 1332.49 112.77C1332.49 110.016 1334.21 108.398 1336.45 108.398C1338.36 108.398 1339.84 109.57 1340.07 111.246H1338.29ZM1342.66 117L1340.93 110.637H1342.68L1343.68 114.938H1343.74L1344.78 110.637H1346.5L1347.56 114.914H1347.62L1348.6 110.637H1350.36L1348.61 117H1346.79L1345.68 112.957H1345.6L1344.5 117H1342.66ZM1350.93 115.219C1350.93 113.801 1352.08 113.332 1353.3 113.262C1353.76 113.232 1354.61 113.191 1354.88 113.18V112.664C1354.87 112.137 1354.51 111.82 1353.86 111.82C1353.28 111.82 1352.9 112.09 1352.81 112.523H1351.16C1351.26 111.422 1352.22 110.555 1353.91 110.555C1355.29 110.555 1356.61 111.176 1356.61 112.711V117H1354.96V116.121H1354.92C1354.6 116.707 1354 117.117 1353.05 117.117C1351.84 117.117 1350.93 116.484 1350.93 115.219ZM1352.6 115.172C1352.6 115.664 1353 115.922 1353.55 115.922C1354.33 115.922 1354.89 115.395 1354.88 114.727V114.258C1354.62 114.27 1353.88 114.311 1353.58 114.34C1352.98 114.398 1352.6 114.68 1352.6 115.172ZM1359.66 113.32V117H1357.93V110.637H1359.58V111.75H1359.65C1359.95 111.012 1360.62 110.555 1361.56 110.555C1362.89 110.555 1363.77 111.457 1363.75 112.945V117H1362.03V113.25C1362.03 112.465 1361.6 111.996 1360.88 111.996C1360.16 111.996 1359.66 112.477 1359.66 113.32ZM1367.96 119.52C1366.2 119.52 1365.12 118.734 1365.02 117.527H1366.73C1366.82 118.031 1367.3 118.266 1368 118.266C1368.8 118.266 1369.34 117.926 1369.34 117.035V115.875H1369.26C1369.03 116.391 1368.46 116.906 1367.45 116.906C1366 116.906 1364.86 115.898 1364.86 113.777C1364.86 111.621 1366.04 110.555 1367.45 110.555C1368.51 110.555 1369.03 111.188 1369.26 111.703H1369.33V110.637H1371.05V117.07C1371.05 118.688 1369.77 119.52 1367.96 119.52ZM1367.98 115.605C1368.85 115.605 1369.34 114.926 1369.34 113.801C1369.34 112.664 1368.85 111.938 1367.98 111.938C1367.11 111.938 1366.64 112.699 1366.64 113.801C1366.64 114.902 1367.11 115.605 1367.98 115.605ZM1375.2 108.516H1377.38L1379.74 114.27H1379.83L1382.19 108.516H1384.37V117H1382.66V111.445H1382.59L1380.37 116.965H1379.2L1376.98 111.422H1376.91V117H1375.2V108.516ZM1386.78 119.391C1386.44 119.391 1386.12 119.379 1385.9 119.355V118.008C1386.12 118.02 1386.38 118.031 1386.61 118.031C1386.95 118.031 1387.23 117.996 1387.44 117.445L1387.54 117.176L1385.26 110.637H1387.07L1388.41 115.324H1388.48L1389.83 110.637H1391.67L1389.18 117.703C1388.82 118.723 1388.13 119.391 1386.78 119.391ZM1395.18 117.129C1393.24 117.129 1392.04 115.863 1392.04 113.848C1392.04 111.879 1393.25 110.555 1395.11 110.555C1396.79 110.555 1398.1 111.609 1398.1 113.777V114.27H1393.75C1393.75 115.23 1394.33 115.828 1395.22 115.828C1395.8 115.828 1396.23 115.57 1396.4 115.184H1398.05C1397.81 116.355 1396.75 117.129 1395.18 117.129ZM1393.75 113.18H1396.46C1396.46 112.406 1395.92 111.855 1395.15 111.855C1394.35 111.855 1393.78 112.447 1393.75 113.18ZM1402.05 117.129C1400.13 117.129 1398.93 115.805 1398.93 113.836C1398.93 111.867 1400.13 110.555 1402.05 110.555C1403.97 110.555 1405.18 111.867 1405.18 113.836C1405.18 115.805 1403.97 117.129 1402.05 117.129ZM1402.06 115.781C1402.95 115.781 1403.41 114.949 1403.41 113.836C1403.41 112.711 1402.95 111.879 1402.06 111.879C1401.16 111.879 1400.69 112.711 1400.69 113.836C1400.69 114.949 1401.16 115.781 1402.06 115.781ZM1408 113.32V117H1406.27V110.637H1407.92V111.75H1407.99C1408.29 111.012 1408.96 110.555 1409.9 110.555C1411.23 110.555 1412.11 111.457 1412.09 112.945V117H1410.37V113.25C1410.37 112.465 1409.94 111.996 1409.22 111.996C1408.5 111.996 1408 112.477 1408 113.32ZM1416.3 119.52C1414.54 119.52 1413.46 118.734 1413.36 117.527H1415.07C1415.16 118.031 1415.64 118.266 1416.34 118.266C1417.14 118.266 1417.68 117.926 1417.68 117.035V115.875H1417.6C1417.37 116.391 1416.8 116.906 1415.79 116.906C1414.34 116.906 1413.2 115.898 1413.2 113.777C1413.2 111.621 1414.38 110.555 1415.79 110.555C1416.85 110.555 1417.37 111.188 1417.6 111.703H1417.67V110.637H1419.39V117.07C1419.39 118.688 1418.11 119.52 1416.3 119.52ZM1416.32 115.605C1417.19 115.605 1417.68 114.926 1417.68 113.801C1417.68 112.664 1417.19 111.938 1416.32 111.938C1415.45 111.938 1414.98 112.699 1414.98 113.801C1414.98 114.902 1415.45 115.605 1416.32 115.605ZM1331.49 128.941C1331.42 128.273 1330.88 127.875 1330.03 127.875C1329.14 127.875 1328.64 128.285 1328.63 128.848C1328.62 129.457 1329.27 129.738 1329.99 129.902L1330.75 130.09C1332.21 130.418 1333.3 131.156 1333.3 132.574C1333.3 134.133 1332.08 135.117 1330.02 135.117C1327.96 135.117 1326.65 134.168 1326.61 132.352H1328.32C1328.38 133.207 1329.05 133.641 1329.99 133.641C1330.92 133.641 1331.52 133.207 1331.52 132.574C1331.52 132 1330.99 131.73 1330.06 131.496L1329.14 131.273C1327.71 130.922 1326.83 130.207 1326.83 128.965C1326.83 127.418 1328.19 126.398 1330.04 126.398C1331.91 126.398 1333.16 127.441 1333.18 128.941H1331.49ZM1334.41 135V128.637H1336.06V129.75H1336.13C1336.4 129.012 1337.05 128.555 1337.9 128.555C1338.78 128.555 1339.43 129.012 1339.64 129.75H1339.7C1339.96 129.023 1340.68 128.555 1341.62 128.555C1342.8 128.555 1343.62 129.34 1343.62 130.723V135H1341.89V131.062C1341.89 130.336 1341.46 129.984 1340.89 129.984C1340.23 129.984 1339.86 130.441 1339.86 131.109V135H1338.17V131.016C1338.17 130.383 1337.77 129.984 1337.19 129.984C1336.6 129.984 1336.14 130.453 1336.14 131.18V135H1334.41ZM1344.65 133.219C1344.65 131.801 1345.8 131.332 1347.02 131.262C1347.48 131.232 1348.33 131.191 1348.6 131.18V130.664C1348.59 130.137 1348.23 129.82 1347.58 129.82C1347 129.82 1346.62 130.09 1346.53 130.523H1344.88C1344.98 129.422 1345.94 128.555 1347.63 128.555C1349.01 128.555 1350.32 129.176 1350.32 130.711V135H1348.68V134.121H1348.64C1348.32 134.707 1347.72 135.117 1346.77 135.117C1345.55 135.117 1344.65 134.484 1344.65 133.219ZM1346.32 133.172C1346.32 133.664 1346.71 133.922 1347.27 133.922C1348.05 133.922 1348.61 133.395 1348.6 132.727V132.258C1348.34 132.27 1347.6 132.311 1347.3 132.34C1346.7 132.398 1346.32 132.68 1346.32 133.172ZM1351.65 135V128.637H1353.32V129.738H1353.39C1353.63 128.953 1354.21 128.543 1354.93 128.543C1355.11 128.543 1355.33 128.566 1355.48 128.602V130.148C1355.32 130.102 1354.99 130.055 1354.74 130.055C1353.96 130.055 1353.38 130.605 1353.38 131.379V135H1351.65ZM1359.99 128.637V129.938H1358.8V133.043C1358.8 133.547 1359.04 133.676 1359.39 133.688C1359.57 133.688 1359.88 133.676 1360.09 133.652V135.023C1359.9 135.059 1359.59 135.082 1359.16 135.082C1357.91 135.082 1357.05 134.52 1357.06 133.289V129.938H1356.18V128.637H1357.06V127.113H1358.8V128.637H1359.99ZM1366.87 135H1363.88V126.516H1366.91C1369.46 126.516 1371.02 128.109 1371.02 130.746C1371.02 133.406 1369.46 135 1366.87 135ZM1365.64 133.488H1366.8C1368.42 133.488 1369.26 132.645 1369.26 130.746C1369.26 128.859 1368.42 128.027 1366.81 128.027H1365.64V133.488ZM1371.96 133.219C1371.96 131.801 1373.11 131.332 1374.32 131.262C1374.78 131.232 1375.64 131.191 1375.91 131.18V130.664C1375.89 130.137 1375.53 129.82 1374.89 129.82C1374.3 129.82 1373.93 130.09 1373.83 130.523H1372.18C1372.29 129.422 1373.25 128.555 1374.93 128.555C1376.32 128.555 1377.63 129.176 1377.63 130.711V135H1375.99V134.121H1375.94C1375.62 134.707 1375.03 135.117 1374.08 135.117C1372.86 135.117 1371.96 134.484 1371.96 133.219ZM1373.62 133.172C1373.62 133.664 1374.02 133.922 1374.57 133.922C1375.36 133.922 1375.92 133.395 1375.91 132.727V132.258C1375.64 132.27 1374.9 132.311 1374.61 132.34C1374.01 132.398 1373.62 132.68 1373.62 133.172ZM1382.3 128.637V129.938H1381.11V133.043C1381.11 133.547 1381.36 133.676 1381.71 133.688C1381.88 133.688 1382.19 133.676 1382.4 133.652V135.023C1382.21 135.059 1381.91 135.082 1381.47 135.082C1380.22 135.082 1379.36 134.52 1379.38 133.289V129.938H1378.5V128.637H1379.38V127.113H1381.11V128.637H1382.3ZM1383.09 133.219C1383.09 131.801 1384.24 131.332 1385.46 131.262C1385.91 131.232 1386.77 131.191 1387.04 131.18V130.664C1387.03 130.137 1386.66 129.82 1386.02 129.82C1385.43 129.82 1385.06 130.09 1384.96 130.523H1383.31C1383.42 129.422 1384.38 128.555 1386.07 128.555C1387.45 128.555 1388.76 129.176 1388.76 130.711V135H1387.12V134.121H1387.07C1386.76 134.707 1386.16 135.117 1385.21 135.117C1383.99 135.117 1383.09 134.484 1383.09 133.219ZM1384.75 133.172C1384.75 133.664 1385.15 133.922 1385.7 133.922C1386.49 133.922 1387.05 133.395 1387.04 132.727V132.258C1386.78 132.27 1386.04 132.311 1385.74 132.34C1385.14 132.398 1384.75 132.68 1384.75 133.172ZM1392.89 135V126.516H1396.21C1398.15 126.516 1399.25 127.699 1399.25 129.375C1399.25 131.074 1398.12 132.234 1396.17 132.234H1394.64V135H1392.89ZM1394.64 130.816H1395.89C1396.93 130.816 1397.43 130.23 1397.43 129.375C1397.43 128.531 1396.93 127.957 1395.89 127.957H1394.64V130.816ZM1403.08 135.129C1401.16 135.129 1399.96 133.805 1399.96 131.836C1399.96 129.867 1401.16 128.555 1403.08 128.555C1405 128.555 1406.21 129.867 1406.21 131.836C1406.21 133.805 1405 135.129 1403.08 135.129ZM1403.09 133.781C1403.98 133.781 1404.44 132.949 1404.44 131.836C1404.44 130.711 1403.98 129.879 1403.09 129.879C1402.19 129.879 1401.72 130.711 1401.72 131.836C1401.72 132.949 1402.19 133.781 1403.09 133.781ZM1407.3 135V128.637H1408.98V129.738H1409.05C1409.28 128.953 1409.87 128.543 1410.58 128.543C1410.76 128.543 1410.98 128.566 1411.13 128.602V130.148C1410.97 130.102 1410.64 130.055 1410.39 130.055C1409.61 130.055 1409.04 130.605 1409.04 131.379V135H1407.3ZM1415.64 128.637V129.938H1414.45V133.043C1414.45 133.547 1414.7 133.676 1415.05 133.688C1415.22 133.688 1415.53 133.676 1415.74 133.652V135.023C1415.55 135.059 1415.25 135.082 1414.81 135.082C1413.56 135.082 1412.7 134.52 1412.71 133.289V129.938H1411.84V128.637H1412.71V127.113H1414.45V128.637H1415.64ZM1416.43 133.219C1416.43 131.801 1417.58 131.332 1418.8 131.262C1419.25 131.232 1420.11 131.191 1420.38 131.18V130.664C1420.37 130.137 1420 129.82 1419.36 129.82C1418.77 129.82 1418.4 130.09 1418.3 130.523H1416.65C1416.76 129.422 1417.72 128.555 1419.41 128.555C1420.79 128.555 1422.1 129.176 1422.1 130.711V135H1420.46V134.121H1420.41C1420.1 134.707 1419.5 135.117 1418.55 135.117C1417.33 135.117 1416.43 134.484 1416.43 133.219ZM1418.09 133.172C1418.09 133.664 1418.49 133.922 1419.04 133.922C1419.83 133.922 1420.39 133.395 1420.38 132.727V132.258C1420.12 132.27 1419.38 132.311 1419.08 132.34C1418.48 132.398 1418.09 132.68 1418.09 133.172ZM1425.16 126.516V135H1423.43V126.516H1425.16Z" fill="#063A74"/>
</g>
<circle cx="1622" cy="78" r="12.5" stroke="#B1CEFB"/>
<path d="M1618.67 83.8333C1617.95 83.8349 1617.26 83.6066 1616.68 83.182C1616.11 82.7574 1615.68 82.1591 1615.47 81.4754C1615.26 80.7917 1615.28 80.0588 1615.52 79.385C1615.76 78.7112 1616.21 78.1321 1616.8 77.7333C1616.44 77.2762 1616.22 76.7194 1616.17 76.1356C1616.13 75.5518 1616.26 74.9679 1616.55 74.4599C1616.84 73.952 1617.28 73.5434 1617.8 73.2875C1618.33 73.0316 1618.92 72.9401 1619.5 73.025V73C1619.5 72.337 1619.77 71.7011 1620.23 71.2322C1620.7 70.7634 1621.34 70.5 1622 70.5C1622.67 70.5 1623.3 70.7634 1623.77 71.2322C1624.24 71.7011 1624.5 72.337 1624.5 73V73.0333C1625.08 72.9484 1625.67 73.0399 1626.2 73.2958C1626.73 73.5518 1627.16 73.9603 1627.46 74.4683C1627.75 74.9762 1627.88 75.5601 1627.83 76.1439C1627.79 76.7278 1627.57 77.2845 1627.2 77.7417C1627.79 78.1418 1628.24 78.7204 1628.47 79.3926C1628.71 80.0648 1628.73 80.7952 1628.52 81.4766C1628.31 82.158 1627.89 82.7546 1627.31 83.1787C1626.74 83.6029 1626.05 83.8323 1625.34 83.8333H1618.67Z" fill="#D8E5FD" stroke="#B1CEFB" stroke-width="0.833333" stroke-linecap="round" stroke-linejoin="round"/>
<path d="M1622 83.832V86.332" stroke="#B1CEFB" stroke-width="0.833333" stroke-linecap="round" stroke-linejoin="round"/>
<circle cx="1128" cy="111" r="12.5" stroke="#B1CEFB"/>
<path d="M1124.67 115.833C1123.95 115.835 1123.26 115.607 1122.68 115.182C1122.11 114.757 1121.68 114.159 1121.47 113.475C1121.26 112.792 1121.28 112.059 1121.52 111.385C1121.76 110.711 1122.21 110.132 1122.8 109.733C1122.44 109.276 1122.22 108.719 1122.17 108.136C1122.13 107.552 1122.26 106.968 1122.55 106.46C1122.84 105.952 1123.28 105.543 1123.8 105.288C1124.33 105.032 1124.92 104.94 1125.5 105.025V105C1125.5 104.337 1125.77 103.701 1126.23 103.232C1126.7 102.763 1127.34 102.5 1128 102.5C1128.67 102.5 1129.3 102.763 1129.77 103.232C1130.24 103.701 1130.5 104.337 1130.5 105V105.033C1131.08 104.948 1131.67 105.04 1132.2 105.296C1132.73 105.552 1133.16 105.96 1133.46 106.468C1133.75 106.976 1133.88 107.56 1133.83 108.144C1133.79 108.728 1133.57 109.284 1133.2 109.742C1133.79 110.142 1134.24 110.72 1134.47 111.393C1134.71 112.065 1134.73 112.795 1134.52 113.477C1134.31 114.158 1133.89 114.755 1133.31 115.179C1132.74 115.603 1132.05 115.832 1131.34 115.833H1124.67Z" fill="#D8E5FD" stroke="#B1CEFB" stroke-linecap="round" stroke-linejoin="round"/>
<path d="M1128 115.832V118.332" stroke="#B1CEFB" stroke-linecap="round" stroke-linejoin="round"/>
<circle cx="1572" cy="119" r="12.5" stroke="#B1CEFB"/>
<path d="M1569.57 122.832C1568.08 120.215 1567.4 114.785 1576.59 114C1577.02 117.489 1576.21 124.14 1569.57 122.832Z" fill="#D8E5FD" stroke="#B1CEFB"/>
<path d="M1567.04 125.488C1566.91 125.589 1566.76 125.633 1566.6 125.608C1566.44 125.582 1566.3 125.488 1566.2 125.351C1566.1 125.214 1566.06 125.046 1566.09 124.889C1566.11 124.732 1566.2 124.599 1566.34 124.514C1566.34 124.514 1566.34 124.514 1566.34 124.514C1566.47 124.433 1566.61 124.34 1566.74 124.249C1569.11 122.501 1571.69 120.662 1573.08 117.987C1573.13 117.834 1573.18 117.664 1573.19 117.5C1573.2 117.665 1573.17 117.841 1573.14 118.004C1572.04 120.91 1569.68 123.047 1567.44 125.15C1567.31 125.263 1567.17 125.38 1567.04 125.488Z" fill="#B1CEFB"/>
<circle cx="1607" cy="192" r="12.5" stroke="#B1CEFB"/>
<path d="M1611.17 193.667L1613.67 196.417C1613.78 196.533 1613.86 196.681 1613.89 196.841C1613.92 197.001 1613.9 197.167 1613.84 197.317C1613.78 197.468 1613.67 197.597 1613.54 197.689C1613.4 197.781 1613.25 197.831 1613.08 197.833H1600.92C1600.75 197.831 1600.59 197.781 1600.46 197.689C1600.32 197.597 1600.22 197.468 1600.16 197.317C1600.09 197.167 1600.08 197.001 1600.11 196.841C1600.14 196.681 1600.22 196.533 1600.33 196.417L1602.83 193.667H1602.58C1602.42 193.664 1602.26 193.614 1602.13 193.523C1601.99 193.431 1601.89 193.302 1601.82 193.151C1601.76 193 1601.74 192.834 1601.78 192.674C1601.81 192.514 1601.88 192.366 1602 192.25L1604.5 189.5H1604.33C1604.16 189.515 1603.99 189.478 1603.84 189.393C1603.69 189.308 1603.58 189.18 1603.5 189.025C1603.43 188.87 1603.41 188.697 1603.44 188.529C1603.46 188.36 1603.55 188.205 1603.67 188.083L1607 184.5L1610.33 188.083C1610.45 188.205 1610.53 188.36 1610.56 188.529C1610.59 188.697 1610.57 188.87 1610.49 189.025C1610.42 189.18 1610.3 189.308 1610.15 189.393C1610.01 189.478 1609.84 189.515 1609.67 189.5H1609.5L1612 192.25C1612.11 192.366 1612.19 192.514 1612.22 192.674C1612.25 192.834 1612.24 193 1612.17 193.151C1612.11 193.302 1612.01 193.431 1611.87 193.523C1611.74 193.614 1611.58 193.664 1611.42 193.667H1611.17Z" stroke="#B1CEFB" stroke-linecap="round" stroke-linejoin="round"/>
<path d="M1607 200.332V197.832" stroke="#B1CEFB" stroke-linecap="round" stroke-linejoin="round"/>
<circle cx="1242" cy="238" r="12.5" stroke="#B1CEFB"/>
<path d="M1240.67 238H1243.33" stroke="#B1CEFB" stroke-width="0.666667" stroke-linecap="round" stroke-linejoin="round"/>
<path d="M1240.67 235.332H1243.33" stroke="#B1CEFB" stroke-width="0.666667" stroke-linecap="round" stroke-linejoin="round"/>
<path d="M1243.33 244.001V242.001C1243.33 241.648 1243.19 241.309 1242.94 241.058C1242.69 240.808 1242.35 240.668 1242 240.668C1241.65 240.668 1241.31 240.808 1241.06 241.058C1240.81 241.309 1240.67 241.648 1240.67 242.001V244.001" stroke="#B1CEFB" stroke-width="0.666667" stroke-linecap="round" stroke-linejoin="round"/>
<path d="M1237.85 236.929H1237.2C1236.88 236.929 1236.58 237.064 1236.35 237.305C1236.13 237.546 1236 237.873 1236 238.214V242.714C1236 243.055 1236.13 243.382 1236.35 243.623C1236.58 243.865 1236.88 244 1237.2 244H1246.8C1247.12 244 1247.42 243.865 1247.65 243.623C1247.87 243.382 1248 243.055 1248 242.714V236.286C1248 235.945 1247.87 235.618 1247.65 235.377C1247.42 235.135 1247.12 235 1246.8 235H1246" stroke="#B1CEFB" stroke-width="0.666667" stroke-linecap="round" stroke-linejoin="round"/>
<path d="M1238 244V233.333C1238 232.98 1238.14 232.641 1238.39 232.391C1238.64 232.14 1238.98 232 1239.33 232H1244.67C1245.02 232 1245.36 232.14 1245.61 232.391C1245.86 232.641 1246 232.98 1246 233.333V244" stroke="#B1CEFB" stroke-width="0.666667" stroke-linecap="round" stroke-linejoin="round"/>
<circle cx="1172" cy="109" r="2" fill="#86AFF9"/>
<circle cx="1157" cy="201" r="2" fill="#86AFF9"/>
<circle cx="1293" cy="259" r="2" fill="#D8E5FD"/>
<circle cx="1293" cy="258" r="3" fill="#D8E5FD"/>
<circle cx="1581" cy="50" r="2" fill="#86AFF9"/>
<circle cx="1635" cy="150" r="2" fill="#86AFF9"/>
<circle cx="1555" cy="236" r="2" fill="#86AFF9"/>
<circle cx="1435" cy="212" r="2" fill="#86AFF9"/>
<circle cx="1248" cy="122" r="3" fill="#86AFF9"/>
<circle cx="1416" cy="41" r="4" fill="#4C87F6"/>
<path d="M1267 56H1279.8C1280.25 56 1280.69 56.1552 1281.05 56.4398L1328.5 94.5" stroke="#4C87F6" stroke-width="1.2" stroke-linecap="round"/>
<path d="M1257 162.5H1270.06C1270.35 162.5 1270.64 162.436 1270.9 162.312L1323 138" stroke="#4C87F6" stroke-width="1.2" stroke-linecap="round"/>
<path d="M1481 164.5H1468C1467.67 164.5 1467.35 164.418 1467.06 164.262L1427.5 143" stroke="#4C87F6" stroke-width="1.2" stroke-linecap="round"/>
<g filter="url(#filter1_d_1843_26671)">
<path d="M1199 149C1199 142.373 1204.37 137 1211 137H1253C1259.63 137 1265 142.373 1265 149V191C1265 197.627 1259.63 203 1253 203H1211C1204.37 203 1199 197.627 1199 191V149Z" fill="white" shape-rendering="crispEdges"/>
<path d="M1211 137.5H1253C1259.35 137.5 1264.5 142.649 1264.5 149V191C1264.5 197.351 1259.35 202.5 1253 202.5H1211C1204.65 202.5 1199.5 197.351 1199.5 191V149C1199.5 142.649 1204.65 137.5 1211 137.5Z" stroke="#D6E0EB" shape-rendering="crispEdges"/>
<path d="M1249 179C1249 184 1245.5 186.5 1241.34 187.95C1241.12 188.024 1240.89 188.021 1240.67 187.94C1236.5 186.5 1233 184 1233 179V172C1233 171.735 1233.11 171.481 1233.29 171.293C1233.48 171.106 1233.73 171 1234 171C1236 171 1238.5 169.8 1240.24 168.28C1240.45 168.099 1240.72 168 1241 168C1241.28 168 1241.55 168.099 1241.76 168.28C1243.51 169.81 1246 171 1248 171C1248.27 171 1248.52 171.106 1248.71 171.293C1248.89 171.481 1249 171.735 1249 172V179Z" stroke="#052561" stroke-width="1.6" stroke-linecap="round" stroke-linejoin="round"/>
<path d="M1238 178L1240 180L1244 176" stroke="#052561" stroke-width="1.6" stroke-linecap="round" stroke-linejoin="round"/>
<path d="M1242 164V154C1242 152.895 1241.1 152 1240 152H1217C1215.9 152 1215 152.895 1215 154V186C1215 187.105 1215.9 188 1217 188H1232.5" stroke="#052561" stroke-width="1.6" stroke-linecap="round"/>
<path d="M1237 157H1221C1220.45 157 1220 157.448 1220 158V162C1220 162.552 1220.45 163 1221 163H1237" stroke="#052561" stroke-width="1.6" stroke-linecap="round"/>
<path d="M1220 169H1229" stroke="#052561" stroke-width="1.6" stroke-linecap="round"/>
<path d="M1220 174H1229" stroke="#052561" stroke-width="1.6" stroke-linecap="round"/>
<path d="M1220 179H1229" stroke="#052561" stroke-width="1.6" stroke-linecap="round"/>
</g>
<g filter="url(#filter2_d_1843_26671)">
<path d="M1479 151C1479 144.373 1484.37 139 1491 139H1533C1539.63 139 1545 144.373 1545 151V193C1545 199.627 1539.63 205 1533 205H1491C1484.37 205 1479 199.627 1479 193V151Z" fill="white" shape-rendering="crispEdges"/>
<path d="M1491 139.5H1533C1539.35 139.5 1544.5 144.649 1544.5 151V193C1544.5 199.351 1539.35 204.5 1533 204.5H1491C1484.65 204.5 1479.5 199.351 1479.5 193V151C1479.5 144.649 1484.65 139.5 1491 139.5Z" stroke="#D6E0EB" shape-rendering="crispEdges"/>
<path d="M1518 172.8H1521C1526.08 172.8 1530.2 176.919 1530.2 182V183C1530.2 183.663 1529.66 184.2 1529 184.2H1508.8V182C1508.8 176.919 1512.92 172.8 1518 172.8Z" fill="white" stroke="#052561" stroke-width="1.6"/>
<circle cx="1519.5" cy="165.5" r="5.7" stroke="#052561" stroke-width="1.6"/>
<circle cx="1504.5" cy="165.5" r="5.7" stroke="#052561" stroke-width="1.6"/>
<path d="M1503 172.8H1506C1511.08 172.8 1515.2 176.919 1515.2 182V183C1515.2 183.663 1514.66 184.2 1514 184.2H1495C1494.34 184.2 1493.8 183.663 1493.8 183V182C1493.8 176.919 1497.92 172.8 1503 172.8Z" fill="white" stroke="#052561" stroke-width="1.6"/>
</g>
<g filter="url(#filter3_d_1843_26671)">
<path d="M1201 35C1201 28.3726 1206.37 23 1213 23H1255C1261.63 23 1267 28.3726 1267 35V77C1267 83.6274 1261.63 89 1255 89H1213C1206.37 89 1201 83.6274 1201 77V35Z" fill="white" shape-rendering="crispEdges"/>
<path d="M1213 23.5H1255C1261.35 23.5 1266.5 28.6487 1266.5 35V77C1266.5 83.3513 1261.35 88.5 1255 88.5H1213C1206.65 88.5 1201.5 83.3513 1201.5 77V35C1201.5 28.6487 1206.65 23.5 1213 23.5Z" stroke="#D6E0EB" shape-rendering="crispEdges"/>
<path d="M1251.25 55.4103V42.582" stroke="#052561" stroke-width="1.6" stroke-linecap="round" stroke-linejoin="round"/>
<path d="M1253.17 75.168L1249.57 71.5742" stroke="#052561" stroke-width="1.6" stroke-linecap="round" stroke-linejoin="round"/>
<path d="M1216.75 56C1216.75 57.4914 1218.49 58.9244 1221.6 59.9965C1224.71 61.0686 1228.95 61.696 1233.42 61.7462" stroke="#052561" stroke-width="1.6" stroke-linecap="round" stroke-linejoin="round"/>
<path d="M1216.75 42.582V69.4154C1216.75 70.1856 1217.21 70.948 1218.11 71.6573C1219.01 72.3666 1220.33 73.0084 1221.99 73.5446C1223.65 74.0807 1225.62 74.5003 1227.77 74.7784C1229.93 75.0565 1232.23 75.1874 1234.54 75.1634" stroke="#052561" stroke-width="1.6" stroke-linecap="round" stroke-linejoin="round"/>
<path d="M1245.5 73.25C1248.68 73.25 1251.25 70.6756 1251.25 67.5C1251.25 64.3244 1248.68 61.75 1245.5 61.75C1242.32 61.75 1239.75 64.3244 1239.75 67.5C1239.75 70.6756 1242.32 73.25 1245.5 73.25Z" stroke="#052561" stroke-width="1.6" stroke-linecap="round" stroke-linejoin="round"/>
<path d="M1234 48.332C1243.53 48.332 1251.25 45.7577 1251.25 42.582C1251.25 39.4064 1243.53 36.832 1234 36.832C1224.47 36.832 1216.75 39.4064 1216.75 42.582C1216.75 45.7577 1224.47 48.332 1234 48.332Z" stroke="#052561" stroke-width="1.6" stroke-linecap="round" stroke-linejoin="round"/>
</g>
<line x1="1375.5" y1="178.5" x2="1375.5" y2="205.5" stroke="#4C87F6" stroke-linecap="round"/>
<g filter="url(#filter4_d_1843_26671)">
<path d="M1343 215C1343 208.373 1348.37 203 1355 203H1397C1403.63 203 1409 208.373 1409 215V257C1409 263.627 1403.63 269 1397 269H1355C1348.37 269 1343 263.627 1343 257V215Z" fill="white" shape-rendering="crispEdges"/>
<path d="M1355 203.5H1397C1403.35 203.5 1408.5 208.649 1408.5 215V257C1408.5 263.351 1403.35 268.5 1397 268.5H1355C1348.65 268.5 1343.5 263.351 1343.5 257V215C1343.5 208.649 1348.65 203.5 1355 203.5Z" stroke="#D6E0EB" shape-rendering="crispEdges"/>
<path d="M1372.45 237.856L1363.18 238.315C1363 238.324 1362.9 238.114 1363.02 237.982L1371.2 228.844L1379.72 218.903C1379.85 218.748 1380.1 218.869 1380.07 219.07L1377.74 231.633C1377.72 231.756 1377.81 231.869 1377.94 231.869L1387.9 231.869C1388.07 231.869 1388.16 232.071 1388.05 232.2L1370.19 252.776C1370.05 252.93 1369.8 252.808 1369.84 252.607L1372.65 238.094C1372.68 237.966 1372.57 237.85 1372.45 237.856Z" stroke="#052561" stroke-width="1.6" stroke-linecap="round"/>
</g>
<circle cx="1375.5" cy="190.5" r="2.5" fill="#4C87F6"/>
<path d="M1477.5 49H1465.86C1465.31 49 1464.79 49.2272 1464.41 49.628L1456.75 57.75L1423 91.5" stroke="#4C87F6" stroke-width="1.2" stroke-linecap="round"/>
<g filter="url(#filter5_d_1843_26671)">
<path d="M1477 35C1477 28.3726 1482.37 23 1489 23H1531C1537.63 23 1543 28.3726 1543 35V77C1543 83.6274 1537.63 89 1531 89H1489C1482.37 89 1477 83.6274 1477 77V35Z" fill="white" shape-rendering="crispEdges"/>
<path d="M1489 23.5H1531C1537.35 23.5 1542.5 28.6487 1542.5 35V77C1542.5 83.3513 1537.35 88.5 1531 88.5H1489C1482.65 88.5 1477.5 83.3513 1477.5 77V35C1477.5 28.6487 1482.65 23.5 1489 23.5Z" stroke="#D6E0EB" shape-rendering="crispEdges"/>
<path d="M1516.59 57.6551L1503.8 52.2266L1491.47 57.4546C1491.19 57.5762 1491 57.8573 1491 58.1685V74.7406C1491 75.2875 1491.55 75.6626 1492.06 75.4621L1503.8 70.8388M1503.8 52.2266V70.8388M1516.59 57.6551L1527.91 52.7018C1528.43 52.4777 1529 52.8531 1529 53.4123V70.3168C1529 70.6324 1528.81 70.9165 1528.52 71.0353L1516.59 75.8796L1503.8 70.8388M1516.59 75.8796V57.6551" stroke="#052561" stroke-width="1.6" stroke-linecap="round"/>
<path d="M1519.77 48.5705C1519.77 54.4218 1513.69 60.5156 1511.64 62.3977C1511.45 62.5504 1511.22 62.633 1510.98 62.633C1510.75 62.633 1510.51 62.5504 1510.32 62.3977C1508.28 60.5156 1502.2 54.4218 1502.2 48.5705C1502.2 46.084 1503.12 43.6994 1504.77 41.9412C1506.42 40.1831 1508.65 39.1953 1510.98 39.1953C1513.32 39.1953 1515.55 40.1831 1517.2 41.9412C1518.85 43.6994 1519.77 46.084 1519.77 48.5705Z" fill="#D3EBFD" stroke="#052561" stroke-width="1.6" stroke-linecap="round" stroke-linejoin="round"/>
<path d="M1510.99 51.6446C1513.01 51.6446 1514.65 50.005 1514.65 47.9824C1514.65 45.9599 1513.01 44.3203 1510.99 44.3203C1508.96 44.3203 1507.32 45.9599 1507.32 47.9824C1507.32 50.005 1508.96 51.6446 1510.99 51.6446Z" fill="white" stroke="#052561" stroke-width="1.6" stroke-linecap="round" stroke-linejoin="round"/>
</g>
<defs>
<filter id="filter0_d_1843_26671" x="1317" y="67" width="118" height="118" filterUnits="userSpaceOnUse" color-interpolation-filters="sRGB">
<feFlood flood-opacity="0" result="BackgroundImageFix"/>
<feColorMatrix in="SourceAlpha" type="matrix" values="0 0 0 0 0 0 0 0 0 0 0 0 0 0 0 0 0 0 127 0" result="hardAlpha"/>
<feOffset dy="4"/>
<feGaussianBlur stdDeviation="2"/>
<feComposite in2="hardAlpha" operator="out"/>
<feColorMatrix type="matrix" values="0 0 0 0 0 0 0 0 0 0 0 0 0 0 0 0 0 0 0.03 0"/>
<feBlend mode="normal" in2="BackgroundImageFix" result="effect1_dropShadow_1843_26671"/>
<feBlend mode="normal" in="SourceGraphic" in2="effect1_dropShadow_1843_26671" result="shape"/>
</filter>
<filter id="filter1_d_1843_26671" x="1193" y="131" width="82" height="82" filterUnits="userSpaceOnUse" color-interpolation-filters="sRGB">
<feFlood flood-opacity="0" result="BackgroundImageFix"/>
<feColorMatrix in="SourceAlpha" type="matrix" values="0 0 0 0 0 0 0 0 0 0 0 0 0 0 0 0 0 0 127 0" result="hardAlpha"/>
<feOffset dx="2" dy="2"/>
<feGaussianBlur stdDeviation="4"/>
<feComposite in2="hardAlpha" operator="out"/>
<feColorMatrix type="matrix" values="0 0 0 0 0.246995 0 0 0 0 0.308504 0 0 0 0 0.375 0 0 0 0.24 0"/>
<feBlend mode="normal" in2="BackgroundImageFix" result="effect1_dropShadow_1843_26671"/>
<feBlend mode="normal" in="SourceGraphic" in2="effect1_dropShadow_1843_26671" result="shape"/>
</filter>
<filter id="filter2_d_1843_26671" x="1473" y="133" width="82" height="82" filterUnits="userSpaceOnUse" color-interpolation-filters="sRGB">
<feFlood flood-opacity="0" result="BackgroundImageFix"/>
<feColorMatrix in="SourceAlpha" type="matrix" values="0 0 0 0 0 0 0 0 0 0 0 0 0 0 0 0 0 0 127 0" result="hardAlpha"/>
<feOffset dx="2" dy="2"/>
<feGaussianBlur stdDeviation="4"/>
<feComposite in2="hardAlpha" operator="out"/>
<feColorMatrix type="matrix" values="0 0 0 0 0.246995 0 0 0 0 0.308504 0 0 0 0 0.375 0 0 0 0.24 0"/>
<feBlend mode="normal" in2="BackgroundImageFix" result="effect1_dropShadow_1843_26671"/>
<feBlend mode="normal" in="SourceGraphic" in2="effect1_dropShadow_1843_26671" result="shape"/>
</filter>
<filter id="filter3_d_1843_26671" x="1195" y="17" width="82" height="82" filterUnits="userSpaceOnUse" color-interpolation-filters="sRGB">
<feFlood flood-opacity="0" result="BackgroundImageFix"/>
<feColorMatrix in="SourceAlpha" type="matrix" values="0 0 0 0 0 0 0 0 0 0 0 0 0 0 0 0 0 0 127 0" result="hardAlpha"/>
<feOffset dx="2" dy="2"/>
<feGaussianBlur stdDeviation="4"/>
<feComposite in2="hardAlpha" operator="out"/>
<feColorMatrix type="matrix" values="0 0 0 0 0.246995 0 0 0 0 0.308504 0 0 0 0 0.375 0 0 0 0.24 0"/>
<feBlend mode="normal" in2="BackgroundImageFix" result="effect1_dropShadow_1843_26671"/>
<feBlend mode="normal" in="SourceGraphic" in2="effect1_dropShadow_1843_26671" result="shape"/>
</filter>
<filter id="filter4_d_1843_26671" x="1337" y="197" width="82" height="82" filterUnits="userSpaceOnUse" color-interpolation-filters="sRGB">
<feFlood flood-opacity="0" result="BackgroundImageFix"/>
<feColorMatrix in="SourceAlpha" type="matrix" values="0 0 0 0 0 0 0 0 0 0 0 0 0 0 0 0 0 0 127 0" result="hardAlpha"/>
<feOffset dx="2" dy="2"/>
<feGaussianBlur stdDeviation="4"/>
<feComposite in2="hardAlpha" operator="out"/>
<feColorMatrix type="matrix" values="0 0 0 0 0.246995 0 0 0 0 0.308504 0 0 0 0 0.375 0 0 0 0.24 0"/>
<feBlend mode="normal" in2="BackgroundImageFix" result="effect1_dropShadow_1843_26671"/>
<feBlend mode="normal" in="SourceGraphic" in2="effect1_dropShadow_1843_26671" result="shape"/>
</filter>
<filter id="filter5_d_1843_26671" x="1471" y="17" width="82" height="82" filterUnits="userSpaceOnUse" color-interpolation-filters="sRGB">
<feFlood flood-opacity="0" result="BackgroundImageFix"/>
<feColorMatrix in="SourceAlpha" type="matrix" values="0 0 0 0 0 0 0 0 0 0 0 0 0 0 0 0 0 0 127 0" result="hardAlpha"/>
<feOffset dx="2" dy="2"/>
<feGaussianBlur stdDeviation="4"/>
<feComposite in2="hardAlpha" operator="out"/>
<feColorMatrix type="matrix" values="0 0 0 0 0.246995 0 0 0 0 0.308504 0 0 0 0 0.375 0 0 0 0.24 0"/>
<feBlend mode="normal" in2="BackgroundImageFix" result="effect1_dropShadow_1843_26671"/>
<feBlend mode="normal" in="SourceGraphic" in2="effect1_dropShadow_1843_26671" result="shape"/>
</filter>
<clipPath id="clip0_1843_26671">
<rect width="112" height="112" fill="white" transform="translate(1320 66)"/>
</clipPath>
</defs>
</svg>
