<svg width="1920" height="280" viewBox="0 0 1920 280" fill="none" xmlns="http://www.w3.org/2000/svg">
<rect width="1920" height="280" fill="#F3F7FF"/>
<rect width="520" height="280" transform="translate(1160)" fill="#F3F7FF"/>
<path d="M1630 63H1609.77C1607.56 63 1605.77 64.7909 1605.77 67V82V97C1605.77 99.2091 1607.56 101 1609.77 101H1630" stroke="#B1CEFB" stroke-linecap="round" stroke-dasharray="2 3"/>
<path d="M1571 82L1603 82" stroke="#B1CEFB" stroke-linecap="round" stroke-dasharray="2 3"/>
<path d="M1630 139H1609.77C1607.56 139 1605.77 140.791 1605.77 143V158V173C1605.77 175.209 1607.56 177 1609.77 177H1630" stroke="#B1CEFB" stroke-linecap="round" stroke-dasharray="2 3"/>
<path d="M1579 158H1603.22" stroke="#B1CEFB" stroke-linecap="round" stroke-dasharray="2 3"/>
<path d="M1484 46.5996H1559C1561.98 46.5996 1564.4 49.0177 1564.4 52V104C1564.4 106.982 1561.98 109.4 1559 109.4H1484C1481.02 109.4 1478.6 106.982 1478.6 104V52C1478.6 49.0177 1481.02 46.5996 1484 46.5996Z" fill="white"/>
<path d="M1484 46.5996H1559C1561.98 46.5996 1564.4 49.0177 1564.4 52V104C1564.4 106.982 1561.98 109.4 1559 109.4H1484C1481.02 109.4 1478.6 106.982 1478.6 104V52C1478.6 49.0177 1481.02 46.5996 1484 46.5996Z" stroke="#0B50D0" stroke-width="1.2"/>
<circle cx="1542.5" cy="54.5" r="2.1" fill="white" stroke="#0B50D0" stroke-width="0.8"/>
<circle cx="1549.5" cy="54.5" r="2.1" fill="white" stroke="#0B50D0" stroke-width="0.8"/>
<circle cx="1556.5" cy="54.5" r="2.1" fill="white" stroke="#0B50D0" stroke-width="0.8"/>
<rect x="1490.5" y="87.5" width="9" height="14" rx="0.5" fill="#F0F6FD" stroke="#0B50D0"/>
<rect x="1508.5" y="82.5" width="9" height="19" rx="0.5" fill="#F0F6FD" stroke="#0B50D0"/>
<rect x="1526.5" y="73.5" width="9" height="28" rx="0.5" fill="#F0F6FD" stroke="#0B50D0"/>
<rect x="1544.5" y="66.5" width="9" height="35" rx="0.5" fill="#F0F6FD" stroke="#0B50D0"/>
<path d="M1480 125.6H1584C1586.98 125.6 1589.4 128.018 1589.4 131V227C1589.4 229.982 1586.98 232.4 1584 232.4H1480C1477.02 232.4 1474.6 229.982 1474.6 227V131C1474.6 128.018 1477.02 125.6 1480 125.6Z" fill="white"/>
<path d="M1480 125.6H1584C1586.98 125.6 1589.4 128.018 1589.4 131V227C1589.4 229.982 1586.98 232.4 1584 232.4H1480C1477.02 232.4 1474.6 229.982 1474.6 227V131C1474.6 128.018 1477.02 125.6 1480 125.6Z" stroke="#0B50D0" stroke-width="1.2"/>
<mask id="path-14-inside-1_1762_34022" fill="white">
<path d="M1476 151H1588V177H1476V151Z"/>
</mask>
<path d="M1476 151H1588V177H1476V151Z" fill="white"/>
<path d="M1588 177V176H1476V177V178H1588V177Z" fill="#BED5FF" mask="url(#path-14-inside-1_1762_34022)"/>
<path d="M1486 159.5H1492C1492.83 159.5 1493.5 160.172 1493.5 161V167C1493.5 167.828 1492.83 168.5 1492 168.5H1486C1485.17 168.5 1484.5 167.828 1484.5 167V161C1484.5 160.172 1485.17 159.5 1486 159.5Z" stroke="#0B50D0"/>
<line x1="1499.6" y1="160.4" x2="1541.4" y2="160.4" stroke="#BED5FF" stroke-width="1.2" stroke-linecap="round"/>
<line x1="1499.6" y1="167.4" x2="1526.4" y2="167.4" stroke="#BED5FF" stroke-width="1.2" stroke-linecap="round"/>
<rect x="1563.5" y="156.5" width="15" height="15" rx="1.5" stroke="#B1CEFB"/>
<path d="M1571 165.5V159.5" stroke="#0B50D0" stroke-width="0.8" stroke-linecap="round" stroke-linejoin="round"/>
<path d="M1575.5 165.5V167.5C1575.5 167.765 1575.39 168.02 1575.21 168.207C1575.02 168.395 1574.77 168.5 1574.5 168.5H1567.5C1567.23 168.5 1566.98 168.395 1566.79 168.207C1566.61 168.02 1566.5 167.765 1566.5 167.5V165.5" stroke="#0B50D0" stroke-width="0.8" stroke-linecap="round" stroke-linejoin="round"/>
<path d="M1568.5 163L1571 165.5L1573.5 163" stroke="#0B50D0" stroke-width="0.8" stroke-linecap="round" stroke-linejoin="round"/>
<mask id="path-23-inside-2_1762_34022" fill="white">
<path d="M1476 177H1588V203H1476V177Z"/>
</mask>
<path d="M1476 177H1588V203H1476V177Z" fill="white"/>
<path d="M1588 203V202H1476V203V204H1588V203Z" fill="#BED5FF" mask="url(#path-23-inside-2_1762_34022)"/>
<path d="M1486 185.5H1492C1492.83 185.5 1493.5 186.172 1493.5 187V193C1493.5 193.828 1492.83 194.5 1492 194.5H1486C1485.17 194.5 1484.5 193.828 1484.5 193V187C1484.5 186.172 1485.17 185.5 1486 185.5Z" stroke="#0B50D0"/>
<line x1="1499.6" y1="186.4" x2="1541.4" y2="186.4" stroke="#BED5FF" stroke-width="1.2" stroke-linecap="round"/>
<line x1="1499.6" y1="193.4" x2="1526.4" y2="193.4" stroke="#BED5FF" stroke-width="1.2" stroke-linecap="round"/>
<rect x="1563.5" y="182.5" width="15" height="15" rx="1.5" stroke="#B1CEFB"/>
<path d="M1571 191.5V185.5" stroke="#0B50D0" stroke-width="0.8" stroke-linecap="round" stroke-linejoin="round"/>
<path d="M1575.5 191.5V193.5C1575.5 193.765 1575.39 194.02 1575.21 194.207C1575.02 194.395 1574.77 194.5 1574.5 194.5H1567.5C1567.23 194.5 1566.98 194.395 1566.79 194.207C1566.61 194.02 1566.5 193.765 1566.5 193.5V191.5" stroke="#0B50D0" stroke-width="0.8" stroke-linecap="round" stroke-linejoin="round"/>
<path d="M1568.5 189L1571 191.5L1573.5 189" stroke="#0B50D0" stroke-width="0.8" stroke-linecap="round" stroke-linejoin="round"/>
<rect width="112" height="26" transform="translate(1476 203)" fill="white"/>
<path d="M1486 211.5H1492C1492.83 211.5 1493.5 212.172 1493.5 213V219C1493.5 219.828 1492.83 220.5 1492 220.5H1486C1485.17 220.5 1484.5 219.828 1484.5 219V213C1484.5 212.172 1485.17 211.5 1486 211.5Z" stroke="#0B50D0"/>
<line x1="1499.6" y1="212.4" x2="1541.4" y2="212.4" stroke="#BED5FF" stroke-width="1.2" stroke-linecap="round"/>
<line x1="1499.6" y1="219.4" x2="1526.4" y2="219.4" stroke="#BED5FF" stroke-width="1.2" stroke-linecap="round"/>
<rect x="1563.5" y="208.5" width="15" height="15" rx="1.5" stroke="#B1CEFB"/>
<path d="M1571 217.5V211.5" stroke="#0B50D0" stroke-width="0.8" stroke-linecap="round" stroke-linejoin="round"/>
<path d="M1575.5 217.5V219.5C1575.5 219.765 1575.39 220.02 1575.21 220.207C1575.02 220.395 1574.77 220.5 1574.5 220.5H1567.5C1567.23 220.5 1566.98 220.395 1566.79 220.207C1566.61 220.02 1566.5 219.765 1566.5 219.5V217.5" stroke="#0B50D0" stroke-width="0.8" stroke-linecap="round" stroke-linejoin="round"/>
<path d="M1568.5 215L1571 217.5L1573.5 215" stroke="#0B50D0" stroke-width="0.8" stroke-linecap="round" stroke-linejoin="round"/>
<path d="M1482 131.6H1582C1582.77 131.6 1583.4 132.227 1583.4 133V149C1583.4 149.773 1582.77 150.4 1582 150.4H1482C1481.23 150.4 1480.6 149.773 1480.6 149V133C1480.6 132.227 1481.23 131.6 1482 131.6Z" fill="white" stroke="#BED5FF" stroke-width="1.2"/>
<circle cx="1490" cy="140" r="3.5" stroke="#0B50D0"/>
<path d="M1492.5 143L1494.5 145.5" stroke="#0B50D0" stroke-linecap="round"/>
<path d="M1570 145.3V142.565C1570 142.523 1569.99 142.482 1569.96 142.447L1566.23 137.318C1566.13 137.185 1566.23 137 1566.39 137H1576.11C1576.27 137 1576.37 137.185 1576.27 137.318L1572.54 142.447C1572.51 142.482 1572.5 142.523 1572.5 142.565V145.3C1572.5 145.41 1572.41 145.5 1572.3 145.5H1570.2C1570.09 145.5 1570 145.41 1570 145.3Z" stroke="#0B50D0"/>
<path d="M1640 48.5H1668C1671.04 48.5 1673.5 50.9624 1673.5 54V72C1673.5 75.0376 1671.04 77.5 1668 77.5H1640C1636.96 77.5 1634.5 75.0376 1634.5 72V54C1634.5 50.9624 1636.96 48.5 1640 48.5Z" fill="white"/>
<path d="M1640 48.5H1668C1671.04 48.5 1673.5 50.9624 1673.5 54V72C1673.5 75.0376 1671.04 77.5 1668 77.5H1640C1636.96 77.5 1634.5 75.0376 1634.5 72V54C1634.5 50.9624 1636.96 48.5 1640 48.5Z" stroke="#B1CEFB"/>
<path d="M1648.34 63.4546L1655.34 55.7355C1655.5 55.5561 1655.79 55.6925 1655.76 55.9327L1655.03 61.7616H1659.46C1659.67 61.7616 1659.78 62.011 1659.65 62.1715L1652.67 70.2286C1652.51 70.4139 1652.21 70.2789 1652.24 70.0357L1652.97 64.2393L1648.5 63.8679C1648.3 63.8509 1648.2 63.6067 1648.34 63.4546Z" fill="white" stroke="#0B50D0" stroke-width="1.09091"/>
<path d="M1640 86.5H1668C1671.04 86.5 1673.5 88.9624 1673.5 92V110C1673.5 113.038 1671.04 115.5 1668 115.5H1640C1636.96 115.5 1634.5 113.038 1634.5 110V92C1634.5 88.9624 1636.96 86.5 1640 86.5Z" fill="white"/>
<path d="M1640 86.5H1668C1671.04 86.5 1673.5 88.9624 1673.5 92V110C1673.5 113.038 1671.04 115.5 1668 115.5H1640C1636.96 115.5 1634.5 113.038 1634.5 110V92C1634.5 88.9624 1636.96 86.5 1640 86.5Z" stroke="#B1CEFB"/>
<path d="M1660.75 98.0004L1659.25 99.5004L1658.12 96.7254C1658.02 96.4414 1657.83 96.1962 1657.58 96.0222C1657.33 95.8481 1657.04 95.7534 1656.73 95.7504H1651.3C1650.99 95.7434 1650.69 95.8299 1650.44 95.9984C1650.18 96.1669 1649.99 96.4093 1649.87 96.6931L1648.75 99.5004L1647.25 98.0004" stroke="#0B50D0" stroke-linecap="round" stroke-linejoin="round"/>
<path d="M1650.25 102.5H1650.26" stroke="#0B50D0" stroke-linecap="round" stroke-linejoin="round"/>
<path d="M1657.75 102.5H1657.76" stroke="#0B50D0" stroke-linecap="round" stroke-linejoin="round"/>
<path d="M1648.75 105.5V107" stroke="#0B50D0" stroke-linecap="round" stroke-linejoin="round"/>
<path d="M1659.25 105.5V107" stroke="#0B50D0" stroke-linecap="round" stroke-linejoin="round"/>
<path d="M1660.75 101C1660.75 100.172 1660.08 99.5 1659.25 99.5H1654H1648.75C1647.92 99.5 1647.25 100.172 1647.25 101V104C1647.25 104.828 1647.92 105.5 1648.75 105.5H1659.25C1660.08 105.5 1660.75 104.828 1660.75 104V101Z" stroke="#0B50D0" stroke-linecap="round" stroke-linejoin="round"/>
<path d="M1640 124.5H1668C1671.04 124.5 1673.5 126.962 1673.5 130V148C1673.5 151.038 1671.04 153.5 1668 153.5H1640C1636.96 153.5 1634.5 151.038 1634.5 148V130C1634.5 126.962 1636.96 124.5 1640 124.5Z" fill="white"/>
<path d="M1640 124.5H1668C1671.04 124.5 1673.5 126.962 1673.5 130V148C1673.5 151.038 1671.04 153.5 1668 153.5H1640C1636.96 153.5 1634.5 151.038 1634.5 148V130C1634.5 126.962 1636.96 124.5 1640 124.5Z" stroke="#B1CEFB"/>
<path d="M1659.5 139.924C1659.5 143.298 1657.09 144.986 1654.23 145.964C1654.08 146.014 1653.92 146.012 1653.77 145.958C1650.91 144.986 1648.5 143.298 1648.5 139.924V135.2C1648.5 135.021 1648.57 134.849 1648.7 134.723C1648.83 134.596 1649.01 134.525 1649.19 134.525C1650.56 134.525 1652.28 133.715 1653.48 132.689C1653.62 132.567 1653.81 132.5 1654 132.5C1654.19 132.5 1654.38 132.567 1654.52 132.689C1655.73 133.722 1657.44 134.525 1658.81 134.525C1658.99 134.525 1659.17 134.596 1659.3 134.723C1659.43 134.849 1659.5 135.021 1659.5 135.2V139.924Z" stroke="#0B50D0" stroke-linecap="round" stroke-linejoin="round"/>
<path d="M1652 139.181L1653.31 140.464L1655.92 137.898" stroke="#0B50D0" stroke-linecap="round" stroke-linejoin="round"/>
<path d="M1640 162.5H1668C1671.04 162.5 1673.5 164.962 1673.5 168V186C1673.5 189.038 1671.04 191.5 1668 191.5H1640C1636.96 191.5 1634.5 189.038 1634.5 186V168C1634.5 164.962 1636.96 162.5 1640 162.5Z" fill="white"/>
<path d="M1640 162.5H1668C1671.04 162.5 1673.5 164.962 1673.5 168V186C1673.5 189.038 1671.04 191.5 1668 191.5H1640C1636.96 191.5 1634.5 189.038 1634.5 186V168C1634.5 164.962 1636.96 162.5 1640 162.5Z" stroke="#B1CEFB"/>
<path d="M1654 174.668C1656.9 174.668 1659.25 173.884 1659.25 172.918C1659.25 171.951 1656.9 171.168 1654 171.168C1651.1 171.168 1648.75 171.951 1648.75 172.918C1648.75 173.884 1651.1 174.668 1654 174.668Z" stroke="#0B50D0" stroke-width="0.933333" stroke-linecap="round" stroke-linejoin="round"/>
<path d="M1648.75 172.918V181.085C1648.75 181.549 1649.3 181.994 1650.29 182.322C1651.27 182.65 1652.61 182.835 1654 182.835C1655.39 182.835 1656.73 182.65 1657.71 182.322C1658.7 181.994 1659.25 181.549 1659.25 181.085V172.918" stroke="#0B50D0" stroke-width="0.933333" stroke-linecap="round" stroke-linejoin="round"/>
<path d="M1648.75 177C1648.75 177.464 1649.3 177.909 1650.29 178.237C1651.27 178.566 1652.61 178.75 1654 178.75C1655.39 178.75 1656.73 178.566 1657.71 178.237C1658.7 177.909 1659.25 177.464 1659.25 177" stroke="#0B50D0" stroke-width="0.933333" stroke-linecap="round" stroke-linejoin="round"/>
<path d="M1657.21 176.125H1657.22" stroke="#0B50D0" stroke-width="0.933333" stroke-linecap="round" stroke-linejoin="round"/>
<path d="M1657.21 180.5H1657.22" stroke="#0B50D0" stroke-width="0.933333" stroke-linecap="round" stroke-linejoin="round"/>
<rect x="1581.6" y="205.6" width="38.8" height="38.8" rx="19.4" fill="white"/>
<rect x="1581.6" y="205.6" width="38.8" height="38.8" rx="19.4" stroke="#0B50D0" stroke-width="1.2"/>
<circle cx="1601" cy="225" r="14.4" fill="white" stroke="#0B50D0" stroke-width="1.2"/>
<rect x="1613.3" y="240.248" width="3.36174" height="6.14569" transform="rotate(-43.4193 1613.3 240.248)" fill="white" stroke="#0B50D0" stroke-width="1.2"/>
<path d="M1620.63 241.823L1631.06 252.852C1632.05 253.896 1632.01 255.543 1630.96 256.53C1629.92 257.518 1628.27 257.473 1627.28 256.429L1616.85 245.4L1620.63 241.823Z" fill="white" stroke="#0B50D0" stroke-width="1.2"/>
<path d="M1419 36V42" stroke="#B1CCF5" stroke-linecap="round"/>
<path d="M1422 39L1416 39" stroke="#B1CCF5" stroke-linecap="round"/>
<path d="M1196 128V134" stroke="#B1CCF5" stroke-linecap="round"/>
<path d="M1199 131L1193 131" stroke="#B1CCF5" stroke-linecap="round"/>
<path d="M1324 246V252" stroke="#B1CCF5" stroke-linecap="round"/>
<path d="M1327 249L1321 249" stroke="#B1CCF5" stroke-linecap="round"/>
<path d="M1671 221V227" stroke="#B1CCF5" stroke-linecap="round"/>
<path d="M1674 224L1668 224" stroke="#B1CCF5" stroke-linecap="round"/>
<circle cx="1417" cy="235" r="1.63" stroke="#B1CEFB" stroke-width="0.74"/>
<circle cx="1304" cy="138" r="1.63" stroke="#B1CEFB" stroke-width="0.74"/>
<path d="M1284 65H1302.61C1305.37 65 1307.61 67.2386 1307.61 70V112C1307.61 114.761 1309.85 117 1312.61 117H1327" stroke="#B1CEFB" stroke-linecap="round" stroke-dasharray="2 3"/>
<path d="M1234 34H1264.5L1279.5 49.5V89C1279.5 91.2091 1277.71 93 1275.5 93H1234C1231.79 93 1230 91.2091 1230 89V38C1230 35.7909 1231.79 34 1234 34Z" fill="white"/>
<path d="M1279.5 49.5L1264.5 34H1234C1231.79 34 1230 35.7909 1230 38V89C1230 91.2091 1231.79 93 1234 93H1275.5C1277.71 93 1279.5 91.2091 1279.5 89V49.5ZM1264.5 34V45.5C1264.5 47.7091 1266.29 49.5 1268.5 49.5H1279.5" stroke="#0B50D0" stroke-width="1.2"/>
<path d="M1229 66.5996H1249C1251.98 66.5996 1254.4 69.0177 1254.4 72V92C1254.4 94.9823 1251.98 97.4004 1249 97.4004H1229C1226.02 97.4004 1223.6 94.9823 1223.6 92V72C1223.6 69.0177 1226.02 66.5996 1229 66.5996Z" fill="white" stroke="#0B50D0" stroke-width="1.2"/>
<path d="M1239.46 80C1237.91 80 1236.64 81.262 1236.64 82.8125C1236.64 84.363 1237.91 85.625 1239.46 85.625C1241.01 85.625 1242.27 84.363 1242.27 82.8125C1242.27 81.262 1241.01 80 1239.46 80ZM1239.46 84.5C1238.53 84.5 1237.77 83.7427 1237.77 82.8125C1237.77 81.8823 1238.53 81.125 1239.46 81.125C1240.39 81.125 1241.14 81.8823 1241.14 82.8125C1241.14 83.7427 1240.39 84.5 1239.46 84.5Z" fill="#0B50D0"/>
<path d="M1245.95 83.7573C1246 83.4446 1246.02 83.1282 1246.02 82.8125C1246.02 82.4968 1246 82.1804 1245.95 81.8677L1247.71 80.4211C1247.92 80.2461 1247.97 79.9436 1247.84 79.7056L1246.34 77.1069C1246.2 76.8696 1245.91 76.7656 1245.65 76.8616L1243.52 77.6606C1243.02 77.2666 1242.48 76.9495 1241.89 76.7144L1241.51 74.4702C1241.47 74.1985 1241.23 74 1240.96 74H1237.96C1237.68 74 1237.45 74.1985 1237.4 74.4702L1237.03 76.7144C1236.44 76.9495 1235.89 77.2659 1235.39 77.6599L1233.26 76.8616C1233.01 76.7656 1232.71 76.8696 1232.57 77.1069L1231.07 79.7056C1230.94 79.9436 1230.99 80.2461 1231.21 80.4211L1232.96 81.8677C1232.92 82.1804 1232.89 82.4968 1232.89 82.8125C1232.89 83.1282 1232.92 83.4446 1232.96 83.7573L1231.21 85.2039C1230.99 85.3789 1230.94 85.6814 1231.07 85.9194L1232.57 88.5181C1232.71 88.7561 1233.01 88.8586 1233.26 88.7634L1235.39 87.9651C1235.89 88.3591 1236.44 88.6755 1237.03 88.9106L1237.4 91.1548C1237.45 91.4265 1237.68 91.625 1237.96 91.625H1240.96C1241.23 91.625 1241.47 91.4265 1241.51 91.1548L1241.89 88.9106C1242.48 88.6755 1243.02 88.3584 1243.52 87.9644L1245.65 88.7634C1245.91 88.8586 1246.2 88.7561 1246.34 88.5181L1247.84 85.9194C1247.97 85.6814 1247.92 85.3789 1247.71 85.2039L1245.95 83.7573ZM1245.6 87.5425L1243.61 86.7961C1243.41 86.7214 1243.2 86.7632 1243.04 86.9001C1242.5 87.3748 1241.88 87.7322 1241.2 87.9636C1241.01 88.0303 1240.86 88.1995 1240.83 88.4038L1240.48 90.5H1238.43L1238.08 88.4038C1238.05 88.1995 1237.91 88.0303 1237.71 87.9636C1237.03 87.7329 1236.41 87.3748 1235.87 86.9009C1235.71 86.7646 1235.5 86.7214 1235.3 86.7969L1233.31 87.5432L1232.29 85.7693L1233.93 84.4187C1234.09 84.2869 1234.16 84.0781 1234.12 83.8752C1234.05 83.5273 1234.02 83.1692 1234.02 82.8125C1234.02 82.4558 1234.05 82.0977 1234.12 81.7498C1234.16 81.5469 1234.09 81.3381 1233.93 81.2063L1232.29 79.8557L1233.31 78.0818L1235.3 78.8281C1235.5 78.9014 1235.71 78.8589 1235.87 78.7241C1236.41 78.2502 1237.03 77.8921 1237.71 77.6614C1237.91 77.5947 1238.05 77.4255 1238.08 77.2212L1238.43 75.125H1240.48L1240.83 77.2212C1240.86 77.4255 1241.01 77.5947 1241.2 77.6614C1241.88 77.8928 1242.5 78.2502 1243.04 78.7249C1243.2 78.8611 1243.41 78.9014 1243.61 78.8289L1245.6 78.0825L1246.63 79.8557L1244.98 81.2063C1244.83 81.3381 1244.75 81.5469 1244.79 81.7498C1244.86 82.0977 1244.89 82.4558 1244.89 82.8125C1244.89 83.1692 1244.86 83.5273 1244.79 83.8752C1244.75 84.0781 1244.83 84.2869 1244.98 84.4187L1246.63 85.7693L1245.6 87.5425Z" fill="#0B50D0"/>
<path d="M1285 195H1303.61C1306.37 195 1308.61 192.761 1308.61 190V152C1308.61 149.239 1310.85 147 1313.61 147H1328" stroke="#B1CEFB" stroke-linecap="round" stroke-dasharray="2 3"/>
<path d="M1420 116H1438.61C1441.37 116 1443.61 113.761 1443.61 111V87C1443.61 84.2386 1445.85 82 1448.61 82H1463" stroke="#B1CEFB" stroke-linecap="round" stroke-dasharray="2 3"/>
<path d="M1428 145H1461" stroke="#B1CEFB" stroke-linecap="round" stroke-dasharray="2 3"/>
<path d="M1465 207H1446.91C1444.15 207 1441.91 204.761 1441.91 202V181C1441.91 178.239 1439.67 176 1436.91 176H1418" stroke="#B1CEFB" stroke-linecap="round" stroke-dasharray="2 3"/>
<path d="M1278 173.5V215.5C1278 216.052 1277.55 216.5 1277 216.5H1259.41C1258.2 216.5 1257.06 215.955 1256.3 215.017L1250.2 207.483C1249.44 206.545 1248.3 206 1247.09 206H1217C1214.79 206 1213 204.209 1213 202V173.5C1213 171.291 1214.79 169.5 1217 169.5H1274C1276.21 169.5 1278 171.291 1278 173.5Z" fill="white" stroke="#0B50D0" stroke-width="1.2"/>
<path d="M1226 142H1256.5L1271.5 157.5V197C1271.5 199.209 1269.71 201 1267.5 201H1226C1223.79 201 1222 199.209 1222 197V146C1222 143.791 1223.79 142 1226 142Z" fill="white"/>
<path d="M1271.5 157.5L1256.5 142H1226C1223.79 142 1222 143.791 1222 146V197C1222 199.209 1223.79 201 1226 201H1267.5C1269.71 201 1271.5 199.209 1271.5 197V157.5ZM1256.5 142V153.5C1256.5 155.709 1258.29 157.5 1260.5 157.5H1271.5" stroke="#0B50D0" stroke-width="1.2"/>
<line x1="1230.6" y1="152.4" x2="1250.4" y2="152.4" stroke="#BED5FF" stroke-width="1.2" stroke-linecap="round"/>
<line x1="1246.6" y1="164.4" x2="1266.4" y2="164.4" stroke="#BED5FF" stroke-width="1.2" stroke-linecap="round"/>
<line x1="1246.6" y1="169.4" x2="1266.4" y2="169.4" stroke="#BED5FF" stroke-width="1.2" stroke-linecap="round"/>
<line x1="1246.6" y1="174.4" x2="1266.4" y2="174.4" stroke="#BED5FF" stroke-width="1.2" stroke-linecap="round"/>
<mask id="path-91-inside-3_1762_34022" fill="white">
<rect x="1230" y="163" width="13" height="7" rx="1"/>
</mask>
<rect x="1230" y="163" width="13" height="7" rx="1" fill="white" stroke="#BED5FF" stroke-width="2.4" mask="url(#path-91-inside-3_1762_34022)"/>
<path d="M1213 217.5V175.5C1213 174.948 1213.45 174.5 1214 174.5H1238.18C1239.61 174.5 1240.94 175.269 1241.65 176.515L1245.35 182.985C1246.06 184.231 1247.39 185 1248.82 185H1274C1276.21 185 1278 186.791 1278 189V217.5C1278 219.709 1276.21 221.5 1274 221.5H1217C1214.79 221.5 1213 219.709 1213 217.5Z" fill="white" stroke="#0B50D0" stroke-width="1.2"/>
<path d="M1334 99.1992H1422C1424.98 99.1992 1427.4 101.617 1427.4 104.6V124.6C1427.4 127.582 1424.98 130 1422 130H1334C1331.02 130 1328.6 127.582 1328.6 124.6V104.6C1328.6 101.617 1331.02 99.1992 1334 99.1992Z" fill="white"/>
<path d="M1334 99.1992H1422C1424.98 99.1992 1427.4 101.617 1427.4 104.6V124.6C1427.4 127.582 1424.98 130 1422 130H1334C1331.02 130 1328.6 127.582 1328.6 124.6V104.6C1328.6 101.617 1331.02 99.1992 1334 99.1992Z" stroke="#0B50D0" stroke-width="1.2"/>
<circle cx="1345" cy="114.6" r="4.4" fill="white" stroke="#0B50D0" stroke-width="1.2"/>
<line x1="1394.6" y1="110.4" x2="1414.4" y2="110.4" stroke="#BED5FF" stroke-width="1.2" stroke-linecap="round"/>
<line x1="1394.6" y1="117.4" x2="1404.4" y2="117.4" stroke="#BED5FF" stroke-width="1.2" stroke-linecap="round"/>
<path d="M1334 129.6H1422C1424.98 129.6 1427.4 132.018 1427.4 135V155C1427.4 157.982 1424.98 160.4 1422 160.4H1334C1331.02 160.4 1328.6 157.982 1328.6 155V135C1328.6 132.018 1331.02 129.6 1334 129.6Z" fill="white"/>
<path d="M1334 129.6H1422C1424.98 129.6 1427.4 132.018 1427.4 135V155C1427.4 157.982 1424.98 160.4 1422 160.4H1334C1331.02 160.4 1328.6 157.982 1328.6 155V135C1328.6 132.018 1331.02 129.6 1334 129.6Z" stroke="#0B50D0" stroke-width="1.2"/>
<circle cx="1345" cy="145" r="4.4" fill="white" stroke="#0B50D0" stroke-width="1.2"/>
<line x1="1394.6" y1="141.4" x2="1414.4" y2="141.4" stroke="#BED5FF" stroke-width="1.2" stroke-linecap="round"/>
<line x1="1394.6" y1="148.4" x2="1404.4" y2="148.4" stroke="#BED5FF" stroke-width="1.2" stroke-linecap="round"/>
<path d="M1334 160H1422C1424.98 160 1427.4 162.418 1427.4 165.4V185.4C1427.4 188.383 1424.98 190.801 1422 190.801H1334C1331.02 190.801 1328.6 188.383 1328.6 185.4V165.4C1328.6 162.418 1331.02 160 1334 160Z" fill="white"/>
<path d="M1334 160H1422C1424.98 160 1427.4 162.418 1427.4 165.4V185.4C1427.4 188.383 1424.98 190.801 1422 190.801H1334C1331.02 190.801 1328.6 188.383 1328.6 185.4V165.4C1328.6 162.418 1331.02 160 1334 160Z" stroke="#0B50D0" stroke-width="1.2"/>
<circle cx="1345" cy="175.4" r="4.4" fill="white" stroke="#0B50D0" stroke-width="1.2"/>
<line x1="1394.6" y1="171.4" x2="1414.4" y2="171.4" stroke="#BED5FF" stroke-width="1.2" stroke-linecap="round"/>
<line x1="1394.6" y1="178.4" x2="1404.4" y2="178.4" stroke="#BED5FF" stroke-width="1.2" stroke-linecap="round"/>
<circle cx="1287" cy="65" r="3.4" fill="white" stroke="#0B50D0" stroke-width="1.2"/>
<circle cx="1287" cy="195" r="3.4" fill="white" stroke="#0B50D0" stroke-width="1.2"/>
<circle cx="1465" cy="82" r="3.4" fill="white" stroke="#0B50D0" stroke-width="1.2"/>
<circle cx="1605" cy="82" r="2.5" fill="white" stroke="#86AFF9"/>
<circle cx="1605" cy="158" r="2.5" fill="white" stroke="#86AFF9"/>
<circle cx="1630" cy="63" r="1.5" fill="white" stroke="#86AFF9"/>
<circle cx="1630" cy="101" r="1.5" fill="white" stroke="#86AFF9"/>
<circle cx="1630" cy="139" r="1.5" fill="white" stroke="#86AFF9"/>
<circle cx="1630" cy="177" r="1.5" fill="white" stroke="#86AFF9"/>
<circle cx="1465" cy="207" r="3.4" fill="white" stroke="#0B50D0" stroke-width="1.2"/>
<circle cx="1465" cy="145" r="3.4" fill="white" stroke="#0B50D0" stroke-width="1.2"/>
</svg>
