<svg width="1920" height="280" viewBox="0 0 1920 280" fill="none" xmlns="http://www.w3.org/2000/svg">
<rect width="1920" height="280" fill="#F3F7FF"/>
<rect width="652" height="280" transform="translate(1078)" fill="#F3F7FF"/>
<rect x="1564.5" y="126.5" width="71" height="55" rx="5.5" fill="#D6E0EB"/>
<rect x="1564.5" y="126.5" width="71" height="55" rx="5.5" stroke="#346FB2"/>
<path d="M1572 130.5H1628C1629.93 130.5 1631.5 132.067 1631.5 134V174C1631.5 175.933 1629.93 177.5 1628 177.5H1572C1570.07 177.5 1568.5 175.933 1568.5 174V134C1568.5 132.067 1570.07 130.5 1572 130.5Z" fill="white"/>
<path d="M1572 130.5H1628C1629.93 130.5 1631.5 132.067 1631.5 134V174C1631.5 175.933 1629.93 177.5 1628 177.5H1572C1570.07 177.5 1568.5 175.933 1568.5 174V134C1568.5 132.067 1570.07 130.5 1572 130.5Z" stroke="#346FB2"/>
<path d="M1585.92 159.846V165.673H1584.94V163.704H1583.05C1582.67 164.13 1582.11 164.39 1581.47 164.39C1580.27 164.39 1579.37 163.528 1579.37 162.359C1579.37 161.173 1580.27 160.32 1581.47 160.32C1582.1 160.32 1582.66 160.575 1583.04 160.997H1584.94V159.846H1585.92ZM1586.12 166.833V167.624H1580.71V165.075H1581.68V166.833H1586.12ZM1581.47 161.19C1580.78 161.19 1580.3 161.647 1580.3 162.359C1580.3 163.062 1580.78 163.52 1581.47 163.52C1582.12 163.52 1582.61 163.062 1582.62 162.359C1582.61 161.647 1582.12 161.19 1581.47 161.19ZM1583.47 161.788C1583.52 161.968 1583.55 162.157 1583.55 162.359C1583.55 162.553 1583.53 162.737 1583.48 162.913H1584.94V161.788H1583.47ZM1593.9 159.837V167.782H1592.97V159.837H1593.9ZM1592.25 160.03V167.404H1591.32V164.75H1590.08V163.95H1591.32V162.772H1590.22C1589.85 164.091 1589.02 165.225 1587.53 166.104L1586.96 165.409C1588.61 164.438 1589.37 163.194 1589.51 161.595H1587.38V160.804H1590.48C1590.48 161.204 1590.45 161.595 1590.4 161.973H1591.32V160.03H1592.25ZM1603.99 160.065V160.804H1602.9V162.008H1603.94V162.746H1598.11V162.008H1599.15V160.804H1598.06V160.065H1603.99ZM1604.66 163.247V164.021H1597.41V163.247H1604.66ZM1603.75 164.557V166.446H1599.23V166.982H1603.97V167.712H1598.27V165.77H1602.79V165.269H1598.27V164.557H1603.75ZM1600.13 162.008H1601.91V160.804H1600.13V162.008ZM1611.99 159.846V165.207H1611.05V162.614H1610.23V164.539H1609.31V159.995H1610.23V161.823H1611.05V159.846H1611.99ZM1608.54 160.417V162.764H1606.47V163.687C1607.4 163.673 1608.1 163.621 1608.91 163.467L1609 164.231C1608.05 164.425 1607.25 164.451 1606.07 164.451H1605.53V162.052H1607.6V161.208H1605.52V160.417H1608.54ZM1609.75 165.014C1609.75 165.919 1610.76 166.771 1612.37 166.982L1611.98 167.738C1610.73 167.558 1609.75 166.996 1609.27 166.209C1608.77 166.996 1607.79 167.558 1606.55 167.738L1606.16 166.982C1607.76 166.771 1608.77 165.919 1608.78 165.014V164.847H1609.75V165.014ZM1620.21 163.739V164.513H1612.97V163.739H1616.09V163.01H1613.66V162.219H1614.71V160.856H1613.62V160.074H1619.54V160.856H1618.45V162.219H1619.5V163.01H1617.07V163.739H1620.21ZM1619.33 165.137V167.686H1613.82V165.137H1619.33ZM1614.79 165.901V166.895H1618.38V165.901H1614.79ZM1615.69 162.219H1617.47V160.856H1615.69V162.219Z" fill="#464C53"/>
<path d="M1607.42 139C1599.45 140.684 1590.61 142.368 1594.79 152.051C1599.82 154.156 1608.43 154.156 1607.42 139Z" fill="#A9DAB4" stroke="#39506C" stroke-width="0.8"/>
<path d="M1593 155.5C1593.1 155.283 1593.23 155.063 1593.36 154.859C1594.55 153.01 1596.02 151.375 1597.51 149.784C1599.01 148.207 1600.59 146.693 1602.39 145.413C1602.59 145.272 1602.79 145.133 1603 145C1602.77 145.085 1602.54 145.18 1602.31 145.28C1600.27 146.198 1598.47 147.616 1596.93 149.233C1595.4 150.864 1594.05 152.705 1593.22 154.792C1593.14 155.021 1593.05 155.265 1593 155.5Z" fill="#39506C"/>
<mask id="path-6-inside-1_1762_34179" fill="white">
<path d="M1643 177C1643 181.418 1639.42 185 1635 185H1563C1559.69 185 1557 182.314 1557 179V177H1591C1591 178.657 1592.34 180 1594 180H1606C1607.66 180 1609 178.657 1609 177H1643Z"/>
</mask>
<path d="M1643 177C1643 181.418 1639.42 185 1635 185H1563C1559.69 185 1557 182.314 1557 179V177H1591C1591 178.657 1592.34 180 1594 180H1606C1607.66 180 1609 178.657 1609 177H1643Z" fill="#D6E0EB"/>
<path d="M1643 177H1644V176H1643V177ZM1557 177V176H1556V177H1557ZM1591 177H1592V176H1591V177ZM1594 180V181V181V180ZM1606 180V181V181V180ZM1609 177V176H1608V177H1609ZM1643 177H1642C1642 180.866 1638.87 184 1635 184V185V186C1639.97 186 1644 181.971 1644 177H1643ZM1635 185V184H1563V185V186H1635V185ZM1563 185V184C1560.24 184 1558 181.761 1558 179H1557H1556C1556 182.866 1559.13 186 1563 186V185ZM1557 179H1558V177H1557H1556V179H1557ZM1557 177V178H1591V177V176H1557V177ZM1591 177H1590C1590 179.209 1591.79 181 1594 181V180V179C1592.9 179 1592 178.105 1592 177H1591ZM1594 180V181H1606V180V179H1594V180ZM1606 180V181C1608.21 181 1610 179.209 1610 177H1609H1608C1608 178.105 1607.1 179 1606 179V180ZM1609 177V178H1643V177V176H1609V177Z" fill="#346FB2" mask="url(#path-6-inside-1_1762_34179)"/>
<mask id="path-8-inside-2_1762_34179" fill="white">
<path d="M1218.5 244C1218.5 242.895 1219.4 242 1220.5 242H1231.5C1232.6 242 1233.5 242.895 1233.5 244V261H1218.5V244Z"/>
</mask>
<path d="M1218.5 244C1218.5 242.895 1219.4 242 1220.5 242H1231.5C1232.6 242 1233.5 242.895 1233.5 244V261H1218.5V244Z" fill="#ECF2FE"/>
<path d="M1217.5 244C1217.5 242.343 1218.84 241 1220.5 241H1231.5C1233.16 241 1234.5 242.343 1234.5 244H1232.5C1232.5 243.448 1232.05 243 1231.5 243H1220.5C1219.95 243 1219.5 243.448 1219.5 244H1217.5ZM1219.5 244M1233.5 261H1218.5H1233.5M1217.5 261V244C1217.5 242.343 1218.84 241 1220.5 241V243C1219.95 243 1219.5 243.448 1219.5 244V261H1217.5ZM1231.5 241C1233.16 241 1234.5 242.343 1234.5 244V261H1232.5V244C1232.5 243.448 1232.05 243 1231.5 243V241Z" fill="#61758F" mask="url(#path-8-inside-2_1762_34179)"/>
<mask id="path-10-inside-3_1762_34179" fill="white">
<path d="M1238.5 224C1238.5 222.895 1239.4 222 1240.5 222H1251.5C1252.6 222 1253.5 222.895 1253.5 224V261H1238.5V224Z"/>
</mask>
<path d="M1238.5 224C1238.5 222.895 1239.4 222 1240.5 222H1251.5C1252.6 222 1253.5 222.895 1253.5 224V261H1238.5V224Z" fill="#D3EBFD"/>
<path d="M1237.5 224C1237.5 222.343 1238.84 221 1240.5 221H1251.5C1253.16 221 1254.5 222.343 1254.5 224H1252.5C1252.5 223.448 1252.05 223 1251.5 223H1240.5C1239.95 223 1239.5 223.448 1239.5 224H1237.5ZM1239.5 224M1253.5 261H1238.5H1253.5M1237.5 261V224C1237.5 222.343 1238.84 221 1240.5 221V223C1239.95 223 1239.5 223.448 1239.5 224V261H1237.5ZM1251.5 221C1253.16 221 1254.5 222.343 1254.5 224V261H1252.5V224C1252.5 223.448 1252.05 223 1251.5 223V221Z" fill="#268097" mask="url(#path-10-inside-3_1762_34179)"/>
<mask id="path-12-inside-4_1762_34179" fill="white">
<path d="M1258.5 206C1258.5 204.895 1259.4 204 1260.5 204H1271.5C1272.6 204 1273.5 204.895 1273.5 206V261H1258.5V206Z"/>
</mask>
<path d="M1258.5 206C1258.5 204.895 1259.4 204 1260.5 204H1271.5C1272.6 204 1273.5 204.895 1273.5 206V261H1258.5V206Z" fill="#D8EEDD"/>
<path d="M1257.5 206C1257.5 204.343 1258.84 203 1260.5 203H1271.5C1273.16 203 1274.5 204.343 1274.5 206H1272.5C1272.5 205.448 1272.05 205 1271.5 205H1260.5C1259.95 205 1259.5 205.448 1259.5 206H1257.5ZM1259.5 206M1273.5 261H1258.5H1273.5M1257.5 261V206C1257.5 204.343 1258.84 203 1260.5 203V205C1259.95 205 1259.5 205.448 1259.5 206V261H1257.5ZM1271.5 203C1273.16 203 1274.5 204.343 1274.5 206V261H1272.5V206C1272.5 205.448 1272.05 205 1271.5 205V203Z" fill="#228738" mask="url(#path-12-inside-4_1762_34179)"/>
<mask id="path-14-inside-5_1762_34179" fill="white">
<path d="M1278.5 219C1278.5 217.895 1279.4 217 1280.5 217H1291.5C1292.6 217 1293.5 217.895 1293.5 219V261H1278.5V219Z"/>
</mask>
<path d="M1278.5 219C1278.5 217.895 1279.4 217 1280.5 217H1291.5C1292.6 217 1293.5 217.895 1293.5 219V261H1278.5V219Z" fill="#B1CEFB"/>
<path d="M1277.5 219C1277.5 217.343 1278.84 216 1280.5 216H1291.5C1293.16 216 1294.5 217.343 1294.5 219H1292.5C1292.5 218.448 1292.05 218 1291.5 218H1280.5C1279.95 218 1279.5 218.448 1279.5 219H1277.5ZM1279.5 219M1293.5 261H1278.5H1293.5M1277.5 261V219C1277.5 217.343 1278.84 216 1280.5 216V218C1279.95 218 1279.5 218.448 1279.5 219V261H1277.5ZM1291.5 216C1293.16 216 1294.5 217.343 1294.5 219V261H1292.5V219C1292.5 218.448 1292.05 218 1291.5 218V216Z" fill="#346FB2" mask="url(#path-14-inside-5_1762_34179)"/>
<line x1="1210.6" y1="261.4" x2="1301.4" y2="261.4" stroke="#61758F" stroke-width="1.2" stroke-linecap="round"/>
<path d="M1136.12 235.2C1137.13 224.637 1143.23 216 1149.11 216C1155 216 1160.5 222.5 1161.5 235.2C1162.51 247.97 1154.28 252 1148.73 252C1144.19 252 1134.84 248.585 1136.12 235.2Z" fill="#E8F2FF" stroke="#61758F" stroke-linecap="round"/>
<path d="M1149 233V268" stroke="#61758F" stroke-linecap="round"/>
<path d="M1145 239L1149 243" stroke="#61758F" stroke-linecap="round"/>
<path d="M1163.07 248.972C1163.67 242.667 1167.17 238 1170.59 238C1174 238 1177.11 241.5 1177.9 248.972C1178.69 256.444 1173.89 259 1170.59 259C1167.88 259 1162.31 256.962 1163.07 248.972Z" stroke="#61758F" stroke-linecap="round"/>
<path d="M1167.5 251.5L1170.5 254" stroke="#61758F" stroke-linecap="round"/>
<path d="M1173 252.5L1170.5 254.5" stroke="#61758F" stroke-linecap="round"/>
<path d="M1170.5 248L1170.5 268" stroke="#61758F" stroke-linecap="round"/>
<line x1="1139.5" y1="268.5" x2="1185.5" y2="268.5" stroke="#D6E0EB" stroke-linecap="round"/>
<path d="M1609.09 233.641C1609.9 225.228 1614.57 219 1619.12 219C1623.68 219 1627.83 223.67 1628.89 233.641C1629.94 243.611 1623.54 247.022 1619.12 247.022C1615.51 247.022 1608.08 244.302 1609.09 233.641Z" stroke="#61758F" stroke-width="1.2" stroke-linecap="round"/>
<path d="M1615 237.016L1619.01 240.352" stroke="#61758F" stroke-width="1.2" stroke-linecap="round"/>
<path d="M1622.34 238.348L1619.01 241.016" stroke="#61758F" stroke-width="1.2" stroke-linecap="round"/>
<path d="M1619.01 232.344L1619.01 259.031" stroke="#61758F" stroke-width="1.2" stroke-linecap="round"/>
<line x1="1613.6" y1="259.767" x2="1624.4" y2="259.767" stroke="#D6E0EB" stroke-width="1.2" stroke-linecap="round"/>
<rect x="1502.5" y="16.5" width="99" height="59" rx="5.5" fill="white"/>
<rect x="1502.5" y="16.5" width="99" height="59" rx="5.5" stroke="#346FB2"/>
<path d="M1540.93 55.9872C1538.95 57.9574 1536.43 59.2961 1533.69 59.834C1530.95 60.3719 1528.11 60.0848 1525.53 59.0091C1522.96 57.9335 1520.75 56.1174 1519.21 53.7908C1517.66 51.4641 1516.84 48.7312 1516.85 45.9378C1516.86 43.1443 1517.69 40.4157 1519.25 38.0971C1520.81 35.7784 1523.02 33.9738 1525.6 32.9115C1528.18 31.8491 1531.02 31.5768 1533.76 32.1288C1536.5 32.6809 1539.01 34.0326 1540.98 36.013" stroke="#9DC3F9" stroke-width="8"/>
<path d="M1530.62 31.8561C1533.41 31.786 1536.16 32.5457 1538.52 34.039C1540.88 35.5322 1542.75 37.692 1543.88 40.2452C1545.02 42.7984 1545.37 45.6304 1544.89 48.383C1544.41 51.1356 1543.13 53.6852 1541.21 55.7093C1539.28 57.7335 1536.8 59.1413 1534.07 59.7548C1531.35 60.3683 1528.5 60.1599 1525.9 59.1559C1523.29 58.1519 1521.04 56.3974 1519.43 54.1144C1517.82 51.8314 1516.92 49.1222 1516.85 46.3297" stroke="#D3DEEF" stroke-width="8"/>
<rect x="1556.35" y="58.35" width="5.3" height="9.3" rx="0.65" fill="#D8E5FD" stroke="#6B96C7" stroke-width="0.7"/>
<rect x="1565.35" y="52.35" width="5.3" height="15.3" rx="0.65" fill="#D8E5FD" stroke="#6B96C7" stroke-width="0.7"/>
<rect x="1574.35" y="44.35" width="5.3" height="23.3" rx="0.65" fill="#D8E5FD" stroke="#6B96C7" stroke-width="0.7"/>
<rect x="1583.35" y="37.35" width="5.3" height="30.3" rx="0.65" fill="#D8E5FD" stroke="#6B96C7" stroke-width="0.7"/>
<rect x="1556" y="32" width="2" height="2" rx="1" transform="rotate(90 1556 32)" fill="#61758F"/>
<rect x="1571" y="32" width="2" height="13" rx="1" transform="rotate(90 1571 32)" fill="#D6E0EB"/>
<rect x="1556" y="37" width="2" height="2" rx="1" transform="rotate(90 1556 37)" fill="#61758F"/>
<rect x="1571" y="37" width="2" height="13" rx="1" transform="rotate(90 1571 37)" fill="#D6E0EB"/>
<mask id="path-41-inside-6_1762_34179" fill="white">
<path d="M1224.94 36C1235.6 36 1244.36 43.8694 1245.33 53.9219C1246.02 53.7731 1246.73 53.6934 1247.47 53.6934C1253.12 53.6935 1257.71 58.3534 1257.71 64.1016C1257.71 64.911 1257.61 65.6978 1257.44 66.4541C1258.19 66.2793 1258.96 66.1836 1259.76 66.1836C1265.41 66.1837 1270 70.8436 1270 76.5918C1270 82.2373 1265.57 86.8288 1260.06 86.9912V87H1201.06V86.9951C1192.16 86.8181 1185 79.4328 1185 70.3467C1185 61.1494 1192.34 53.6934 1201.39 53.6934C1202.46 53.6934 1203.52 53.7998 1204.54 54.002C1205.47 43.9114 1214.25 36.0002 1224.94 36Z"/>
</mask>
<path d="M1224.94 36C1235.6 36 1244.36 43.8694 1245.33 53.9219C1246.02 53.7731 1246.73 53.6934 1247.47 53.6934C1253.12 53.6935 1257.71 58.3534 1257.71 64.1016C1257.71 64.911 1257.61 65.6978 1257.44 66.4541C1258.19 66.2793 1258.96 66.1836 1259.76 66.1836C1265.41 66.1837 1270 70.8436 1270 76.5918C1270 82.2373 1265.57 86.8288 1260.06 86.9912V87H1201.06V86.9951C1192.16 86.8181 1185 79.4328 1185 70.3467C1185 61.1494 1192.34 53.6934 1201.39 53.6934C1202.46 53.6934 1203.52 53.7998 1204.54 54.002C1205.47 43.9114 1214.25 36.0002 1224.94 36Z" fill="white"/>
<path d="M1224.94 36V34.8H1224.94L1224.94 36ZM1245.33 53.9219L1244.14 54.0369L1244.26 55.3794L1245.58 55.0949L1245.33 53.9219ZM1247.47 53.6934L1247.47 52.4934H1247.47V53.6934ZM1257.71 64.1016L1258.91 64.1016V64.1016H1257.71ZM1257.44 66.4541L1256.27 66.188L1255.85 68.0618L1257.72 67.6223L1257.44 66.4541ZM1259.76 66.1836L1259.76 64.9836H1259.76V66.1836ZM1270 76.5918L1271.2 76.5918V76.5918H1270ZM1260.06 86.9912L1260.02 85.7917L1258.86 85.826V86.9912H1260.06ZM1260.06 87V88.2H1261.26V87H1260.06ZM1201.06 87H1199.86V88.2H1201.06V87ZM1201.06 86.9951H1202.26V85.8188L1201.08 85.7954L1201.06 86.9951ZM1185 70.3467H1183.8V70.3467L1185 70.3467ZM1201.39 53.6934L1201.39 52.4934H1201.39V53.6934ZM1204.54 54.002L1204.31 55.1791L1205.61 55.4379L1205.73 54.112L1204.54 54.002ZM1224.94 36V37.2C1235.01 37.2 1243.23 44.6277 1244.14 54.0369L1245.33 53.9219L1246.52 53.8069C1245.49 43.1112 1236.19 34.8 1224.94 34.8V36ZM1245.33 53.9219L1245.58 55.0949C1246.19 54.9636 1246.82 54.8934 1247.47 54.8934V53.6934V52.4934C1246.65 52.4934 1245.85 52.5826 1245.08 52.7489L1245.33 53.9219ZM1247.47 53.6934L1247.47 54.8934C1252.44 54.8935 1256.51 58.9976 1256.51 64.1016H1257.71H1258.91C1258.91 57.7091 1253.8 52.4935 1247.47 52.4934L1247.47 53.6934ZM1257.71 64.1016L1256.51 64.1016C1256.51 64.8171 1256.42 65.5147 1256.27 66.188L1257.44 66.4541L1258.61 66.7202C1258.8 65.881 1258.91 65.0049 1258.91 64.1016L1257.71 64.1016ZM1257.44 66.4541L1257.72 67.6223C1258.37 67.4676 1259.06 67.3836 1259.76 67.3836V66.1836V64.9836C1258.86 64.9836 1258 65.0909 1257.17 65.2859L1257.44 66.4541ZM1259.76 66.1836L1259.76 67.3836C1264.73 67.3837 1268.8 71.4879 1268.8 76.5918H1270H1271.2C1271.2 70.1994 1266.09 64.9837 1259.76 64.9836L1259.76 66.1836ZM1270 76.5918L1268.8 76.5918C1268.8 81.6034 1264.88 85.6488 1260.02 85.7917L1260.06 86.9912L1260.09 88.1907C1266.27 88.0087 1271.2 82.8712 1271.2 76.5918L1270 76.5918ZM1260.06 86.9912H1258.86V87H1260.06H1261.26V86.9912H1260.06ZM1260.06 87V85.8H1201.06V87V88.2H1260.06V87ZM1201.06 87H1202.26V86.9951H1201.06H1199.86V87H1201.06ZM1201.06 86.9951L1201.08 85.7954C1192.85 85.6317 1186.2 78.7958 1186.2 70.3467L1185 70.3467L1183.8 70.3467C1183.8 80.0698 1191.47 88.0045 1201.03 88.1949L1201.06 86.9951ZM1185 70.3467H1186.2C1186.2 61.7938 1193.02 54.8934 1201.39 54.8934V53.6934V52.4934C1191.66 52.4934 1183.8 60.5051 1183.8 70.3467H1185ZM1201.39 53.6934L1201.39 54.8934C1202.39 54.8934 1203.36 54.9919 1204.31 55.1791L1204.54 54.002L1204.77 52.8248C1203.68 52.6076 1202.54 52.4934 1201.39 52.4934L1201.39 53.6934ZM1204.54 54.002L1205.73 54.112C1206.6 44.6673 1214.84 37.2002 1224.94 37.2L1224.94 36L1224.94 34.8C1213.65 34.8003 1204.33 43.1554 1203.34 53.8919L1204.54 54.002Z" fill="#61758F" mask="url(#path-41-inside-6_1762_34179)"/>
<path d="M1218.84 63.625C1218.55 61.9258 1217.18 60.9492 1215.46 60.9492C1213.14 60.9492 1211.52 62.7266 1211.52 65.9297C1211.52 69.1719 1213.16 70.9102 1215.46 70.9102C1217.14 70.9102 1218.51 69.9727 1218.84 68.3125H1221.4C1221.01 71.0273 1218.78 73.1953 1215.42 73.1953C1211.69 73.1953 1208.96 70.4805 1208.96 65.9297C1208.96 61.3594 1211.73 58.6641 1215.42 58.6641C1218.55 58.6641 1220.97 60.4805 1221.4 63.625H1218.84ZM1236.2 65.9297C1236.2 70.5 1233.43 73.1953 1229.72 73.1953C1226.01 73.1953 1223.23 70.4805 1223.23 65.9297C1223.23 61.3594 1226.01 58.6641 1229.72 58.6641C1233.43 58.6641 1236.2 61.3594 1236.2 65.9297ZM1233.64 65.9297C1233.64 62.707 1232.02 60.9492 1229.72 60.9492C1227.41 60.9492 1225.79 62.707 1225.79 65.9297C1225.79 69.1523 1227.41 70.9102 1229.72 70.9102C1232.02 70.9102 1233.64 69.1523 1233.64 65.9297ZM1237.96 75.4414V74.0742L1241.28 71.3203C1242.12 70.6172 1242.63 70.168 1242.63 69.5039C1242.63 68.7812 1241.96 68.3516 1241.12 68.3516C1240.25 68.3516 1239.66 68.8203 1239.66 69.6211H1237.82C1237.82 67.9023 1239.23 66.8477 1241.16 66.8477C1243.14 66.8477 1244.43 67.9805 1244.43 69.4648C1244.43 70.6562 1243.72 71.5156 1242.14 72.6875L1240.7 73.8203V73.8789H1244.58V75.4414H1237.96Z" fill="#464C53"/>
<rect x="1218" y="84" width="17" height="9" fill="url(#paint0_linear_1762_34179)"/>
<path d="M1227.5 85C1227.5 84.7239 1227.28 84.5 1227 84.5C1226.72 84.5 1226.5 84.7239 1226.5 85L1227 85L1227.5 85ZM1226.65 100.354C1226.84 100.549 1227.16 100.549 1227.35 100.354L1230.54 97.1716C1230.73 96.9763 1230.73 96.6597 1230.54 96.4645C1230.34 96.2692 1230.02 96.2692 1229.83 96.4645L1227 99.2929L1224.17 96.4645C1223.98 96.2692 1223.66 96.2692 1223.46 96.4645C1223.27 96.6597 1223.27 96.9763 1223.46 97.1716L1226.65 100.354ZM1227 85L1226.5 85L1226.5 100L1227 100L1227.5 100L1227.5 85L1227 85Z" fill="#228738"/>
<rect x="1295.5" y="31.5" width="217" height="217" rx="108.5" stroke="#BACBDE" stroke-dasharray="3 3"/>
<path d="M1427 121.5C1428.5 113 1435.83 109 1440 109C1444.5 109 1449.17 111 1451.5 114.5C1453.83 118 1454.5 121.5 1454.5 129.5C1454.5 137.5 1457 137.5 1457.5 142.5C1458 147.5 1452.5 150.5 1453 150C1453.4 149.6 1452.17 150.167 1451.5 150.5L1445 152L1439 152.5H1427L1420 150.5C1420.5 149 1421.5 145.8 1421.5 145C1421.5 144 1424.5 139 1425 138C1425.5 137 1424.99 132.868 1427 121.5Z" fill="#D8E5FD" stroke="#39506C" stroke-linecap="round"/>
<path d="M1444.5 143L1443 139.5L1439.5 140.5L1435.5 139V143C1429 143 1418.83 148.833 1415 152V171.5H1462V160.977C1462 158 1461.89 154.914 1460.42 152.33C1456.74 145.899 1448.69 143.279 1444.5 143Z" fill="#ECF2FE" stroke="#39506C" stroke-linecap="round"/>
<line x1="1452.5" y1="171.5" x2="1452.5" y2="162.5" stroke="#39506C" stroke-linecap="round"/>
<path d="M1434.7 143V136.5C1438.47 139.5 1442.82 138.631 1444.71 137.131V143C1446.59 143 1448 143.5 1448 144C1448 145.333 1446.28 148 1439.88 148C1431.88 148 1431.41 144 1432.35 143.5C1433.1 143.1 1434.23 143 1434.7 143Z" fill="white" stroke="#39506C" stroke-linecap="round"/>
<path d="M1428 127C1428 124.692 1430.56 124.515 1431.05 125.682C1431.11 125.82 1431.28 125.904 1431.41 125.824L1433.5 124.5C1436.48 122.514 1437.49 122.007 1441.91 118.083C1441.95 118.041 1442.03 118.05 1442.06 118.105C1444.11 121.595 1449.29 126.264 1449.29 126.206C1449.29 125.136 1451.96 123.791 1452.47 126.5C1452.98 129.209 1451 131.197 1449.29 131.197C1448.39 135.072 1446.12 141 1440.21 141C1433.67 141 1431.44 134.333 1431.13 131C1430.07 131.167 1428 130.622 1428 127Z" fill="white" stroke="#39506C"/>
<path d="M1438 135C1438.4 135.866 1440.8 136.732 1442 135" stroke="#39506C" stroke-linecap="round"/>
<circle cx="1404" cy="140" r="82.5" stroke="#90B0D5"/>
<path d="M1295 235.501L1330.37 235.773C1333.73 235.799 1336.46 233.054 1336.41 229.69L1336.04 203.085C1336 199.739 1338.7 197.001 1342.04 197.001H1345" stroke="#61758F" stroke-width="0.8" stroke-linecap="round"/>
<circle cx="2" cy="2" r="1.65" transform="matrix(1 0 0 -1 1343 199)" fill="#B1CEFB" stroke="#0B50D0" stroke-width="0.7"/>
<g filter="url(#filter0_d_1762_34179)">
<circle cx="1.5" cy="1.5" r="1.5" transform="matrix(1 0 0 -1 1292 237)" fill="#B1CEFB"/>
<circle cx="1.5" cy="1.5" r="1.2" transform="matrix(1 0 0 -1 1292 237)" stroke="#0B50D0" stroke-width="0.6"/>
</g>
<path d="M1525 233.5L1486.29 233.5C1482.98 233.5 1480.3 230.827 1480.29 227.522L1480.2 202.978C1480.19 199.673 1477.5 197 1474.2 197H1465" stroke="#61758F" stroke-width="0.8" stroke-linecap="round"/>
<circle cx="1464" cy="197" r="1.65" transform="rotate(180 1464 197)" fill="#B1CEFB" stroke="#0B50D0" stroke-width="0.7"/>
<path d="M1367.5 143V136H1378V143C1384.5 143 1393.17 148.833 1397 152V171.5H1350V160.977C1350 158 1350.11 154.914 1351.58 152.33C1355.26 145.899 1363.31 143.279 1367.5 143Z" fill="#ECF2FE" stroke="#39506C" stroke-linecap="round"/>
<line x1="1360.5" y1="171.5" x2="1360.5" y2="162.5" stroke="#39506C" stroke-linecap="round"/>
<path d="M1367.5 143L1367.5 137C1371.5 140 1376 138.5 1378 137L1378 143C1380.5 143 1381.5 143.5 1381.5 144C1381.5 145.333 1379.8 148 1373 148C1364.5 148 1364 144 1365 143.5C1365.8 143.1 1367 143 1367.5 143Z" fill="white" stroke="#39506C" stroke-linecap="round"/>
<path d="M1367 107.999C1360.19 111.404 1360 119.793 1361 124.626L1384.5 126.125C1385.17 122.792 1384.57 114.31 1382.5 110.999C1380 106.999 1373 104.999 1367 107.999Z" fill="#D8E5FD" stroke="#39506C"/>
<path d="M1359.5 125.5C1359.5 123.074 1361.38 123.12 1362.41 124.039C1362.46 124.082 1362.53 124.074 1362.57 124.02L1365.96 118.686C1365.98 118.649 1366.03 118.632 1366.07 118.643C1371.99 120.098 1376.45 117.983 1379.44 116.653C1379.48 116.636 1379.52 116.643 1379.55 116.673C1381.34 118.525 1382.73 123.068 1382.96 123.876C1382.98 123.939 1383.05 123.969 1383.11 123.938C1383.68 123.639 1386.2 122.464 1386.5 125.125C1386.83 128.125 1384.33 129.625 1383 129.625C1382 133.5 1379.5 139.625 1373 139.625C1365.8 139.625 1363.33 132.958 1363 129.625C1361.83 129.792 1359.5 129.122 1359.5 125.5Z" fill="white" stroke="#39506C"/>
<path d="M1370.5 132.125C1371 133.625 1374 135.125 1375.5 132.125" stroke="#39506C" stroke-linecap="round"/>
<path d="M1406.5 138.502C1397.3 138.102 1389.78 142.507 1386.57 145.007C1381.07 149.285 1381.5 154.002 1382 155.507C1382.72 157.672 1386.11 160.557 1392 163.002C1395.98 164.655 1397.85 168.602 1398.9 171.83C1399.63 174.065 1401.95 175.134 1403.78 173.665C1409.07 169.428 1414.28 162.302 1418.5 161.002C1423.45 159.478 1431.73 158.502 1432 155.002C1432.5 148.502 1428.07 144.841 1426.07 143.507C1423.07 141.507 1418 139.002 1406.5 138.502Z" fill="#ECF2FE" stroke="#39506C"/>
<path d="M1401.29 138.767V133C1405.29 136 1409.79 134.5 1411.79 133V139C1414.5 139 1414.5 140 1414.5 140.5C1414.5 141.833 1413.59 144 1406.79 144C1398.29 144 1398.21 140.291 1399 139.5C1399.5 139 1400.79 138.767 1401.29 138.767Z" fill="white" stroke="#39506C" stroke-linecap="round"/>
<path d="M1400.5 104.125C1393.5 107.127 1393.5 115.794 1394.5 120.627L1418 122.126C1418.66 118.793 1418.9 110.7 1416.5 107.5C1413.5 103.5 1407 101.338 1400.5 104.125Z" fill="#D8E5FD" stroke="#39506C"/>
<path d="M1392.5 121.625C1392.5 119.198 1394.86 119.127 1395.91 120.04C1395.96 120.082 1396.03 120.074 1396.07 120.02L1399.46 114.686C1399.48 114.649 1399.53 114.632 1399.57 114.643C1405.49 116.098 1409.95 113.983 1412.94 112.653C1412.98 112.636 1413.02 112.643 1413.05 112.673C1414.84 114.517 1416.21 119.124 1416.46 119.985C1416.48 120.052 1416.56 120.082 1416.62 120.043C1417.19 119.664 1419.68 118.208 1420 121.125C1420.36 124.365 1417.93 125.579 1416.58 125.624C1416.53 125.625 1416.49 125.655 1416.48 125.699C1415.47 129.577 1412.96 135.625 1406.5 135.625C1399.37 135.625 1396.88 129.092 1396.51 125.726C1396.5 125.67 1396.45 125.632 1396.4 125.637C1395.17 125.758 1392.5 125.144 1392.5 121.625Z" fill="white" stroke="#39506C"/>
<path d="M1404 128.125C1404.5 129.625 1407.5 131.125 1409 128.125" stroke="#39506C" stroke-linecap="round"/>
<rect x="1349" y="171" width="114" height="1" fill="#F3F7FF"/>
<path d="M1400.34 208.51C1382.01 209.627 1376.92 194.72 1377 187.191C1377 187.083 1377.1 187 1377.2 187C1397.93 187.092 1401.62 201.337 1400.52 208.347C1400.51 208.439 1400.43 208.505 1400.34 208.51Z" fill="#D8EEDD" stroke="#1F687A" stroke-linecap="round"/>
<path d="M1404.4 212.205C1404.48 212.31 1404.52 212.442 1404.5 212.573C1404.48 212.704 1404.4 212.823 1404.3 212.903C1404.19 212.983 1404.05 213.018 1403.92 212.997C1403.79 212.977 1403.67 212.904 1403.6 212.795C1403.6 212.795 1403.6 212.795 1403.6 212.795C1403.38 212.489 1403.14 212.162 1402.91 211.856C1398.46 206.338 1393.57 200.988 1387.75 196.845C1387.42 196.622 1387.08 196.414 1386.74 196.225C1387.08 196.399 1387.43 196.594 1387.78 196.802C1393.79 200.719 1398.9 205.852 1403.65 211.263C1403.9 211.565 1404.16 211.892 1404.4 212.205Z" fill="#1F687A"/>
<path d="M1407.66 208.51C1425.99 209.627 1431.08 194.72 1431 187.191C1431 187.083 1430.9 187 1430.8 187C1410.07 187.092 1406.38 201.337 1407.48 208.347C1407.49 208.439 1407.57 208.505 1407.66 208.51Z" fill="#D8EEDD" stroke="#1F687A" stroke-linecap="round"/>
<path d="M1403.6 212.205C1403.52 212.31 1403.48 212.442 1403.5 212.573C1403.52 212.704 1403.6 212.823 1403.7 212.903C1403.81 212.983 1403.95 213.018 1404.08 212.997C1404.21 212.977 1404.33 212.904 1404.4 212.795C1404.4 212.795 1404.4 212.795 1404.4 212.795C1404.62 212.489 1404.86 212.162 1405.09 211.856C1409.54 206.338 1414.43 200.988 1420.25 196.845C1420.58 196.622 1420.92 196.414 1421.26 196.225C1420.92 196.399 1420.57 196.594 1420.22 196.802C1414.21 200.719 1409.1 205.852 1404.35 211.263C1404.1 211.565 1403.84 211.892 1403.6 212.205Z" fill="#1F687A"/>
<path d="M1395.46 169.048C1400.78 162.629 1412.81 160.612 1418.25 161.06C1418.34 161.067 1418.41 161.139 1418.43 161.229C1421.29 180.071 1413.01 190.48 1403.27 189.983C1393.5 189.485 1388.01 178.028 1395.46 169.048Z" fill="#D8EEDD" stroke="#1F687A" stroke-linecap="round"/>
<path d="M1403.58 177.731C1403.5 177.839 1403.47 177.971 1403.5 178.1C1403.53 178.23 1403.61 178.346 1403.73 178.421C1403.85 178.496 1403.99 178.524 1404.12 178.495C1404.25 178.467 1404.36 178.385 1404.42 178.269C1404.42 178.269 1404.42 178.269 1404.42 178.269C1404.49 178.142 1404.57 178.01 1404.66 177.881C1406.22 175.569 1408.3 173.491 1410.61 171.776C1410.74 171.683 1410.87 171.589 1411 171.5C1410.86 171.575 1410.72 171.654 1410.58 171.734C1408.09 173.218 1405.81 175.043 1403.88 177.326C1403.78 177.457 1403.68 177.594 1403.58 177.731Z" fill="#1F687A"/>
<path d="M1403.36 179.939C1403.47 180.024 1403.6 180.061 1403.73 180.037C1403.86 180.013 1403.98 179.93 1404.06 179.811C1404.14 179.693 1404.18 179.55 1404.15 179.419C1404.13 179.289 1404.05 179.182 1403.93 179.116C1403.93 179.116 1403.93 179.116 1403.93 179.116C1403.85 179.066 1403.77 179.021 1403.68 178.971C1402.13 178.201 1401.16 176.75 1400.17 175.276C1400.11 175.197 1400.06 175.116 1400 175.033C1400.04 175.124 1400.08 175.213 1400.12 175.301C1400.83 176.878 1401.62 178.646 1403.13 179.747C1403.21 179.813 1403.29 179.874 1403.36 179.939Z" fill="#1F687A"/>
<path d="M1404 222V178" stroke="#1F687A" stroke-linecap="round"/>
<path d="M1513 146H1546.72H1546H1564" stroke="#8A949E" stroke-width="0.8" stroke-linecap="round" stroke-dasharray="2 2"/>
<circle cx="3" cy="3" r="2.65" transform="matrix(-1 0 0 1 1516 143)" fill="#B1CEFB" stroke="#0B50D0" stroke-width="0.7"/>
<circle cx="1404" cy="249" r="3.65" fill="#B1CEFB" stroke="#0B50D0" stroke-width="0.7"/>
<circle cx="1404" cy="223" r="1.65" fill="#B1CEFB" stroke="#0B50D0" stroke-width="0.7"/>
<mask id="path-84-inside-7_1762_34179" fill="white">
<path d="M1404 15C1421.12 15 1435 28.8792 1435 46C1435 61.5072 1423.61 74.3538 1408.75 76.6377L1403.4 85.3457L1397.92 76.4014C1383.71 73.5747 1373 61.039 1373 46C1373 28.8792 1386.88 15 1404 15Z"/>
</mask>
<path d="M1404 15C1421.12 15 1435 28.8792 1435 46C1435 61.5072 1423.61 74.3538 1408.75 76.6377L1403.4 85.3457L1397.92 76.4014C1383.71 73.5747 1373 61.039 1373 46C1373 28.8792 1386.88 15 1404 15Z" fill="white"/>
<path d="M1435 46L1436 46V46H1435ZM1408.75 76.6377L1408.59 75.6493L1408.14 75.7197L1407.89 76.1149L1408.75 76.6377ZM1403.4 85.3457L1402.55 85.8686L1403.4 87.2583L1404.26 85.8685L1403.4 85.3457ZM1397.92 76.4014L1398.77 75.8785L1398.54 75.5059L1398.11 75.4206L1397.92 76.4014ZM1373 46H1372V46L1373 46ZM1404 15V16C1420.57 16 1434 29.4315 1434 46H1435H1436C1436 28.3269 1421.67 14 1404 14V15ZM1435 46L1434 46C1434 61.006 1422.98 73.4392 1408.59 75.6493L1408.75 76.6377L1408.9 77.6261C1424.25 75.2684 1436 62.0084 1436 46L1435 46ZM1408.75 76.6377L1407.89 76.1149L1402.55 84.8229L1403.4 85.3457L1404.26 85.8685L1409.6 77.1605L1408.75 76.6377ZM1403.4 85.3457L1404.26 84.8228L1398.77 75.8785L1397.92 76.4014L1397.07 76.9242L1402.55 85.8686L1403.4 85.3457ZM1397.92 76.4014L1398.11 75.4206C1384.36 72.6852 1374 60.5526 1374 46L1373 46L1372 46C1372 61.5253 1383.06 74.4642 1397.72 77.3821L1397.92 76.4014ZM1373 46H1374C1374 29.4315 1387.43 16 1404 16V15V14C1386.33 14 1372 28.3269 1372 46H1373Z" fill="#39506C" mask="url(#path-84-inside-7_1762_34179)"/>
<path d="M1400.39 37.5C1408.02 36.2121 1413.03 33.6667 1414.86 32C1415.2 36.5 1414.56 46.7 1409.36 51.5C1404.16 56.3 1399.51 55.3856 1395.89 52.5C1391.5 49 1391.5 39 1400.39 37.5Z" fill="#A9DAB4" stroke="#1F687A"/>
<path d="M1391.47 55.2225C1391.39 55.362 1391.37 55.5251 1391.42 55.677C1391.47 55.8287 1391.58 55.9568 1391.72 56.032C1391.87 56.1071 1392.03 56.1231 1392.19 56.0753C1392.34 56.0277 1392.46 55.9202 1392.53 55.7775C1392.53 55.7775 1392.53 55.7775 1392.53 55.7775C1392.66 55.524 1392.79 55.2668 1392.93 55.0107C1395.4 50.5289 1399.05 46.1362 1404.18 44.8836C1404.46 44.8187 1404.74 44.7655 1405.03 44.7233C1405.09 44.7148 1405.14 44.6832 1405.17 44.6362C1405.21 44.5892 1405.23 44.5306 1405.22 44.4727C1405.21 44.4147 1405.18 44.3619 1405.14 44.3251C1405.09 44.2884 1405.03 44.2707 1404.97 44.2767C1404.97 44.2767 1404.97 44.2767 1404.97 44.2767C1404.67 44.3081 1404.38 44.351 1404.08 44.4063C1398.65 45.497 1394.68 49.8985 1391.92 54.4386C1391.76 54.6995 1391.61 54.9623 1391.47 55.2225Z" fill="#1F687A"/>
<path d="M1265.5 76H1303.6C1306.92 76 1309.6 78.6863 1309.6 82V101C1309.6 104.314 1312.29 107 1315.6 107H1326" stroke="#61758F" stroke-width="0.8" stroke-linecap="round"/>
<circle cx="1328" cy="107" r="1.65" fill="#B1CEFB" stroke="#0B50D0" stroke-width="0.7"/>
<circle cx="1265" cy="76" r="1.65" fill="#B1CEFB" stroke="#0B50D0" stroke-width="0.7"/>
<path d="M1558 77.5V99C1558 103.418 1554.42 107 1550 107H1482" stroke="#61758F" stroke-width="0.8" stroke-linecap="round"/>
<circle cx="2" cy="2" r="1.65" transform="matrix(-1 0 0 1 1482 105)" fill="#B1CEFB" stroke="#0B50D0" stroke-width="0.7"/>
<circle cx="2" cy="2" r="1.65" transform="matrix(-1 0 0 1 1560 74)" fill="#B1CEFB" stroke="#0B50D0" stroke-width="0.7"/>
<path d="M1296 146L1264.54 146C1263.13 146 1261.83 146.735 1261.11 147.937L1255.61 157.063C1254.89 158.265 1253.59 159 1252.19 159H1239" stroke="#8A949E" stroke-width="0.8" stroke-linecap="round" stroke-dasharray="2 2"/>
<circle cx="1296" cy="146" r="2.65" fill="#B1CEFB" stroke="#0B50D0" stroke-width="0.7"/>
<rect x="1162.5" y="118.5" width="83" height="74" rx="5.5" fill="white"/>
<rect x="1162.5" y="118.5" width="83" height="74" rx="5.5" stroke="#61758F"/>
<circle cx="1180.5" cy="136.5" r="6" fill="#A9DAB4" stroke="#228738"/>
<path d="M1176.97 136.464L1179.27 138.675C1179.35 138.756 1179.49 138.754 1179.57 138.67L1183.93 134.18" stroke="white" stroke-width="1.25" stroke-linecap="round"/>
<line x1="1193.6" y1="133.798" x2="1229.4" y2="133.798" stroke="#61758F" stroke-width="1.2" stroke-linecap="round"/>
<line x1="1193.6" y1="137.998" x2="1217.4" y2="137.998" stroke="#BACBDE" stroke-width="1.2" stroke-linecap="round"/>
<circle cx="1180.5" cy="155.5" r="6" fill="#A9DAB4" stroke="#228738"/>
<path d="M1176.97 155.464L1179.27 157.675C1179.35 157.756 1179.49 157.754 1179.57 157.67L1183.93 153.18" stroke="white" stroke-width="1.25" stroke-linecap="round"/>
<line x1="1193.6" y1="152.798" x2="1229.4" y2="152.798" stroke="#61758F" stroke-width="1.2" stroke-linecap="round"/>
<line x1="1193.6" y1="156.998" x2="1217.4" y2="156.998" stroke="#BACBDE" stroke-width="1.2" stroke-linecap="round"/>
<circle cx="1180.5" cy="174.5" r="6" fill="#A9DAB4" stroke="#228738"/>
<path d="M1176.97 174.464L1179.27 176.675C1179.35 176.756 1179.49 176.754 1179.57 176.67L1183.93 172.18" stroke="white" stroke-width="1.25" stroke-linecap="round"/>
<line x1="1193.6" y1="171.798" x2="1229.4" y2="171.798" stroke="#61758F" stroke-width="1.2" stroke-linecap="round"/>
<line x1="1193.6" y1="175.998" x2="1217.4" y2="175.998" stroke="#BACBDE" stroke-width="1.2" stroke-linecap="round"/>
<mask id="path-109-inside-8_1762_34179" fill="white">
<path d="M1549 240C1549 239.448 1549.45 239 1550 239H1583C1583.55 239 1584 239.448 1584 240V261C1584 261.552 1583.55 262 1583 262H1550C1549.45 262 1549 261.552 1549 261V240Z"/>
</mask>
<path d="M1549 240C1549 239.448 1549.45 239 1550 239H1583C1583.55 239 1584 239.448 1584 240V261C1584 261.552 1583.55 262 1583 262H1550C1549.45 262 1549 261.552 1549 261V240Z" fill="#D8E5FD" stroke="#61758F" stroke-width="2.4" mask="url(#path-109-inside-8_1762_34179)"/>
<mask id="path-110-inside-9_1762_34179" fill="white">
<path d="M1523 233C1523 232.448 1523.45 232 1524 232H1562C1562.55 232 1563 232.448 1563 233V256C1563 256.552 1562.55 257 1562 257H1524C1523.45 257 1523 256.552 1523 256V233Z"/>
</mask>
<path d="M1523 233C1523 232.448 1523.45 232 1524 232H1562C1562.55 232 1563 232.448 1563 233V256C1563 256.552 1562.55 257 1562 257H1524C1523.45 257 1523 256.552 1523 256V233Z" fill="white" stroke="#61758F" stroke-width="2.4" mask="url(#path-110-inside-9_1762_34179)"/>
<mask id="path-111-inside-10_1762_34179" fill="white">
<path d="M1519 257C1519 255.895 1519.9 255 1521 255H1565C1566.1 255 1567 255.895 1567 257V261C1567 261.552 1566.55 262 1566 262H1520C1519.45 262 1519 261.552 1519 261V257Z"/>
</mask>
<path d="M1519 257C1519 255.895 1519.9 255 1521 255H1565C1566.1 255 1567 255.895 1567 257V261C1567 261.552 1566.55 262 1566 262H1520C1519.45 262 1519 261.552 1519 261V257Z" fill="#EEF2F7" stroke="#61758F" stroke-width="2.4" mask="url(#path-111-inside-10_1762_34179)"/>
<path d="M1532.5 238.5C1534.16 238.5 1535.5 239.843 1535.5 241.5V255.5H1529.5V241.5C1529.5 239.843 1530.84 238.5 1532.5 238.5Z" fill="#D8E5FD" stroke="#61758F"/>
<line x1="1529.5" y1="243.25" x2="1535.5" y2="243.25" stroke="#61758F"/>
<path d="M1543 238.5C1544.66 238.5 1546 239.843 1546 241.5V255.5H1540V241.5C1540 239.843 1541.34 238.5 1543 238.5Z" fill="#D8E5FD" stroke="#61758F"/>
<line x1="1540.5" y1="243.25" x2="1545.5" y2="243.25" stroke="#61758F"/>
<path d="M1553.5 238.5C1555.16 238.5 1556.5 239.843 1556.5 241.5V255.5H1550.5V241.5C1550.5 239.843 1551.84 238.5 1553.5 238.5Z" fill="#D8E5FD" stroke="#61758F"/>
<line x1="1550.5" y1="243.25" x2="1556.5" y2="243.25" stroke="#61758F"/>
<path d="M1551.56 206.143C1547.17 208.641 1544.63 206.444 1543.58 205.312C1543.48 205.205 1543.3 205.273 1543.3 205.42V210.444C1543.3 210.48 1543.31 210.516 1543.34 210.543C1545.33 212.969 1549.72 212.501 1551.74 211.046C1551.78 211.017 1551.8 210.971 1551.8 210.921V206.28C1551.8 206.157 1551.66 206.082 1551.56 206.143Z" fill="#ECF2FE" stroke="#61758F" stroke-width="1.2"/>
<path d="M1543.3 208L1543.3 218" stroke="#61758F" stroke-width="1.2" stroke-linecap="round"/>
<path d="M1521 229.807V232.8C1521 232.91 1521.09 233 1521.2 233H1564.8C1564.91 233 1565 232.91 1565 232.8V229.804C1565 229.736 1564.97 229.672 1564.91 229.636L1543.58 216.067C1543.52 216.026 1543.44 216.025 1543.37 216.065L1521.1 229.636C1521.04 229.672 1521 229.737 1521 229.807Z" fill="#ECF2FE" stroke="#61758F" stroke-width="1.2"/>
<line x1="1521" y1="229.568" x2="1565" y2="229.568" stroke="#61758F" stroke-width="1.2"/>
<line x1="1512.6" y1="261.4" x2="1586.4" y2="261.4" stroke="#61758F" stroke-width="1.2" stroke-linecap="round"/>
<circle cx="1124" cy="207" r="3" fill="#BACBDE"/>
<circle cx="1339" cy="24" r="2" fill="#BACBDE"/>
<circle cx="1660" cy="216" r="2" fill="#90B0D5"/>
<path d="M1157 74L1157 77" stroke="#98ACC5" stroke-linecap="round"/>
<path d="M1157 81L1157 84" stroke="#98ACC5" stroke-linecap="round"/>
<path d="M1162 79L1159 79" stroke="#98ACC5" stroke-linecap="round"/>
<path d="M1155 79L1152 79" stroke="#98ACC5" stroke-linecap="round"/>
<path d="M1670 53L1670 56" stroke="#98ACC5" stroke-linecap="round"/>
<path d="M1670 60L1670 63" stroke="#98ACC5" stroke-linecap="round"/>
<path d="M1675 58L1672 58" stroke="#98ACC5" stroke-linecap="round"/>
<path d="M1668 58L1665 58" stroke="#98ACC5" stroke-linecap="round"/>
<path d="M1616 95L1616 98" stroke="#98ACC5" stroke-linecap="round"/>
<path d="M1616 102L1616 105" stroke="#98ACC5" stroke-linecap="round"/>
<path d="M1621 100L1618 100" stroke="#98ACC5" stroke-linecap="round"/>
<path d="M1614 100L1611 100" stroke="#98ACC5" stroke-linecap="round"/>
<defs>
<filter id="filter0_d_1762_34179" x="1288" y="234" width="11" height="11" filterUnits="userSpaceOnUse" color-interpolation-filters="sRGB">
<feFlood flood-opacity="0" result="BackgroundImageFix"/>
<feColorMatrix in="SourceAlpha" type="matrix" values="0 0 0 0 0 0 0 0 0 0 0 0 0 0 0 0 0 0 127 0" result="hardAlpha"/>
<feOffset dy="4"/>
<feGaussianBlur stdDeviation="2"/>
<feComposite in2="hardAlpha" operator="out"/>
<feColorMatrix type="matrix" values="0 0 0 0 0 0 0 0 0 0 0 0 0 0 0 0 0 0 0.25 0"/>
<feBlend mode="normal" in2="BackgroundImageFix" result="effect1_dropShadow_1762_34179"/>
<feBlend mode="normal" in="SourceGraphic" in2="effect1_dropShadow_1762_34179" result="shape"/>
</filter>
<linearGradient id="paint0_linear_1762_34179" x1="1226.5" y1="84" x2="1226.5" y2="93" gradientUnits="userSpaceOnUse">
<stop stop-color="white"/>
<stop offset="1" stop-color="#F3F7FF"/>
</linearGradient>
</defs>
</svg>
