<svg width="603" height="146" viewBox="0 0 603 146" fill="none" xmlns="http://www.w3.org/2000/svg">
<g filter="url(#filter0_d_1840_26560)">
<path d="M203 86C203 81.5817 206.582 78 211 78H383C387.418 78 391 81.5817 391 86V128C391 132.418 387.418 136 383 136H211C206.582 136 203 132.418 203 128V86Z" fill="white" shape-rendering="crispEdges"/>
<path d="M211 78.5H383C387.142 78.5 390.5 81.8579 390.5 86V128C390.5 132.142 387.142 135.5 383 135.5H211C206.858 135.5 203.5 132.142 203.5 128V86C203.5 81.8579 206.858 78.5 211 78.5Z" stroke="#D6E0EB" shape-rendering="crispEdges"/>
<path d="M234.422 101V101.922C234.406 102.844 234.406 104.109 234.078 105.656L232.125 105.516C232.352 104.32 232.406 103.391 232.422 102.594H227.078V101H234.422ZM230.859 104.172V106.625C232.281 106.578 233.727 106.484 235.062 106.328L235.172 107.719C232.219 108.234 228.969 108.312 226.406 108.312L226.234 106.719C227.047 106.711 227.938 106.711 228.875 106.688V104.172H230.859ZM237.875 100.219V103.719H239.609V105.375H237.875V108.891H235.828V100.219H237.875ZM233.031 109.062C236.078 109.062 237.969 110.078 237.969 111.703C237.969 113.422 236.078 114.406 233.031 114.406C229.984 114.406 228.078 113.422 228.078 111.703C228.078 110.078 229.984 109.062 233.031 109.062ZM233.031 110.594C231.156 110.594 230.109 110.984 230.109 111.703C230.109 112.516 231.156 112.859 233.031 112.859C234.891 112.859 235.922 112.516 235.922 111.703C235.922 110.984 234.891 110.594 233.031 110.594ZM252.234 100.219V108.547H250.25V106.734H247.594V107.766H240.844V101.266H247.594V102.297H250.25V100.219H252.234ZM242.828 102.844V106.188H245.641V102.844H242.828ZM247.375 108.922C250.406 108.922 252.266 109.938 252.281 111.688C252.266 113.438 250.406 114.438 247.375 114.438C244.344 114.438 242.484 113.438 242.484 111.688C242.484 109.938 244.344 108.922 247.375 108.922ZM247.375 110.438C245.484 110.438 244.469 110.844 244.469 111.688C244.469 112.5 245.484 112.922 247.375 112.922C249.266 112.922 250.297 112.5 250.297 111.688C250.297 110.844 249.266 110.438 247.375 110.438ZM247.594 105.125H250.25V103.875H247.594V105.125ZM265.25 102.094C265.25 104.172 267.094 106.406 270.312 106.953L269.438 108.609C266.961 108.117 265.117 106.727 264.203 104.891C263.258 106.711 261.414 108.109 258.953 108.609L258.094 106.953C261.25 106.391 263.109 104.156 263.125 102.094V101.062H265.25V102.094ZM270.781 111.047V112.688H257.766V111.047H270.781ZM278.875 101.562V110.969H272.047V101.562H278.875ZM274.016 103.125V109.391H276.891V103.125H274.016ZM282.812 100.219V105.578H284.906V107.234H282.812V114.438H280.812V100.219H282.812ZM297.016 107.562V109.141H286.953V101.266H296.906V102.875H288.984V104.375H296.578V105.938H288.984V107.562H297.016ZM298.438 111.156V112.781H285.422V111.156H298.438ZM311.578 100.219V114.438H309.656V100.219H311.578ZM308.562 100.469V113.797H306.703V107.031H304.156V105.406H306.703V100.469H308.562ZM305.125 101.828V103.422H301.641V109.609C303.164 109.602 304.312 109.523 305.641 109.25L305.797 110.875C304.188 111.203 302.75 111.266 300.672 111.266H299.688V101.828H305.125ZM324.984 100.219V114.469H322.969V100.219H324.984ZM317.266 101.219C319.406 101.219 321 103.188 321 106.281C321 109.406 319.406 111.359 317.266 111.359C315.078 111.359 313.484 109.406 313.5 106.281C313.484 103.188 315.078 101.219 317.266 101.219ZM317.266 103.016C316.156 103.016 315.422 104.172 315.422 106.281C315.422 108.406 316.156 109.547 317.266 109.547C318.344 109.547 319.078 108.406 319.078 106.281C319.078 104.172 318.344 103.016 317.266 103.016ZM338.906 100.219V114.469H336.938V106.844H334.438V105.234H336.938V100.219H338.906ZM334.203 101.406V103.016H329.547V105.375H333.688V106.938H329.547V109.625C331.516 109.609 333.094 109.539 334.859 109.266L335.062 110.859C332.984 111.172 331.125 111.25 328.688 111.25H327.562V101.406H334.203ZM353.75 111.188V112.859H340.734V111.188H346.203V108.625H341.812V107.062H343.719V103H341.75V101.406H352.656V103H350.656V107.062H352.594V108.625H348.188V111.188H353.75ZM345.719 107.062H348.688V103H345.719V107.062ZM361.828 101V102.562H357.219V103.438H361.406V104.922H357.219V105.891C359.312 105.891 360.719 105.859 362.344 105.609L362.484 107.172C360.594 107.453 358.984 107.469 356.344 107.469H355.234V101H361.828ZM366.547 100.219V107.75H364.562V104.812H362.25V103.25H364.562V100.219H366.547ZM366.547 108.266V112H359.094V112.812H366.969V114.344H357.094V110.562H364.562V109.797H357.078V108.266H366.547Z" fill="#063A74"/>
</g>
<g filter="url(#filter1_d_1840_26560)">
<path d="M231 14C231 9.58172 234.582 6 239 6H356C360.418 6 364 9.58172 364 14V39C364 43.4183 360.418 47 356 47H239C234.582 47 231 43.4183 231 39V14Z" fill="white" shape-rendering="crispEdges"/>
<path d="M239 6.5H356C360.142 6.5 363.5 9.85787 363.5 14V39C363.5 43.1421 360.142 46.5 356 46.5H239C234.858 46.5 231.5 43.1421 231.5 39V14C231.5 9.85786 234.858 6.5 239 6.5Z" stroke="#D6E0EB" shape-rendering="crispEdges"/>
<g clip-path="url(#clip0_1840_26560)">
<path d="M255.102 21.2812C255.102 21.1259 255.227 21 255.383 21H256.02C256.176 21 256.302 21.1259 256.302 21.2812V21.9188C256.302 22.0741 256.176 22.2 256.02 22.2H255.383C255.227 22.2 255.102 22.0741 255.102 21.9188V21.2812Z" fill="#052561"/>
<path d="M257.989 21.2812C257.989 21.1259 258.115 21 258.27 21H258.908C259.063 21 259.189 21.1259 259.189 21.2812V21.9188C259.189 22.0741 259.063 22.2 258.908 22.2H258.27C258.115 22.2 257.989 22.0741 257.989 21.9188V21.2812Z" fill="#052561"/>
<path d="M260.877 21.2812C260.877 21.1259 261.003 21 261.158 21H261.795C261.951 21 262.077 21.1259 262.077 21.2812V21.9188C262.077 22.0741 261.951 22.2 261.795 22.2H261.158C261.003 22.2 260.877 22.0741 260.877 21.9188V21.2812Z" fill="#052561"/>
<path d="M255.102 24.2812C255.102 24.1259 255.227 24 255.383 24H256.02C256.176 24 256.302 24.1259 256.302 24.2812V24.9188C256.302 25.0741 256.176 25.2 256.02 25.2H255.383C255.227 25.2 255.102 25.0741 255.102 24.9188V24.2812Z" fill="#052561"/>
<path d="M257.989 24.2812C257.989 24.1259 258.115 24 258.27 24H258.908C259.063 24 259.189 24.1259 259.189 24.2812V24.9188C259.189 25.0741 259.063 25.2 258.908 25.2H258.27C258.115 25.2 257.989 25.0741 257.989 24.9188V24.2812Z" fill="#052561"/>
<path d="M260.877 24.2812C260.877 24.1259 261.003 24 261.158 24H261.795C261.951 24 262.077 24.1259 262.077 24.2812V24.9188C262.077 25.0741 261.951 25.2 261.795 25.2H261.158C261.003 25.2 260.877 25.0741 260.877 24.9188V24.2812Z" fill="#052561"/>
<path d="M255.102 27.2812C255.102 27.1259 255.227 27 255.383 27H256.02C256.176 27 256.302 27.1259 256.302 27.2812V27.9188C256.302 28.0741 256.176 28.2 256.02 28.2H255.383C255.227 28.2 255.102 28.0741 255.102 27.9188V27.2812Z" fill="#052561"/>
<path d="M257.989 27.2812C257.989 27.1259 258.115 27 258.27 27H258.908C259.063 27 259.189 27.1259 259.189 27.2812V27.9188C259.189 28.0741 259.063 28.2 258.908 28.2H258.27C258.115 28.2 257.989 28.0741 257.989 27.9188V27.2812Z" fill="#052561"/>
<path d="M260.877 27.2812C260.877 27.1259 261.003 27 261.158 27H261.795C261.951 27 262.077 27.1259 262.077 27.2812V27.9188C262.077 28.0741 261.951 28.2 261.795 28.2H261.158C261.003 28.2 260.877 28.0741 260.877 27.9188V27.2812Z" fill="#052561"/>
<path d="M256 31.5H261C261.276 31.5 261.5 31.7239 261.5 32V34.5H255.5V32C255.5 31.7239 255.724 31.5 256 31.5Z" stroke="#052561"/>
<path d="M253 19.2932V34.7188C253 34.8741 253.126 35 253.281 35H263.719C263.874 35 264 34.8741 264 34.7188V19.2905C264 19.1745 263.929 19.0705 263.821 19.0284L261.304 18.0491L258.709 17.0389C258.644 17.0139 258.573 17.0134 258.508 17.0376L253.183 19.0298C253.073 19.0709 253 19.1759 253 19.2932Z" stroke="#052561"/>
<path d="M246 35L264 35" stroke="#052561" stroke-linecap="round"/>
<g clip-path="url(#clip1_1840_26560)">
<path d="M247.489 33.4154C247.222 33.4161 246.962 33.3162 246.748 33.1304C246.533 32.9446 246.375 32.6829 246.297 32.3838C246.219 32.0846 246.225 31.764 246.314 31.4692C246.403 31.1744 246.571 30.9211 246.792 30.7466C246.656 30.5466 246.574 30.303 246.557 30.0476C246.54 29.7922 246.589 29.5367 246.698 29.3145C246.807 29.0923 246.97 28.9135 247.167 28.8016C247.363 28.6896 247.626 28.6114 247.826 28.6114C247.826 28.3214 247.899 28.1075 248.074 27.9024C248.249 27.6973 248.486 27.582 248.733 27.582C248.981 27.582 249.218 27.6973 249.393 27.9024C249.568 28.1075 249.636 28.3214 249.636 28.6114C249.88 28.6114 250.104 28.6932 250.3 28.8052C250.497 28.9172 250.66 29.0959 250.769 29.3181C250.877 29.5404 250.927 29.7958 250.91 30.0513C250.893 30.3067 250.811 30.5502 250.674 30.7503C250.894 30.9253 251.061 31.1785 251.149 31.4726C251.238 31.7666 251.243 32.0862 251.165 32.3843C251.087 32.6824 250.93 32.9434 250.716 33.129C250.502 33.3145 250.244 33.4149 249.978 33.4154H247.489Z" stroke="#052561" stroke-width="0.933333" stroke-linecap="round" stroke-linejoin="round"/>
<path d="M248.734 32.5391L248.734 34.8724" stroke="#052561" stroke-width="0.933333" stroke-linecap="round" stroke-linejoin="round"/>
</g>
</g>
<path d="M280.273 20.6504V21.3477C280.273 22.127 280.273 23.2344 279.959 24.6426L278.674 24.5332C278.927 23.3369 278.968 22.4414 278.988 21.7168H274.094V20.6504H280.273ZM277.143 23.3301V25.6406C278.462 25.5928 279.809 25.5107 281.039 25.3535L281.121 26.2695C278.564 26.707 275.68 26.7754 273.479 26.7754L273.355 25.6953C274.114 25.6953 274.969 25.6953 275.857 25.668V23.3301H277.143ZM283.145 19.9121V23.1523H284.84V24.2324H283.145V27.5H281.818V19.9121H283.145ZM279.098 27.6504C281.668 27.6504 283.24 28.4844 283.24 29.8652C283.24 31.3008 281.668 32.1211 279.098 32.1211C276.541 32.1211 274.955 31.3008 274.955 29.8652C274.955 28.4844 276.541 27.6504 279.098 27.6504ZM279.098 28.6621C277.334 28.6621 276.254 29.1133 276.268 29.8652C276.254 30.6719 277.334 31.0957 279.098 31.0957C280.861 31.0957 281.914 30.6719 281.928 29.8652C281.914 29.1133 280.861 28.6621 279.098 28.6621ZM295.764 19.9121V27.1445H294.465V25.3262H291.799V26.3242H286.111V20.8281H291.799V21.8398H294.465V19.9121H295.764ZM287.396 21.8672V25.2852H290.527V21.8672H287.396ZM291.662 27.4863C294.232 27.4863 295.805 28.334 295.805 29.8242C295.805 31.3008 294.232 32.1484 291.662 32.1348C289.092 32.1484 287.506 31.3008 287.52 29.8242C287.506 28.334 289.092 27.4863 291.662 27.4863ZM291.662 28.4844C289.871 28.498 288.805 28.9629 288.805 29.8242C288.805 30.6445 289.871 31.1367 291.662 31.1367C293.453 31.1367 294.52 30.6445 294.52 29.8242C294.52 28.9629 293.453 28.498 291.662 28.4844ZM291.799 24.2734H294.465V22.8789H291.799V24.2734ZM302.148 23.0293C302.135 25.2715 303.488 27.5137 305.389 28.3613L304.609 29.3867C303.201 28.7168 302.087 27.3428 301.52 25.668C300.945 27.459 299.817 28.9424 298.348 29.6602L297.555 28.5664C299.482 27.7051 300.836 25.3672 300.836 23.0293V20.9375H302.148V23.0293ZM307.795 19.9121V32.1895H306.496V19.9121H307.795ZM318.199 23.0293C318.199 25.2715 319.457 27.5 321.33 28.3477L320.537 29.3867C319.143 28.6895 318.097 27.3018 317.557 25.627C317.017 27.3906 315.943 28.8809 314.535 29.6191L313.715 28.5664C315.615 27.6641 316.887 25.2988 316.887 23.0293V20.9375H318.199V23.0293ZM323.996 19.9121V32.1895H322.711V25.0391H319.977V23.9863H322.711V19.9121H323.996ZM336.027 19.9121V32.1895H334.729V19.9121H336.027ZM327.865 20.9375V24.082H331.16V20.9375H332.445V29.25H326.566V20.9375H327.865ZM327.865 28.1836H331.16V25.1074H327.865V28.1836ZM344.203 21.6484C344.203 23.6445 346.336 25.5312 348.688 25.9551L348.086 27.0352C346.131 26.6113 344.326 25.3262 343.533 23.6035C342.727 25.3125 340.929 26.5977 338.967 27.0352L338.393 25.9551C340.717 25.5176 342.836 23.6445 342.836 21.6484V20.7188H344.203V21.6484ZM349.193 29.4688V30.5488H337.982V29.4688H349.193Z" fill="#1E2124"/>
</g>
<path d="M300 44.5V77" stroke="#B1CEFB"/>
<circle cx="300" cy="46" r="3" fill="#0B50D0"/>
<circle cx="300" cy="78" r="2" fill="#0B50D0"/>
<g filter="url(#filter2_d_1840_26560)">
<path d="M440 98C440 93.5817 443.582 90 448 90H585C589.418 90 593 93.5817 593 98V123C593 127.418 589.418 131 585 131H448C443.582 131 440 127.418 440 123V98Z" fill="white" shape-rendering="crispEdges"/>
<path d="M448 90.5H585C589.142 90.5 592.5 93.8579 592.5 98V123C592.5 127.142 589.142 130.5 585 130.5H448C443.858 130.5 440.5 127.142 440.5 123V98C440.5 93.8579 443.858 90.5 448 90.5Z" stroke="#D6E0EB" shape-rendering="crispEdges"/>
<path d="M456.528 101.5H464.128C464.515 101.5 464.828 101.814 464.828 102.2V119.499H455.828V102.2C455.828 101.814 456.142 101.5 456.528 101.5Z" stroke="#052561"/>
<path d="M465.815 106.402H471.15C471.537 106.402 471.851 106.716 471.851 107.103V119.499H465.203V107.015L465.216 106.892C465.265 106.652 465.453 106.464 465.692 106.415L465.815 106.402Z" stroke="#052561"/>
<line x1="454.5" y1="119.5" x2="473.5" y2="119.5" stroke="#052561" stroke-linecap="round"/>
<path d="M458.297 104.411C458.297 104.3 458.386 104.211 458.497 104.211H459.215C459.325 104.211 459.415 104.3 459.415 104.411V105.129C459.415 105.239 459.325 105.329 459.215 105.329H458.497C458.386 105.329 458.297 105.239 458.297 105.129V104.411Z" fill="#052561"/>
<path d="M461.297 104.411C461.297 104.3 461.386 104.211 461.497 104.211H462.215C462.325 104.211 462.415 104.3 462.415 104.411V105.129C462.415 105.239 462.325 105.329 462.215 105.329H461.497C461.386 105.329 461.297 105.239 461.297 105.129V104.411Z" fill="#052561"/>
<path d="M458.297 107.384C458.297 107.273 458.386 107.184 458.497 107.184H459.215C459.325 107.184 459.415 107.273 459.415 107.384V108.101C459.415 108.212 459.325 108.301 459.215 108.301H458.497C458.386 108.301 458.297 108.212 458.297 108.101V107.384Z" fill="#052561"/>
<path d="M461.297 107.384C461.297 107.273 461.386 107.184 461.497 107.184H462.215C462.325 107.184 462.415 107.273 462.415 107.384V108.101C462.415 108.212 462.325 108.301 462.215 108.301H461.497C461.386 108.301 461.297 108.212 461.297 108.101V107.384Z" fill="#052561"/>
<path d="M458.297 110.352C458.297 110.242 458.386 110.152 458.497 110.152H459.215C459.325 110.152 459.415 110.242 459.415 110.352V111.07C459.415 111.18 459.325 111.27 459.215 111.27H458.497C458.386 111.27 458.297 111.18 458.297 111.07V110.352Z" fill="#052561"/>
<path d="M461.297 110.352C461.297 110.242 461.386 110.152 461.497 110.152H462.215C462.325 110.152 462.415 110.242 462.415 110.352V111.07C462.415 111.18 462.325 111.27 462.215 111.27H461.497C461.386 111.27 461.297 111.18 461.297 111.07V110.352Z" fill="#052561"/>
<rect x="467.824" y="108.969" width="1.17647" height="1.11765" rx="0.2" fill="#052561"/>
<rect x="467.824" y="111.762" width="1.17647" height="1.11765" rx="0.2" fill="#052561"/>
<rect x="467.824" y="114.559" width="1.17647" height="1.11765" rx="0.2" fill="#052561"/>
<path d="M458.062 119.345V115.71C458.062 115.424 458.295 115.191 458.582 115.191H460.404H461.575H462.227C462.513 115.191 462.746 115.424 462.746 115.71V119.664" stroke="#052561"/>
<path d="M488.85 104.883C488.836 108.137 487.264 110.488 483.258 111.814L482.738 110.789C484.734 110.14 485.992 109.258 486.717 108.178L482.902 108.492L482.697 107.439L487.195 107.248C487.346 106.831 487.441 106.394 487.482 105.936H483.312V104.883H488.85ZM492.664 103.926V112.99H491.365V108.82H488.809V107.754H491.365V103.926H492.664ZM493.006 114.85V115.902H484.816V112.102H486.129V114.85H493.006ZM505.762 113.537V114.604H494.551V113.537H499.459V110.625H500.744V113.537H505.762ZM500.771 105.621C500.771 107.562 502.904 109.381 505.27 109.777L504.709 110.844C502.727 110.447 500.901 109.224 500.088 107.535C499.281 109.217 497.477 110.461 495.508 110.844L494.934 109.777C497.285 109.381 499.404 107.562 499.404 105.621V104.691H500.771V105.621ZM510.902 107.029C510.889 109.203 512.146 111.418 513.979 112.307L513.172 113.346C511.839 112.655 510.807 111.281 510.273 109.641C509.72 111.391 508.646 112.854 507.252 113.578L506.445 112.525C508.332 111.623 509.604 109.271 509.604 107.029V104.938H510.902V107.029ZM516.193 103.912V108.793H518.162V109.9H516.193V116.162H514.895V103.912H516.193ZM524.178 111.637C523.645 111.637 523.193 111.199 523.207 110.666C523.193 110.133 523.645 109.695 524.178 109.695C524.697 109.695 525.148 110.133 525.148 110.666C525.148 111.199 524.697 111.637 524.178 111.637ZM534.801 106.441C534.801 107.863 535.908 109.176 537.781 109.709L537.18 110.721C535.765 110.304 534.719 109.442 534.172 108.328C533.639 109.559 532.565 110.509 531.109 110.953L530.48 109.941C532.354 109.395 533.516 107.986 533.516 106.441V106.318H530.85V105.279H533.516V103.857H534.814V105.279H537.467V106.318H534.801V106.441ZM540.133 103.912V106.947H541.91V108.027H540.133V111.145H538.834V103.912H540.133ZM540.133 111.691V116.012H532.312V111.691H540.133ZM533.584 112.717V114.959H538.848V112.717H533.584ZM545.93 104.828C547.044 104.828 547.967 105.471 548.514 106.578H551.535V103.912H552.82V116.189H551.535V111.486H548.596C548.069 112.717 547.105 113.428 545.93 113.428C544.098 113.428 542.812 111.76 542.826 109.121C542.812 106.496 544.098 104.828 545.93 104.828ZM545.93 105.99C544.822 105.99 544.057 107.193 544.057 109.121C544.057 111.062 544.822 112.266 545.93 112.266C547.037 112.266 547.803 111.062 547.803 109.121C547.803 107.193 547.037 105.99 545.93 105.99ZM548.883 107.645C548.972 108.096 549.033 108.588 549.033 109.121C549.033 109.586 548.992 110.017 548.91 110.42H551.535V107.645H548.883ZM564.893 103.912V116.162H563.58V103.912H564.893ZM561.242 105.225C561.242 108.807 559.711 111.924 555.514 113.934L554.83 112.881C558.091 111.329 559.677 109.121 559.93 106.264H555.418V105.225H561.242ZM573.629 104.842V105.525C573.615 106.346 573.615 107.562 573.314 109.148L572.029 109.025C572.296 107.665 572.337 106.681 572.357 105.908H567.449V104.842H573.629ZM570.498 107.59V110.119C571.811 110.078 573.164 109.982 574.395 109.805L574.477 110.748C571.92 111.199 568.994 111.24 566.834 111.254L566.711 110.201C567.463 110.194 568.317 110.188 569.213 110.16V107.59H570.498ZM576.5 103.912V107.809H578.182V108.902H576.5V113.113H575.174V103.912H576.5ZM576.896 114.85V115.902H568.57V112.279H569.869V114.85H576.896Z" fill="#1E2124"/>
</g>
<path d="M439 110H391" stroke="#B1CEFB"/>
<circle cx="440" cy="110" r="3" transform="rotate(90 440 110)" fill="#0B50D0"/>
<circle cx="390" cy="110" r="2" transform="rotate(90 390 110)" fill="#0B50D0"/>
<g filter="url(#filter3_d_1840_26560)">
<path d="M9 98C9 93.5817 12.5817 90 17 90H106C110.418 90 114 93.5817 114 98V123C114 127.418 110.418 131 106 131H17C12.5817 131 9 127.418 9 123V98Z" fill="white" shape-rendering="crispEdges"/>
<path d="M17 90.5H106C110.142 90.5 113.5 93.8579 113.5 98V123C113.5 127.142 110.142 130.5 106 130.5H17C12.8579 130.5 9.5 127.142 9.5 123V98C9.5 93.8579 12.8579 90.5 17 90.5Z" stroke="#D6E0EB" shape-rendering="crispEdges"/>
<path d="M36.2791 110.5H37.615C40.3127 110.5 42.4998 112.687 42.4998 115.385V117.423C42.4998 117.741 42.2412 118 41.9226 118H31.3943V115.385C31.3943 112.687 33.5814 110.5 36.2791 110.5Z" fill="white" stroke="#052561"/>
<circle cx="36.9998" cy="106" r="3" stroke="#052561"/>
<circle cx="29" cy="106" r="3" stroke="#052561"/>
<path d="M28.3848 110.5H29.7207C32.4184 110.5 34.6055 112.687 34.6055 115.385V117.423C34.6055 117.741 34.3469 118 34.0283 118H24.0771C23.7585 118 23.5 117.741 23.5 117.423V115.385C23.5 112.687 25.6871 110.5 28.3848 110.5Z" fill="white" stroke="#052561"/>
<path d="M55.9492 107.029C55.9355 109.271 57.2891 111.514 59.1895 112.361L58.4102 113.387C57.002 112.717 55.8877 111.343 55.3203 109.668C54.7461 111.459 53.6182 112.942 52.1484 113.66L51.3555 112.566C53.2832 111.705 54.6367 109.367 54.6367 107.029V104.938H55.9492V107.029ZM61.5957 103.912V116.189H60.2969V103.912H61.5957ZM70.0176 104.951V110.707H64.1934V104.951H70.0176ZM65.4648 106.004V109.668H68.7324V106.004H65.4648ZM73.709 103.926V112.703H72.4102V103.926H73.709ZM74.0781 114.727V115.793H65.6973V111.855H67.0098V114.727H74.0781ZM79.9434 106.441C79.9434 107.863 81.0508 109.176 82.9238 109.709L82.3223 110.721C80.9072 110.304 79.8613 109.442 79.3145 108.328C78.7812 109.559 77.708 110.509 76.252 110.953L75.623 109.941C77.4961 109.395 78.6582 107.986 78.6582 106.441V106.318H75.9922V105.279H78.6582V103.857H79.957V105.279H82.6094V106.318H79.9434V106.441ZM85.2754 103.912V106.947H87.0527V108.027H85.2754V111.145H83.9766V103.912H85.2754ZM85.2754 111.691V116.012H77.4551V111.691H85.2754ZM78.7266 112.717V114.959H83.9902V112.717H78.7266ZM91.0723 104.828C92.1865 104.828 93.1094 105.471 93.6562 106.578H96.6777V103.912H97.9629V116.189H96.6777V111.486H93.7383C93.2119 112.717 92.248 113.428 91.0723 113.428C89.2402 113.428 87.9551 111.76 87.9688 109.121C87.9551 106.496 89.2402 104.828 91.0723 104.828ZM91.0723 105.99C89.9648 105.99 89.1992 107.193 89.1992 109.121C89.1992 111.062 89.9648 112.266 91.0723 112.266C92.1797 112.266 92.9453 111.062 92.9453 109.121C92.9453 107.193 92.1797 105.99 91.0723 105.99ZM94.0254 107.645C94.1143 108.096 94.1758 108.588 94.1758 109.121C94.1758 109.586 94.1348 110.017 94.0527 110.42H96.6777V107.645H94.0254Z" fill="#1E2124"/>
</g>
<path d="M115 110L202 110" stroke="#B1CEFB"/>
<circle cx="3" cy="3" r="3" transform="matrix(4.37114e-08 1 1 -4.37114e-08 110 107)" fill="#0B50D0"/>
<circle cx="2" cy="2" r="2" transform="matrix(4.37114e-08 1 1 -4.37114e-08 201 108)" fill="#0B50D0"/>
<g filter="url(#filter4_d_1840_26560)">
<path d="M441 38C441 33.5817 444.582 30 449 30H550C554.418 30 558 33.5817 558 38V63C558 67.4183 554.418 71 550 71H449C444.582 71 441 67.4183 441 63V38Z" fill="white" shape-rendering="crispEdges"/>
<path d="M449 30.5H550C554.142 30.5 557.5 33.8579 557.5 38V63C557.5 67.1421 554.142 70.5 550 70.5H449C444.858 70.5 441.5 67.1421 441.5 63V38C441.5 33.8579 444.858 30.5 449 30.5Z" stroke="#D6E0EB" shape-rendering="crispEdges"/>
<path d="M459 50H461C461.276 50 461.5 50.2239 461.5 50.5V57.5C461.5 57.7761 461.276 58 461 58H459C458.724 58 458.5 57.7761 458.5 57.5V50.5C458.5 50.2239 458.724 50 459 50Z" stroke="#052561"/>
<path d="M464 47H466C466.276 47 466.5 47.2239 466.5 47.5V57.5C466.5 57.7761 466.276 58 466 58H464C463.724 58 463.5 57.7761 463.5 57.5V47.5C463.5 47.2239 463.724 47 464 47Z" stroke="#052561"/>
<path d="M469 44H471C471.276 44 471.5 44.2239 471.5 44.5V57.5C471.5 57.7761 471.276 58 471 58H469C468.724 58 468.5 57.7761 468.5 57.5V44.5C468.5 44.2239 468.724 44 469 44Z" stroke="#052561"/>
<path d="M456 58H474" stroke="#052561" stroke-linecap="round"/>
<path d="M493.664 43.9121V51.1992H492.365V48.0957H490.082V47.0293H492.365V43.9121H493.664ZM489.562 51.541C492.133 51.541 493.705 52.3887 493.705 53.8516C493.705 55.3145 492.133 56.1484 489.562 56.1621C486.992 56.1484 485.406 55.3145 485.42 53.8516C485.406 52.3887 486.992 51.541 489.562 51.541ZM489.562 52.5527C487.771 52.5527 486.705 53.0176 486.705 53.8516C486.705 54.6719 487.771 55.1504 489.562 55.1367C491.354 55.1504 492.42 54.6719 492.42 53.8516C492.42 53.0176 491.354 52.5527 489.562 52.5527ZM487.84 46.0723C487.84 47.6309 488.947 49.1348 490.793 49.7637L490.123 50.7891C488.749 50.3105 487.737 49.333 487.211 48.123C486.671 49.4971 485.598 50.5977 484.135 51.1309L483.451 50.0918C485.352 49.4355 486.514 47.7812 486.514 46.0859V45.8125H483.861V44.7598H490.465V45.8125H487.84V46.0723ZM499.256 46.6055C499.256 47.9863 500.131 49.3262 501.689 49.8867L501.074 50.8711C499.919 50.4199 499.112 49.5791 498.668 48.5469C498.244 49.6748 497.424 50.5977 496.234 51.0762L495.619 50.1191C497.164 49.4902 498.025 48.082 498.025 46.6055V46.4961H495.893V45.457H498.025V44.0488H499.256V45.457H501.361V46.4961H499.256V46.6055ZM505.996 43.9258V51.418H504.766V48.1914H503.371V51.3633H502.127V44.1309H503.371V47.125H504.766V43.9258H505.996ZM505.996 52.0332V56.1621H504.711V53.0859H497.67V52.0332H505.996ZM513.078 51.6367C512.545 51.6367 512.094 51.1992 512.107 50.666C512.094 50.1328 512.545 49.6953 513.078 49.6953C513.598 49.6953 514.049 50.1328 514.049 50.666C514.049 51.1992 513.598 51.6367 513.078 51.6367ZM530.578 50.3516V51.377H519.381V50.3516H524.33V49.2852H520.844V44.2402H529.211V45.2656H522.156V46.2637H528.896V47.2344H522.156V48.2734H529.293V49.2852H525.629V50.3516H530.578ZM524.986 52.1836C527.68 52.1699 529.211 52.8809 529.211 54.166C529.211 55.4648 527.68 56.1484 524.986 56.1348C522.266 56.1484 520.734 55.4648 520.734 54.166C520.734 52.8809 522.266 52.1699 524.986 52.1836ZM524.986 53.1543C523.059 53.1543 522.02 53.5098 522.033 54.166C522.02 54.8223 523.059 55.1641 524.986 55.1504C526.887 55.1641 527.912 54.8223 527.912 54.166C527.912 53.5098 526.887 53.1543 524.986 53.1543ZM542.035 43.9121V56.1621H540.805V43.9121H542.035ZM539.533 44.2266V55.5605H538.303V51.3906H536.211V50.3242H538.303V48.3281H536.416C535.821 50.3857 534.516 52.1699 532.205 53.5508L531.439 52.6211C534.037 51.0762 535.288 49.0186 535.514 46.4961H532.041V45.4297H536.799C536.799 46.0586 536.751 46.667 536.648 47.2617H538.303V44.2266H539.533Z" fill="#1E2124"/>
</g>
<path d="M388.5 79.7002L414 51H441" stroke="#B1CEFB"/>
<circle cx="441" cy="51" r="3" fill="#0B50D0"/>
<circle cx="388" cy="80.6992" r="2" fill="#0B50D0"/>
<g filter="url(#filter5_d_1840_26560)">
<path d="M6 38C6 33.5817 9.58172 30 14 30H119C123.418 30 127 33.5817 127 38V63C127 67.4183 123.418 71 119 71H14C9.58172 71 6 67.4183 6 63V38Z" fill="white" shape-rendering="crispEdges"/>
<path d="M14 30.5H119C123.142 30.5 126.5 33.8579 126.5 38V63C126.5 67.1421 123.142 70.5 119 70.5H14C9.85786 70.5 6.5 67.1421 6.5 63V38C6.5 33.8579 9.85786 30.5 14 30.5Z" stroke="#D6E0EB" shape-rendering="crispEdges"/>
<path d="M37.5 50.2416V44.6641" stroke="#052561" stroke-linecap="round" stroke-linejoin="round"/>
<path d="M38.3359 58.8359L36.7734 57.2734" stroke="#052561" stroke-width="0.695652" stroke-linecap="round" stroke-linejoin="round"/>
<path d="M22.5 50.5C22.5002 51.1484 23.2562 51.7715 24.6084 52.2376C25.9607 52.7037 27.8033 52.9765 29.7475 52.9983" stroke="#052561" stroke-linecap="round" stroke-linejoin="round"/>
<path d="M22.5 44.6641V56.3307C22.4998 56.6656 22.7015 56.9971 23.0931 57.3055C23.4847 57.6139 24.0581 57.8929 24.7794 58.126C25.5007 58.3591 26.3552 58.5416 27.2921 58.6625C28.229 58.7834 29.2292 58.8403 30.2333 58.8299" stroke="#052561" stroke-linecap="round" stroke-linejoin="round"/>
<path d="M35 58C36.3807 58 37.5 56.8807 37.5 55.5C37.5 54.1193 36.3807 53 35 53C33.6193 53 32.5 54.1193 32.5 55.5C32.5 56.8807 33.6193 58 35 58Z" stroke="#052561" stroke-linecap="round" stroke-linejoin="round"/>
<path d="M30 47.1641C34.1421 47.1641 37.5 46.0448 37.5 44.6641C37.5 43.2834 34.1421 42.1641 30 42.1641C25.8579 42.1641 22.5 43.2834 22.5 44.6641C22.5 46.0448 25.8579 47.1641 30 47.1641Z" stroke="#052561" stroke-linecap="round" stroke-linejoin="round"/>
<path d="M53.9746 51.6094C56.627 51.6094 58.2949 52.4434 58.3086 53.8789C58.2949 55.3008 56.627 56.1484 53.9746 56.1348C51.3496 56.1484 49.668 55.3008 49.668 53.8789C49.668 52.4434 51.3496 51.6094 53.9746 51.6094ZM53.9746 52.5938C52.1152 52.5938 50.9531 53.0723 50.9668 53.8789C50.9531 54.6719 52.1152 55.1367 53.9746 55.1367C55.8477 55.1367 57.0098 54.6719 57.0234 53.8789C57.0098 53.0723 55.8477 52.5938 53.9746 52.5938ZM58.2129 44.5137V45.5391C58.2129 46.5234 58.2129 47.5352 57.8711 48.793L56.5996 48.6562C56.9277 47.4053 56.9277 46.5029 56.9277 45.5527H49.7637V44.5137H58.2129ZM59.6074 49.5449V50.5977H48.4648V49.5449H52.9355V47.248H54.207V49.5449H59.6074ZM66.0742 51.6094C68.7266 51.6094 70.3945 52.4434 70.4082 53.8789C70.3945 55.3008 68.7266 56.1484 66.0742 56.1348C63.4492 56.1484 61.7676 55.3008 61.7676 53.8789C61.7676 52.4434 63.4492 51.6094 66.0742 51.6094ZM66.0742 52.5938C64.2148 52.5938 63.0527 53.0723 63.0664 53.8789C63.0527 54.6719 64.2148 55.1367 66.0742 55.1367C67.9473 55.1367 69.1094 54.6719 69.123 53.8789C69.1094 53.0723 67.9473 52.5938 66.0742 52.5938ZM70.3125 44.5137V45.5391C70.3125 46.5234 70.3125 47.5352 69.9707 48.793L68.6992 48.6562C69.0273 47.4053 69.0273 46.5029 69.0273 45.5527H61.8633V44.5137H70.3125ZM71.707 49.5449V50.5977H60.5645V49.5449H65.0352V47.248H66.3066V49.5449H71.707ZM87.2109 43.9121V56.1621H85.9531V43.9121H87.2109ZM84.6816 44.1719V55.5469H83.4512V49.5996H80.9355V48.5195H83.4512V44.1719H84.6816ZM81.7695 45.375V46.4414H78.3926V52.1973C79.999 52.1836 81.0791 52.1152 82.3438 51.8418L82.4531 52.9355C81.0449 53.2227 79.8418 53.2773 77.9277 53.2773H77.1211V45.375H81.7695ZM98.9277 43.9121V56.1895H97.6289V43.9121H98.9277ZM92.3789 44.8281C94.1973 44.8281 95.5371 46.4961 95.5371 49.1211C95.5371 51.7598 94.1973 53.4277 92.3789 53.4277C90.5332 53.4277 89.207 51.7598 89.207 49.1211C89.207 46.4961 90.5332 44.8281 92.3789 44.8281ZM92.3789 45.9902C91.2441 45.9902 90.4648 47.1934 90.4648 49.1211C90.4648 51.0625 91.2441 52.2656 92.3789 52.2656C93.5 52.2656 94.2793 51.0625 94.2793 49.1211C94.2793 47.1934 93.5 45.9902 92.3789 45.9902ZM111.096 43.9121V56.1895H109.811V49.5039H107.377V48.4375H109.811V43.9121H111.096ZM107.172 45.0059V46.0586H102.756V48.4375H106.652V49.4766H102.756V52.2109C104.807 52.2041 106.229 52.1562 107.855 51.8691L107.992 52.9219C106.215 53.209 104.67 53.2773 102.4 53.291H101.443V45.0059H107.172Z" fill="#1E2124"/>
</g>
<path d="M204.5 79.7002L179 51H127.5" stroke="#B1CEFB"/>
<circle cx="3" cy="3" r="3" transform="matrix(-1 0 0 1 130 48)" fill="#0B50D0"/>
<circle cx="2" cy="2" r="2" transform="matrix(-1 0 0 1 207 78.6992)" fill="#0B50D0"/>
<defs>
<filter id="filter0_d_1840_26560" x="197" y="72" width="204" height="74" filterUnits="userSpaceOnUse" color-interpolation-filters="sRGB">
<feFlood flood-opacity="0" result="BackgroundImageFix"/>
<feColorMatrix in="SourceAlpha" type="matrix" values="0 0 0 0 0 0 0 0 0 0 0 0 0 0 0 0 0 0 127 0" result="hardAlpha"/>
<feOffset dx="2" dy="2"/>
<feGaussianBlur stdDeviation="4"/>
<feComposite in2="hardAlpha" operator="out"/>
<feColorMatrix type="matrix" values="0 0 0 0 0.246995 0 0 0 0 0.308504 0 0 0 0 0.375 0 0 0 0.24 0"/>
<feBlend mode="normal" in2="BackgroundImageFix" result="effect1_dropShadow_1840_26560"/>
<feBlend mode="normal" in="SourceGraphic" in2="effect1_dropShadow_1840_26560" result="shape"/>
</filter>
<filter id="filter1_d_1840_26560" x="225" y="0" width="149" height="57" filterUnits="userSpaceOnUse" color-interpolation-filters="sRGB">
<feFlood flood-opacity="0" result="BackgroundImageFix"/>
<feColorMatrix in="SourceAlpha" type="matrix" values="0 0 0 0 0 0 0 0 0 0 0 0 0 0 0 0 0 0 127 0" result="hardAlpha"/>
<feOffset dx="2" dy="2"/>
<feGaussianBlur stdDeviation="4"/>
<feComposite in2="hardAlpha" operator="out"/>
<feColorMatrix type="matrix" values="0 0 0 0 0.246995 0 0 0 0 0.308504 0 0 0 0 0.375 0 0 0 0.2 0"/>
<feBlend mode="normal" in2="BackgroundImageFix" result="effect1_dropShadow_1840_26560"/>
<feBlend mode="normal" in="SourceGraphic" in2="effect1_dropShadow_1840_26560" result="shape"/>
</filter>
<filter id="filter2_d_1840_26560" x="434" y="84" width="169" height="57" filterUnits="userSpaceOnUse" color-interpolation-filters="sRGB">
<feFlood flood-opacity="0" result="BackgroundImageFix"/>
<feColorMatrix in="SourceAlpha" type="matrix" values="0 0 0 0 0 0 0 0 0 0 0 0 0 0 0 0 0 0 127 0" result="hardAlpha"/>
<feOffset dx="2" dy="2"/>
<feGaussianBlur stdDeviation="4"/>
<feComposite in2="hardAlpha" operator="out"/>
<feColorMatrix type="matrix" values="0 0 0 0 0.246995 0 0 0 0 0.308504 0 0 0 0 0.375 0 0 0 0.2 0"/>
<feBlend mode="normal" in2="BackgroundImageFix" result="effect1_dropShadow_1840_26560"/>
<feBlend mode="normal" in="SourceGraphic" in2="effect1_dropShadow_1840_26560" result="shape"/>
</filter>
<filter id="filter3_d_1840_26560" x="3" y="84" width="121" height="57" filterUnits="userSpaceOnUse" color-interpolation-filters="sRGB">
<feFlood flood-opacity="0" result="BackgroundImageFix"/>
<feColorMatrix in="SourceAlpha" type="matrix" values="0 0 0 0 0 0 0 0 0 0 0 0 0 0 0 0 0 0 127 0" result="hardAlpha"/>
<feOffset dx="2" dy="2"/>
<feGaussianBlur stdDeviation="4"/>
<feComposite in2="hardAlpha" operator="out"/>
<feColorMatrix type="matrix" values="0 0 0 0 0.246995 0 0 0 0 0.308504 0 0 0 0 0.375 0 0 0 0.2 0"/>
<feBlend mode="normal" in2="BackgroundImageFix" result="effect1_dropShadow_1840_26560"/>
<feBlend mode="normal" in="SourceGraphic" in2="effect1_dropShadow_1840_26560" result="shape"/>
</filter>
<filter id="filter4_d_1840_26560" x="435" y="24" width="133" height="57" filterUnits="userSpaceOnUse" color-interpolation-filters="sRGB">
<feFlood flood-opacity="0" result="BackgroundImageFix"/>
<feColorMatrix in="SourceAlpha" type="matrix" values="0 0 0 0 0 0 0 0 0 0 0 0 0 0 0 0 0 0 127 0" result="hardAlpha"/>
<feOffset dx="2" dy="2"/>
<feGaussianBlur stdDeviation="4"/>
<feComposite in2="hardAlpha" operator="out"/>
<feColorMatrix type="matrix" values="0 0 0 0 0.246995 0 0 0 0 0.308504 0 0 0 0 0.375 0 0 0 0.2 0"/>
<feBlend mode="normal" in2="BackgroundImageFix" result="effect1_dropShadow_1840_26560"/>
<feBlend mode="normal" in="SourceGraphic" in2="effect1_dropShadow_1840_26560" result="shape"/>
</filter>
<filter id="filter5_d_1840_26560" x="0" y="24" width="137" height="57" filterUnits="userSpaceOnUse" color-interpolation-filters="sRGB">
<feFlood flood-opacity="0" result="BackgroundImageFix"/>
<feColorMatrix in="SourceAlpha" type="matrix" values="0 0 0 0 0 0 0 0 0 0 0 0 0 0 0 0 0 0 127 0" result="hardAlpha"/>
<feOffset dx="2" dy="2"/>
<feGaussianBlur stdDeviation="4"/>
<feComposite in2="hardAlpha" operator="out"/>
<feColorMatrix type="matrix" values="0 0 0 0 0.246995 0 0 0 0 0.308504 0 0 0 0 0.375 0 0 0 0.2 0"/>
<feBlend mode="normal" in2="BackgroundImageFix" result="effect1_dropShadow_1840_26560"/>
<feBlend mode="normal" in="SourceGraphic" in2="effect1_dropShadow_1840_26560" result="shape"/>
</filter>
<clipPath id="clip0_1840_26560">
<rect width="20" height="20" fill="white" transform="translate(245 16.5)"/>
</clipPath>
<clipPath id="clip1_1840_26560">
<rect width="7" height="9" fill="white" transform="translate(245 27)"/>
</clipPath>
</defs>
</svg>
