<svg width="76" height="76" viewBox="0 0 76 76" fill="none" xmlns="http://www.w3.org/2000/svg">
<path d="M36.5078 5.00293C37.4288 4.46504 38.5683 4.46504 39.4893 5.00293L65.8691 20.4102C66.7763 20.94 67.334 21.9123 67.334 22.9629V53.8789C67.334 54.9295 66.7763 55.9018 65.8691 56.4316L39.4893 71.8389C38.5683 72.3767 37.4288 72.3768 36.5078 71.8389L10.1279 56.4316C9.22081 55.9017 8.66309 54.9295 8.66309 53.8789V22.9629C8.66309 21.9124 9.22084 20.9401 10.1279 20.4102L36.5078 5.00293Z" stroke="url(#paint0_linear_1758_33191)" stroke-width="4.22222"/>
<path d="M25.1372 44.8008H21.931L26.8987 30.4716H30.7185L35.6664 44.8008H32.4799L31.4013 41.4956H26.2159L25.1372 44.8008ZM26.968 39.1799H30.6492L28.8581 33.6977H28.7591L26.968 39.1799ZM37.2893 44.8008V30.4716H42.9102C46.1659 30.4716 48.0362 32.4805 48.0362 35.3008C48.0362 38.1607 46.1362 40.1299 42.831 40.1299H40.2581V44.8008H37.2893ZM40.2581 37.7352H42.356C44.1174 37.7352 44.9784 36.7456 44.9685 35.3008C44.9784 33.8758 44.1174 32.9159 42.356 32.906H40.2581V37.7352ZM52.8852 30.4716V44.8008H49.9164V30.4716H52.8852Z" fill="#044E9E"/>
<defs>
<linearGradient id="paint0_linear_1758_33191" x1="37.9986" y1="1.6875" x2="37.9986" y2="75.1542" gradientUnits="userSpaceOnUse">
<stop stop-color="#378CF1"/>
<stop offset="1" stop-color="#1267D7"/>
</linearGradient>
</defs>
</svg>
