<svg width="204" height="42" viewBox="0 0 204 42" fill="none" xmlns="http://www.w3.org/2000/svg">
<path d="M22.0001 32.3555C17.5848 34.5413 13.9573 32.1927 13.1067 31.5603C10.2324 29.3888 8.26907 26.1044 7.8834 22.3597C7.80177 21.7214 7.8137 20.9997 7.8137 20.9997C7.8137 13.6544 13.8558 7.70003 21.3088 7.70003C28.7618 7.70003 34.8039 13.6544 34.8039 20.9997C32.2626 19.2402 28.7952 18.9438 25.7931 19.6561C24.7616 19.8846 23.7248 20.2716 22.7457 20.6597C19.7143 21.7441 16.4248 22.9993 13.1349 22.3728C12.0506 22.1483 11.0721 21.6535 10.1188 21.1564C13.4238 22.9063 16.0898 22.4995 19.5074 21.3336C20.5277 20.9842 21.5298 20.5862 22.5195 20.161C25.754 18.581 29.79 17.865 33.3198 19.0691C26.8351 11.858 18.4912 17.5656 11.6205 20.0407C11.3739 20.1222 9.42472 20.722 8.56578 19.6261C8.56578 19.6261 8.47058 20.1947 8.68294 20.8754C9.70217 24.7923 13.3096 25.9173 14.0123 26.1012C14.73 26.2682 15.5192 26.3893 16.3909 26.4404C19.4212 26.57 22.5754 25.4364 25.6211 24.1671C25.6211 24.1671 25.6257 24.1652 25.6325 24.1625C25.6504 24.1551 25.6683 24.1478 25.6859 24.1404C25.8853 24.0583 26.5362 23.8009 27.3884 23.5638C27.3884 23.5638 36.0605 20.6589 41.5612 27.5429C42.2458 25.4838 42.6173 23.2848 42.6173 20.9997C42.6171 9.40211 33.0771 0 21.3085 0C9.53998 0 0 9.40212 0 21C0 32.5979 9.54025 42 21.3085 42C28.6905 42 35.1931 38.2989 39.017 32.6786C39.0181 32.6786 39.0189 32.6786 39.02 32.6786C41.1978 29.7815 44 30.2548 44 30.2548C36.2386 22.6593 27.0583 29.8515 22.0001 32.3555Z" fill="#034EA1"/>
<path d="M22.0001 32.3555C17.5848 34.5413 13.9573 32.1927 13.1067 31.5603C10.2324 29.3888 8.26907 26.1044 7.8834 22.3597C7.80177 21.7214 7.8137 20.9997 7.8137 20.9997C7.8137 13.6544 13.8558 7.70003 21.3088 7.70003C28.7618 7.70003 34.8039 13.6544 34.8039 20.9997C32.2626 19.2402 28.7952 18.9438 25.7931 19.6561C24.7616 19.8846 23.7248 20.2716 22.7457 20.6597C19.7143 21.7441 16.4248 22.9993 13.1349 22.3728C12.0506 22.1483 11.0721 21.6535 10.1188 21.1564C13.4238 22.9063 16.0898 22.4995 19.5074 21.3336C20.5277 20.9842 21.5298 20.5862 22.5195 20.161C25.754 18.581 29.79 17.865 33.3198 19.0691C26.8351 11.858 18.4912 17.5656 11.6205 20.0407C11.3739 20.1222 9.42472 20.722 8.56578 19.6261C8.56578 19.6261 8.47058 20.1947 8.68294 20.8754C9.70217 24.7923 13.3096 25.9173 14.0123 26.1012C14.73 26.2682 15.5192 26.3893 16.3909 26.4404C19.4212 26.57 22.5754 25.4364 25.6211 24.1671C25.6211 24.1671 25.6257 24.1652 25.6325 24.1625C25.6504 24.1551 25.6683 24.1478 25.6859 24.1404C25.8853 24.0583 26.5362 23.8009 27.3884 23.5638C27.3884 23.5638 36.0605 20.6589 41.5612 27.5429C42.2458 25.4838 42.6173 23.2848 42.6173 20.9997C42.6171 9.40211 33.0771 0 21.3085 0C9.53998 0 0 9.40212 0 21C0 32.5979 9.54025 42 21.3085 42C28.6905 42 35.1931 38.2989 39.017 32.6786C39.0181 32.6786 39.0189 32.6786 39.02 32.6786C41.1978 29.7815 44 30.2548 44 30.2548C36.2386 22.6593 27.0583 29.8515 22.0001 32.3555Z" fill="url(#paint0_linear_1704_29326)"/>
<path d="M58.88 16.036V14.964H53.552V12.964H61.28V15.908C61.28 16.74 61.184 17.652 61.056 18.308H58.672C58.8 17.684 58.88 16.772 58.88 16.036ZM59.76 21.188H52.992V19.188H54.976V16.468H57.376V19.188H60.272C61.488 19.188 62.208 19.028 62.704 18.676V12.804H65.136V16.388H67.184V18.452H65.136V21.828H62.704V20.596C62.192 21.012 61.328 21.188 59.76 21.188ZM53.888 24.996C53.888 24.068 54.352 23.38 55.12 22.932C56.192 22.308 57.808 22.068 59.696 22.068C61.568 22.068 63.2 22.308 64.256 22.932C65.04 23.38 65.488 24.068 65.488 24.996C65.488 25.924 65.04 26.596 64.256 27.044C63.2 27.684 61.568 27.924 59.696 27.924C57.808 27.924 56.192 27.684 55.12 27.044C54.352 26.596 53.888 25.924 53.888 24.996ZM56.32 24.996C56.32 25.236 56.48 25.412 56.752 25.556C57.296 25.828 58.368 25.94 59.696 25.94C61.008 25.94 62.08 25.828 62.624 25.556C62.896 25.412 63.072 25.236 63.072 24.996C63.072 24.756 62.896 24.58 62.624 24.42C62.08 24.148 61.008 24.052 59.696 24.052C58.368 24.052 57.296 24.148 56.752 24.42C56.48 24.58 56.32 24.756 56.32 24.996ZM75.5514 20.532H68.1914V12.964H75.5514V14.084H77.8074V12.804H80.2394V21.364H77.8074V19.412H75.5514V20.532ZM75.5514 16.068V17.428H77.8074V16.068H75.5514ZM73.2154 18.532V14.996H70.5274V18.532H73.2154ZM68.8474 24.66C68.8474 23.636 69.3594 22.9 70.1594 22.388C71.2794 21.652 72.9914 21.396 74.7194 21.396C76.4314 21.396 78.1594 21.652 79.2794 22.388C80.0634 22.9 80.5754 23.636 80.5754 24.66C80.5754 25.684 80.0634 26.42 79.2794 26.948C78.1594 27.684 76.4314 27.924 74.7194 27.924C72.9914 27.924 71.2794 27.684 70.1594 26.948C69.3594 26.42 68.8474 25.684 68.8474 24.66ZM71.2794 24.66C71.2794 24.996 71.4554 25.204 71.7594 25.396C72.3834 25.78 73.5034 25.892 74.7194 25.892C75.9194 25.892 77.0554 25.78 77.6634 25.396C77.9834 25.204 78.1434 24.996 78.1434 24.66C78.1434 24.34 77.9834 24.116 77.6634 23.924C77.0554 23.556 75.9194 23.428 74.7194 23.428C73.5034 23.428 72.3834 23.556 71.7594 23.924C71.4554 24.116 71.2794 24.34 71.2794 24.66ZM93.1659 18.484C92.0619 19.988 89.7739 21.444 86.8459 21.908V19.812C90.1099 19.076 91.9499 17.22 91.9499 13.988V12.964H94.3819V13.988C94.3819 17.204 96.1739 19.06 99.4859 19.812V21.908C96.5899 21.444 94.2539 19.988 93.1659 18.484ZM99.7739 26.964H86.5899V24.884H99.7739V26.964ZM109.085 13.06V26.612H101.693V13.06H109.085ZM104.077 24.58H106.669V15.108H104.077V24.58ZM110.925 12.804H113.357V18.58H115.517V20.676H113.357V27.572H110.925V12.804ZM128.477 13.06V15.108H119.197V16.916H128.301V18.948H119.197V20.772H128.653V22.852H116.749V13.06H128.477ZM129.213 26.964H116.029V24.884H129.213V26.964ZM135.052 26.612H131.132V13.06H136.588V15.092H133.42V24.596H135.164C135.9 24.596 136.588 24.564 137.148 24.404V26.356C136.588 26.564 135.836 26.612 135.052 26.612ZM138.076 20.532H135.484V18.452H138.076V12.884H140.316V27.444H138.076V20.532ZM143.388 12.804V27.572H141.1V12.804H143.388ZM153.579 19.828C153.579 22.564 153.307 24.548 152.363 25.684C151.755 26.452 150.795 26.82 149.659 26.82C148.539 26.82 147.595 26.452 146.955 25.684C146.011 24.548 145.739 22.564 145.739 19.828C145.739 17.108 146.011 15.124 146.955 13.988C147.595 13.204 148.539 12.82 149.659 12.82C150.795 12.82 151.755 13.204 152.363 13.988C153.307 15.124 153.579 17.108 153.579 19.828ZM148.155 19.828C148.155 22.148 148.283 23.668 148.731 24.324C148.939 24.628 149.291 24.788 149.659 24.788C150.043 24.788 150.379 24.628 150.603 24.324C151.051 23.668 151.179 22.148 151.179 19.828C151.179 17.524 151.051 16.004 150.603 15.348C150.379 15.044 150.043 14.868 149.659 14.868C149.291 14.868 148.939 15.044 148.731 15.348C148.283 16.004 148.155 17.524 148.155 19.828ZM155.451 12.804H157.883V27.572H155.451V12.804ZM166.363 26.612H160.651V13.06H167.947V15.108H163.051V18.74H167.259V20.788H163.051V24.58H166.475C167.499 24.58 168.347 24.532 169.019 24.34V26.308C168.347 26.548 167.451 26.612 166.363 26.612ZM170.171 12.804H172.603V27.572H170.171V20.596H167.835V18.5H170.171V12.804ZM185.146 19.556H187.61V21.636H182.73V24.9H188.09V26.964H174.906V24.9H180.298V21.636H175.386V19.556H177.45V15.124H175.626V13.06H187.354V15.124H185.514V17.204C185.514 18.084 185.402 18.98 185.146 19.556ZM183.098 15.124H179.882V19.556H182.778C183.002 19.012 183.098 18.164 183.098 17.38V15.124ZM196.106 20.196H190.01V12.964H197.21V14.756H192.378V15.652H196.874V17.444H192.378V18.42H196.202C197.034 18.42 197.77 18.404 198.458 18.228V19.924C197.77 20.148 196.986 20.196 196.106 20.196ZM199.626 17.476H197.37V15.38H199.626V12.804H202.058V20.516H199.626V17.476ZM202.058 25.3H193.274V25.988H202.234V27.732H190.842V23.556H199.626V22.868H190.842V21.092H202.058V25.3Z" fill="#034EA1"/>
<defs>
<linearGradient id="paint0_linear_1704_29326" x1="8" y1="-2.5" x2="36.153" y2="38.8959" gradientUnits="userSpaceOnUse">
<stop stop-color="#0094E0"/>
<stop offset="1" stop-color="#005EA1"/>
</linearGradient>
</defs>
</svg>
