<svg width="60" height="60" viewBox="0 0 60 60" fill="none" xmlns="http://www.w3.org/2000/svg">
<g clip-path="url(#clip0_1723_67092)">
<g filter="url(#filter0_d_1723_67092)">
<rect x="10" y="10" width="40" height="40" rx="20" fill="#FFB114"/>
<rect x="11" y="11" width="38" height="38" rx="19" stroke="white" stroke-width="2"/>
</g>
<rect x="35" y="27" width="1.84615" height="1.84615" rx="0.184616" fill="#FFB114"/>
<rect x="35" y="30" width="1.84615" height="1.84615" rx="0.184616" fill="#FFB114"/>
<rect x="35" y="33" width="1.84615" height="1.84615" rx="0.184616" fill="#FFB114"/>
<rect x="20" y="37.4922" width="20" height="3" rx="0.6" fill="white"/>
<rect x="22" y="34.4922" width="16" height="2" rx="0.5" fill="white"/>
<rect x="26" y="27.4922" width="8" height="2.4" rx="0.3" transform="rotate(90 26 27.4922)" fill="white"/>
<rect x="31" y="27.4922" width="8" height="2.4" rx="0.3" transform="rotate(90 31 27.4922)" fill="white"/>
<rect x="36" y="27.4922" width="8" height="2.4" rx="0.3" transform="rotate(90 36 27.4922)" fill="white"/>
<path d="M29.6894 19.6907C29.8838 19.5692 30.1307 19.5693 30.3251 19.6907L39.4345 25.383C39.9457 25.7025 39.7199 26.4923 39.1171 26.4924H20.8974C20.2949 26.492 20.0689 25.7024 20.58 25.383L29.6894 19.6907ZM30.0087 22.4924C29.4932 22.4924 29.0751 22.9401 29.0751 23.4924C29.0752 24.0446 29.4932 24.4924 30.0087 24.4924C30.5241 24.4923 30.9423 24.0446 30.9423 23.4924C30.9423 22.9402 30.5242 22.4925 30.0087 22.4924Z" fill="white"/>
</g>
<defs>
<filter id="filter0_d_1723_67092" x="0" y="2" width="60" height="60" filterUnits="userSpaceOnUse" color-interpolation-filters="sRGB">
<feFlood flood-opacity="0" result="BackgroundImageFix"/>
<feColorMatrix in="SourceAlpha" type="matrix" values="0 0 0 0 0 0 0 0 0 0 0 0 0 0 0 0 0 0 127 0" result="hardAlpha"/>
<feOffset dy="2"/>
<feGaussianBlur stdDeviation="5"/>
<feComposite in2="hardAlpha" operator="out"/>
<feColorMatrix type="matrix" values="0 0 0 0 0 0 0 0 0 0 0 0 0 0 0 0 0 0 0.25 0"/>
<feBlend mode="normal" in2="BackgroundImageFix" result="effect1_dropShadow_1723_67092"/>
<feBlend mode="normal" in="SourceGraphic" in2="effect1_dropShadow_1723_67092" result="shape"/>
</filter>
<clipPath id="clip0_1723_67092">
<rect width="60" height="60" fill="white"/>
</clipPath>
</defs>
</svg>
