<svg width="60" height="60" viewBox="0 0 60 60" fill="none" xmlns="http://www.w3.org/2000/svg">
<g filter="url(#filter0_d_1695_29569)">
<rect x="10" y="10" width="40" height="40" rx="20" fill="#636CCC"/>
<rect x="11" y="11" width="38" height="38" rx="19" stroke="white" stroke-width="2"/>
</g>
<path d="M21.6113 36.7893C22.6624 36.7895 23.5146 37.6425 23.5146 38.6936C23.5145 39.7446 22.6623 40.5967 21.6113 40.5969C20.5602 40.5969 19.7072 39.7447 19.707 38.6936C19.707 37.6423 20.5601 36.7893 21.6113 36.7893Z" fill="white" stroke="white" stroke-width="0.0751182"/>
<path d="M29.7246 38.155C30.7757 38.1552 31.6279 39.0082 31.6279 40.0593C31.6277 41.1103 30.7756 41.9625 29.7246 41.9626C28.6735 41.9626 27.8205 41.1104 27.8203 40.0593C27.8203 39.0081 28.6733 38.155 29.7246 38.155Z" fill="white" stroke="white" stroke-width="0.0751182"/>
<path d="M37.3594 36.8425C38.4105 36.8427 39.2627 37.6957 39.2627 38.7468C39.2625 39.7978 38.4104 40.65 37.3594 40.6501C36.3082 40.6501 35.4553 39.7979 35.4551 38.7468C35.4551 37.6956 36.3081 36.8425 37.3594 36.8425Z" fill="white" stroke="white" stroke-width="0.0751182"/>
<path d="M26.977 33.1641L21.9434 38.3585" stroke="white" stroke-width="1.8" stroke-miterlimit="10" stroke-linecap="round"/>
<path d="M29.6008 39.6969L29.4941 36.4841" stroke="white" stroke-width="1.8" stroke-miterlimit="10" stroke-linecap="round"/>
<path d="M33.5391 34.7437L36.2696 37.502" stroke="white" stroke-width="1.8" stroke-miterlimit="10" stroke-linecap="round"/>
<path d="M22.2938 34.5833C19.8689 34.5833 17.9023 32.6174 17.9023 30.1919C17.9023 27.7663 19.8682 25.8004 22.2938 25.8004C22.2938 25.8004 22.0526 25.7201 22.0797 23.8459C22.118 21.1694 24.699 19 27.9299 19C30.3982 19 32.5098 20.2665 33.3692 22.0581L33.8071 22.3473C36.6346 22.3473 37.9784 23.619 38.2699 25.7298L38.4351 25.8365C40.3431 26.635 41.6517 28.2733 41.6517 30.1648C41.6517 32.3853 39.8849 34.9311 37.3948 34.5021" stroke="white" stroke-width="1.8" stroke-linecap="round" stroke-linejoin="round"/>
<path d="M33.1924 31.498L33.1758 31.4824L33.167 31.5566C32.926 33.4634 31.2993 34.9385 29.3271 34.9385C27.189 34.9385 25.4551 33.2046 25.4551 31.0664C25.4551 29.1449 26.8564 27.5509 28.6924 27.248L28.6943 27.2471L33.4102 26.2314L33.1924 31.498ZM31.2334 28.4248C31.2103 28.4233 31.1865 28.4338 31.165 28.4463C31.0018 28.5416 30.6379 28.811 30.3174 29.0547C30.1567 29.1769 30.006 29.2931 29.8955 29.3789C29.8402 29.4218 29.7951 29.4579 29.7637 29.4824C29.7481 29.4946 29.7358 29.5043 29.7275 29.5107C29.7235 29.5139 29.7199 29.5159 29.7178 29.5176L29.7148 29.5205L29.7109 29.5234L27.4688 31.8271L27.4678 31.8281C27.2739 32.038 27.2347 32.3584 27.3945 32.5986C27.4775 32.7231 27.5838 32.7882 27.6963 32.8145C27.8076 32.8404 27.923 32.8278 28.0254 32.8008C28.1278 32.7737 28.2202 32.7322 28.2861 32.6973C28.3191 32.6798 28.3457 32.6639 28.3643 32.6523C28.3736 32.6466 28.3807 32.641 28.3857 32.6377C28.3882 32.6361 28.3903 32.6347 28.3916 32.6338L28.3936 32.6328L28.3945 32.6338L28.4014 32.626L28.4023 32.625C28.4031 32.6241 28.4039 32.6227 28.4053 32.6211C28.4086 32.6173 28.4135 32.6109 28.4199 32.6035C28.4327 32.5887 28.4525 32.5669 28.4766 32.5391C28.5246 32.4834 28.5934 32.4036 28.6768 32.3066C28.8441 32.1121 29.0704 31.8484 29.3047 31.5723C29.7596 31.0361 30.2477 30.4481 30.3984 30.2295H30.4014L30.4121 30.2129C30.5467 30.0109 30.8291 29.5345 31.0371 29.1318C31.1409 28.931 31.2272 28.7457 31.2676 28.6221C31.2776 28.5912 31.285 28.5632 31.2891 28.5391C31.2929 28.5159 31.2948 28.4918 31.2891 28.4717C31.286 28.461 31.2798 28.4497 31.2695 28.4404C31.2589 28.4309 31.2462 28.4257 31.2334 28.4248Z" fill="white" stroke="white" stroke-width="0.0751182"/>
<defs>
<filter id="filter0_d_1695_29569" x="0" y="0" width="60" height="60" filterUnits="userSpaceOnUse" color-interpolation-filters="sRGB">
<feFlood flood-opacity="0" result="BackgroundImageFix"/>
<feColorMatrix in="SourceAlpha" type="matrix" values="0 0 0 0 0 0 0 0 0 0 0 0 0 0 0 0 0 0 127 0" result="hardAlpha"/>
<feOffset/>
<feGaussianBlur stdDeviation="5"/>
<feComposite in2="hardAlpha" operator="out"/>
<feColorMatrix type="matrix" values="0 0 0 0 0 0 0 0 0 0 0 0 0 0 0 0 0 0 0.25 0"/>
<feBlend mode="normal" in2="BackgroundImageFix" result="effect1_dropShadow_1695_29569"/>
<feBlend mode="normal" in="SourceGraphic" in2="effect1_dropShadow_1695_29569" result="shape"/>
</filter>
</defs>
</svg>
