<svg width="60" height="60" viewBox="0 0 60 60" fill="none" xmlns="http://www.w3.org/2000/svg">
<g clip-path="url(#clip0_1723_67093)">
<g filter="url(#filter0_d_1723_67093)">
<rect x="10" y="10" width="40" height="40" rx="20" fill="white"/>
<rect x="10.5" y="10.5" width="39" height="39" rx="19.5" stroke="#E6E8EA"/>
</g>
<rect x="35" y="27" width="1.84615" height="1.84615" rx="0.184616" fill="white"/>
<rect x="35" y="30" width="1.84615" height="1.84615" rx="0.184616" fill="white"/>
<rect x="35" y="33" width="1.84615" height="1.84615" rx="0.184616" fill="white"/>
<rect x="20" y="36.5918" width="20" height="3" rx="0.6" fill="#B1B8BE"/>
<rect x="22" y="33.5918" width="16" height="2" rx="0.5" fill="#B1B8BE"/>
<rect x="26.3984" y="26.5918" width="8.4" height="2.4" rx="0.3" transform="rotate(90 26.3984 26.5918)" fill="#B1B8BE"/>
<rect x="31.3984" y="26.5918" width="8.4" height="2.4" rx="0.3" transform="rotate(90 31.3984 26.5918)" fill="#B1B8BE"/>
<rect x="36.3984" y="26.5918" width="8.4" height="2.4" rx="0.3" transform="rotate(90 36.3984 26.5918)" fill="#B1B8BE"/>
<path d="M29.6894 18.7903C29.8838 18.6688 30.1307 18.6689 30.3251 18.7903L39.4345 24.4826C39.9457 24.8021 39.7199 25.5919 39.1171 25.592H20.8974C20.2949 25.5916 20.0689 24.802 20.58 24.4826L29.6894 18.7903ZM30.0087 21.592C29.4932 21.592 29.0751 22.0397 29.0751 22.592C29.0752 23.1442 29.4932 23.592 30.0087 23.592C30.5241 23.5919 30.9423 23.1442 30.9423 22.592C30.9423 22.0398 30.5242 21.5921 30.0087 21.592Z" fill="#B1B8BE"/>
</g>
<defs>
<filter id="filter0_d_1723_67093" x="0" y="2" width="60" height="60" filterUnits="userSpaceOnUse" color-interpolation-filters="sRGB">
<feFlood flood-opacity="0" result="BackgroundImageFix"/>
<feColorMatrix in="SourceAlpha" type="matrix" values="0 0 0 0 0 0 0 0 0 0 0 0 0 0 0 0 0 0 127 0" result="hardAlpha"/>
<feOffset dy="2"/>
<feGaussianBlur stdDeviation="5"/>
<feComposite in2="hardAlpha" operator="out"/>
<feColorMatrix type="matrix" values="0 0 0 0 0 0 0 0 0 0 0 0 0 0 0 0 0 0 0.25 0"/>
<feBlend mode="normal" in2="BackgroundImageFix" result="effect1_dropShadow_1723_67093"/>
<feBlend mode="normal" in="SourceGraphic" in2="effect1_dropShadow_1723_67093" result="shape"/>
</filter>
<clipPath id="clip0_1723_67093">
<rect width="60" height="60" fill="white"/>
</clipPath>
</defs>
</svg>
