<svg width="60" height="60" viewBox="0 0 60 60" fill="none" xmlns="http://www.w3.org/2000/svg">
<g filter="url(#filter0_d_1695_29550)">
<mask id="path-1-inside-1_1695_29550" fill="white">
<path d="M10 30C10 18.9543 18.9543 10 30 10V10C41.0457 10 50 18.9543 50 30V30C50 41.0457 41.0457 50 30 50V50C18.9543 50 10 41.0457 10 30V30Z"/>
</mask>
<path d="M10 30C10 18.9543 18.9543 10 30 10V10C41.0457 10 50 18.9543 50 30V30C50 41.0457 41.0457 50 30 50V50C18.9543 50 10 41.0457 10 30V30Z" fill="white"/>
<path d="M10 30M50 30M50 30M10 30M30 10M50 30M30 50M10 30M30 50V49C19.5066 49 11 40.4934 11 30H10H9C9 41.598 18.402 51 30 51V50ZM50 30H49C49 40.4934 40.4934 49 30 49V50V51C41.598 51 51 41.598 51 30H50ZM30 10V11C40.4934 11 49 19.5066 49 30H50H51C51 18.402 41.598 9 30 9V10ZM30 10V9C18.402 9 9 18.402 9 30H10H11C11 19.5066 19.5066 11 30 11V10Z" fill="#E4E8EB" mask="url(#path-1-inside-1_1695_29550)"/>
</g>
<path d="M21.611 40.6343C22.683 40.6343 23.552 39.7653 23.552 38.6932C23.552 37.6212 22.683 36.7522 21.611 36.7522C20.539 36.7522 19.6699 37.6212 19.6699 38.6932C19.6699 39.7653 20.539 40.6343 21.611 40.6343Z" fill="#B3B3B3"/>
<path d="M23.4766 38.6936C23.4766 37.6632 22.6417 36.8276 21.6113 36.8274C20.5808 36.8274 19.7451 37.6631 19.7451 38.6936C19.7453 39.724 20.5809 40.5588 21.6113 40.5588V40.634L21.4121 40.6243C20.4988 40.5313 19.7725 39.8052 19.6797 38.8918L19.6699 38.6936C19.6699 37.6216 20.5393 36.7522 21.6113 36.7522L21.8096 36.762C22.7883 36.8614 23.5518 37.6886 23.5518 38.6936L23.542 38.8918C23.4425 39.8705 22.6161 40.6339 21.6113 40.634V40.5588C22.6416 40.5586 23.4764 39.7239 23.4766 38.6936Z" fill="white"/>
<path d="M29.7243 42C30.7963 42 31.6653 41.131 31.6653 40.059C31.6653 38.987 30.7963 38.1179 29.7243 38.1179C28.6522 38.1179 27.7832 38.987 27.7832 40.059C27.7832 41.131 28.6522 42 29.7243 42Z" fill="#B3B3B3"/>
<path d="M31.5898 40.0593C31.5898 39.0289 30.755 38.1933 29.7246 38.1931C28.6941 38.1931 27.8584 39.0288 27.8584 40.0593C27.8586 41.0897 28.6942 41.9246 29.7246 41.9246V41.9998L29.5254 41.99C28.6121 41.897 27.8858 41.1709 27.793 40.2576L27.7832 40.0593C27.7832 38.9873 28.6526 38.1179 29.7246 38.1179L29.9229 38.1277C30.9016 38.2271 31.665 39.0543 31.665 40.0593L31.6553 40.2576C31.5558 41.2362 30.7294 41.9996 29.7246 41.9998V41.9246C30.7549 41.9244 31.5897 41.0896 31.5898 40.0593Z" fill="white"/>
<path d="M37.359 40.6875C38.431 40.6875 39.3001 39.8185 39.3001 38.7465C39.3001 37.6745 38.431 36.8054 37.359 36.8054C36.287 36.8054 35.418 37.6745 35.418 38.7465C35.418 39.8185 36.287 40.6875 37.359 40.6875Z" fill="#B3B3B3"/>
<path d="M39.2246 38.7468C39.2246 37.7164 38.3897 36.8808 37.3594 36.8806C36.3288 36.8806 35.4932 37.7163 35.4932 38.7468C35.4934 39.7772 36.329 40.6121 37.3594 40.6121V40.6873L37.1602 40.6775C36.2468 40.5845 35.5205 39.8584 35.4277 38.9451L35.418 38.7468C35.418 37.6748 36.2874 36.8054 37.3594 36.8054L37.5576 36.8152C38.5364 36.9146 39.2998 37.7418 39.2998 38.7468L39.29 38.9451C39.1906 39.9237 38.3642 40.6871 37.3594 40.6873V40.6121C38.3896 40.6119 39.2244 39.7771 39.2246 38.7468Z" fill="white"/>
<path d="M25.8453 32.8837C26.1855 32.5214 26.7554 32.5036 27.1178 32.8436C27.48 33.1838 27.4978 33.7537 27.1578 34.1161L22.5992 38.9745C22.2591 39.3368 21.6892 39.3546 21.3268 39.0145C20.9646 38.6744 20.9467 38.1045 21.2867 37.7421L25.8453 32.8837Z" fill="#B3B3B3"/>
<path d="M29.4634 35.5847C29.96 35.5682 30.3764 35.9573 30.3931 36.4539L30.4995 39.6668C30.516 40.1635 30.1271 40.5799 29.6304 40.5965C29.1336 40.6129 28.7172 40.2231 28.7007 39.7263L28.5943 36.5144C28.5778 36.0178 28.9668 35.6014 29.4634 35.5847Z" fill="#B3B3B3"/>
<path d="M32.9056 34.1038C33.2589 33.7544 33.8284 33.7575 34.1781 34.1107L36.9085 36.8685C37.2582 37.2217 37.2549 37.7913 36.9017 38.141C36.5485 38.4906 35.9789 38.4883 35.6292 38.1351L32.8988 35.3763C32.5493 35.023 32.5524 34.4535 32.9056 34.1038Z" fill="#B3B3B3"/>
<path d="M40.752 30.165C40.752 28.7211 39.7467 27.3613 38.0879 26.667C38.039 26.6465 37.9918 26.6215 37.9473 26.5928L37.7822 26.4863C37.5619 26.3441 37.4138 26.1123 37.3779 25.8525C37.2549 24.9624 36.9288 24.3516 36.4268 23.9492C35.9128 23.5372 35.0944 23.2471 33.8066 23.2471C33.6306 23.247 33.4585 23.1955 33.3115 23.0986L32.873 22.8086C32.7372 22.7188 32.628 22.5941 32.5576 22.4473C31.8727 21.0194 30.1128 19.9004 27.9297 19.9004C25.0433 19.9005 23.009 21.8098 22.9795 23.8584C22.9666 24.7535 23.0187 25.1617 23.0527 25.3203C23.1668 25.5007 23.2189 25.7203 23.1826 25.9443C23.1119 26.38 22.7353 26.7001 22.2939 26.7002C20.3656 26.7002 18.803 28.2631 18.8027 30.1914C18.8027 32.1198 20.3661 33.6836 22.2939 33.6836C22.7908 33.6837 23.1932 34.0861 23.1934 34.583C23.1934 35.08 22.7909 35.4833 22.2939 35.4834C19.3722 35.4834 17.002 33.1141 17.002 30.1914C17.0022 27.6425 18.8045 25.5149 21.2041 25.0127C21.1823 24.7037 21.1727 24.318 21.1797 23.833C21.227 20.5289 24.3548 18.0997 27.9297 18.0996C30.5828 18.0996 32.9654 19.413 34.0605 21.4365L34.083 21.4502C35.4987 21.4896 36.6717 21.8387 37.5527 22.5449C38.3792 23.2075 38.8578 24.1124 39.0791 25.1406C41.0852 26.0901 42.5518 27.9349 42.5518 30.165C42.5517 31.4933 42.0312 32.8956 41.1348 33.9199C40.2236 34.9611 38.8623 35.6677 37.2422 35.3887C36.7524 35.3043 36.4236 34.8394 36.5078 34.3496C36.5922 33.8598 37.058 33.5309 37.5479 33.6152C38.4176 33.7649 39.1846 33.4137 39.7793 32.7344C40.3887 32.0381 40.7519 31.0571 40.752 30.165ZM22.8955 25.1357C22.8914 25.1319 22.8881 25.1269 22.8838 25.123C22.8812 25.1208 22.8786 25.1185 22.876 25.1162C22.883 25.1222 22.8887 25.1296 22.8955 25.1357ZM22.8428 25.0889C22.8153 25.0673 22.7848 25.0455 22.751 25.0254C22.7462 25.0226 22.7412 25.0203 22.7363 25.0176C22.7739 25.0388 22.8091 25.0629 22.8428 25.0889ZM22.583 24.9482C22.6277 24.9634 22.6702 24.9826 22.7109 25.0039C22.6972 24.9967 22.6834 24.9891 22.6689 24.9824C22.6545 24.9758 22.6391 24.9698 22.624 24.9639C22.6166 24.9609 22.6092 24.9578 22.6016 24.9551C22.5977 24.9537 22.5937 24.9515 22.5898 24.9502C22.5879 24.9495 22.5849 24.9486 22.584 24.9482H22.583Z" fill="#B3B3B3"/>
<path d="M28.6864 27.2107C26.8324 27.5164 25.418 29.1262 25.418 31.0665C25.418 33.2254 27.1682 34.9756 29.3271 34.9756C31.3185 34.9756 32.9606 33.4868 33.204 31.5615L33.2273 31.5841L33.4504 26.1846L28.6864 27.2107ZM30.3803 30.1921C30.1129 30.594 28.3724 32.6019 28.3724 32.6019C28.3724 32.6019 27.7361 33.0436 27.4259 32.5779C27.2764 32.3533 27.3124 32.052 27.4957 31.8537L29.738 29.5499C29.738 29.5499 30.8625 28.6665 31.184 28.4787C31.5055 28.2909 30.6484 29.791 30.381 30.1921H30.3803Z" fill="#B3B3B3"/>
<defs>
<filter id="filter0_d_1695_29550" x="0" y="0" width="60" height="60" filterUnits="userSpaceOnUse" color-interpolation-filters="sRGB">
<feFlood flood-opacity="0" result="BackgroundImageFix"/>
<feColorMatrix in="SourceAlpha" type="matrix" values="0 0 0 0 0 0 0 0 0 0 0 0 0 0 0 0 0 0 127 0" result="hardAlpha"/>
<feOffset/>
<feGaussianBlur stdDeviation="5"/>
<feComposite in2="hardAlpha" operator="out"/>
<feColorMatrix type="matrix" values="0 0 0 0 0 0 0 0 0 0 0 0 0 0 0 0 0 0 0.25 0"/>
<feBlend mode="normal" in2="BackgroundImageFix" result="effect1_dropShadow_1695_29550"/>
<feBlend mode="normal" in="SourceGraphic" in2="effect1_dropShadow_1695_29550" result="shape"/>
</filter>
</defs>
</svg>
