<svg width="60" height="60" viewBox="0 0 60 60" fill="none" xmlns="http://www.w3.org/2000/svg">
<g filter="url(#filter0_d_1695_29580)">
<rect x="10" y="10" width="40" height="40" rx="20" fill="#06A85B"/>
<rect x="11" y="11" width="38" height="38" rx="19" stroke="white" stroke-width="2"/>
</g>
<path d="M37.5 29.249C39.9852 29.249 41.9999 31.264 42 33.749C41.9998 35.3542 41.1577 36.7613 39.8926 37.5576L37.125 41.249L34.5703 37.1621C33.6098 36.337 33.0002 35.1145 33 33.749C33.0001 31.264 35.0148 29.249 37.5 29.249ZM35.127 18C37.2648 18 38.998 19.7332 38.998 21.8711V24.75H39.7256C40.1532 24.75 40.5 25.0968 40.5 25.5244V27.7256C40.4999 28.106 40.2251 28.4213 39.8633 28.4863C39.1365 28.1736 38.3355 28 37.4941 28C37.2422 28 36.9938 28.0157 36.75 28.0459V24.0244C36.75 23.5969 36.4031 23.25 35.9756 23.25H22.5244C22.097 23.2501 21.75 23.5969 21.75 24.0244V29.2256C21.7501 29.653 22.097 29.9999 22.5244 30H33.0234C32.0731 31.0616 31.4942 32.4632 31.4941 34C31.4943 35.6611 32.1716 37.1628 33.2627 38.249H24.75V38.999C24.7499 39.8274 24.0784 40.499 23.25 40.499C22.4218 40.4988 21.7501 39.8272 21.75 38.999V38.2461C20.9167 38.2213 20.2483 37.5404 20.248 36.7012V28.5H18.7744C18.3471 28.4998 18.0001 28.1529 18 27.7256V25.5234C18.0002 25.0962 18.3471 24.7502 18.7744 24.75H20.248V21.8711C20.248 19.7333 21.9814 18.0002 24.1191 18H35.127ZM37.502 31.499C36.2594 31.499 35.2521 32.5066 35.252 33.749C35.2521 34.9915 36.2594 35.999 37.502 35.999C38.7445 35.999 39.7518 34.9915 39.752 33.749C39.7518 32.5066 38.7445 31.499 37.502 31.499ZM23.25 32.25C22.4217 32.2502 21.75 32.9217 21.75 33.75C21.7503 34.5781 22.4219 35.2488 23.25 35.249C24.0783 35.249 24.7497 34.5782 24.75 33.75C24.75 32.9216 24.0784 32.25 23.25 32.25ZM27 20.25C26.5859 20.2501 26.25 20.5859 26.25 21C26.25 21.4141 26.5859 21.7499 27 21.75H31.5C31.9142 21.75 32.25 21.4142 32.25 21C32.25 20.5858 31.9142 20.25 31.5 20.25H27Z" fill="white"/>
<defs>
<filter id="filter0_d_1695_29580" x="0" y="0" width="60" height="60" filterUnits="userSpaceOnUse" color-interpolation-filters="sRGB">
<feFlood flood-opacity="0" result="BackgroundImageFix"/>
<feColorMatrix in="SourceAlpha" type="matrix" values="0 0 0 0 0 0 0 0 0 0 0 0 0 0 0 0 0 0 127 0" result="hardAlpha"/>
<feOffset/>
<feGaussianBlur stdDeviation="5"/>
<feComposite in2="hardAlpha" operator="out"/>
<feColorMatrix type="matrix" values="0 0 0 0 0 0 0 0 0 0 0 0 0 0 0 0 0 0 0.25 0"/>
<feBlend mode="normal" in2="BackgroundImageFix" result="effect1_dropShadow_1695_29580"/>
<feBlend mode="normal" in="SourceGraphic" in2="effect1_dropShadow_1695_29580" result="shape"/>
</filter>
</defs>
</svg>
