<svg width="60" height="60" viewBox="0 0 60 60" fill="none" xmlns="http://www.w3.org/2000/svg">
<g clip-path="url(#clip0_1723_67089)">
<g filter="url(#filter0_d_1723_67089)">
<rect x="10" y="10" width="40" height="40" rx="20" fill="white"/>
<rect x="10.5" y="10.5" width="39" height="39" rx="19.5" stroke="#E6E8EA"/>
</g>
<path d="M35.627 19C37.7648 19 39.498 20.7332 39.498 22.8711V25.75H40.2256C40.6531 25.75 40.9999 26.096 41 26.5234V28.7256C40.9998 29.153 40.653 29.499 40.2256 29.499H39.498V37.7012C39.4978 38.5561 38.8042 39.249 37.9492 39.249H37.8008V39.999C37.8007 40.8274 37.1291 41.499 36.3008 41.499C35.4726 41.4989 34.8009 40.8273 34.8008 39.999V39.249H25.25V39.999C25.2499 40.8274 24.5784 41.499 23.75 41.499C22.9218 41.4989 22.2501 40.8273 22.25 39.999V39.2461C21.4167 39.2213 20.7483 38.5404 20.748 37.7012V29.5H19.2744C18.8471 29.4998 18.5001 29.1529 18.5 28.7256V26.5234C18.5002 26.0962 18.8471 25.7502 19.2744 25.75H20.748V22.8711C20.748 20.7333 22.4814 19.0002 24.6191 19H35.627ZM23.9004 33.25C23.0722 33.2501 22.4006 33.9209 22.4004 34.749C22.4004 35.5774 23.072 36.2489 23.9004 36.249C24.7288 36.249 25.4004 35.5774 25.4004 34.749C25.4002 33.9208 24.7287 33.25 23.9004 33.25ZM36 33.25C35.1718 33.2501 34.5002 33.9209 34.5 34.749C34.5 35.5774 35.1717 36.2489 36 36.249C36.8284 36.249 37.5 35.5774 37.5 34.749C37.4998 33.9208 36.8283 33.25 36 33.25ZM23.1748 24.25C22.7473 24.2501 22.4004 24.5969 22.4004 25.0244V30.2256C22.4004 30.6531 22.7473 30.9999 23.1748 31H36.626C37.0535 31 37.4003 30.6531 37.4004 30.2256V25.0244C37.4004 24.5968 37.0536 24.25 36.626 24.25H23.1748ZM27.75 21C27.3359 21.0001 27 21.3359 27 21.75C27 22.1641 27.3359 22.4999 27.75 22.5H32.25C32.6642 22.5 33 22.1642 33 21.75C33 21.3358 32.6642 21 32.25 21H27.75Z" fill="#B1B8BE"/>
</g>
<defs>
<filter id="filter0_d_1723_67089" x="0" y="2" width="60" height="60" filterUnits="userSpaceOnUse" color-interpolation-filters="sRGB">
<feFlood flood-opacity="0" result="BackgroundImageFix"/>
<feColorMatrix in="SourceAlpha" type="matrix" values="0 0 0 0 0 0 0 0 0 0 0 0 0 0 0 0 0 0 127 0" result="hardAlpha"/>
<feOffset dy="2"/>
<feGaussianBlur stdDeviation="5"/>
<feComposite in2="hardAlpha" operator="out"/>
<feColorMatrix type="matrix" values="0 0 0 0 0 0 0 0 0 0 0 0 0 0 0 0 0 0 0.25 0"/>
<feBlend mode="normal" in2="BackgroundImageFix" result="effect1_dropShadow_1723_67089"/>
<feBlend mode="normal" in="SourceGraphic" in2="effect1_dropShadow_1723_67089" result="shape"/>
</filter>
<clipPath id="clip0_1723_67089">
<rect width="60" height="60" fill="white"/>
</clipPath>
</defs>
</svg>
