<svg width="60" height="60" viewBox="0 0 60 60" fill="none" xmlns="http://www.w3.org/2000/svg">
<g clip-path="url(#clip0_1723_67090)">
<g filter="url(#filter0_d_1723_67090)">
<rect x="8" y="9" width="40" height="40" rx="20" fill="#3D9FB8"/>
<rect x="9" y="10" width="38" height="38" rx="19" stroke="white" stroke-width="2"/>
</g>
<path d="M19 20.4C19 19.6268 19.6268 19 20.4 19H28.6C29.3732 19 30 19.6268 30 20.4V38C30 38.5523 29.5523 39 29 39H20C19.4477 39 19 38.5523 19 38V20.4Z" fill="white"/>
<rect x="23" y="34" width="3" height="4" rx="0.4" fill="#3D9FB8"/>
<path d="M31 24H35.8C36.4627 24 37 24.5373 37 25.2V38C37 38.5523 36.5523 39 36 39H32C31.4477 39 31 38.5523 31 38V24Z" fill="white"/>
<line x1="17.7" y1="38.3" x2="38.3" y2="38.3" stroke="white" stroke-width="1.4" stroke-linecap="round"/>
<circle cx="22.8" cy="22.8" r="0.8" fill="#3D9FB8"/>
<circle cx="26.4016" cy="22.8" r="0.8" fill="#3D9FB8"/>
<circle cx="22.8" cy="26.2004" r="0.8" fill="#3D9FB8"/>
<circle cx="26.4016" cy="26.2004" r="0.8" fill="#3D9FB8"/>
<circle cx="22.8" cy="29.6008" r="0.8" fill="#3D9FB8"/>
<circle cx="26.4016" cy="29.6008" r="0.8" fill="#3D9FB8"/>
<circle cx="33.8" cy="26.8" r="0.8" fill="#3D9FB8"/>
<circle cx="33.8" cy="29.6008" r="0.8" fill="#3D9FB8"/>
<circle cx="33.8" cy="32.3996" r="0.8" fill="#3D9FB8"/>
</g>
<defs>
<filter id="filter0_d_1723_67090" x="-2" y="1" width="60" height="60" filterUnits="userSpaceOnUse" color-interpolation-filters="sRGB">
<feFlood flood-opacity="0" result="BackgroundImageFix"/>
<feColorMatrix in="SourceAlpha" type="matrix" values="0 0 0 0 0 0 0 0 0 0 0 0 0 0 0 0 0 0 127 0" result="hardAlpha"/>
<feOffset dy="2"/>
<feGaussianBlur stdDeviation="5"/>
<feComposite in2="hardAlpha" operator="out"/>
<feColorMatrix type="matrix" values="0 0 0 0 0 0 0 0 0 0 0 0 0 0 0 0 0 0 0.25 0"/>
<feBlend mode="normal" in2="BackgroundImageFix" result="effect1_dropShadow_1723_67090"/>
<feBlend mode="normal" in="SourceGraphic" in2="effect1_dropShadow_1723_67090" result="shape"/>
</filter>
<clipPath id="clip0_1723_67090">
<rect width="60" height="60" fill="white"/>
</clipPath>
</defs>
</svg>
