<svg width="60" height="60" viewBox="0 0 60 60" fill="none" xmlns="http://www.w3.org/2000/svg">
<g filter="url(#filter0_d_1695_29379)">
<mask id="path-1-inside-1_1695_29379" fill="white">
<path d="M10 30C10 18.9543 18.9543 10 30 10V10C41.0457 10 50 18.9543 50 30V30C50 41.0457 41.0457 50 30 50V50C18.9543 50 10 41.0457 10 30V30Z"/>
</mask>
<path d="M10 30C10 18.9543 18.9543 10 30 10V10C41.0457 10 50 18.9543 50 30V30C50 41.0457 41.0457 50 30 50V50C18.9543 50 10 41.0457 10 30V30Z" fill="white"/>
<path d="M10 30M50 30M50 30M10 30M30 10M50 30M30 50M10 30M30 50V49C19.5066 49 11 40.4934 11 30H10H9C9 41.598 18.402 51 30 51V50ZM50 30H49C49 40.4934 40.4934 49 30 49V50V51C41.598 51 51 41.598 51 30H50ZM30 10V11C40.4934 11 49 19.5066 49 30H50H51C51 18.402 41.598 9 30 9V10ZM30 10V9C18.402 9 9 18.402 9 30H10H11C11 19.5066 19.5066 11 30 11V10Z" fill="#E4E8EB" mask="url(#path-1-inside-1_1695_29379)"/>
</g>
<path d="M41.6435 27.501C36.2362 28.7733 36.7398 22.7298 37.6675 19.5491C38.3303 19.5491 40.133 20.1057 42.0415 22.3322C43.95 24.5588 42.5714 26.7058 41.6435 27.501Z" fill="#B3B3B3"/>
<path d="M40.0265 24.4C40.2021 24.2685 40.4514 24.3045 40.5831 24.4801C41.5592 25.7816 42.0847 26.9322 42.2325 27.3756C42.302 27.5839 42.1889 27.8091 41.9806 27.8785C41.7724 27.9478 41.5471 27.8357 41.4776 27.6275C41.3603 27.2757 40.8785 26.1994 39.9464 24.9566C39.8149 24.781 39.8509 24.5317 40.0265 24.4Z" fill="white"/>
<path d="M24.6869 31.1195L31.4102 23.6885C31.5666 23.5156 31.8527 23.6468 31.8238 23.8782L31.1224 29.4892H35.3723C35.5765 29.4892 35.6863 29.7291 35.5529 29.8837L28.8542 37.64C28.6999 37.8186 28.4077 37.6887 28.437 37.4545L29.1344 31.8748L24.844 31.5173C24.6472 31.5008 24.5544 31.266 24.6869 31.1195Z" fill="#B3B3B3"/>
<path d="M17.2051 30.2842C17.2052 23.0381 23.0791 17.1642 30.3252 17.1641C32.2886 17.1641 34.1537 17.5956 35.8281 18.3701C36.2267 18.5545 36.4002 19.0272 36.2158 19.4258C36.0314 19.8243 35.5587 19.9978 35.1602 19.8135C33.6908 19.1338 32.0533 18.7539 30.3252 18.7539C23.9574 18.754 18.7951 23.9164 18.7949 30.2842C18.7949 36.6521 23.9573 41.8143 30.3252 41.8145C36.6932 41.8145 41.8555 36.6522 41.8555 30.2842C41.8556 29.8451 42.2123 29.4893 42.6514 29.4893C43.0902 29.4895 43.4461 29.8453 43.4463 30.2842C43.4463 37.5305 37.5715 43.4053 30.3252 43.4053C23.079 43.4051 17.2051 37.5304 17.2051 30.2842Z" fill="#B3B3B3"/>
<defs>
<filter id="filter0_d_1695_29379" x="0" y="0" width="60" height="60" filterUnits="userSpaceOnUse" color-interpolation-filters="sRGB">
<feFlood flood-opacity="0" result="BackgroundImageFix"/>
<feColorMatrix in="SourceAlpha" type="matrix" values="0 0 0 0 0 0 0 0 0 0 0 0 0 0 0 0 0 0 127 0" result="hardAlpha"/>
<feOffset/>
<feGaussianBlur stdDeviation="5"/>
<feComposite in2="hardAlpha" operator="out"/>
<feColorMatrix type="matrix" values="0 0 0 0 0 0 0 0 0 0 0 0 0 0 0 0 0 0 0.25 0"/>
<feBlend mode="normal" in2="BackgroundImageFix" result="effect1_dropShadow_1695_29379"/>
<feBlend mode="normal" in="SourceGraphic" in2="effect1_dropShadow_1695_29379" result="shape"/>
</filter>
</defs>
</svg>
