<svg width="60" height="60" viewBox="0 0 60 60" fill="none" xmlns="http://www.w3.org/2000/svg">
<g clip-path="url(#clip0_1723_66924)">
<g filter="url(#filter0_d_1723_66924)">
<rect x="10" y="10" width="40" height="40" rx="20" fill="#044E9E"/>
<rect x="11" y="11" width="38" height="38" rx="19" stroke="white" stroke-width="2"/>
</g>
<path d="M30 29C31.3261 29 32.5979 29.5268 33.5355 30.4645C34.4732 31.4021 35 32.6739 35 34V40H25V34C25 32.6739 25.5268 31.4021 26.4645 30.4645C27.4021 29.5268 28.6739 29 30 29ZM23.288 32.006C23.1289 32.5428 23.0348 33.0968 23.008 33.656L23 34V40H20V35.5C19.9998 34.6376 20.318 33.8054 20.8936 33.1632C21.4692 32.521 22.2617 32.1139 23.119 32.02L23.289 32.006H23.288ZM36.712 32.006C37.6019 32.0602 38.4376 32.452 39.0486 33.1012C39.6596 33.7505 39.9999 34.6084 40 35.5V40H37V34C37 33.307 36.9 32.638 36.712 32.006ZM23.5 26C24.163 26 24.7989 26.2634 25.2678 26.7322C25.7366 27.2011 26 27.837 26 28.5C26 29.163 25.7366 29.7989 25.2678 30.2678C24.7989 30.7366 24.163 31 23.5 31C22.837 31 22.2011 30.7366 21.7322 30.2678C21.2634 29.7989 21 29.163 21 28.5C21 27.837 21.2634 27.2011 21.7322 26.7322C22.2011 26.2634 22.837 26 23.5 26V26ZM36.5 26C37.163 26 37.7989 26.2634 38.2678 26.7322C38.7366 27.2011 39 27.837 39 28.5C39 29.163 38.7366 29.7989 38.2678 30.2678C37.7989 30.7366 37.163 31 36.5 31C35.837 31 35.2011 30.7366 34.7322 30.2678C34.2634 29.7989 34 29.163 34 28.5C34 27.837 34.2634 27.2011 34.7322 26.7322C35.2011 26.2634 35.837 26 36.5 26V26ZM30 20C31.0609 20 32.0783 20.4214 32.8284 21.1716C33.5786 21.9217 34 22.9391 34 24C34 25.0609 33.5786 26.0783 32.8284 26.8284C32.0783 27.5786 31.0609 28 30 28C28.9391 28 27.9217 27.5786 27.1716 26.8284C26.4214 26.0783 26 25.0609 26 24C26 22.9391 26.4214 21.9217 27.1716 21.1716C27.9217 20.4214 28.9391 20 30 20V20Z" fill="white"/>
</g>
<defs>
<filter id="filter0_d_1723_66924" x="0" y="2" width="60" height="60" filterUnits="userSpaceOnUse" color-interpolation-filters="sRGB">
<feFlood flood-opacity="0" result="BackgroundImageFix"/>
<feColorMatrix in="SourceAlpha" type="matrix" values="0 0 0 0 0 0 0 0 0 0 0 0 0 0 0 0 0 0 127 0" result="hardAlpha"/>
<feOffset dy="2"/>
<feGaussianBlur stdDeviation="5"/>
<feComposite in2="hardAlpha" operator="out"/>
<feColorMatrix type="matrix" values="0 0 0 0 0 0 0 0 0 0 0 0 0 0 0 0 0 0 0.25 0"/>
<feBlend mode="normal" in2="BackgroundImageFix" result="effect1_dropShadow_1723_66924"/>
<feBlend mode="normal" in="SourceGraphic" in2="effect1_dropShadow_1723_66924" result="shape"/>
</filter>
<clipPath id="clip0_1723_66924">
<rect width="60" height="60" fill="white"/>
</clipPath>
</defs>
</svg>
