<svg width="90" height="90" viewBox="0 0 90 90" fill="none" xmlns="http://www.w3.org/2000/svg">
<g clip-path="url(#clip0_1371_42945)">
<circle cx="45.2168" cy="45.2168" r="45.2168" fill="#FFF3E5"/>
<path d="M27.4062 23.2002H43.0293C45.1279 23.2003 46.8291 24.9014 46.8291 27V67.5244H23.6064V27C23.6064 24.9013 25.3076 23.2002 27.4062 23.2002Z" stroke="#EC8913" stroke-width="2.4"/>
<path d="M49.4297 35.2588H63.0234C64.0176 35.2588 64.8232 36.0645 64.8232 37.0586V67.5244H47.6299V37.0586C47.6299 36.0645 48.4356 35.2588 49.4297 35.2588Z" stroke="#EC8913" stroke-width="2.4"/>
<line x1="20.2" y1="67.5266" x2="69.0457" y2="67.5266" stroke="#EC8913" stroke-width="2.4" stroke-linecap="round"/>
<rect x="30.0078" y="29.8984" width="3.01445" height="3.01445" rx="0.301445" fill="#EC8913"/>
<rect x="37.5439" y="29.8984" width="3.01445" height="3.01445" rx="0.301445" fill="#EC8913"/>
<rect x="30.0078" y="37.9141" width="3.01445" height="3.01445" rx="0.301445" fill="#EC8913"/>
<rect x="37.5439" y="37.9141" width="3.01445" height="3.01445" rx="0.301445" fill="#EC8913"/>
<rect x="30.0078" y="45.9258" width="3.01445" height="3.01445" rx="0.301445" fill="#EC8913"/>
<rect x="37.5439" y="45.9258" width="3.01445" height="3.01445" rx="0.301445" fill="#EC8913"/>
<rect x="54.4219" y="41.5938" width="3.01445" height="3.01445" rx="0.301445" fill="#EC8913"/>
<rect x="54.4219" y="49.1289" width="3.01445" height="3.01445" rx="0.301445" fill="#EC8913"/>
<rect x="54.422" y="56.668" width="3.01445" height="3.01445" rx="0.301445" fill="#EC8913"/>
<path d="M29.4062 67.1127V58.2984C29.4062 57.5252 30.0331 56.8984 30.8063 56.8984H35.4063H40.0062C40.7794 56.8984 41.4063 57.5252 41.4063 58.2984V67.8984" stroke="#EC8913" stroke-width="2.4"/>
</g>
<defs>
<clipPath id="clip0_1371_42945">
<rect width="90" height="90" fill="white"/>
</clipPath>
</defs>
</svg>
