<svg width="60" height="60" viewBox="0 0 60 60" fill="none" xmlns="http://www.w3.org/2000/svg">
<path d="M30 25H30.0258" stroke="#0865D8" stroke-width="5" stroke-linecap="round" stroke-linejoin="round"/>
<path d="M30 35H30.0258" stroke="#0865D8" stroke-width="5" stroke-linecap="round" stroke-linejoin="round"/>
<path d="M30 15H30.0258" stroke="#0865D8" stroke-width="5" stroke-linecap="round" stroke-linejoin="round"/>
<path d="M40 25H40.0258" stroke="#0865D8" stroke-width="5" stroke-linecap="round" stroke-linejoin="round"/>
<path d="M40 35H40.0258" stroke="#0865D8" stroke-width="5" stroke-linecap="round" stroke-linejoin="round"/>
<path d="M40 15H40.0258" stroke="#0865D8" stroke-width="5" stroke-linecap="round" stroke-linejoin="round"/>
<path d="M20 25H20.0258" stroke="#0865D8" stroke-width="5" stroke-linecap="round" stroke-linejoin="round"/>
<path d="M20 35H20.0258" stroke="#0865D8" stroke-width="5" stroke-linecap="round" stroke-linejoin="round"/>
<path d="M20 15H20.0258" stroke="#0865D8" stroke-width="5" stroke-linecap="round" stroke-linejoin="round"/>
<path d="M22.5 55V47.5C22.5 46.837 22.7634 46.2011 23.2322 45.7322C23.7011 45.2634 24.337 45 25 45H35C35.663 45 36.2989 45.2634 36.7678 45.7322C37.2366 46.2011 37.5 46.837 37.5 47.5V55" stroke="#0865D8" stroke-width="3" stroke-linecap="round" stroke-linejoin="round"/>
<path d="M45 5H15C12.2386 5 10 7.23858 10 10V50C10 52.7614 12.2386 55 15 55H45C47.7614 55 50 52.7614 50 50V10C50 7.23858 47.7614 5 45 5Z" stroke="#0865D8" stroke-width="3" stroke-linecap="round" stroke-linejoin="round"/>
</svg>
