<svg width="90" height="90" viewBox="0 0 90 90" fill="none" xmlns="http://www.w3.org/2000/svg">
<g clip-path="url(#clip0_1371_42918)">
<circle cx="45" cy="45" r="45" fill="#F3FFF5"/>
<path d="M30.6318 20.2002H59.79C63.0403 20.2002 65.6755 22.8347 65.6758 26.085V57.9697C65.6758 61.2202 63.0405 63.8555 59.79 63.8555H30.6318C27.3816 63.8552 24.7471 61.22 24.7471 57.9697V26.085C24.7473 22.8349 27.3818 20.2005 30.6318 20.2002Z" stroke="#3FA654" stroke-width="2.4"/>
<path d="M65.6758 27.2861V41.3418C65.6758 43.9927 63.5268 46.1424 60.876 46.1426H29.5469C26.8959 46.1426 24.7471 43.9928 24.7471 41.3418V27.2861H65.6758Z" stroke="#3FA654" stroke-width="2.4"/>
<path d="M23.7656 30.7002H22.998C21.4517 30.7002 20.1973 31.9536 20.1973 33.5V38.0303C20.1973 39.5767 21.4517 40.8301 22.998 40.8301H24.5654V31.5C24.5654 31.0582 24.2075 30.7002 23.7656 30.7002Z" stroke="#3FA654" stroke-width="2.4"/>
<path d="M66.9219 30.2002H67.6895C69.2358 30.2002 70.4902 31.4536 70.4902 33V37.5303C70.4902 39.0767 69.2358 40.3301 67.6895 40.3301H66.1221V31C66.1221 30.5582 66.48 30.2002 66.9219 30.2002Z" stroke="#3FA654" stroke-width="2.4"/>
<path d="M35.668 52.1299C36.8206 52.1299 37.8241 53.1078 37.8242 54.4004C37.8242 55.6931 36.8207 56.6719 35.668 56.6719C34.5154 56.6717 33.5127 55.693 33.5127 54.4004C33.5128 53.1079 34.5154 52.13 35.668 52.1299Z" stroke="#3FA654" stroke-width="2.4"/>
<path d="M54.4609 52.1299C55.6136 52.1299 56.6171 53.1078 56.6172 54.4004C56.6172 55.6931 55.6137 56.6719 54.4609 56.6719C53.3083 56.6717 52.3057 55.693 52.3057 54.4004C52.3058 53.1079 53.3084 52.13 54.4609 52.1299Z" stroke="#3FA654" stroke-width="2.4"/>
<path d="M36.7949 64.1025V68.1484C36.7948 69.4797 35.716 70.5594 34.3848 70.5596C33.0533 70.5596 31.9738 69.4799 31.9736 68.1484V64.1025H36.7949Z" stroke="#3FA654" stroke-width="2.4"/>
<path d="M58.459 64.1025V68.1484C58.4589 69.4797 57.3801 70.5594 56.0488 70.5596C54.7174 70.5596 53.6378 69.4799 53.6377 68.1484V64.1025H58.459Z" stroke="#3FA654" stroke-width="2.4"/>
</g>
<defs>
<clipPath id="clip0_1371_42918">
<rect width="90" height="90" rx="3" fill="white"/>
</clipPath>
</defs>
</svg>
