<svg width="80" height="80" viewBox="0 0 80 80" fill="none" xmlns="http://www.w3.org/2000/svg">
<g clip-path="url(#clip0_1765_39144)">
<circle cx="40" cy="40" r="40" fill="#EAF6EC"/>
<path d="M55.2783 39.2354C60.4113 39.2354 64.5723 43.397 64.5723 48.5303C64.5721 51.848 62.8323 54.7569 60.2168 56.4014L54.5029 64.0215L49.2285 55.583C47.2434 53.8785 45.9845 51.352 45.9844 48.5303C45.9844 43.3971 50.1454 39.2355 55.2783 39.2354ZM50.3711 16C54.7865 16.0003 58.3661 19.5797 58.3662 23.9951V29.9414H59.873C60.7557 29.9418 61.4714 30.6573 61.4717 31.54V36.0879C61.4715 36.8742 60.9032 37.5255 60.1553 37.6592C58.6546 37.0136 57.001 36.6553 55.2637 36.6553C54.7432 36.6553 54.2302 36.6877 53.7266 36.75V28.4434C53.7263 27.5606 53.0107 26.845 52.1279 26.8447H24.3447C23.4619 26.845 22.7463 27.5606 22.7461 28.4434V39.1875C22.7462 40.0704 23.4618 40.7859 24.3447 40.7861H46.0303C44.067 42.9788 42.8711 45.873 42.8711 49.0479C42.8711 52.4788 44.2674 55.5817 46.5205 57.8252H28.9424V59.373C28.9423 61.0839 27.5546 62.4715 25.8438 62.4717C24.133 62.4715 22.7462 61.0838 22.7461 59.373V57.8223C21.0228 57.7732 19.6407 56.3621 19.6406 54.627V37.6865H16.5986C15.7158 37.6863 15.0002 36.9707 15 36.0879V31.54C15.0002 30.6572 15.7158 29.9416 16.5986 29.9414H19.6406V23.9951C19.6408 19.5796 23.2202 16.0001 27.6357 16H50.3711ZM55.2803 43.8828C52.7138 43.8828 50.6328 45.9637 50.6328 48.5303C50.6329 51.0968 52.7138 53.1777 55.2803 53.1777C57.8465 53.1775 59.9267 51.0967 59.9268 48.5303C59.9268 45.9638 57.8466 43.883 55.2803 43.8828ZM25.8438 45.4336C24.1329 45.4338 22.7461 46.8213 22.7461 48.5322C22.7464 50.2429 24.1331 51.6297 25.8438 51.6299C27.5545 51.6298 28.9421 50.243 28.9424 48.5322C28.9424 46.8212 27.5547 45.4337 25.8438 45.4336ZM33.5879 20.6484C32.7326 20.6486 32.0392 21.3419 32.0391 22.1973C32.0391 23.0527 32.7325 23.7469 33.5879 23.7471H42.8818C43.7373 23.747 44.4316 23.0527 44.4316 22.1973C44.4315 21.3419 43.7372 20.6485 42.8818 20.6484H33.5879Z" fill="#06A85B"/>
</g>
<defs>
<clipPath id="clip0_1765_39144">
<rect width="80" height="80" fill="white"/>
</clipPath>
</defs>
</svg>
