<svg width="80" height="80" viewBox="0 0 80 80" fill="none" xmlns="http://www.w3.org/2000/svg">
<g clip-path="url(#clip0_1765_39167)">
<circle cx="40" cy="40" r="40" fill="#FFF0DE"/>
<path d="M49.4775 19.4297C50.7971 19.4299 51.8671 20.4998 51.8672 21.8193V39.7422H56.416C57.7358 39.7422 58.8065 40.8121 58.8066 42.1318V57.665C58.8066 58.9848 57.7358 60.0547 56.416 60.0547H39.707C39.7009 60.0547 39.6946 60.0557 39.6885 60.0557H22.96C21.6403 60.0555 20.5704 58.9857 20.5703 57.666V36.5928C20.5704 35.2731 21.6403 34.2032 22.96 34.2031H30.3594V21.8193C30.3595 20.4997 31.4294 19.4298 32.749 19.4297H49.4775Z" fill="#EC8913"/>
<path d="M24.75 38.7858C24.75 38.6539 24.857 38.5469 24.989 38.5469H29.2905C29.4224 38.5469 29.5294 38.6539 29.5294 38.7858V41.8925C29.5294 42.0245 29.4224 42.1315 29.2905 42.1315H24.989C24.857 42.1315 24.75 42.0245 24.75 41.8925V38.7858Z" fill="white"/>
<path d="M34.9062 24.4499C34.9062 24.3179 35.0132 24.2109 35.1452 24.2109H39.4467C39.5787 24.2109 39.6857 24.3179 39.6857 24.4499V27.5565C39.6857 27.6885 39.5787 27.7955 39.4467 27.7955H35.1452C35.0132 27.7955 34.9062 27.6885 34.9062 27.5565V24.4499Z" fill="white"/>
<path d="M43.2734 24.448C43.2734 24.316 43.3804 24.209 43.5124 24.209H47.8139C47.9459 24.209 48.0529 24.316 48.0529 24.448V27.5546C48.0529 27.6866 47.9459 27.7936 47.8139 27.7936H43.5124C43.3804 27.7936 43.2734 27.6866 43.2734 27.5546V24.448Z" fill="white"/>
<path d="M24.75 45.9558C24.75 45.8238 24.857 45.7168 24.989 45.7168H29.2905C29.4224 45.7168 29.5294 45.8238 29.5294 45.9558V49.0624C29.5294 49.1944 29.4224 49.3014 29.2905 49.3014H24.989C24.857 49.3014 24.75 49.1944 24.75 49.0624V45.9558Z" fill="white"/>
<path d="M34.9062 31.6179C34.9062 31.4859 35.0132 31.3789 35.1452 31.3789H39.4467C39.5787 31.3789 39.6857 31.4859 39.6857 31.6179V34.7245C39.6857 34.8565 39.5787 34.9635 39.4467 34.9635H35.1452C35.0132 34.9635 34.9062 34.8565 34.9062 34.7245V31.6179Z" fill="white"/>
<path d="M34.9062 38.7858C34.9062 38.6539 35.0132 38.5469 35.1452 38.5469H39.4467C39.5787 38.5469 39.6857 38.6539 39.6857 38.7858V41.8925C39.6857 42.0245 39.5787 42.1315 39.4467 42.1315H35.1452C35.0132 42.1315 34.9062 42.0245 34.9062 41.8925V38.7858Z" fill="white"/>
<path d="M34.9062 45.9558C34.9062 45.8238 35.0132 45.7168 35.1452 45.7168H39.4467C39.5787 45.7168 39.6857 45.8238 39.6857 45.9558V49.0624C39.6857 49.1944 39.5787 49.3014 39.4467 49.3014H35.1452C35.0132 49.3014 34.9062 49.1944 34.9062 49.0624V45.9558Z" fill="white"/>
<path d="M43.2734 31.6179C43.2734 31.4859 43.3804 31.3789 43.5124 31.3789H47.8139C47.9459 31.3789 48.0529 31.4859 48.0529 31.6179V34.7245C48.0529 34.8565 47.9459 34.9635 47.8139 34.9635H43.5124C43.3804 34.9635 43.2734 34.8565 43.2734 34.7245V31.6179Z" fill="white"/>
<path d="M43.2734 38.7858C43.2734 38.6539 43.3804 38.5469 43.5124 38.5469H47.8139C47.9459 38.5469 48.0529 38.6539 48.0529 38.7858V41.8925C48.0529 42.0245 47.9459 42.1315 47.8139 42.1315H43.5124C43.3804 42.1315 43.2734 42.0245 43.2734 41.8925V38.7858Z" fill="white"/>
<path d="M43.2734 45.9558C43.2734 45.8238 43.3804 45.7168 43.5124 45.7168H54.9831C55.115 45.7168 55.222 45.8238 55.222 45.9558V49.0624C55.222 49.1944 55.115 49.3014 54.9831 49.3014H43.5124C43.3804 49.3014 43.2734 49.1944 43.2734 49.0624V45.9558Z" fill="white"/>
</g>
<defs>
<clipPath id="clip0_1765_39167">
<rect width="80" height="80" fill="white"/>
</clipPath>
</defs>
</svg>
