<svg width="36" height="36" viewBox="0 0 36 36" fill="none" xmlns="http://www.w3.org/2000/svg">
<path d="M6.41016 18.0363C6.41016 17.8203 6.50559 17.6153 6.6709 17.4763L12.5258 12.551C13.0019 12.1506 13.7288 12.489 13.7288 13.1111V33.1246C13.7288 33.5288 13.4012 33.8565 12.997 33.8565H7.14203C6.73783 33.8565 6.41016 33.5288 6.41016 33.1246V18.0363Z" fill="#636CCC"/>
<rect x="14.9492" y="2.14258" width="14.6374" height="31.7143" rx="2.05437" fill="#636CCC"/>
<rect x="18.6094" y="6.03711" width="2.43956" height="2.43956" rx="0.243956" fill="white"/>
<rect x="23.4883" y="6.03711" width="2.43956" height="2.43956" rx="0.243956" fill="white"/>
<rect x="18.6094" y="10.1289" width="2.43956" height="2.43956" rx="0.243956" fill="white"/>
<rect x="23.4883" y="10.1289" width="2.43956" height="2.43956" rx="0.243956" fill="white"/>
<rect x="18.6094" y="14.2227" width="2.43956" height="2.43956" rx="0.243956" fill="white"/>
<rect x="23.4883" y="14.2227" width="2.43956" height="2.43956" rx="0.243956" fill="white"/>
<rect x="18.6094" y="18.3145" width="2.43956" height="2.43956" rx="0.243956" fill="white"/>
<rect x="23.4883" y="18.3145" width="2.43956" height="2.43956" rx="0.243956" fill="white"/>
<rect x="18.6094" y="24.6504" width="7.31868" height="6.13824" rx="0.243956" fill="white"/>
</svg>
