<svg width="60" height="60" viewBox="0 0 60 60" fill="none" xmlns="http://www.w3.org/2000/svg">
<rect width="60" height="60" rx="11.25" fill="#EDF6F8"/>
<path d="M30.0013 27.916C32.764 27.916 35.4135 29.0135 37.367 30.967C39.3205 32.9205 40.418 35.57 40.418 38.3327V50.8327H19.5846V38.3327C19.5846 35.57 20.6821 32.9205 22.6356 30.967C24.5891 29.0135 27.2386 27.916 30.0013 27.916ZM16.018 34.1785C15.6864 35.2968 15.4906 36.4509 15.4346 37.616L15.418 38.3327V50.8327H9.16797V41.4577C9.16756 39.661 9.83053 37.9273 11.0297 36.5894C12.2289 35.2514 13.8798 34.4033 15.6659 34.2077L16.0201 34.1785H16.018ZM43.9846 34.1785C45.8386 34.2915 47.5796 35.1076 48.8525 36.4603C50.1255 37.8129 50.8344 39.6003 50.8346 41.4577V50.8327H44.5846V38.3327C44.5846 36.8889 44.3763 35.4952 43.9846 34.1785ZM16.4596 21.666C17.841 21.666 19.1657 22.2147 20.1425 23.1915C21.1192 24.1683 21.668 25.493 21.668 26.8743C21.668 28.2557 21.1192 29.5804 20.1425 30.5572C19.1657 31.5339 17.841 32.0827 16.4596 32.0827C15.0783 32.0827 13.7535 31.5339 12.7768 30.5572C11.8 29.5804 11.2513 28.2557 11.2513 26.8743C11.2513 25.493 11.8 24.1683 12.7768 23.1915C13.7535 22.2147 15.0783 21.666 16.4596 21.666V21.666ZM43.543 21.666C44.9243 21.666 46.2491 22.2147 47.2258 23.1915C48.2026 24.1683 48.7513 25.493 48.7513 26.8743C48.7513 28.2557 48.2026 29.5804 47.2258 30.5572C46.2491 31.5339 44.9243 32.0827 43.543 32.0827C42.1616 32.0827 40.8369 31.5339 39.8601 30.5572C38.8834 29.5804 38.3346 28.2557 38.3346 26.8743C38.3346 25.493 38.8834 24.1683 39.8601 23.1915C40.8369 22.2147 42.1616 21.666 43.543 21.666V21.666ZM30.0013 9.16602C32.2114 9.16602 34.3311 10.044 35.8939 11.6068C37.4567 13.1696 38.3346 15.2892 38.3346 17.4993C38.3346 19.7095 37.4567 21.8291 35.8939 23.3919C34.3311 24.9547 32.2114 25.8327 30.0013 25.8327C27.7912 25.8327 25.6715 24.9547 24.1087 23.3919C22.5459 21.8291 21.668 19.7095 21.668 17.4993C21.668 15.2892 22.5459 13.1696 24.1087 11.6068C25.6715 10.044 27.7912 9.16602 30.0013 9.16602V9.16602Z" fill="#00A4AC"/>
</svg>
