<svg width="36" height="36" viewBox="0 0 36 36" fill="none" xmlns="http://www.w3.org/2000/svg">
<path d="M17.5833 16.7703C19.5172 16.7703 21.3719 17.5177 22.7393 18.8482C24.1068 20.1787 24.875 21.9833 24.875 23.8649V32.3784H10.2917V23.8649C10.2917 21.9833 11.0599 20.1787 12.4273 18.8482C13.7948 17.5177 15.6495 16.7703 17.5833 16.7703ZM7.795 21.0355C7.56292 21.7972 7.42582 22.5832 7.38667 23.3768L7.375 23.8649V32.3784H3V25.9932C2.99971 24.7695 3.46379 23.5888 4.30322 22.6775C5.14264 21.7663 6.29831 21.1886 7.54854 21.0554L7.79646 21.0355H7.795ZM27.3717 21.0355C28.6695 21.1125 29.8882 21.6683 30.7792 22.5896C31.6702 23.5109 32.1665 24.7282 32.1667 25.9932V32.3784H27.7917V23.8649C27.7917 22.8816 27.6458 21.9323 27.3717 21.0355ZM8.10417 12.5135C9.0711 12.5135 9.99843 12.8872 10.6822 13.5525C11.3659 14.2177 11.75 15.12 11.75 16.0608C11.75 17.0016 11.3659 17.9039 10.6822 18.5691C9.99843 19.2344 9.0711 19.6081 8.10417 19.6081C7.13723 19.6081 6.2099 19.2344 5.52617 18.5691C4.84245 17.9039 4.45833 17.0016 4.45833 16.0608C4.45833 15.12 4.84245 14.2177 5.52617 13.5525C6.2099 12.8872 7.13723 12.5135 8.10417 12.5135V12.5135ZM27.0625 12.5135C28.0294 12.5135 28.9568 12.8872 29.6405 13.5525C30.3242 14.2177 30.7083 15.12 30.7083 16.0608C30.7083 17.0016 30.3242 17.9039 29.6405 18.5691C28.9568 19.2344 28.0294 19.6081 27.0625 19.6081C26.0956 19.6081 25.1682 19.2344 24.4845 18.5691C23.8008 17.9039 23.4167 17.0016 23.4167 16.0608C23.4167 15.12 23.8008 14.2177 24.4845 13.5525C25.1682 12.8872 26.0956 12.5135 27.0625 12.5135V12.5135ZM17.5833 4C19.1304 4 20.6142 4.59797 21.7081 5.66237C22.8021 6.72676 23.4167 8.17039 23.4167 9.67568C23.4167 11.181 22.8021 12.6246 21.7081 13.689C20.6142 14.7534 19.1304 15.3514 17.5833 15.3514C16.0362 15.3514 14.5525 14.7534 13.4585 13.689C12.3646 12.6246 11.75 11.181 11.75 9.67568C11.75 8.17039 12.3646 6.72676 13.4585 5.66237C14.5525 4.59797 16.0362 4 17.5833 4V4Z" fill="#00A4AC"/>
</svg>
