<svg width="60" height="60" viewBox="0 0 60 60" fill="none" xmlns="http://www.w3.org/2000/svg">

<path d="M23 12.5V19.5" stroke="#0B78CB" stroke-width="3.5" stroke-linecap="round" stroke-linejoin="round"/>
<path d="M37 12.5V19.5" stroke="#0B78CB" stroke-width="3.5" stroke-linecap="round" stroke-linejoin="round"/>
<path d="M42.25 16H17.75C15.817 16 14.25 17.567 14.25 19.5V44C14.25 45.933 15.817 47.5 17.75 47.5H42.25C44.183 47.5 45.75 45.933 45.75 44V19.5C45.75 17.567 44.183 16 42.25 16Z" fill="#0B78CB" stroke="#0B78CB" stroke-width="3.5" stroke-linecap="round" stroke-linejoin="round"/>
<path d="M14 25L46 25" stroke="white" stroke-width="2" stroke-linecap="round" stroke-linejoin="round"/>
<path d="M23 33.5H23.0183" stroke="white" stroke-width="2.6" stroke-linecap="round" stroke-linejoin="round"/>
<path d="M30 33.5H30.0183" stroke="white" stroke-width="2.6" stroke-linecap="round" stroke-linejoin="round"/>
<path d="M37 33.5H37.0183" stroke="white" stroke-width="2.6" stroke-linecap="round" stroke-linejoin="round"/>
<path d="M23 40.5H23.0183" stroke="white" stroke-width="2.6" stroke-linecap="round" stroke-linejoin="round"/>
<path d="M30 40.5H30.0183" stroke="white" stroke-width="2.6" stroke-linecap="round" stroke-linejoin="round"/>
<path d="M37 40.5H37.0183" stroke="white" stroke-width="2.6" stroke-linecap="round" stroke-linejoin="round"/>
</svg>
