<svg width="70" height="70" viewBox="0 0 70 70" fill="none" xmlns="http://www.w3.org/2000/svg">
<rect x="5.5" y="38" width="14" height="26" rx="2.5" stroke="#EC8913" stroke-width="3"/>
<rect x="25.5" y="24" width="14" height="40" rx="2.5" stroke="#EC8913" stroke-width="3"/>
<rect x="45.5" y="7" width="14" height="57" rx="2.5" stroke="#EC8913" stroke-width="3"/>
<path d="M53.4903 32.3793L61.4661 14.1488C61.8316 13.3136 63.0858 13.6419 62.9951 14.5491L61.588 28.6204C61.5409 29.0913 61.9107 29.5 62.384 29.5H65.2317C65.82 29.5 66.2071 30.1136 65.9537 30.6446L56.8344 49.7518C56.6867 50.0612 56.2193 49.9208 56.2665 49.5813L58.3736 34.4101C58.4404 33.9291 58.0668 33.5 57.5812 33.5H54.2232C53.6463 33.5 53.259 32.9079 53.4903 32.3793Z" fill="white" stroke="#EC8913" stroke-width="3" stroke-linecap="round"/>
</svg>
