<svg width="48" height="48" viewBox="0 0 48 48" fill="none" xmlns="http://www.w3.org/2000/svg">
<g clip-path="url(#clip0_1745_47929)">
<circle cx="24" cy="24" r="24" fill="#F4F5F6"/>
<circle cx="15.6568" cy="28.4146" r="4.5122" stroke="url(#paint0_linear_1745_47929)" stroke-width="1.80488"/>
<circle cx="32.4146" cy="28.4146" r="4.5122" stroke="url(#paint1_linear_1745_47929)" stroke-width="1.80488"/>
<path d="M17.9141 16.707L19.4933 16.707L21.0726 16.707" stroke="#06A85B" stroke-width="1.62439" stroke-linecap="round"/>
<path d="M19.2656 16.7073L23.3636 28.1202C23.4163 28.267 23.6179 28.2823 23.6922 28.1452L29.6097 17.2212C29.6315 17.181 29.6679 17.1505 29.7113 17.136L30.8739 16.7485C30.9476 16.7239 30.9973 16.6549 30.9973 16.5772V15.8049C30.9973 14.8081 30.1893 14 29.1925 14H27.8388" stroke="url(#paint2_linear_1745_47929)" stroke-width="1.62439" stroke-linecap="round"/>
<path d="M32 28.5L28.7417 18.9629H20.1685L15.361 27.8338C15.1981 28.1344 15.4158 28.5 15.7578 28.5H23.5" stroke="url(#paint3_linear_1745_47929)" stroke-width="1.62439" stroke-linecap="round"/>
</g>
<defs>
<linearGradient id="paint0_linear_1745_47929" x1="15.6568" y1="23" x2="15.6568" y2="33.8293" gradientUnits="userSpaceOnUse">
<stop stop-color="#06A85B"/>
<stop offset="1" stop-color="#01713C"/>
</linearGradient>
<linearGradient id="paint1_linear_1745_47929" x1="32.4146" y1="23" x2="32.4146" y2="33.8293" gradientUnits="userSpaceOnUse">
<stop stop-color="#06A85B"/>
<stop offset="1" stop-color="#01713C"/>
</linearGradient>
<linearGradient id="paint2_linear_1745_47929" x1="25.1315" y1="14" x2="25" y2="35.5" gradientUnits="userSpaceOnUse">
<stop stop-color="#06A85B"/>
<stop offset="1" stop-color="#01713C"/>
</linearGradient>
<linearGradient id="paint3_linear_1745_47929" x1="23.5" y1="18.9629" x2="23.5" y2="28.5" gradientUnits="userSpaceOnUse">
<stop offset="0.0317814" stop-color="#05A85C"/>
<stop offset="1" stop-color="#01713C"/>
</linearGradient>
<clipPath id="clip0_1745_47929">
<rect width="48" height="48" fill="white"/>
</clipPath>
</defs>
</svg>
