<svg width="48" height="48" viewBox="0 0 48 48" fill="none" xmlns="http://www.w3.org/2000/svg">
<g clip-path="url(#clip0_1745_47916)">
<circle cx="24" cy="24" r="24" fill="#F4F5F6"/>
<g clip-path="url(#clip1_1745_47916)">
<line x1="15.707" y1="22.4761" x2="16.7183" y2="22.7498" stroke="#EC8913" stroke-linecap="round"/>
<line x1="0.5" y1="-0.5" x2="1.5477" y2="-0.5" transform="matrix(-0.965269 0.261257 0.261257 0.965269 32.918 22.8281)" stroke="#EC8913" stroke-linecap="round"/>
<line x1="18.8184" y1="18.2367" x2="19.3173" y2="19.158" stroke="#EC8913" stroke-linecap="round"/>
<line x1="0.5" y1="-0.5" x2="1.5477" y2="-0.5" transform="matrix(-0.476221 0.879326 0.879326 0.476221 29.9648 18.0352)" stroke="#EC8913" stroke-linecap="round"/>
<line x1="24.4102" y1="16.6387" x2="24.4102" y2="17.6864" stroke="#EC8913" stroke-linecap="round"/>
<circle cx="23.9513" cy="27.9064" r="2.35367" fill="#E98207"/>
<path d="M35.1583 31.2081C36.1228 29.2967 36.5824 27.1704 36.4934 25.0313C36.4045 22.8922 35.7699 20.8114 34.65 18.9867C33.5301 17.162 31.9621 15.654 30.0951 14.6062C28.2281 13.5584 26.1241 13.0055 23.9831 13C21.8422 12.9946 19.7354 13.5369 17.8632 14.5752C15.9909 15.6136 14.4153 17.1136 13.2861 18.9326C12.157 20.7516 11.5119 22.8291 11.4121 24.9678C11.3123 27.1064 11.7611 29.235 12.7159 31.1513" stroke="url(#paint0_linear_1745_47916)" stroke-width="2.82441"/>
<path d="M28.2411 21.2408C28.2714 21.2056 28.3212 21.2014 28.3582 21.2309C28.3977 21.2624 28.4097 21.3218 28.3858 21.3667L26.532 24.846L25.0371 27.6515C24.813 28.072 24.3241 28.2059 23.9307 27.9543C23.4512 27.6478 23.3433 26.9283 23.7126 26.4995L28.2411 21.2408Z" fill="url(#paint1_linear_1745_47916)"/>
</g>
</g>
<defs>
<linearGradient id="paint0_linear_1745_47916" x1="24" y1="11.5" x2="24" y2="37" gradientUnits="userSpaceOnUse">
<stop stop-color="#EC8913"/>
<stop offset="1" stop-color="#CF7100"/>
</linearGradient>
<linearGradient id="paint1_linear_1745_47916" x1="28.0806" y1="21.0092" x2="23.4919" y2="27.5918" gradientUnits="userSpaceOnUse">
<stop stop-color="#EC8913"/>
<stop offset="1" stop-color="#EF880D"/>
</linearGradient>
<clipPath id="clip0_1745_47916">
<rect width="48" height="48" fill="white"/>
</clipPath>
<clipPath id="clip1_1745_47916">
<rect width="28" height="28" fill="white" transform="translate(10 10)"/>
</clipPath>
</defs>
</svg>
