<svg width="48" height="48" viewBox="0 0 48 48" fill="none" xmlns="http://www.w3.org/2000/svg">
<g clip-path="url(#clip0_651_10007)">
<circle cx="24" cy="24" r="24" fill="#F4F5F6"/>
<path d="M19.8008 26H19.8108" stroke="black" stroke-width="2" stroke-linecap="round" stroke-linejoin="round"/>
<path d="M15.8008 26H15.8108" stroke="white" stroke-width="2" stroke-linecap="round" stroke-linejoin="round"/>
<path d="M12.2544 23.4712C12.0871 23.8189 12 24.2024 12 24.5912V31.5C12 32.163 12.2529 32.7989 12.7029 33.2678C13.153 33.7366 13.7635 34 14.4 34H33.6C34.2365 34 34.847 33.7366 35.2971 33.2678C35.7471 32.7989 36 32.163 36 31.5V24.5912C36 24.2024 35.9129 23.8189 35.7456 23.4712L31.86 15.3875C31.6613 14.971 31.355 14.6205 30.9755 14.3753C30.5961 14.1302 30.1585 14.0002 29.712 14H18.288C17.8415 14.0002 17.4039 14.1302 17.0245 14.3753C16.645 14.6205 16.3387 14.971 16.14 15.3875L12.2544 23.4712Z" fill="url(#paint0_linear_651_10007)"/>
<path d="M34.1938 24.5137H13.0586H34.1938Z" fill="url(#paint1_linear_651_10007)"/>
<path d="M34.1938 24.5137H13.0586" stroke="white" stroke-width="1.0625" stroke-linecap="round" stroke-linejoin="round"/>
<path d="M17.25 28.75H17.26H17.25Z" fill="url(#paint2_linear_651_10007)"/>
<path d="M17.25 28.75H17.26" stroke="white" stroke-width="2.125" stroke-linecap="round" stroke-linejoin="round"/>
<path d="M21.5 28.75H21.51H21.5Z" fill="url(#paint3_linear_651_10007)"/>
<path d="M21.5 28.75H21.51" stroke="white" stroke-width="2.125" stroke-linecap="round" stroke-linejoin="round"/>
</g>
<defs>
<linearGradient id="paint0_linear_651_10007" x1="24" y1="14" x2="24" y2="34" gradientUnits="userSpaceOnUse">
<stop stop-color="#0FA0E9"/>
<stop offset="1" stop-color="#0575AE"/>
</linearGradient>
<linearGradient id="paint1_linear_651_10007" x1="23.6262" y1="24.5137" x2="23.6262" y2="25.5137" gradientUnits="userSpaceOnUse">
<stop stop-color="#0FA0E9"/>
<stop offset="1" stop-color="#0575AE"/>
</linearGradient>
<linearGradient id="paint2_linear_651_10007" x1="17.255" y1="28.75" x2="17.255" y2="29.75" gradientUnits="userSpaceOnUse">
<stop stop-color="#0FA0E9"/>
<stop offset="1" stop-color="#0575AE"/>
</linearGradient>
<linearGradient id="paint3_linear_651_10007" x1="21.505" y1="28.75" x2="21.505" y2="29.75" gradientUnits="userSpaceOnUse">
<stop stop-color="#0FA0E9"/>
<stop offset="1" stop-color="#0575AE"/>
</linearGradient>
<clipPath id="clip0_651_10007">
<rect width="48" height="48" fill="white"/>
</clipPath>
</defs>
</svg>
