<svg width="48" height="48" viewBox="0 0 48 48" fill="none" xmlns="http://www.w3.org/2000/svg">
<g clip-path="url(#clip0_490_7471)">
<circle cx="24" cy="24" r="24" fill="#F4F5F6"/>
<path d="M12.5 22.5C12.5 21.9477 12.9477 21.5 13.5 21.5H17C17.5523 21.5 18 21.9477 18 22.5V36.5C18 37.0523 17.5523 37.5 17 37.5H13.5C12.9477 37.5 12.5 37.0523 12.5 36.5V22.5Z" fill="url(#paint0_linear_490_7471)"/>
<path d="M21 17.5C21 16.9477 21.4477 16.5 22 16.5H25.5C26.0523 16.5 26.5 16.9477 26.5 17.5V36.5C26.5 37.0523 26.0523 37.5 25.5 37.5H22C21.4477 37.5 21 37.0523 21 36.5V17.5Z" fill="url(#paint1_linear_490_7471)"/>
<path d="M29.5 13.5C29.5 12.9477 29.9477 12.5 30.5 12.5H34C34.5523 12.5 35 12.9477 35 13.5V36.5C35 37.0523 34.5523 37.5 34 37.5H30.5C29.9477 37.5 29.5 37.0523 29.5 36.5V13.5Z" fill="url(#paint2_linear_490_7471)"/>
</g>
<defs>
<linearGradient id="paint0_linear_490_7471" x1="14" y1="21.5" x2="14" y2="37.5" gradientUnits="userSpaceOnUse">
<stop stop-color="#7BA9FF"/>
<stop offset="1" stop-color="#134CBA"/>
</linearGradient>
<linearGradient id="paint1_linear_490_7471" x1="24" y1="17" x2="24" y2="37" gradientUnits="userSpaceOnUse">
<stop stop-color="#7BA9FF"/>
<stop offset="1" stop-color="#134CBA"/>
</linearGradient>
<linearGradient id="paint2_linear_490_7471" x1="32.5" y1="12.5" x2="32.5" y2="37.5" gradientUnits="userSpaceOnUse">
<stop stop-color="#7BA9FF"/>
<stop offset="1" stop-color="#134CBA"/>
</linearGradient>
<clipPath id="clip0_490_7471">
<rect width="48" height="48" fill="white"/>
</clipPath>
</defs>
</svg>
