<svg width="48" height="48" viewBox="0 0 48 48" fill="none" xmlns="http://www.w3.org/2000/svg">
<g clip-path="url(#clip0_651_10005)">
<circle cx="24" cy="24" r="24" fill="#F4F5F6"/>
<path d="M35 21C35 27.8654 27.3839 35.0154 24.8264 37.2236C24.5881 37.4028 24.2981 37.4997 24 37.4997C23.7019 37.4997 23.4119 37.4028 23.1736 37.2236C20.6161 35.0154 13 27.8654 13 21C13 18.0826 14.1589 15.2847 16.2218 13.2218C18.2847 11.1589 21.0826 10 24 10C26.9174 10 29.7153 11.1589 31.7782 13.2218C33.8411 15.2847 35 18.0826 35 21Z" fill="url(#paint0_linear_651_10005)"/>
<path d="M24 25.25C26.2091 25.25 28 23.4591 28 21.25C28 19.0409 26.2091 17.25 24 17.25C21.7909 17.25 20 19.0409 20 21.25C20 23.4591 21.7909 25.25 24 25.25Z" fill="white"/>
</g>
<defs>
<linearGradient id="paint0_linear_651_10005" x1="24" y1="10" x2="24" y2="37.4997" gradientUnits="userSpaceOnUse">
<stop stop-color="#1392FA"/>
<stop offset="1" stop-color="#025FA2"/>
</linearGradient>
<clipPath id="clip0_651_10005">
<rect width="48" height="48" fill="white"/>
</clipPath>
</defs>
</svg>
