<svg width="48" height="48" viewBox="0 0 48 48" fill="none" xmlns="http://www.w3.org/2000/svg">
<g clip-path="url(#clip0_1756_24042)">
<circle cx="24" cy="24" r="24" fill="#F4F5F6"/>
<path d="M15.5 12.68C15.5 11.7522 16.2522 11 17.18 11H30.4177C31.3455 11 32.0977 11.7522 32.0977 12.68V35.8C32.0977 36.4627 31.5604 37 30.8977 37H16.7C16.0373 37 15.5 36.4627 15.5 35.8V12.68Z" fill="url(#paint0_linear_1756_24042)"/>
<rect x="19.5" y="30.5" width="9" height="5.41667" rx="0.48" fill="white"/>
<circle cx="19.5577" cy="16.294" r="0.96" fill="white"/>
<circle cx="23.878" cy="16.294" r="0.96" fill="white"/>
<circle cx="28.1983" cy="16.294" r="0.96" fill="white"/>
<circle cx="19.5577" cy="20.3741" r="0.96" fill="white"/>
<circle cx="23.878" cy="20.3741" r="0.96" fill="white"/>
<circle cx="28.1983" cy="20.3741" r="0.96" fill="white"/>
<circle cx="19.5577" cy="24.4541" r="0.96" fill="white"/>
<circle cx="23.878" cy="24.4541" r="0.96" fill="white"/>
<circle cx="28.1983" cy="24.4541" r="0.96" fill="white"/>
</g>
<defs>
<linearGradient id="paint0_linear_1756_24042" x1="23.7988" y1="11" x2="23.7988" y2="37" gradientUnits="userSpaceOnUse">
<stop stop-color="#044E9E"/>
<stop offset="1" stop-color="#0C3F76"/>
</linearGradient>
<clipPath id="clip0_1756_24042">
<rect width="48" height="48" fill="white"/>
</clipPath>
</defs>
</svg>
