<svg width="48" height="48" viewBox="0 0 48 48" fill="none" xmlns="http://www.w3.org/2000/svg">
<g clip-path="url(#clip0_651_9990)">
<circle cx="24" cy="24" r="24" fill="#F4F5F6"/>
<path d="M11.5182 21.7839C11.227 22.0748 10.996 22.4203 10.8384 22.8005C10.6807 23.1808 10.5996 23.5884 10.5996 24C10.5996 24.4116 10.6807 24.8192 10.8384 25.1995C10.996 25.5797 11.227 25.9252 11.5182 26.2161L21.3835 36.0814C21.6744 36.3726 22.0199 36.6036 22.4001 36.7612C22.7804 36.9189 23.188 37 23.5996 37C24.0112 37 24.4188 36.9189 24.7991 36.7612C25.1793 36.6036 25.5248 36.3726 25.8157 36.0814L35.681 26.2161C35.9722 25.9252 36.2032 25.5797 36.3609 25.1995C36.5185 24.8192 36.5996 24.4116 36.5996 24C36.5996 23.5884 36.5185 23.1808 36.3609 22.8005C36.2032 22.4203 35.9722 22.0748 35.681 21.7839L25.8157 11.9186C25.5248 11.6274 25.1793 11.3964 24.7991 11.2388C24.4188 11.0811 24.0112 11 23.5996 11C23.188 11 22.7804 11.0811 22.4001 11.2388C22.0199 11.3964 21.6744 11.6274 21.3835 11.9186L11.5182 21.7839Z" fill="url(#paint0_linear_651_9990)"/>
<path d="M17.5996 24H29.5996" stroke="#EEF6FF" stroke-width="1.57162" stroke-linecap="round"/>
</g>
<defs>
<linearGradient id="paint0_linear_651_9990" x1="23.5996" y1="11" x2="23.5996" y2="37" gradientUnits="userSpaceOnUse">
<stop stop-color="#377AD3"/>
<stop offset="1" stop-color="#0E4793"/>
</linearGradient>
<clipPath id="clip0_651_9990">
<rect width="48" height="48" fill="white"/>
</clipPath>
</defs>
</svg>
