<svg width="48" height="48" viewBox="0 0 48 48" fill="none" xmlns="http://www.w3.org/2000/svg">
<g clip-path="url(#clip0_651_10010)">
<circle cx="24" cy="24" r="24" fill="#F4F5F6"/>
<rect x="10" y="10" width="28" height="28" rx="7.38947" fill="white" fill-opacity="0.1"/>
<path d="M24 22.9737C25.361 22.9737 26.6662 23.5143 27.6285 24.4767C28.5909 25.439 29.1316 26.7443 29.1316 28.1052V34.2631H18.8684V28.1052C18.8684 26.7443 19.409 25.439 20.3714 24.4767C21.3338 23.5143 22.639 22.9737 24 22.9737ZM17.1113 26.0588C16.948 26.6097 16.8515 27.1782 16.824 27.7522L16.8158 28.1052V34.2631H13.7368V29.6447C13.7366 28.7596 14.0632 27.9056 14.654 27.2464C15.2447 26.5873 16.058 26.1695 16.9379 26.0731L17.1124 26.0588H17.1113ZM30.8886 26.0588C31.8019 26.1144 32.6596 26.5165 33.2867 27.1828C33.9138 27.8492 34.263 28.7297 34.2631 29.6447V34.2631H31.1842V28.1052C31.1842 27.394 31.0816 26.7074 30.8886 26.0588ZM17.3289 19.8947C18.0094 19.8947 18.662 20.165 19.1432 20.6462C19.6244 21.1274 19.8947 21.78 19.8947 22.4605C19.8947 23.141 19.6244 23.7936 19.1432 24.2748C18.662 24.756 18.0094 25.0263 17.3289 25.0263C16.6484 25.0263 15.9958 24.756 15.5146 24.2748C15.0335 23.7936 14.7631 23.141 14.7631 22.4605C14.7631 21.78 15.0335 21.1274 15.5146 20.6462C15.9958 20.165 16.6484 19.8947 17.3289 19.8947ZM30.671 19.8947C31.3515 19.8947 32.0041 20.165 32.4853 20.6462C32.9665 21.1274 33.2368 21.78 33.2368 22.4605C33.2368 23.141 32.9665 23.7936 32.4853 24.2748C32.0041 24.756 31.3515 25.0263 30.671 25.0263C29.9905 25.0263 29.3379 24.756 28.8567 24.2748C28.3756 23.7936 28.1052 23.141 28.1052 22.4605C28.1052 21.78 28.3756 21.1274 28.8567 20.6462C29.3379 20.165 29.9905 19.8947 30.671 19.8947ZM24 13.7368C25.0888 13.7368 26.1329 14.1693 26.9028 14.9392C27.6727 15.7091 28.1052 16.7533 28.1052 17.8421C28.1052 18.9309 27.6727 19.9751 26.9028 20.7449C26.1329 21.5148 25.0888 21.9473 24 21.9473C22.9112 21.9473 21.867 21.5148 21.0971 20.7449C20.3272 19.9751 19.8947 18.9309 19.8947 17.8421C19.8947 16.7533 20.3272 15.7091 21.0971 14.9392C21.867 14.1693 22.9112 13.7368 24 13.7368Z" fill="url(#paint0_linear_651_10010)"/>
</g>
<defs>
<linearGradient id="paint0_linear_651_10010" x1="24" y1="13.7368" x2="24" y2="34.2631" gradientUnits="userSpaceOnUse">
<stop stop-color="#07BFC8"/>
<stop offset="1" stop-color="#04939A"/>
</linearGradient>
<clipPath id="clip0_651_10010">
<rect width="48" height="48" fill="white"/>
</clipPath>
</defs>
</svg>
