<svg width="48" height="48" viewBox="0 0 48 48" fill="none" xmlns="http://www.w3.org/2000/svg">
<g clip-path="url(#clip0_1756_24050)">
<circle cx="24" cy="24" r="24" fill="#F4F5F6"/>
<path d="M21 23V20" stroke="#0C8AE5" stroke-width="2" stroke-linecap="round" stroke-linejoin="round"/>
<path d="M27 23V20" stroke="#0C8AE5" stroke-width="2" stroke-linecap="round" stroke-linejoin="round"/>
<path d="M18 23.0476C18 22.469 18.469 22 19.0476 22H28.9524C29.531 22 30 22.469 30 23.0476V27.9524C30 28.531 29.531 29 28.9524 29H19.0476C18.469 29 18 28.531 18 27.9524V23.0476Z" fill="url(#paint0_linear_1756_24050)"/>
<path d="M20.1667 35H13.5476C12.969 35 12.5 34.531 12.5 33.9524V21.0901C12.5 20.7795 12.6378 20.4849 12.8763 20.2859L23.3286 11.5604C23.7174 11.2359 24.2826 11.2359 24.6714 11.5604L35.1237 20.2859C35.3622 20.4849 35.5 20.7795 35.5 21.0901V33.9524C35.5 34.531 35.031 35 34.4524 35H25.0476C24.469 35 24 34.531 24 33.9524V28" stroke="url(#paint1_linear_1756_24050)" stroke-width="2.6" stroke-linecap="round"/>
</g>
<defs>
<linearGradient id="paint0_linear_1756_24050" x1="24" y1="19.5" x2="24" y2="31" gradientUnits="userSpaceOnUse">
<stop stop-color="#0C8AE5"/>
<stop offset="1" stop-color="#0F75BF"/>
</linearGradient>
<linearGradient id="paint1_linear_1756_24050" x1="24" y1="11" x2="24" y2="35" gradientUnits="userSpaceOnUse">
<stop stop-color="#0C8AE5"/>
<stop offset="1" stop-color="#0F75BF"/>
</linearGradient>
<clipPath id="clip0_1756_24050">
<rect width="48" height="48" fill="white"/>
</clipPath>
</defs>
</svg>
