<svg width="48" height="48" viewBox="0 0 48 48" fill="none" xmlns="http://www.w3.org/2000/svg">
<g clip-path="url(#clip0_651_9987)">
<circle cx="24" cy="24" r="24" fill="#F4F5F6"/>
<path d="M31.9229 23.3027C34.6404 23.3029 36.8438 25.5059 36.8438 28.2236C36.8436 29.9802 35.922 31.521 34.5371 32.3916L31.5127 36.4258L28.7197 31.958C27.6686 31.0556 27.0021 29.7176 27.002 28.2236C27.002 25.5058 29.2051 23.3028 31.9229 23.3027ZM29.3271 11C31.6651 11 33.5605 12.8955 33.5605 15.2334V18.3818H34.3574C34.825 18.3818 35.2041 18.7609 35.2041 19.2285V21.6357C35.2041 22.0532 34.9015 22.3982 34.5039 22.4678C33.7093 22.126 32.8338 21.9366 31.9141 21.9365C31.6392 21.9365 31.3685 21.9545 31.1025 21.9873V17.5879C31.1024 17.1206 30.7232 16.7414 30.2559 16.7412H15.5459C15.0785 16.7412 14.6994 17.1205 14.6992 17.5879V23.2764C14.6994 23.7438 15.0785 24.123 15.5459 24.123H27.0254C25.9862 25.284 25.3535 26.8173 25.3535 28.498C25.3538 30.3148 26.0946 31.9568 27.2881 33.1445H17.9795V33.9639C17.9795 34.8697 17.2456 35.6043 16.3398 35.6045C15.434 35.6045 14.6992 34.8698 14.6992 33.9639V33.1416C13.7876 33.1147 13.0566 32.3693 13.0566 31.4512V22.4824H11.4463C10.9788 22.4824 10.5996 22.1033 10.5996 21.6357V19.2285C10.5996 18.761 10.9787 18.3819 11.4463 18.3818H13.0566V15.2334C13.0566 12.8955 14.9521 11 17.29 11H29.3271ZM31.9248 25.7637C30.5662 25.764 29.4649 26.8649 29.4648 28.2236C29.465 29.5822 30.5663 30.6843 31.9248 30.6846C33.2836 30.6846 34.3856 29.5824 34.3857 28.2236C34.3857 26.8648 33.2836 25.7637 31.9248 25.7637ZM16.3398 26.584C15.434 26.584 14.6992 27.3187 14.6992 28.2246C14.6996 29.1302 15.4342 29.8642 16.3398 29.8643C17.2454 29.8641 17.9791 29.1301 17.9795 28.2246C17.9795 27.3188 17.2456 26.5842 16.3398 26.584ZM20.4395 13.4609C19.9865 13.461 19.6191 13.8283 19.6191 14.2812C19.6194 14.734 19.9867 15.1015 20.4395 15.1016H25.3604C25.8131 15.1015 26.1804 14.7339 26.1807 14.2812C26.1807 13.8283 25.8132 13.461 25.3604 13.4609H20.4395Z" fill="url(#paint0_linear_651_9987)"/>
</g>
<defs>
<linearGradient id="paint0_linear_651_9987" x1="23.7217" y1="11" x2="23.7217" y2="36.4258" gradientUnits="userSpaceOnUse">
<stop stop-color="#1CBC70"/>
<stop offset="1" stop-color="#007B40"/>
</linearGradient>
<clipPath id="clip0_651_9987">
<rect width="48" height="48" fill="white"/>
</clipPath>
</defs>
</svg>
