<svg width="48" height="48" viewBox="0 0 48 48" fill="none" xmlns="http://www.w3.org/2000/svg">
<g clip-path="url(#clip0_490_7472)">
<circle cx="24" cy="24" r="24" fill="#F4F5F6"/>
<path d="M32.8779 11.1084C33.1784 14.7535 33.6591 22.6266 31.5234 25.8301C28.8271 29.8744 24.0647 31.6722 19.3896 30.7734C18.4907 31.2232 16.6934 32.9309 16.6934 36.166C16.6921 36.7651 14.8951 37.5137 14.4443 35.7168C13.9949 35.1176 14.0006 33.4702 14.8945 28.9756C15.1627 27.6274 12.1993 24.4819 15.7959 18.1904C18.0402 15.4942 20.3761 14.1456 26.1279 14.1455C31.68 14.1455 32.9162 12.1467 32.8779 11.1084ZM27.9268 18.1904C26.5786 19.988 21.6348 22.2353 18.9385 24.9316C16.7817 27.0889 15.6433 31.5225 15.3438 33.4697C15.9999 33.9995 16.6013 30.7974 17.5 29C18.3988 27.2024 19 25 23 22.5C24.6658 21.4589 27.6271 18.9394 27.9268 18.1904Z" fill="url(#paint0_linear_490_7472)"/>
</g>
<defs>
<linearGradient id="paint0_linear_490_7472" x1="31.9997" y1="12.6021" x2="15.591" y2="35.5707" gradientUnits="userSpaceOnUse">
<stop stop-color="#72CF86"/>
<stop offset="1" stop-color="#2A9340"/>
</linearGradient>
<clipPath id="clip0_490_7472">
<rect width="48" height="48" fill="white"/>
</clipPath>
</defs>
</svg>
