<svg width="60" height="60" viewBox="0 0 60 60" fill="none" xmlns="http://www.w3.org/2000/svg">
<path d="M30 7.5V52.5" stroke="#9E74FF" stroke-width="3" stroke-linecap="round" stroke-linejoin="round"/>
<path d="M47.5 20L55 40C52.8363 41.6228 50.2046 42.5 47.5 42.5C44.7954 42.5 42.1637 41.6228 40 40L47.5 20ZM47.5 20V17.5" stroke="#9E74FF" stroke-width="3" stroke-linecap="round" stroke-linejoin="round"/>
<path d="M7.5 17.5H10C16.976 17.5 23.8447 15.7828 30 12.5C36.1553 15.7828 43.024 17.5 50 17.5H52.5" stroke="#9E74FF" stroke-width="3" stroke-linecap="round" stroke-linejoin="round"/>
<path d="M12.5 20L20 40C17.8363 41.6228 15.2046 42.5 12.5 42.5C9.79537 42.5 7.1637 41.6228 5 40L12.5 20ZM12.5 20V17.5" stroke="#9E74FF" stroke-width="3" stroke-linecap="round" stroke-linejoin="round"/>
<path d="M17.5 52.5H42.5" stroke="#9E74FF" stroke-width="3" stroke-linecap="round" stroke-linejoin="round"/>
</svg>
