<svg width="36" height="36" viewBox="0 0 36 36" fill="none" xmlns="http://www.w3.org/2000/svg">
<path d="M4.22656 18.3514V33.5401C4.22656 34.1879 4.7517 34.7131 5.3995 34.7131H12.421C13.0688 34.7131 13.5939 34.1879 13.5939 33.5401V24.6078C13.5939 23.96 14.1191 23.4349 14.7668 23.4349H21.2373C21.8851 23.4349 22.4102 23.96 22.4102 24.6078V33.5401C22.4102 34.1879 22.9354 34.7131 23.5832 34.7131H30.6047C31.2524 34.7131 31.7776 34.1879 31.7776 33.5401V18.3514C31.7776 17.9997 31.6198 17.6666 31.3477 17.4438L18.7451 7.12591C18.3129 6.77208 17.6912 6.77208 17.259 7.12591L4.65646 17.4438C4.38435 17.6666 4.22656 17.9997 4.22656 18.3514Z" fill="#0C8AE5"/>
<path d="M2.57031 15.5402L16.4894 3.83928C17.362 3.10569 18.6357 3.10569 19.5084 3.83928L33.4275 15.5402" stroke="#0C8AE5" stroke-width="2.34586" stroke-linecap="round"/>
</svg>
