<svg width="24" height="24" viewBox="0 0 24 24" fill="none" xmlns="http://www.w3.org/2000/svg">
<path d="M7.09082 7.4834C7.09848 7.47567 7.11035 7.46094 7.11035 7.46094L17.9717 18.3262L17.9795 18.3301C17.9718 18.3377 17.96 18.3496 17.96 18.3496L20.6104 20.999L19.6104 21.999L17.1406 19.5283V19.9121C17.1404 20.3792 16.7611 20.7539 16.2979 20.7539H9.33496C8.86787 20.7539 8.49238 20.3753 8.49219 19.9121V18.9121C7.28974 18.418 6.44336 17.238 6.44336 15.8594V9.44434C6.44338 9.25304 6.46257 9.06557 6.49316 8.88574L4 6.39258L5 5.39258L7.09082 7.4834ZM16.0059 2C16.3812 2 16.6875 2.30635 16.6875 2.68164C16.6875 3.05697 16.3812 3.36328 16.0059 3.36328H15.6533V6.14355H15.7988C17.618 6.14355 19.0966 7.61842 19.0967 9.44141V15.8564C19.0967 16.3274 18.9935 16.7718 18.8174 17.1738L8.18164 6.53809C8.64882 6.28538 9.17741 6.13967 9.74414 6.13965H9.98145V3.36328H9.62891C9.25377 3.36304 8.94727 3.05683 8.94727 2.68164C8.94731 2.30649 9.2538 2.00024 9.62891 2H16.0059ZM11.0195 3.36328V6.13965H12.3525V4.95703H12.0801C11.8811 4.95681 11.7168 4.7918 11.7168 4.59277C11.7168 4.39378 11.8811 4.22971 12.0801 4.22949H13.3096C13.5087 4.22949 13.6738 4.39365 13.6738 4.59277C13.6738 4.79193 13.5087 4.95703 13.3096 4.95703H13.084V6.13965H14.6006V3.36328H11.0195Z" fill="#6A90E1"/>
</svg>
