<svg width="80" height="80" viewBox="0 0 80 80" fill="none" xmlns="http://www.w3.org/2000/svg">
<g clip-path="url(#clip0_1765_39141)">
<circle cx="40" cy="40" r="40" fill="#E7F4FE"/>
<path d="M58.2863 21.7148V25.6848C58.2863 44.794 47.3697 53.4742 33.9053 53.4742H30.0409C30.4717 47.4955 32.3774 43.8769 37.3512 39.5775C39.7974 37.4635 39.5901 36.2428 38.3853 36.9435C30.0877 41.7669 25.9673 48.2856 25.7844 58.6947L25.7783 59.4291H21.7148C21.7148 56.7236 21.9505 54.2682 22.4178 52.0212C21.9505 49.4527 21.7148 45.9671 21.7148 41.5645C21.7148 30.6015 30.811 21.7148 42.0323 21.7148C46.0958 21.7148 50.1593 23.6998 58.2863 21.7148Z" fill="#0C8AE5"/>
</g>
<defs>
<clipPath id="clip0_1765_39141">
<rect width="80" height="80" fill="white"/>
</clipPath>
</defs>
</svg>
