<svg width="60" height="60" viewBox="0 0 60 60" fill="none" xmlns="http://www.w3.org/2000/svg">
<rect width="60" height="60" rx="11.25" fill="#FDEFEC"/>
<path d="M26.5 31.7509C27.2515 32.7556 28.2104 33.587 29.3115 34.1886C30.4126 34.7901 31.6301 35.1479 32.8816 35.2375C34.1331 35.3271 35.3893 35.1466 36.5649 34.708C37.7404 34.2695 38.808 33.5833 39.695 32.6959L44.945 27.4459C46.5389 25.7956 47.4208 23.5854 47.4009 21.2912C47.381 18.9969 46.4607 16.8023 44.8384 15.18C43.2161 13.5577 41.0215 12.6375 38.7273 12.6175C36.433 12.5976 34.2228 13.4795 32.5725 15.0734L29.5625 18.0659" stroke="#F05F42" stroke-width="3" stroke-linecap="round" stroke-linejoin="round"/>
<path d="M33.495 28.2511C32.7434 27.2464 31.7846 26.4151 30.6835 25.8135C29.5824 25.2119 28.3648 24.8542 27.1133 24.7645C25.8618 24.6749 24.6057 24.8555 23.4301 25.294C22.2545 25.7325 21.187 26.4188 20.3 27.3061L15.05 32.5561C13.4561 34.2064 12.5741 36.4167 12.5941 38.7109C12.614 41.0051 13.5342 43.1997 15.1566 44.822C16.7789 46.4444 18.9735 47.3646 21.2677 47.3845C23.5619 47.4045 25.7722 46.5225 27.4225 44.9286L30.415 41.9361" stroke="#F05F42" stroke-width="3" stroke-linecap="round" stroke-linejoin="round"/>
</svg>
