<svg width="60" height="60" viewBox="0 0 60 60" fill="none" xmlns="http://www.w3.org/2000/svg">
<path d="M31.0002 29.5C31.5002 28 32.5002 24 33.5002 22.5" stroke="#3FA654" stroke-width="1.8" stroke-linecap="round"/>
<path d="M33.195 23C31.8746 16.9545 33.107 4.69091 48.6005 4C49.9208 10.3333 48.6882 23 33.195 23Z" fill="#EAF6EC" stroke="#3FA654" stroke-width="2"/>
<path d="M33.9964 23.413C33.9021 23.6315 33.7257 23.7971 33.4981 23.8695C33.271 23.9421 33.0113 23.9154 32.784 23.7995C32.5566 23.6835 32.3826 23.4888 32.3079 23.2622C32.2328 23.0354 32.2632 22.7952 32.3846 22.5906C32.3846 22.5906 32.3846 22.5906 32.3846 22.5906C32.5308 22.3397 32.6724 22.1387 32.824 21.9266C35.532 18.4309 38.5148 15.3211 41.9054 12.6298C42.0943 12.4861 42.2912 12.3407 42.4826 12.2061C42.3103 12.3641 42.1334 12.532 41.965 12.6977C38.9731 15.7511 36.3864 19.2642 34.2766 22.8456C34.1671 23.0466 34.0669 23.2422 33.9964 23.413Z" fill="#3FA654"/>
<path d="M29.4541 29C30.9541 22 29.0042 7.8 11.4042 7C9.90441 14.3333 11.8545 29 29.4541 29Z" fill="#EAF6EC" stroke="#3FA654" stroke-width="2"/>
<path d="M28.1522 28.8008C28.2193 29.0302 28.374 29.2183 28.5897 29.3209C28.805 29.4236 29.0636 29.4325 29.3012 29.3483C29.5389 29.264 29.7341 29.0942 29.8366 28.8788C29.9395 28.6632 29.9412 28.4197 29.8487 28.1992C29.8487 28.1992 29.8487 28.1992 29.8487 28.1992C29.7289 27.9062 29.5827 27.6246 29.4373 27.3737C26.5743 23.0651 22.8239 20.0014 19.0026 16.9812C18.7889 16.8195 18.5688 16.6552 18.3546 16.499C18.5498 16.6784 18.7505 16.8655 18.9443 17.0498C22.3738 20.4129 25.8376 24.0838 27.9157 28.154C28.0102 28.3707 28.0973 28.6002 28.1522 28.8008Z" fill="#3FA654"/>
<path d="M29.7069 53.1784C30.3053 43.7489 25.7194 25.4836 2.58814 27.858C2.05469 37.7226 6.73162 56.5971 29.7069 53.1784Z" fill="#EAF6EC" stroke="#3FA654" stroke-width="2"/>
<path d="M28.705 52.893C28.8079 53.1086 28.9911 53.2705 29.2195 53.3403C29.4476 53.4102 29.7022 53.3823 29.9221 53.2655C30.142 53.1486 30.3076 52.9532 30.3773 52.7251C30.4473 52.4967 30.4156 52.2543 30.2945 52.0484C30.2945 52.0484 30.2945 52.0484 30.2945 52.0484C30.0963 51.7073 29.8661 51.3787 29.64 51.0852C25.2766 46.0546 19.8973 42.6553 14.4306 39.4186C14.1259 39.2464 13.8124 39.0723 13.5074 38.9074C13.797 39.098 14.0946 39.2976 14.383 39.4949C19.5129 43.1291 24.6839 47.1601 28.2442 52.0731C28.4159 52.3413 28.582 52.6289 28.705 52.893Z" fill="#3FA654"/>
<path d="M31.2863 53.1784C30.6878 43.7489 35.2738 25.4836 58.405 27.858C58.9385 37.7226 54.2615 56.5971 31.2863 53.1784Z" fill="#EAF6EC" stroke="#3FA654" stroke-width="2"/>
<path d="M32.294 52.892C32.1911 53.1077 32.008 53.2696 31.7796 53.3393C31.5515 53.4093 31.2968 53.3813 31.0769 53.2645C30.8571 53.1476 30.6914 52.9522 30.6217 52.7241C30.5517 52.4958 30.5834 52.2534 30.7045 52.0474C30.7045 52.0474 30.7045 52.0474 30.7045 52.0474C30.9026 51.7065 31.1328 51.378 31.3588 51.0845C35.7202 46.0544 41.0975 42.6546 46.5629 39.4187C46.8674 39.2465 47.1809 39.0725 47.4858 38.9076C47.1963 39.0982 46.8987 39.2977 46.6105 39.495C41.4819 43.1285 36.3132 47.1597 32.7547 52.0722C32.583 52.3404 32.417 52.628 32.294 52.892Z" fill="#3FA654"/>
<line x1="30.9002" y1="29.9" x2="30.9002" y2="56.1" stroke="#3FA654" stroke-width="1.8" stroke-linecap="round"/>
</svg>
