<svg width="20" height="20" viewBox="0 0 20 20" fill="none" xmlns="http://www.w3.org/2000/svg">
<path d="M8.33594 15.0013V9.16797" stroke="#464C53" stroke-width="1.4" stroke-linecap="round" stroke-linejoin="round"/>
<path d="M9.26584 1.83838C9.49434 1.72626 9.74548 1.66797 10 1.66797C10.2545 1.66797 10.5057 1.72626 10.7342 1.83838L17.2675 5.04338C17.3521 5.08484 17.4202 5.15375 17.4606 5.23887C17.501 5.32399 17.5113 5.42029 17.49 5.51205C17.4686 5.60382 17.4168 5.68563 17.3429 5.74414C17.2691 5.80265 17.1776 5.8344 17.0833 5.83421H2.91667C2.82252 5.83421 2.73114 5.80233 2.65743 5.74375C2.58373 5.68518 2.53203 5.60336 2.51076 5.51164C2.4895 5.41993 2.49993 5.32371 2.54035 5.23868C2.58076 5.15365 2.64879 5.08481 2.73334 5.04338L9.26584 1.83838Z" stroke="#464C53" stroke-width="1.4" stroke-linecap="round" stroke-linejoin="round"/>
<path d="M11.6641 15.0013V9.16797" stroke="#464C53" stroke-width="1.4" stroke-linecap="round" stroke-linejoin="round"/>
<path d="M15 15.0013V9.16797" stroke="#464C53" stroke-width="1.4" stroke-linecap="round" stroke-linejoin="round"/>
<path d="M2.5 18.332H17.5" stroke="#464C53" stroke-width="1.4" stroke-linecap="round" stroke-linejoin="round"/>
<path d="M5 15.0013V9.16797" stroke="#464C53" stroke-width="1.4" stroke-linecap="round" stroke-linejoin="round"/>
</svg>
