<svg width="24" height="24" viewBox="0 0 24 24" fill="none" xmlns="http://www.w3.org/2000/svg">
<path d="M12 16.8594V21.1451" stroke="#464C53" stroke-width="1.37143" stroke-linecap="round" stroke-linejoin="round"/>
<path d="M9.42857 11.008C9.4284 11.3057 9.33927 11.5974 9.17119 11.8504C9.00311 12.1033 8.76275 12.3075 8.47714 12.44L6.95143 13.16C6.66582 13.2925 6.42546 13.4967 6.25738 13.7496C6.0893 14.0026 6.00017 14.2943 6 14.592V15.2C6 15.4122 6.09031 15.6157 6.25105 15.7657C6.4118 15.9157 6.62981 16 6.85714 16H17.1429C17.3702 16 17.5882 15.9157 17.7489 15.7657C17.9097 15.6157 18 15.4122 18 15.2V14.592C17.9998 14.2943 17.9107 14.0026 17.7426 13.7496C17.5745 13.4967 17.3342 13.2925 17.0486 13.16L15.5229 12.44C15.2372 12.3075 14.9969 12.1033 14.8288 11.8504C14.6607 11.5974 14.5716 11.3057 14.5714 11.008V8C14.5714 7.78783 14.6617 7.58434 14.8225 7.43431C14.9832 7.28429 15.2012 7.2 15.4286 7.2C15.8832 7.2 16.3193 7.03143 16.6408 6.73137C16.9622 6.43131 17.1429 6.02435 17.1429 5.6C17.1429 5.17565 16.9622 4.76869 16.6408 4.46863C16.3193 4.16857 15.8832 4 15.4286 4L8.57143 4C8.11677 4 7.68074 4.16857 7.35925 4.46863C7.03775 4.76869 6.85714 5.17565 6.85714 5.6C6.85714 6.02435 7.03775 6.43131 7.35925 6.73137C7.68074 7.03143 8.11677 7.2 8.57143 7.2C8.79876 7.2 9.01677 7.28429 9.17752 7.43431C9.33827 7.58434 9.42857 7.78783 9.42857 8V11.008Z" stroke="#464C53" stroke-width="1.37143" stroke-linecap="round" stroke-linejoin="round"/>
</svg>
