<svg width="90" height="90" viewBox="0 0 90 90" fill="none" xmlns="http://www.w3.org/2000/svg">
<g clip-path="url(#clip0_1371_42887)">
<circle cx="45" cy="45" r="45" fill="#ECF2FE"/>
<path d="M29.7188 26.2002H60.1963C64.4434 26.2004 67.6824 30.0009 67.0088 34.1943L62.7402 60.7656C62.4131 62.8019 60.6561 64.2997 58.5938 64.2998H31.0723C28.9953 64.2998 27.2297 62.782 26.9189 60.7285L22.8955 34.1318C22.2642 29.9575 25.4969 26.2002 29.7188 26.2002Z" stroke="#256EF4" stroke-width="2.4"/>
<mask id="path-3-inside-1_1371_42887" fill="white">
<path d="M68.2998 31.75C69.791 31.75 71 32.959 71 34.4502V37.2998C71 38.791 69.791 40 68.2998 40H52.0434C51.3671 40 50.7952 40.5004 50.7054 41.1706L50.1345 45.429C50.0446 46.0992 49.4727 46.5996 48.7964 46.5996H41.2016C40.5253 46.5996 39.9534 46.0992 39.8636 45.429L39.2927 41.1706C39.2028 40.5004 38.6309 40 37.9547 40H21.7002C20.209 40 19 38.791 19 37.2998V34.4502C19 32.959 20.209 31.75 21.7002 31.75H68.2998Z"/>
</mask>
<path d="M68.2998 31.75C69.791 31.75 71 32.959 71 34.4502V37.2998C71 38.791 69.791 40 68.2998 40H52.0434C51.3671 40 50.7952 40.5004 50.7054 41.1706L50.1345 45.429C50.0446 46.0992 49.4727 46.5996 48.7964 46.5996H41.2016C40.5253 46.5996 39.9534 46.0992 39.8636 45.429L39.2927 41.1706C39.2028 40.5004 38.6309 40 37.9547 40H21.7002C20.209 40 19 38.791 19 37.2998V34.4502C19 32.959 20.209 31.75 21.7002 31.75H68.2998Z" fill="#ECF2FE"/>
<path d="M39.2927 41.1706L36.914 41.4895L39.2927 41.1706ZM39.8636 45.429L42.2423 45.1101L39.8636 45.429ZM50.1345 45.429L47.7558 45.1101L50.1345 45.429ZM50.7054 41.1706L53.0841 41.4895L50.7054 41.1706ZM68.2998 31.75V34.15C68.4655 34.15 68.6 34.2845 68.6 34.4502H71H73.4C73.4 31.6335 71.1165 29.35 68.2998 29.35V31.75ZM71 34.4502H68.6V37.2998H71H73.4V34.4502H71ZM71 37.2998H68.6C68.6 37.4655 68.4655 37.6 68.2998 37.6V40V42.4C71.1165 42.4 73.4 40.1165 73.4 37.2998H71ZM68.2998 40V37.6H52.0434V40V42.4H68.2998V40ZM50.7054 41.1706L48.3266 40.8517L47.7558 45.1101L50.1345 45.429L52.5132 45.7479L53.0841 41.4895L50.7054 41.1706ZM48.7964 46.5996V44.1996H41.2016V46.5996V48.9996H48.7964V46.5996ZM39.8636 45.429L42.2423 45.1101L41.6714 40.8517L39.2927 41.1706L36.914 41.4895L37.4849 45.7479L39.8636 45.429ZM37.9547 40V37.6H21.7002V40V42.4H37.9547V40ZM21.7002 40V37.6C21.5345 37.6 21.4 37.4655 21.4 37.2998H19H16.6C16.6 40.1165 18.8835 42.4 21.7002 42.4V40ZM19 37.2998H21.4V34.4502H19H16.6V37.2998H19ZM19 34.4502H21.4C21.4 34.2845 21.5345 34.15 21.7002 34.15V31.75V29.35C18.8835 29.35 16.6 31.6335 16.6 34.4502H19ZM21.7002 31.75V34.15H68.2998V31.75V29.35H21.7002V31.75ZM39.2927 41.1706L41.6714 40.8517C41.4218 38.9899 39.8331 37.6 37.9547 37.6V40V42.4C37.4287 42.4 36.9838 42.0108 36.914 41.4895L39.2927 41.1706ZM41.2016 46.5996V44.1996C41.7276 44.1996 42.1724 44.5888 42.2423 45.1101L39.8636 45.429L37.4849 45.7479C37.7345 47.6097 39.3231 48.9996 41.2016 48.9996V46.5996ZM50.1345 45.429L47.7558 45.1101C47.8256 44.5888 48.2705 44.1996 48.7964 44.1996V46.5996V48.9996C50.6749 48.9996 52.2636 47.6097 52.5132 45.7479L50.1345 45.429ZM52.0434 40V37.6C50.1649 37.6 48.5763 38.9899 48.3266 40.8517L50.7054 41.1706L53.0841 41.4895C53.0142 42.0108 52.5694 42.4 52.0434 42.4V40Z" fill="#256EF4" mask="url(#path-3-inside-1_1371_42887)"/>
</g>
<defs>
<clipPath id="clip0_1371_42887">
<rect width="90" height="90" fill="white"/>
</clipPath>
</defs>
</svg>
