<svg width="24" height="24" viewBox="0 0 24 24" fill="none" xmlns="http://www.w3.org/2000/svg">
<rect width="24" height="24" rx="6" fill="white" fill-opacity="0.1"/>
<path d="M11.9993 11.167C13.1044 11.167 14.1642 11.606 14.9456 12.3874C15.727 13.1688 16.166 14.2286 16.166 15.3337V20.3337H7.83268V15.3337C7.83268 14.2286 8.27167 13.1688 9.05307 12.3874C9.83447 11.606 10.8943 11.167 11.9993 11.167ZM6.40602 13.672C6.2734 14.1193 6.19506 14.581 6.17268 15.047L6.16602 15.3337V20.3337H3.66602V16.5837C3.66585 15.865 3.93104 15.1715 4.41071 14.6363C4.89038 14.1011 5.55076 13.7619 6.26518 13.6837L6.40685 13.672H6.40602ZM17.5927 13.672C18.3343 13.7172 19.0307 14.0436 19.5398 14.5847C20.049 15.1258 20.3326 15.8407 20.3327 16.5837V20.3337H17.8327V15.3337C17.8327 14.7562 17.7493 14.1987 17.5927 13.672ZM6.58268 8.66699C7.13522 8.66699 7.66512 8.88649 8.05582 9.27719C8.44652 9.66789 8.66602 10.1978 8.66602 10.7503C8.66602 11.3029 8.44652 11.8328 8.05582 12.2235C7.66512 12.6142 7.13522 12.8337 6.58268 12.8337C6.03015 12.8337 5.50024 12.6142 5.10954 12.2235C4.71884 11.8328 4.49935 11.3029 4.49935 10.7503C4.49935 10.1978 4.71884 9.66789 5.10954 9.27719C5.50024 8.88649 6.03015 8.66699 6.58268 8.66699V8.66699ZM17.416 8.66699C17.9685 8.66699 18.4985 8.88649 18.8892 9.27719C19.2799 9.66789 19.4993 10.1978 19.4993 10.7503C19.4993 11.3029 19.2799 11.8328 18.8892 12.2235C18.4985 12.6142 17.9685 12.8337 17.416 12.8337C16.8635 12.8337 16.3336 12.6142 15.9429 12.2235C15.5522 11.8328 15.3327 11.3029 15.3327 10.7503C15.3327 10.1978 15.5522 9.66789 15.9429 9.27719C16.3336 8.88649 16.8635 8.66699 17.416 8.66699V8.66699ZM11.9993 3.66699C12.8834 3.66699 13.7313 4.01818 14.3564 4.6433C14.9815 5.26842 15.3327 6.11627 15.3327 7.00033C15.3327 7.88438 14.9815 8.73223 14.3564 9.35735C13.7313 9.98247 12.8834 10.3337 11.9993 10.3337C11.1153 10.3337 10.2674 9.98247 9.64233 9.35735C9.0172 8.73223 8.66602 7.88438 8.66602 7.00033C8.66602 6.11627 9.0172 5.26842 9.64233 4.6433C10.2674 4.01818 11.1153 3.66699 11.9993 3.66699V3.66699Z" fill="#00A4AC"/>
</svg>
