<svg width="30" height="40" viewBox="0 0 30 40" fill="none" xmlns="http://www.w3.org/2000/svg">
<path d="M29.5732 30.3591L24.3995 23.8566H25.4149C27.1408 23.8566 28.0944 21.796 27.0018 20.425L21.8281 13.9185H22.8744C24.6389 13.9185 25.6157 11.8144 24.496 10.4076L16.8475 0.79053C16.0096 -0.26351 14.4382 -0.26351 13.6004 0.79053L5.948 10.4076C4.83218 11.8104 5.80514 13.9185 7.5696 13.9185H8.14874L2.97506 20.425C1.88241 21.8 2.83607 23.8566 4.56191 23.8566H5.60437L0.434556 30.3591C-0.584736 31.639 0.303283 33.5608 1.9133 33.5608H11.6545V38.1653C11.6545 39.1798 12.4537 40 13.4421 40H16.8359C17.8243 40 18.6235 39.1798 18.6235 38.1653V33.5608H28.0867C29.6967 33.5608 30.5847 31.643 29.5654 30.3591H29.5732Z" fill="#5BA653"/>
</svg>
