<svg width="20" height="20" viewBox="0 0 20 20" fill="none" xmlns="http://www.w3.org/2000/svg">
<path d="M1.71615 9.71079C1.6467 9.89788 1.6467 10.1037 1.71615 10.2908C2.39257 11.9309 3.54075 13.3333 5.01513 14.32C6.48951 15.3068 8.22369 15.8336 9.99782 15.8336C11.7719 15.8336 13.5061 15.3068 14.9805 14.32C16.4549 13.3333 17.6031 11.9309 18.2795 10.2908C18.3489 10.1037 18.3489 9.89788 18.2795 9.71079C17.6031 8.07067 16.4549 6.66832 14.9805 5.68154C13.5061 4.69475 11.7719 4.16797 9.99782 4.16797C8.22369 4.16797 6.48951 4.69475 5.01513 5.68154C3.54075 6.66832 2.39257 8.07067 1.71615 9.71079Z" stroke="#464C53" stroke-width="1.2" stroke-linecap="round" stroke-linejoin="round"/>
<path d="M10 12.5C11.3807 12.5 12.5 11.3807 12.5 10C12.5 8.61929 11.3807 7.5 10 7.5C8.61929 7.5 7.5 8.61929 7.5 10C7.5 11.3807 8.61929 12.5 10 12.5Z" stroke="#464C53" stroke-width="1.2" stroke-linecap="round" stroke-linejoin="round"/>
</svg>
