<svg width="64" height="80" viewBox="0 0 64 80" fill="none" xmlns="http://www.w3.org/2000/svg">
<circle cx="17.5992" cy="50.3492" r="6.85" fill="white" stroke="#063A74" stroke-width="1.6"/>
<path d="M17.5996 57.9482C24.6687 57.9482 30.4002 63.679 30.4004 70.748V73.376C30.4002 73.8302 30.0314 74.1982 29.5771 74.1982H5.62305C5.16876 74.1982 4.79995 73.8302 4.7998 73.376V70.748C4.80002 63.6791 10.5307 57.9485 17.5996 57.9482Z" fill="white" stroke="#063A74" stroke-width="1.6"/>
<circle cx="45.7984" cy="50.3492" r="6.85" fill="white" stroke="#063A74" stroke-width="1.6"/>
<path d="M45.7988 57.9482C52.8679 57.9482 58.5994 63.679 58.5996 70.748V73.376C58.5995 73.8302 58.2307 74.1982 57.7764 74.1982H33.8223C33.368 74.1982 32.9992 73.8302 32.999 73.376V70.748C32.9992 63.6791 38.7299 57.9485 45.7988 57.9482Z" fill="white" stroke="#063A74" stroke-width="1.6"/>
<path d="M19.4648 39.0025C23.2719 33.02 30.8859 22.2788 36.5964 19.0156" stroke="#3FA654" stroke-width="1.6" stroke-linecap="round"/>
<path d="M45.371 8C32.5183 8.40789 10.1692 18.9412 23.3907 33.9853C33.9956 38.4721 48.4271 34.1053 45.371 8Z" stroke="#3FA654" stroke-width="1.6"/>
</svg>
