<svg width="64" height="80" viewBox="0 0 64 80" fill="none" xmlns="http://www.w3.org/2000/svg">
<path d="M41 38.5L24.5 31.5L8.60945 38.2414C8.23997 38.3982 8 38.7607 8 39.162V60.5313C8 61.2365 8.71037 61.7202 9.36652 61.4617L24.5 55.5M24.5 31.5V55.5M41 38.5L55.5992 32.1129C56.2599 31.8238 57 32.3079 57 33.029V54.8269C57 55.2338 56.7534 55.6002 56.3764 55.7533L41 62L24.5 55.5M41 62V38.5" stroke="#052561" stroke-width="1.6" stroke-linecap="round"/>
<g clip-path="url(#clip0_1371_42117)">
<path d="M44.4987 22.9211C44.4987 30.4661 36.6518 38.324 34.0168 40.7509C33.7713 40.9478 33.4725 41.0543 33.1654 41.0543C32.8582 41.0543 32.5594 40.9478 32.3139 40.7509C29.6789 38.324 21.832 30.4661 21.832 22.9211C21.832 19.7149 23.0261 16.64 25.1515 14.3728C27.2769 12.1057 30.1596 10.832 33.1654 10.832C36.1712 10.832 39.0538 12.1057 41.1792 14.3728C43.3047 16.64 44.4987 19.7149 44.4987 22.9211Z" fill="#D3EBFD" stroke="#052561" stroke-width="1.6" stroke-linecap="round" stroke-linejoin="round"/>
<path d="M33.1675 26.8898C35.7755 26.8898 37.8898 24.7755 37.8898 22.1675C37.8898 19.5595 35.7755 17.4453 33.1675 17.4453C30.5595 17.4453 28.4453 19.5595 28.4453 22.1675C28.4453 24.7755 30.5595 26.8898 33.1675 26.8898Z" fill="white" stroke="#052561" stroke-width="1.6" stroke-linecap="round" stroke-linejoin="round"/>
</g>
<defs>
<clipPath id="clip0_1371_42117">
<rect width="26.4444" height="34" fill="white" transform="translate(19 8)"/>
</clipPath>
</defs>
</svg>
