<svg width="64" height="80" viewBox="0 0 64 80" fill="none" xmlns="http://www.w3.org/2000/svg">
<path d="M24.5 21C24.5 20.4477 24.9477 20 25.5 20H26.5C27.0523 20 27.5 20.4477 27.5 21V23C27.5 23.5523 27.0523 24 26.5 24H25.5C24.9477 24 24.5 23.5523 24.5 23V21Z" fill="#052561"/>
<path d="M33.5 21C33.5 20.4477 33.9477 20 34.5 20H35.5C36.0523 20 36.5 20.4477 36.5 21V23C36.5 23.5523 36.0523 24 35.5 24H34.5C33.9477 24 33.5 23.5523 33.5 23V21Z" fill="#052561"/>
<path d="M42.5 21C42.5 20.4477 42.9477 20 43.5 20H44.5C45.0523 20 45.5 20.4477 45.5 21V23C45.5 23.5523 45.0523 24 44.5 24H43.5C42.9477 24 42.5 23.5523 42.5 23V21Z" fill="#052561"/>
<path d="M24.5 32C24.5 31.4477 24.9477 31 25.5 31H26.5C27.0523 31 27.5 31.4477 27.5 32V34C27.5 34.5523 27.0523 35 26.5 35H25.5C24.9477 35 24.5 34.5523 24.5 34V32Z" fill="#052561"/>
<path d="M33.5 32C33.5 31.4477 33.9477 31 34.5 31H35.5C36.0523 31 36.5 31.4477 36.5 32V34C36.5 34.5523 36.0523 35 35.5 35H34.5C33.9477 35 33.5 34.5523 33.5 34V32Z" fill="#052561"/>
<path d="M42.5 32C42.5 31.4477 42.9477 31 43.5 31H44.5C45.0523 31 45.5 31.4477 45.5 32V34C45.5 34.5523 45.0523 35 44.5 35H43.5C42.9477 35 42.5 34.5523 42.5 34V32Z" fill="#052561"/>
<path d="M24.5 43C24.5 42.4477 24.9477 42 25.5 42H26.5C27.0523 42 27.5 42.4477 27.5 43V45C27.5 45.5523 27.0523 46 26.5 46H25.5C24.9477 46 24.5 45.5523 24.5 45V43Z" fill="#052561"/>
<path d="M33.5 43C33.5 42.4477 33.9477 42 34.5 42H35.5C36.0523 42 36.5 42.4477 36.5 43V45C36.5 45.5523 36.0523 46 35.5 46H34.5C33.9477 46 33.5 45.5523 33.5 45V43Z" fill="#052561"/>
<path d="M42.5 43C42.5 42.4477 42.9477 42 43.5 42H44.5C45.0523 42 45.5 42.4477 45.5 43V45C45.5 45.5523 45.0523 46 44.5 46H43.5C42.9477 46 42.5 45.5523 42.5 45V43Z" fill="#052561"/>
<path d="M24.5 54C24.5 53.4477 24.9477 53 25.5 53H26.5C27.0523 53 27.5 53.4477 27.5 54V56C27.5 56.5523 27.0523 57 26.5 57H25.5C24.9477 57 24.5 56.5523 24.5 56V54Z" fill="#052561"/>
<path d="M33.5 54C33.5 53.4477 33.9477 53 34.5 53H35.5C36.0523 53 36.5 53.4477 36.5 54V56C36.5 56.5523 36.0523 57 35.5 57H34.5C33.9477 57 33.5 56.5523 33.5 56V54Z" fill="#052561"/>
<path d="M42.5 54C42.5 53.4477 42.9477 53 43.5 53H44.5C45.0523 53 45.5 53.4477 45.5 54V56C45.5 56.5523 45.0523 57 44.5 57H43.5C42.9477 57 42.5 56.5523 42.5 56V54Z" fill="#052561"/>
<mask id="path-13-inside-1_1796_29664" fill="white">
<path d="M29 62.5C29 61.9477 29.4477 61.5 30 61.5H40C40.5523 61.5 41 61.9477 41 62.5V75.5H29V62.5Z"/>
</mask>
<path d="M29 62.5C29 61.9477 29.4477 61.5 30 61.5H40C40.5523 61.5 41 61.9477 41 62.5V75.5H29V62.5Z" stroke="#052561" stroke-width="3.2" mask="url(#path-13-inside-1_1796_29664)"/>
<path d="M16 13.8093V74C16 74.5523 16.4477 75 17 75H51C51.5523 75 52 74.5523 52 74V13.7988C52 13.409 51.7735 13.0548 51.4197 12.8912L43.1778 9.07975L34.7671 5.19033C34.5055 5.06937 34.2045 5.06713 33.9412 5.18419L16.5938 12.8956C16.2327 13.0561 16 13.4142 16 13.8093Z" stroke="#052561" stroke-width="1.6"/>
<circle cx="50" cy="43" r="12.2" fill="#FFF3DB" stroke="#052561" stroke-width="1.6"/>
<path d="M44.1117 43.7164L51.6826 35.2018C51.7375 35.1401 51.8392 35.186 51.8291 35.268L51.0461 41.6424C51.0399 41.6926 51.0791 41.7368 51.1297 41.7368H55.8181C55.8898 41.7368 55.9287 41.8208 55.8823 41.8755L48.32 50.7855C48.2659 50.8492 48.162 50.8037 48.1722 50.7207L48.9549 44.3499C48.9607 44.3026 48.926 44.2598 48.8784 44.2558L44.1675 43.8563C44.0985 43.8505 44.0657 43.7683 44.1117 43.7164Z" fill="white" stroke="#052B57" stroke-width="1.6"/>
<path d="M6 75H63" stroke="#052561" stroke-width="1.6" stroke-linecap="round"/>
<path d="M6.50511 72C5.96897 72.0019 5.44664 71.7279 5.01526 71.2184C4.58387 70.7089 4.26629 69.9909 4.1094 69.1705C3.95252 68.35 3.96464 67.4706 4.14398 66.662C4.32333 65.8534 4.66038 65.1586 5.10539 64.68C4.83102 64.1314 4.6662 63.4633 4.63236 62.7627C4.59853 62.0621 4.69725 61.3615 4.91568 60.7519C5.13411 60.1423 5.46213 59.6521 5.85706 59.345C6.25199 59.0379 6.7791 58.8235 7.18182 58.8235C7.18182 58.0279 7.3275 57.4413 7.67906 56.8787C8.03062 56.3161 8.50744 56 9.00463 56C9.50181 56 9.97863 56.3161 10.3302 56.8787C10.6818 57.4413 10.8182 58.0279 10.8182 58.8235C11.3085 58.8235 11.7573 59.0479 12.1522 59.355C12.5471 59.6621 12.8752 60.1523 13.0936 60.7619C13.312 61.3715 13.4107 62.0721 13.3769 62.7727C13.3431 63.4733 13.1782 64.1414 12.9039 64.69C13.3461 65.1702 13.6805 65.8645 13.858 66.6711C14.0356 67.4778 14.0469 68.3542 13.8903 69.1719C13.7337 69.9896 13.4175 70.7055 12.9881 71.2144C12.5586 71.7234 12.0385 71.9987 11.5041 72H6.50511Z" stroke="#052561" stroke-width="1.6" stroke-linecap="round" stroke-linejoin="round"/>
<path d="M9 67L9 75" stroke="#052561" stroke-width="1.6" stroke-linecap="round" stroke-linejoin="round"/>
</svg>
