<svg width="64" height="80" viewBox="0 0 64 80" fill="none" xmlns="http://www.w3.org/2000/svg">
<path d="M31.5 31.668C42.4767 31.668 51.375 28.7019 51.375 25.043C51.375 21.3841 42.4767 18.418 31.5 18.418C20.5233 18.418 11.625 21.3841 11.625 25.043C11.625 28.7019 20.5233 31.668 31.5 31.668Z" stroke="#052B57" stroke-width="1.6" stroke-linecap="round" stroke-linejoin="round"/>
<path d="M11.625 25.043V55.9596C11.625 57.7167 13.719 59.4018 17.4463 60.6442C21.1735 61.8866 26.2288 62.5846 31.5 62.5846C36.7712 62.5846 41.8265 61.8866 45.5537 60.6442C49.281 59.4018 51.375 57.7167 51.375 55.9596V25.043" stroke="#052B57" stroke-width="1.6" stroke-linecap="round" stroke-linejoin="round"/>
<path d="M11.625 40.5C11.625 42.2571 13.719 43.9422 17.4463 45.1846C21.1735 46.427 26.2288 47.125 31.5 47.125C36.7712 47.125 41.8265 46.427 45.5537 45.1846C49.281 43.9422 51.375 42.2571 51.375 40.5" stroke="#052B57" stroke-width="1.6" stroke-linecap="round" stroke-linejoin="round"/>
<path d="M30.4402 43.4209H53.7595C55.6594 43.4209 57.2 44.9615 57.2 46.8613V60.6406C57.2 62.5405 55.6594 64.0811 53.7595 64.0811H30.4402C28.5403 64.0811 26.9998 62.5405 26.9998 60.6406V46.8613C26.9998 44.9615 28.5403 43.4209 30.4402 43.4209Z" fill="#F9F0FF" stroke="#052B57" stroke-width="1.6"/>
<path d="M32.415 58.8594H30.6884L33.856 49.8659H35.8435L39.0235 58.8594H37.2968L36.5515 56.6359H33.1603L32.415 58.8594ZM33.5951 55.3316H36.1167L34.887 51.7044H34.8124L33.5951 55.3316ZM40.0917 58.8594V49.8659H43.4705C45.5325 49.8659 46.6381 51.1205 46.6381 52.8472C46.6381 54.5738 45.5201 55.816 43.4456 55.816H41.7066V58.8594H40.0917ZM41.7066 54.4869H43.2221C44.4394 54.4869 44.986 53.8037 44.986 52.8472C44.986 51.8783 44.4394 51.2199 43.2221 51.2199H41.7066V54.4869ZM47.5449 51.2199V49.8659H52.3397V51.2199H50.7497V57.493H52.3397V58.8594H47.5449V57.493H49.1349V51.2199H47.5449Z" fill="#052561"/>
</svg>
