<svg width="46" height="47" viewBox="0 0 46 47" fill="none" xmlns="http://www.w3.org/2000/svg">
<g filter="url(#filter0_d_1704_29440)">
<circle cx="23" cy="22" r="16.5" fill="white" stroke="#D3EBFD"/>
<path d="M16 27.5V13.4C16 13.1791 16.1791 13 16.4 13H24.6C24.8209 13 25 13.1791 25 13.4V16.6C25 16.8209 25.1791 17 25.4 17H30.1C30.3209 17 30.5 17.1791 30.5 17.4V25.5" stroke="#EC8913" stroke-width="1.6"/>
<path d="M30.2783 28.9453C31.3327 28.9454 32.3327 29.3697 33.2646 30.1152C33.5999 30.3836 33.654 30.8736 33.3857 31.209C33.1174 31.544 32.6283 31.598 32.293 31.3301C31.5583 30.7424 30.8905 30.5 30.2783 30.5C29.6662 30.5 28.9992 30.7425 28.2646 31.3301C27.3327 32.0756 26.3327 32.5 25.2783 32.5C24.2241 32.5 23.2248 32.0754 22.293 31.3301C21.5583 30.7424 20.8905 30.5 20.2783 30.5C19.6662 30.5 18.9992 30.7425 18.2646 31.3301C17.3327 32.0756 16.3327 32.5 15.2783 32.5C14.2239 32.5 13.2239 32.0756 12.292 31.3301C11.9568 31.0617 11.9026 30.5717 12.1709 30.2363C12.4393 29.9012 12.9293 29.847 13.2646 30.1152C13.9992 30.7028 14.6662 30.9453 15.2783 30.9453C15.8905 30.9453 16.5583 30.703 17.293 30.1152C18.2248 29.3699 19.2241 28.9453 20.2783 28.9453C21.3327 28.9454 22.3327 29.3697 23.2646 30.1152C23.9992 30.7028 24.6662 30.9453 25.2783 30.9453C25.8905 30.9453 26.5583 30.703 27.293 30.1152C28.2248 29.3699 29.2241 28.9454 30.2783 28.9453ZM30.2783 24.9453C31.3327 24.9454 32.3327 25.3697 33.2646 26.1152C33.5998 26.3836 33.654 26.8736 33.3857 27.209C33.1174 27.544 32.6283 27.598 32.293 27.3301C31.5583 26.7424 30.8905 26.5 30.2783 26.5C29.6662 26.5 28.9992 26.7425 28.2646 27.3301C27.3327 28.0756 26.3327 28.5 25.2783 28.5C24.2241 28.5 23.2248 28.0754 22.293 27.3301C21.5583 26.7424 20.8905 26.5 20.2783 26.5C19.6662 26.5 18.9992 26.7425 18.2646 27.3301C17.3327 28.0756 16.3327 28.5 15.2783 28.5C14.224 28.5 13.2239 28.0756 12.292 27.3301C11.9568 27.0617 11.9026 26.5717 12.1709 26.2363C12.4393 25.9011 12.9293 25.847 13.2646 26.1152C13.9992 26.7028 14.6662 26.9453 15.2783 26.9453C15.8905 26.9453 16.5583 26.703 17.293 26.1152C18.2248 25.3699 19.2241 24.9453 20.2783 24.9453C21.3327 24.9454 22.3327 25.3697 23.2646 26.1152C23.9992 26.7028 24.6662 26.9453 25.2783 26.9453C25.8905 26.9453 26.5583 26.703 27.293 26.1152C28.2248 25.3699 29.2241 24.9454 30.2783 24.9453Z" fill="#EC8913"/>
<mask id="path-4-inside-1_1704_29440" fill="white">
<rect x="19" y="16" width="2" height="3" rx="0.2"/>
</mask>
<rect x="19" y="16" width="2" height="3" rx="0.2" fill="#EC8913" stroke="#EC8913" stroke-width="2" mask="url(#path-4-inside-1_1704_29440)"/>
<mask id="path-5-inside-2_1704_29440" fill="white">
<rect x="19" y="21" width="2" height="3" rx="0.2"/>
</mask>
<rect x="19" y="21" width="2" height="3" rx="0.2" fill="#EC8913" stroke="#EC8913" stroke-width="2" mask="url(#path-5-inside-2_1704_29440)"/>
<mask id="path-6-inside-3_1704_29440" fill="white">
<rect x="25" y="21" width="2" height="3" rx="0.2"/>
</mask>
<rect x="25" y="21" width="2" height="3" rx="0.2" fill="#EC8913" stroke="#EC8913" stroke-width="2" mask="url(#path-6-inside-3_1704_29440)"/>
</g>
<defs>
<filter id="filter0_d_1704_29440" x="0" y="1" width="46" height="46" filterUnits="userSpaceOnUse" color-interpolation-filters="sRGB">
<feFlood flood-opacity="0" result="BackgroundImageFix"/>
<feColorMatrix in="SourceAlpha" type="matrix" values="0 0 0 0 0 0 0 0 0 0 0 0 0 0 0 0 0 0 127 0" result="hardAlpha"/>
<feOffset dy="2"/>
<feGaussianBlur stdDeviation="3"/>
<feComposite in2="hardAlpha" operator="out"/>
<feColorMatrix type="matrix" values="0 0 0 0 0.565135 0 0 0 0 0.670138 0 0 0 0 0.783654 0 0 0 1 0"/>
<feBlend mode="normal" in2="BackgroundImageFix" result="effect1_dropShadow_1704_29440"/>
<feBlend mode="normal" in="SourceGraphic" in2="effect1_dropShadow_1704_29440" result="shape"/>
</filter>
</defs>
</svg>
