<svg width="46" height="46" viewBox="0 0 46 46" fill="none" xmlns="http://www.w3.org/2000/svg">
<g filter="url(#filter0_d_1704_29418)">
<circle cx="23" cy="22" r="16.5" fill="white" stroke="#D3EBFD"/>
<path d="M28.3887 25.8672C29.2641 25.8672 30.0835 26.2207 30.833 26.8203C31.1776 27.0963 31.2336 27.5995 30.958 27.9443C30.682 28.2891 30.1779 28.3452 29.833 28.0693C29.2865 27.6321 28.8093 27.4669 28.3887 27.4668C27.968 27.4668 27.49 27.632 26.9434 28.0693C26.194 28.6687 25.3752 29.0223 24.5 29.0225C23.6246 29.0224 22.8052 28.6689 22.0557 28.0693C21.509 27.632 21.0311 27.4668 20.6104 27.4668C20.1897 27.4669 19.7125 27.6322 19.166 28.0693C18.4165 28.6689 17.5971 29.0225 16.7217 29.0225C15.8462 29.0224 15.0268 28.6689 14.2773 28.0693C13.9327 27.7935 13.8769 27.2902 14.1523 26.9453C14.4284 26.6003 14.9323 26.5443 15.2773 26.8203C15.8238 27.2574 16.3011 27.4228 16.7217 27.4229C17.1423 27.4229 17.6196 27.2573 18.166 26.8203C18.9155 26.2207 19.735 25.8673 20.6104 25.8672C21.4859 25.8672 22.3051 26.2206 23.0547 26.8203C23.6013 27.2576 24.0793 27.4228 24.5 27.4229C24.9206 27.4227 25.398 27.2573 25.9443 26.8203C26.6939 26.2207 27.5132 25.8672 28.3887 25.8672ZM28.3887 20.4229C29.2641 20.4229 30.0835 20.7764 30.833 21.376C31.1775 21.652 31.2336 22.1551 30.958 22.5C30.682 22.8447 30.1779 22.9008 29.833 22.625C29.2865 22.1878 28.8093 22.0225 28.3887 22.0225C27.968 22.0225 27.49 22.1877 26.9434 22.625C26.194 23.2243 25.3752 23.578 24.5 23.5781C23.6246 23.5781 22.8052 23.2245 22.0557 22.625C21.509 22.1876 21.0311 22.0225 20.6104 22.0225C20.1897 22.0226 19.7125 22.1879 19.166 22.625C18.4165 23.2245 17.5971 23.5781 16.7217 23.5781C15.8463 23.5781 15.0268 23.2246 14.2773 22.625C13.9327 22.3491 13.877 21.8459 14.1523 21.501C14.4284 21.156 14.9323 21.1 15.2773 21.376C15.8238 21.813 16.3011 21.9784 16.7217 21.9785C17.1422 21.9785 17.6196 21.8129 18.166 21.376C18.9155 20.7764 19.735 20.423 20.6104 20.4229C21.4859 20.4229 22.3051 20.7763 23.0547 21.376C23.6013 21.8132 24.0793 21.9785 24.5 21.9785C24.9205 21.9784 25.398 21.813 25.9443 21.376C26.6939 20.7763 27.5132 20.4229 28.3887 20.4229ZM28.3887 14.9775C29.264 14.9776 30.0836 15.3312 30.833 15.9307C31.1776 16.2066 31.2335 16.7098 30.958 17.0547C30.682 17.3997 30.178 17.4557 29.833 17.1797C29.2866 16.7427 28.8092 16.5772 28.3887 16.5771C27.968 16.5772 27.4899 16.7424 26.9434 17.1797C26.1939 17.7792 25.3753 18.1327 24.5 18.1328C23.6246 18.1328 22.8052 17.7793 22.0557 17.1797C21.5091 16.7425 21.031 16.5771 20.6104 16.5771C20.1898 16.5773 19.7124 16.7426 19.166 17.1797C18.4164 17.7794 17.5972 18.1328 16.7217 18.1328C15.8462 18.1327 15.0269 17.7793 14.2773 17.1797C13.9329 16.9037 13.8768 16.4005 14.1523 16.0557C14.4283 15.7109 14.9324 15.655 15.2773 15.9307C15.8238 16.3678 16.3011 16.5331 16.7217 16.5332C17.1423 16.5332 17.6195 16.3678 18.166 15.9307C18.9154 15.3312 19.735 14.9777 20.6104 14.9775C21.4858 14.9775 22.3052 15.3311 23.0547 15.9307C23.6013 16.368 24.0793 16.5332 24.5 16.5332C24.9206 16.5331 25.3978 16.3678 25.9443 15.9307C26.6939 15.3311 27.5132 14.9776 28.3887 14.9775Z" fill="#0C8AE5"/>
</g>
<defs>
<filter id="filter0_d_1704_29418" x="0" y="0" width="46" height="46" filterUnits="userSpaceOnUse" color-interpolation-filters="sRGB">
<feFlood flood-opacity="0" result="BackgroundImageFix"/>
<feColorMatrix in="SourceAlpha" type="matrix" values="0 0 0 0 0 0 0 0 0 0 0 0 0 0 0 0 0 0 127 0" result="hardAlpha"/>
<feOffset dy="1"/>
<feGaussianBlur stdDeviation="3"/>
<feComposite in2="hardAlpha" operator="out"/>
<feColorMatrix type="matrix" values="0 0 0 0 0.565135 0 0 0 0 0.670138 0 0 0 0 0.783654 0 0 0 1 0"/>
<feBlend mode="normal" in2="BackgroundImageFix" result="effect1_dropShadow_1704_29418"/>
<feBlend mode="normal" in="SourceGraphic" in2="effect1_dropShadow_1704_29418" result="shape"/>
</filter>
</defs>
</svg>
