<svg width="46" height="47" viewBox="0 0 46 47" fill="none" xmlns="http://www.w3.org/2000/svg">
<g filter="url(#filter0_d_1704_29425)">
<circle cx="23" cy="22" r="16.5" fill="white" stroke="#D3EBFD"/>
<path d="M16.6981 24.9633C16.0664 24.318 15.59 23.5374 15.3047 22.6806C15.0195 21.8239 14.9329 20.9135 15.0517 20.0183C15.1704 19.1232 15.4913 18.2668 15.99 17.5141C16.4887 16.7613 17.1522 16.1319 17.9302 15.6735C18.7082 15.2152 19.5803 14.9399 20.4804 14.8685C21.3806 14.7971 22.2852 14.9315 23.1257 15.2615C23.9662 15.5915 24.7206 16.1084 25.3318 16.7732C25.9429 17.4379 26.3948 18.233 26.6531 19.0982H28.1748C28.9956 19.0981 29.7947 19.3621 30.454 19.851C31.1133 20.3399 31.5979 21.0279 31.8361 21.8134C32.0744 22.5989 32.0537 23.4401 31.7771 24.2129C31.5005 24.9858 30.9827 25.6491 30.3002 26.105" stroke="#EC8913" stroke-width="1.6" stroke-linecap="round" stroke-linejoin="round"/>
<path d="M26.8984 24.199V29.2998" stroke="#EC8913" stroke-width="1.6" stroke-linecap="round" stroke-linejoin="round"/>
<path d="M20.0977 24.199V29.2998" stroke="#EC8913" stroke-width="1.6" stroke-linecap="round" stroke-linejoin="round"/>
<path d="M23.498 25.8993V31.0001" stroke="#EC8913" stroke-width="1.6" stroke-linecap="round" stroke-linejoin="round"/>
</g>
<defs>
<filter id="filter0_d_1704_29425" x="0" y="1" width="46" height="46" filterUnits="userSpaceOnUse" color-interpolation-filters="sRGB">
<feFlood flood-opacity="0" result="BackgroundImageFix"/>
<feColorMatrix in="SourceAlpha" type="matrix" values="0 0 0 0 0 0 0 0 0 0 0 0 0 0 0 0 0 0 127 0" result="hardAlpha"/>
<feOffset dy="2"/>
<feGaussianBlur stdDeviation="3"/>
<feComposite in2="hardAlpha" operator="out"/>
<feColorMatrix type="matrix" values="0 0 0 0 0.565135 0 0 0 0 0.670138 0 0 0 0 0.783654 0 0 0 1 0"/>
<feBlend mode="normal" in2="BackgroundImageFix" result="effect1_dropShadow_1704_29425"/>
<feBlend mode="normal" in="SourceGraphic" in2="effect1_dropShadow_1704_29425" result="shape"/>
</filter>
</defs>
</svg>
