<svg width="46" height="47" viewBox="0 0 46 47" fill="none" xmlns="http://www.w3.org/2000/svg">
<g filter="url(#filter0_d_1704_29432)">
<circle cx="23" cy="22" r="16.5" fill="white" stroke="#D3EBFD"/>
<g clip-path="url(#clip0_1704_29432)">
<path d="M27.7667 29.3333L29.4167 30.7083V31.1667H16.5833V30.7083L18.2333 29.3333H16.5833C16.0971 29.3333 15.6308 29.1402 15.287 28.7964C14.9432 28.4525 14.75 27.9862 14.75 27.5V17.4167C14.75 16.4442 15.1363 15.5116 15.8239 14.8239C16.5116 14.1363 17.4442 13.75 18.4167 13.75H27.5833C28.5558 13.75 29.4884 14.1363 30.1761 14.8239C30.8637 15.5116 31.25 16.4442 31.25 17.4167V27.5C31.25 27.9862 31.0568 28.4525 30.713 28.7964C30.3692 29.1402 29.9029 29.3333 29.4167 29.3333H27.7667ZM22.0833 22V15.5833H18.4167C17.9304 15.5833 17.4641 15.7765 17.1203 16.1203C16.7765 16.4641 16.5833 16.9304 16.5833 17.4167V22H22.0833ZM23.9167 22H29.4167V17.4167C29.4167 16.9304 29.2235 16.4641 28.8797 16.1203C28.5359 15.7765 28.0696 15.5833 27.5833 15.5833H23.9167V22ZM18.875 27.5C19.2397 27.5 19.5894 27.3551 19.8473 27.0973C20.1051 26.8394 20.25 26.4897 20.25 26.125C20.25 25.7603 20.1051 25.4106 19.8473 25.1527C19.5894 24.8949 19.2397 24.75 18.875 24.75C18.5103 24.75 18.1606 24.8949 17.9027 25.1527C17.6449 25.4106 17.5 25.7603 17.5 26.125C17.5 26.4897 17.6449 26.8394 17.9027 27.0973C18.1606 27.3551 18.5103 27.5 18.875 27.5V27.5ZM27.125 27.5C27.4897 27.5 27.8394 27.3551 28.0973 27.0973C28.3551 26.8394 28.5 26.4897 28.5 26.125C28.5 25.7603 28.3551 25.4106 28.0973 25.1527C27.8394 24.8949 27.4897 24.75 27.125 24.75C26.7603 24.75 26.4106 24.8949 26.1527 25.1527C25.8949 25.4106 25.75 25.7603 25.75 26.125C25.75 26.4897 25.8949 26.8394 26.1527 27.0973C26.4106 27.3551 26.7603 27.5 27.125 27.5Z" fill="#0C8AE5"/>
</g>
</g>
<defs>
<filter id="filter0_d_1704_29432" x="0" y="1" width="46" height="46" filterUnits="userSpaceOnUse" color-interpolation-filters="sRGB">
<feFlood flood-opacity="0" result="BackgroundImageFix"/>
<feColorMatrix in="SourceAlpha" type="matrix" values="0 0 0 0 0 0 0 0 0 0 0 0 0 0 0 0 0 0 127 0" result="hardAlpha"/>
<feOffset dy="2"/>
<feGaussianBlur stdDeviation="3"/>
<feComposite in2="hardAlpha" operator="out"/>
<feColorMatrix type="matrix" values="0 0 0 0 0.565135 0 0 0 0 0.670138 0 0 0 0 0.783654 0 0 0 1 0"/>
<feBlend mode="normal" in2="BackgroundImageFix" result="effect1_dropShadow_1704_29432"/>
<feBlend mode="normal" in="SourceGraphic" in2="effect1_dropShadow_1704_29432" result="shape"/>
</filter>
<clipPath id="clip0_1704_29432">
<rect width="22" height="22" fill="white" transform="translate(12 11)"/>
</clipPath>
</defs>
</svg>
