<svg width="70" height="83" viewBox="0 0 70 83" fill="none" xmlns="http://www.w3.org/2000/svg">
<g filter="url(#filter0_f_1723_67290)">
<ellipse cx="35.5" cy="73" rx="11.5" ry="2" fill="#EC8913"/>
</g>
<g filter="url(#filter1_d_1723_67290)">
<mask id="path-2-inside-1_1723_67290" fill="white">
<path d="M34.5449 10C48.1008 10 59.0906 20.9891 59.0908 34.5449C59.0908 44.9698 52.5913 53.8761 43.4238 57.4346C42.6501 57.8883 41.7786 58.5346 41.0986 59.3301L35.1357 69.6592C34.8733 70.1136 34.2175 70.1136 33.9551 69.6592L27.9893 59.3271C27.3095 58.5329 26.4389 57.8877 25.666 57.4346C16.499 53.8759 10 44.9695 10 34.5449C10.0003 20.9893 20.9893 10.0003 34.5449 10Z"/>
</mask>
<path d="M34.5449 10C48.1008 10 59.0906 20.9891 59.0908 34.5449C59.0908 44.9698 52.5913 53.8761 43.4238 57.4346C42.6501 57.8883 41.7786 58.5346 41.0986 59.3301L35.1357 69.6592C34.8733 70.1136 34.2175 70.1136 33.9551 69.6592L27.9893 59.3271C27.3095 58.5329 26.4389 57.8877 25.666 57.4346C16.499 53.8759 10 44.9695 10 34.5449C10.0003 20.9893 20.9893 10.0003 34.5449 10Z" fill="url(#paint0_linear_1723_67290)"/>
<path d="M34.5449 10V9H34.5449L34.5449 10ZM59.0908 34.5449H60.0908V34.5449L59.0908 34.5449ZM43.4238 57.4346L43.062 56.5023L42.9872 56.5314L42.918 56.5719L43.4238 57.4346ZM41.0986 59.3301L40.3385 58.6803L40.2786 58.7503L40.2326 58.8301L41.0986 59.3301ZM35.1357 69.6592L36.0017 70.1593L36.0018 70.1591L35.1357 69.6592ZM33.9551 69.6592L33.0891 70.1592L33.0891 70.1593L33.9551 69.6592ZM27.9893 59.3271L28.8553 58.8271L28.8091 58.7471L28.749 58.6769L27.9893 59.3271ZM25.666 57.4346L26.1718 56.5719L26.1026 56.5314L26.0279 56.5023L25.666 57.4346ZM10 34.5449L9 34.5449V34.5449H10ZM34.5449 10V11C47.5486 11 58.0906 21.5414 58.0908 34.5449L59.0908 34.5449L60.0908 34.5449C60.0905 20.4368 48.6531 9 34.5449 9V10ZM59.0908 34.5449H58.0908C58.0908 44.5435 51.8577 53.0882 43.062 56.5023L43.4238 57.4346L43.7857 58.3668C53.3249 54.6641 60.0908 45.3962 60.0908 34.5449H59.0908ZM43.4238 57.4346L42.918 56.5719C42.0797 57.0635 41.1112 57.7763 40.3385 58.6803L41.0986 59.3301L41.8588 59.9798C42.4459 59.2929 43.2204 58.7131 43.9297 58.2972L43.4238 57.4346ZM41.0986 59.3301L40.2326 58.8301L34.2697 69.1592L35.1357 69.6592L36.0018 70.1591L41.9647 59.83L41.0986 59.3301ZM35.1357 69.6592L34.2698 69.159C34.3923 68.9469 34.6985 68.947 34.821 69.159L33.9551 69.6592L33.0891 70.1593C33.7365 71.2802 35.3543 71.2802 36.0017 70.1593L35.1357 69.6592ZM33.9551 69.6592L34.8211 69.1591L28.8553 58.8271L27.9893 59.3271L27.1233 59.8272L33.0891 70.1592L33.9551 69.6592ZM27.9893 59.3271L28.749 58.6769C27.9765 57.7743 27.009 57.0628 26.1718 56.5719L25.666 57.4346L25.1602 58.2972C25.8689 58.7127 26.6425 59.2915 27.2295 59.9774L27.9893 59.3271ZM25.666 57.4346L26.0279 56.5023C17.2326 53.088 11 44.5432 11 34.5449H10H9C9 45.3958 15.7653 54.6638 25.3041 58.3668L25.666 57.4346ZM10 34.5449L11 34.5449C11.0002 21.5415 21.5415 11.0002 34.5449 11L34.5449 10L34.5449 9C20.437 9.00027 9.00027 20.437 9 34.5449L10 34.5449Z" fill="url(#paint1_linear_1723_67290)" mask="url(#path-2-inside-1_1723_67290)"/>
</g>
<circle cx="34.4545" cy="34.4545" r="20.4545" fill="white"/>
<path d="M39.1524 22C40.6272 23.3052 42.4545 24.1466 44.4053 24.418V28.2451C44.4052 31.2215 41.6539 33.4059 39.1524 34.6064C36.6257 33.4059 33.8903 31.2216 33.8985 28.2451V24.418C35.8495 24.1466 37.6774 23.3054 39.1524 22ZM41.1787 26.8936C40.9277 26.6844 40.5543 26.7179 40.3447 26.9688L38.8438 28.4619L38.3184 27.9365C38.1165 27.7363 37.8062 27.7113 37.5772 27.8613L37.4844 27.9365L37.4512 27.8945C37.4377 27.9076 37.4242 27.9213 37.4121 27.9355C37.1994 28.1836 37.2276 28.5575 37.4756 28.7705L38.4268 29.7207C38.6628 29.9368 39.0248 29.9368 39.2608 29.7207L41.2539 27.7275C41.4632 27.4764 41.4299 27.103 41.1787 26.8936Z" fill="#EC8913"/>
<path d="M25.7353 37.8415C25.8297 37.747 25.9827 37.747 26.0771 37.8415L31.498 44.3776C31.5924 44.472 31.5924 44.6259 31.498 44.7204L28.829 46.9294C28.8279 46.9305 28.8263 46.9321 28.8251 46.9333C28.733 47.023 28.5851 47.0213 28.4951 46.9294L23.0664 40.3424C22.9778 40.2493 22.9779 40.1028 23.0664 40.0094L25.7353 37.8415ZM46.0234 33.4889C46.6151 33.1395 47.3669 33.2858 47.7871 33.8122L47.8662 33.9225L47.9999 34.1227L40.1035 42.0104C39.8235 42.3009 39.4395 42.4687 39.0361 42.4772L32.5732 42.6188C32.1915 42.6277 31.8161 42.7185 31.4726 42.8854L31.3222 43.0026L27.7949 38.7585L31.6972 35.5319C31.8794 35.4282 32.0817 35.3624 32.29 35.3395L38.4521 35.8981C39.2274 35.8564 39.3524 36.6151 39.3525 36.8405V36.8903C39.3525 37.4655 39.0522 38.0915 38.5185 38.0915L33.8242 38.1999C33.7264 38.2183 33.6494 38.2945 33.6308 38.3922C33.606 38.5234 33.693 38.6499 33.8242 38.6745L38.5185 38.5583C39.284 38.4483 39.844 37.7803 39.8193 37.0075L46.0234 33.4889Z" fill="#8A5C00"/>
<defs>
<filter id="filter0_f_1723_67290" x="16" y="63" width="39" height="20" filterUnits="userSpaceOnUse" color-interpolation-filters="sRGB">
<feFlood flood-opacity="0" result="BackgroundImageFix"/>
<feBlend mode="normal" in="SourceGraphic" in2="BackgroundImageFix" result="shape"/>
<feGaussianBlur stdDeviation="4" result="effect1_foregroundBlur_1723_67290"/>
</filter>
<filter id="filter1_d_1723_67290" x="0" y="0" width="69.0898" height="80" filterUnits="userSpaceOnUse" color-interpolation-filters="sRGB">
<feFlood flood-opacity="0" result="BackgroundImageFix"/>
<feColorMatrix in="SourceAlpha" type="matrix" values="0 0 0 0 0 0 0 0 0 0 0 0 0 0 0 0 0 0 127 0" result="hardAlpha"/>
<feOffset/>
<feGaussianBlur stdDeviation="5"/>
<feComposite in2="hardAlpha" operator="out"/>
<feColorMatrix type="matrix" values="0 0 0 0 0.92549 0 0 0 0 0.537255 0 0 0 0 0.0745098 0 0 0 1 0"/>
<feBlend mode="normal" in2="BackgroundImageFix" result="effect1_dropShadow_1723_67290"/>
<feBlend mode="normal" in="SourceGraphic" in2="effect1_dropShadow_1723_67290" result="shape"/>
</filter>
<linearGradient id="paint0_linear_1723_67290" x1="34.5454" y1="10" x2="34.5454" y2="70" gradientUnits="userSpaceOnUse">
<stop stop-color="#FFB55D"/>
<stop offset="1" stop-color="#D77704"/>
</linearGradient>
<linearGradient id="paint1_linear_1723_67290" x1="34.5454" y1="53.5" x2="34.5454" y2="70" gradientUnits="userSpaceOnUse">
<stop stop-color="#FFAD4B"/>
<stop offset="1" stop-color="#EC8913"/>
</linearGradient>
</defs>
</svg>
