<svg width="70" height="83" viewBox="0 0 70 83" fill="none" xmlns="http://www.w3.org/2000/svg">
<g filter="url(#filter0_f_1723_67248)">
<ellipse cx="35.5" cy="73" rx="11.5" ry="2" fill="#044E9E"/>
</g>
<g>
<mask id="path-2-inside-1_1723_67248" fill="white">
<path d="M34.5449 10C48.1008 10 59.0906 20.9891 59.0908 34.5449C59.0908 44.9698 52.5913 53.8761 43.4238 57.4346C42.6501 57.8883 41.7786 58.5346 41.0986 59.3301L35.1357 69.6592C34.8733 70.1136 34.2175 70.1136 33.9551 69.6592L27.9893 59.3271C27.3095 58.5329 26.4389 57.8877 25.666 57.4346C16.499 53.8759 10 44.9695 10 34.5449C10.0003 20.9893 20.9893 10.0003 34.5449 10Z"/>
</mask>
<path d="M34.5449 10C48.1008 10 59.0906 20.9891 59.0908 34.5449C59.0908 44.9698 52.5913 53.8761 43.4238 57.4346C42.6501 57.8883 41.7786 58.5346 41.0986 59.3301L35.1357 69.6592C34.8733 70.1136 34.2175 70.1136 33.9551 69.6592L27.9893 59.3271C27.3095 58.5329 26.4389 57.8877 25.666 57.4346C16.499 53.8759 10 44.9695 10 34.5449C10.0003 20.9893 20.9893 10.0003 34.5449 10Z" fill="url(#paint0_linear_1723_67248)"/>
<path d="M34.5449 10V9H34.5449L34.5449 10ZM59.0908 34.5449H60.0908V34.5449L59.0908 34.5449ZM43.4238 57.4346L43.062 56.5023L42.9872 56.5314L42.918 56.5719L43.4238 57.4346ZM41.0986 59.3301L40.3385 58.6803L40.2786 58.7503L40.2326 58.8301L41.0986 59.3301ZM35.1357 69.6592L36.0017 70.1593L36.0018 70.1591L35.1357 69.6592ZM33.9551 69.6592L33.0891 70.1592L33.0891 70.1593L33.9551 69.6592ZM27.9893 59.3271L28.8553 58.8271L28.8091 58.7471L28.749 58.6769L27.9893 59.3271ZM25.666 57.4346L26.1718 56.5719L26.1026 56.5314L26.0279 56.5023L25.666 57.4346ZM10 34.5449L9 34.5449V34.5449H10ZM34.5449 10V11C47.5486 11 58.0906 21.5414 58.0908 34.5449L59.0908 34.5449L60.0908 34.5449C60.0905 20.4368 48.6531 9 34.5449 9V10ZM59.0908 34.5449H58.0908C58.0908 44.5435 51.8577 53.0882 43.062 56.5023L43.4238 57.4346L43.7857 58.3668C53.3249 54.6641 60.0908 45.3962 60.0908 34.5449H59.0908ZM43.4238 57.4346L42.918 56.5719C42.0797 57.0635 41.1112 57.7763 40.3385 58.6803L41.0986 59.3301L41.8588 59.9798C42.4459 59.2929 43.2204 58.7131 43.9297 58.2972L43.4238 57.4346ZM41.0986 59.3301L40.2326 58.8301L34.2697 69.1592L35.1357 69.6592L36.0018 70.1591L41.9647 59.83L41.0986 59.3301ZM35.1357 69.6592L34.2698 69.159C34.3923 68.9469 34.6985 68.947 34.821 69.159L33.9551 69.6592L33.0891 70.1593C33.7365 71.2802 35.3543 71.2802 36.0017 70.1593L35.1357 69.6592ZM33.9551 69.6592L34.8211 69.1591L28.8553 58.8271L27.9893 59.3271L27.1233 59.8272L33.0891 70.1592L33.9551 69.6592ZM27.9893 59.3271L28.749 58.6769C27.9765 57.7743 27.009 57.0628 26.1718 56.5719L25.666 57.4346L25.1602 58.2972C25.8689 58.7127 26.6425 59.2915 27.2295 59.9774L27.9893 59.3271ZM25.666 57.4346L26.0279 56.5023C17.2326 53.088 11 44.5432 11 34.5449H10H9C9 45.3958 15.7653 54.6638 25.3041 58.3668L25.666 57.4346ZM10 34.5449L11 34.5449C11.0002 21.5415 21.5415 11.0002 34.5449 11L34.5449 10L34.5449 9C20.437 9.00027 9.00027 20.437 9 34.5449L10 34.5449Z" fill="url(#paint1_linear_1723_67248)" mask="url(#path-2-inside-1_1723_67248)"/>
</g>
<circle cx="34.4545" cy="34.4545" r="20.4545" fill="white"/>
<path d="M35 33C36.3261 33 37.5979 33.5268 38.5355 34.4645C39.4732 35.4021 40 36.6739 40 38V44H30V38C30 36.6739 30.5268 35.4021 31.4645 34.4645C32.4021 33.5268 33.6739 33 35 33ZM28.288 36.006C28.1289 36.5428 28.0348 37.0968 28.008 37.656L28 38V44H25V39.5C24.9998 38.6376 25.318 37.8054 25.8936 37.1632C26.4692 36.521 27.2617 36.1139 28.119 36.02L28.289 36.006H28.288ZM41.712 36.006C42.6019 36.0602 43.4376 36.452 44.0486 37.1012C44.6596 37.7505 44.9999 38.6084 45 39.5V44H42V38C42 37.307 41.9 36.638 41.712 36.006ZM28.5 30C29.163 30 29.7989 30.2634 30.2678 30.7322C30.7366 31.2011 31 31.837 31 32.5C31 33.163 30.7366 33.7989 30.2678 34.2678C29.7989 34.7366 29.163 35 28.5 35C27.837 35 27.2011 34.7366 26.7322 34.2678C26.2634 33.7989 26 33.163 26 32.5C26 31.837 26.2634 31.2011 26.7322 30.7322C27.2011 30.2634 27.837 30 28.5 30V30ZM41.5 30C42.163 30 42.7989 30.2634 43.2678 30.7322C43.7366 31.2011 44 31.837 44 32.5C44 33.163 43.7366 33.7989 43.2678 34.2678C42.7989 34.7366 42.163 35 41.5 35C40.837 35 40.2011 34.7366 39.7322 34.2678C39.2634 33.7989 39 33.163 39 32.5C39 31.837 39.2634 31.2011 39.7322 30.7322C40.2011 30.2634 40.837 30 41.5 30V30ZM35 24C36.0609 24 37.0783 24.4214 37.8284 25.1716C38.5786 25.9217 39 26.9391 39 28C39 29.0609 38.5786 30.0783 37.8284 30.8284C37.0783 31.5786 36.0609 32 35 32C33.9391 32 32.9217 31.5786 32.1716 30.8284C31.4214 30.0783 31 29.0609 31 28C31 26.9391 31.4214 25.9217 32.1716 25.1716C32.9217 24.4214 33.9391 24 35 24V24Z" fill="#044E9E"/>
<defs>
<filter id="filter0_f_1723_67248" x="-20%" y="-20%" width="140%" height="140%" filterUnits="userSpaceOnUse" color-interpolation-filters="sRGB">
<feFlood flood-opacity="0" result="BackgroundImageFix"/>
<feBlend mode="normal" in="SourceGraphic" in2="BackgroundImageFix" result="shape"/>
<feGaussianBlur stdDeviation="4" result="effect1_foregroundBlur_1723_67248"/>
</filter>
<filter id="filter1_d_1723_67248" x="-20%" y="-20%" width="140%" height="140%" filterUnits="userSpaceOnUse" color-interpolation-filters="sRGB">
<feFlood flood-opacity="0" result="BackgroundImageFix"/>
<feColorMatrix in="SourceAlpha" type="matrix" values="0 0 0 0 0 0 0 0 0 0 0 0 0 0 0 0 0 0 127 0" result="hardAlpha"/>
<feOffset/>
<feGaussianBlur stdDeviation="5"/>
<feComposite in2="hardAlpha" operator="out"/>
<feColorMatrix type="matrix" values="0 0 0 0 0.0156863 0 0 0 0 0.305882 0 0 0 0 0.619608 0 0 0 1 0"/>
<feBlend mode="normal" in2="BackgroundImageFix" result="effect1_dropShadow_1723_67248"/>
<feBlend mode="normal" in="SourceGraphic" in2="effect1_dropShadow_1723_67248" result="shape"/>
</filter>
<linearGradient id="paint0_linear_1723_67248" x1="34.5454" y1="10" x2="34.5454" y2="70" gradientUnits="userSpaceOnUse">
<stop stop-color="#76B8FF"/>
<stop offset="1" stop-color="#044E9E"/>
</linearGradient>
<linearGradient id="paint1_linear_1723_67248" x1="34.5454" y1="53.5" x2="34.5454" y2="70" gradientUnits="userSpaceOnUse">
<stop stop-color="#4AA1FF"/>
<stop offset="1" stop-color="#1D6BBF"/>
</linearGradient>
</defs>
</svg>
