<svg width="70" height="83" viewBox="0 0 70 83" fill="none" xmlns="http://www.w3.org/2000/svg">
<g filter="url(#filter0_f_1723_67342)">
<ellipse cx="35.5" cy="73" rx="11.5" ry="2" fill="#0C8AE5"/>
</g>
<g filter="url(#filter1_d_1723_67342)">
<mask id="path-2-inside-1_1723_67342" fill="white">
<path d="M34.5449 10C48.1008 10 59.0906 20.9891 59.0908 34.5449C59.0908 44.9698 52.5913 53.8761 43.4238 57.4346C42.6501 57.8883 41.7786 58.5346 41.0986 59.3301L35.1357 69.6592C34.8733 70.1136 34.2175 70.1136 33.9551 69.6592L27.9893 59.3271C27.3095 58.5329 26.4389 57.8877 25.666 57.4346C16.499 53.8759 10 44.9695 10 34.5449C10.0003 20.9893 20.9893 10.0003 34.5449 10Z"/>
</mask>
<path d="M34.5449 10C48.1008 10 59.0906 20.9891 59.0908 34.5449C59.0908 44.9698 52.5913 53.8761 43.4238 57.4346C42.6501 57.8883 41.7786 58.5346 41.0986 59.3301L35.1357 69.6592C34.8733 70.1136 34.2175 70.1136 33.9551 69.6592L27.9893 59.3271C27.3095 58.5329 26.4389 57.8877 25.666 57.4346C16.499 53.8759 10 44.9695 10 34.5449C10.0003 20.9893 20.9893 10.0003 34.5449 10Z" fill="url(#paint0_linear_1723_67342)"/>
<path d="M34.5449 10V9H34.5449L34.5449 10ZM59.0908 34.5449H60.0908V34.5449L59.0908 34.5449ZM43.4238 57.4346L43.062 56.5023L42.9872 56.5314L42.918 56.5719L43.4238 57.4346ZM41.0986 59.3301L40.3385 58.6803L40.2786 58.7503L40.2326 58.8301L41.0986 59.3301ZM35.1357 69.6592L36.0017 70.1593L36.0018 70.1591L35.1357 69.6592ZM33.9551 69.6592L33.0891 70.1592L33.0891 70.1593L33.9551 69.6592ZM27.9893 59.3271L28.8553 58.8271L28.8091 58.7471L28.749 58.6769L27.9893 59.3271ZM25.666 57.4346L26.1718 56.5719L26.1026 56.5314L26.0279 56.5023L25.666 57.4346ZM10 34.5449L9 34.5449V34.5449H10ZM34.5449 10V11C47.5486 11 58.0906 21.5414 58.0908 34.5449L59.0908 34.5449L60.0908 34.5449C60.0905 20.4368 48.6531 9 34.5449 9V10ZM59.0908 34.5449H58.0908C58.0908 44.5435 51.8577 53.0882 43.062 56.5023L43.4238 57.4346L43.7857 58.3668C53.3249 54.6641 60.0908 45.3962 60.0908 34.5449H59.0908ZM43.4238 57.4346L42.918 56.5719C42.0797 57.0635 41.1112 57.7763 40.3385 58.6803L41.0986 59.3301L41.8588 59.9798C42.4459 59.2929 43.2204 58.7131 43.9297 58.2972L43.4238 57.4346ZM41.0986 59.3301L40.2326 58.8301L34.2697 69.1592L35.1357 69.6592L36.0018 70.1591L41.9647 59.83L41.0986 59.3301ZM35.1357 69.6592L34.2698 69.159C34.3923 68.9469 34.6985 68.947 34.821 69.159L33.9551 69.6592L33.0891 70.1593C33.7365 71.2802 35.3543 71.2802 36.0017 70.1593L35.1357 69.6592ZM33.9551 69.6592L34.8211 69.1591L28.8553 58.8271L27.9893 59.3271L27.1233 59.8272L33.0891 70.1592L33.9551 69.6592ZM27.9893 59.3271L28.749 58.6769C27.9765 57.7743 27.009 57.0628 26.1718 56.5719L25.666 57.4346L25.1602 58.2972C25.8689 58.7127 26.6425 59.2915 27.2295 59.9774L27.9893 59.3271ZM25.666 57.4346L26.0279 56.5023C17.2326 53.088 11 44.5432 11 34.5449H10H9C9 45.3958 15.7653 54.6638 25.3041 58.3668L25.666 57.4346ZM10 34.5449L11 34.5449C11.0002 21.5415 21.5415 11.0002 34.5449 11L34.5449 10L34.5449 9C20.437 9.00027 9.00027 20.437 9 34.5449L10 34.5449Z" fill="url(#paint1_linear_1723_67342)" mask="url(#path-2-inside-1_1723_67342)"/>
</g>
<circle cx="34.4545" cy="34.4545" r="20.4545" fill="white"/>
<path d="M36.6464 31.6154L26.7385 39.6661C26.3257 37.8082 25.6238 33.2254 28.5962 29.7574C31.5686 26.2894 39.9491 25.8354 43.4581 26.0419C43.6646 28.7254 43.2104 35.2072 39.7427 39.6661C36.2749 44.1249 31.2796 43.1753 29.2155 42.1432L27.3577 44.0011C26.3669 44.4965 25.7064 43.7946 25.5 43.3818L36.6464 31.6154Z" fill="#0C8AE5"/>
<defs>
<filter id="filter0_f_1723_67342" x="16" y="63" width="39" height="20" filterUnits="userSpaceOnUse" color-interpolation-filters="sRGB">
<feFlood flood-opacity="0" result="BackgroundImageFix"/>
<feBlend mode="normal" in="SourceGraphic" in2="BackgroundImageFix" result="shape"/>
<feGaussianBlur stdDeviation="4" result="effect1_foregroundBlur_1723_67342"/>
</filter>
<filter id="filter1_d_1723_67342" x="0" y="0" width="69.0898" height="80" filterUnits="userSpaceOnUse" color-interpolation-filters="sRGB">
<feFlood flood-opacity="0" result="BackgroundImageFix"/>
<feColorMatrix in="SourceAlpha" type="matrix" values="0 0 0 0 0 0 0 0 0 0 0 0 0 0 0 0 0 0 127 0" result="hardAlpha"/>
<feOffset/>
<feGaussianBlur stdDeviation="5"/>
<feComposite in2="hardAlpha" operator="out"/>
<feColorMatrix type="matrix" values="0 0 0 0 0.0470588 0 0 0 0 0.541176 0 0 0 0 0.898039 0 0 0 1 0"/>
<feBlend mode="normal" in2="BackgroundImageFix" result="effect1_dropShadow_1723_67342"/>
<feBlend mode="normal" in="SourceGraphic" in2="effect1_dropShadow_1723_67342" result="shape"/>
</filter>
<linearGradient id="paint0_linear_1723_67342" x1="34.5454" y1="10" x2="34.5454" y2="70" gradientUnits="userSpaceOnUse">
<stop stop-color="#8ED0FF"/>
<stop offset="1" stop-color="#2483C8"/>
</linearGradient>
<linearGradient id="paint1_linear_1723_67342" x1="34.5454" y1="53.5" x2="34.5454" y2="70" gradientUnits="userSpaceOnUse">
<stop stop-color="#70C3FF"/>
<stop offset="1" stop-color="#0C8AE5"/>
</linearGradient>
</defs>
</svg>
