<svg width="71" height="85" viewBox="0 0 71 85" fill="none" xmlns="http://www.w3.org/2000/svg">
<g filter="url(#filter0_f_1723_67304)">
<ellipse cx="36.008" cy="74.5754" rx="11.6643" ry="2.05" fill="#26B55C"/>
</g>
<g>
<mask id="path-2-inside-1_1723_67304" fill="white">
<path d="M34.6895 10C48.2453 10 59.2344 20.9909 59.2344 34.5488C59.2343 44.9715 52.7394 53.8751 43.5771 57.4365C42.8011 57.8907 41.9257 58.5392 41.2432 59.3379L35.2812 69.668C35.0187 70.122 34.363 70.1221 34.1006 69.668L28.1436 59.3486C27.4596 58.5451 26.5803 57.8926 25.8008 57.4365C16.6391 53.8748 10.1446 44.9711 10.1445 34.5488C10.1445 20.991 21.1337 10.0001 34.6895 10Z"/>
</mask>
<path d="M34.6895 10C48.2453 10 59.2344 20.9909 59.2344 34.5488C59.2343 44.9715 52.7394 53.8751 43.5771 57.4365C42.8011 57.8907 41.9257 58.5392 41.2432 59.3379L35.2812 69.668C35.0187 70.122 34.363 70.1221 34.1006 69.668L28.1436 59.3486C27.4596 58.5451 26.5803 57.8926 25.8008 57.4365C16.6391 53.8748 10.1446 44.9711 10.1445 34.5488C10.1445 20.991 21.1337 10.0001 34.6895 10Z" fill="url(#paint0_linear_1723_67304)"/>
<path d="M34.6895 10C48.2453 10 59.2344 20.9909 59.2344 34.5488C59.2343 44.9715 52.7394 53.8751 43.5771 57.4365C42.8011 57.8907 41.9257 58.5392 41.2432 59.3379L35.2812 69.668C35.0187 70.122 34.363 70.1221 34.1006 69.668L28.1436 59.3486C27.4596 58.5451 26.5803 57.8926 25.8008 57.4365C16.6391 53.8748 10.1446 44.9711 10.1445 34.5488C10.1445 20.991 21.1337 10.0001 34.6895 10Z" fill="url(#paint1_linear_1723_67304)"/>
<path d="M34.6895 10V9H34.6894L34.6895 10ZM59.2344 34.5488L60.2344 34.5488V34.5488H59.2344ZM43.5771 57.4365L43.2149 56.5045L43.1407 56.5333L43.0721 56.5734L43.5771 57.4365ZM41.2432 59.3379L40.4829 58.6883L40.4231 58.7583L40.3771 58.838L41.2432 59.3379ZM35.2812 69.668L36.1469 70.1686L36.1474 70.1678L35.2812 69.668ZM34.1006 69.668L33.2345 70.1679L33.2348 70.1683L34.1006 69.668ZM28.1436 59.3486L29.0096 58.8487L28.9641 58.7698L28.9051 58.7005L28.1436 59.3486ZM25.8008 57.4365L26.3058 56.5734L26.2372 56.5333L26.1631 56.5045L25.8008 57.4365ZM10.1445 34.5488H9.14453V34.5488L10.1445 34.5488ZM34.6895 10V11C47.6929 11 58.2344 21.5431 58.2344 34.5488H59.2344H60.2344C60.2344 20.4388 48.7978 9 34.6895 9V10ZM59.2344 34.5488L58.2344 34.5488C58.2343 44.5453 52.0056 53.0875 43.2149 56.5045L43.5771 57.4365L43.9394 58.3686C53.4733 54.6628 60.2343 45.3977 60.2344 34.5488L59.2344 34.5488ZM43.5771 57.4365L43.0721 56.5734C42.2312 57.0655 41.2584 57.7807 40.4829 58.6883L41.2432 59.3379L42.0034 59.9875C42.5929 59.2977 43.3709 58.7158 44.0822 58.2996L43.5771 57.4365ZM41.2432 59.3379L40.3771 58.838L34.4151 69.1681L35.2812 69.668L36.1474 70.1678L42.1093 59.8378L41.2432 59.3379ZM35.2812 69.668L34.4156 69.1673C34.5378 68.956 34.8436 68.9551 34.9664 69.1676L34.1006 69.668L33.2348 70.1683C33.8824 71.2891 35.4995 71.2879 36.1469 70.1686L35.2812 69.668ZM34.1006 69.668L34.9666 69.168L29.0096 58.8487L28.1436 59.3486L27.2775 59.8486L33.2345 70.1679L34.1006 69.668ZM28.1436 59.3486L28.9051 58.7005C28.1278 57.7873 27.1506 57.0677 26.3058 56.5734L25.8008 57.4365L25.2958 58.2996C26.01 58.7175 26.7914 59.3028 27.382 59.9968L28.1436 59.3486ZM25.8008 57.4365L26.1631 56.5045C17.3729 53.0872 11.1446 44.5449 11.1445 34.5488L10.1445 34.5488L9.14453 34.5488C9.14456 45.3972 15.9052 54.6624 25.4384 58.3686L25.8008 57.4365ZM10.1445 34.5488H11.1445C11.1445 21.5431 21.6861 11.0001 34.6895 11L34.6895 10L34.6894 9C20.5812 9.00008 9.14453 20.4388 9.14453 34.5488H10.1445Z" fill="url(#paint2_linear_1723_67304)" mask="url(#path-2-inside-1_1723_67304)"/>
</g>
<ellipse cx="34.9459" cy="35.0674" rx="20.7467" ry="20.9659" fill="white"/>
<path d="M40.627 23.8008C42.7648 23.8008 44.498 25.534 44.498 27.6719V30.5508H45.2256C45.6531 30.5508 45.9999 30.8968 46 31.3242V33.5264C45.9998 33.9537 45.653 34.2998 45.2256 34.2998H44.498V42.502C44.4978 43.3569 43.8042 44.0498 42.9492 44.0498H42.8008V44.7998C42.8007 45.6281 42.1291 46.2998 41.3008 46.2998C40.4726 46.2996 39.8009 45.628 39.8008 44.7998V44.0498H30.25V44.7998C30.2499 45.6281 29.5784 46.2998 28.75 46.2998C27.9218 46.2996 27.2501 45.628 27.25 44.7998V44.0469C26.4167 44.0221 25.7483 43.3412 25.748 42.502V34.3008H24.2744C23.8471 34.3006 23.5001 33.9537 23.5 33.5264V31.3242C23.5002 30.897 23.8471 30.551 24.2744 30.5508H25.748V27.6719C25.748 25.5341 27.4814 23.801 29.6191 23.8008H40.627ZM28.9004 38.0508C28.0722 38.0509 27.4006 38.7217 27.4004 39.5498C27.4004 40.3781 28.072 41.0497 28.9004 41.0498C29.7288 41.0498 30.4004 40.3782 30.4004 39.5498C30.4002 38.7216 29.7287 38.0508 28.9004 38.0508ZM41 38.0508C40.1718 38.0509 39.5002 38.7217 39.5 39.5498C39.5 40.3781 40.1717 41.0497 41 41.0498C41.8284 41.0498 42.5 40.3782 42.5 39.5498C42.4998 38.7216 41.8283 38.0508 41 38.0508ZM28.1748 29.0508C27.7473 29.0509 27.4004 29.3977 27.4004 29.8252V35.0264C27.4004 35.4539 27.7473 35.8007 28.1748 35.8008H41.626C42.0535 35.8008 42.4003 35.4539 42.4004 35.0264V29.8252C42.4004 29.3976 42.0536 29.0508 41.626 29.0508H28.1748ZM32.75 25.8008C32.3359 25.8009 32 26.1366 32 26.5508C32 26.9649 32.3359 27.3007 32.75 27.3008H37.25C37.6642 27.3008 38 26.965 38 26.5508C38 26.1366 37.6642 25.8008 37.25 25.8008H32.75Z" fill="#1F4727"/>
<defs>
<filter id="filter0_f_1723_67304" x="16.3438" y="64.5254" width="39.3281" height="20.0996" filterUnits="userSpaceOnUse" color-interpolation-filters="sRGB">
<feFlood flood-opacity="0" result="BackgroundImageFix"/>
<feBlend mode="normal" in="SourceGraphic" in2="BackgroundImageFix" result="shape"/>
<feGaussianBlur stdDeviation="4" result="effect1_foregroundBlur_1723_67304"/>
</filter>
<filter id="filter1_d_1723_67304" x="0.144531" y="0" width="69.0898" height="80.0078" filterUnits="userSpaceOnUse" color-interpolation-filters="sRGB">
<feFlood flood-opacity="0" result="BackgroundImageFix"/>
<feColorMatrix in="SourceAlpha" type="matrix" values="0 0 0 0 0 0 0 0 0 0 0 0 0 0 0 0 0 0 127 0" result="hardAlpha"/>
<feOffset/>
<feGaussianBlur stdDeviation="5"/>
<feComposite in2="hardAlpha" operator="out"/>
<feColorMatrix type="matrix" values="0 0 0 0 0.486275 0 0 0 0 0.898039 0 0 0 0 0.733333 0 0 0 1 0"/>
<feBlend mode="normal" in2="BackgroundImageFix" result="effect1_dropShadow_1723_67304"/>
<feBlend mode="normal" in="SourceGraphic" in2="effect1_dropShadow_1723_67304" result="shape"/>
</filter>
<linearGradient id="paint0_linear_1723_67304" x1="34.6895" y1="10" x2="34.6895" y2="70.0085" gradientUnits="userSpaceOnUse">
<stop stop-color="#B8E4FC"/>
<stop offset="1" stop-color="#5EA4F7"/>
</linearGradient>
<linearGradient id="paint1_linear_1723_67304" x1="34.6895" y1="10" x2="34.6895" y2="70.0085" gradientUnits="userSpaceOnUse">
<stop stop-color="#ABEDD3"/>
<stop offset="1" stop-color="#2ECA8B"/>
</linearGradient>
<linearGradient id="paint2_linear_1723_67304" x1="34.6895" y1="58.0068" x2="34.6895" y2="70.0085" gradientUnits="userSpaceOnUse">
<stop stop-color="#79DEB5"/>
<stop offset="1" stop-color="#3AB178"/>
</linearGradient>
</defs>
</svg>
