<svg width="52" height="52" viewBox="0 0 52 52" fill="none" xmlns="http://www.w3.org/2000/svg">
<rect width="52" height="52" rx="26" fill="#636CCC"/>
<path d="M15.0938 34.8267C16.4604 34.8267 17.5684 35.9346 17.5684 37.3013C17.5683 38.6679 16.4603 39.7758 15.0938 39.7759C13.7271 39.7759 12.6192 38.6679 12.6191 37.3013C12.6191 35.9346 13.7271 34.8267 15.0938 34.8267Z" fill="white" stroke="white" stroke-width="0.0976536"/>
<path d="M25.6406 36.6021C27.0072 36.6021 28.1152 37.71 28.1152 39.0767C28.1152 40.4433 27.0072 41.5512 25.6406 41.5513C24.274 41.5513 23.1661 40.4433 23.166 39.0767C23.166 37.71 24.274 36.6021 25.6406 36.6021Z" fill="white" stroke="white" stroke-width="0.0976536"/>
<path d="M35.5664 34.896C36.933 34.896 38.041 36.004 38.041 37.3706C38.041 38.7372 36.933 39.8452 35.5664 39.8452C34.1998 39.8452 33.0918 38.7372 33.0918 37.3706C33.0918 36.004 34.1998 34.896 35.5664 34.896Z" fill="white" stroke="white" stroke-width="0.0976536"/>
<path d="M22.0711 30.1133L15.5273 36.866" stroke="white" stroke-width="2.34" stroke-miterlimit="10" stroke-linecap="round"/>
<path d="M25.4824 38.6061L25.3438 34.4294" stroke="white" stroke-width="2.34" stroke-miterlimit="10" stroke-linecap="round"/>
<path d="M30.6016 32.1665L34.1513 35.7523" stroke="white" stroke-width="2.34" stroke-miterlimit="10" stroke-linecap="round"/>
<path d="M15.9823 31.9582C12.83 31.9582 10.2734 29.4026 10.2734 26.2494C10.2734 23.0961 12.829 20.5405 15.9823 20.5405C15.9823 20.5405 15.6688 20.436 15.704 17.9996C15.7538 14.5202 19.1091 11.7 23.3092 11.7C26.5181 11.7 29.2632 13.3464 30.3803 15.6754L30.9496 16.0514C34.6253 16.0514 36.3723 17.7047 36.7512 20.4487L36.9661 20.5874C39.4465 21.6255 41.1476 23.7553 41.1476 26.2142C41.1476 29.1008 38.8508 32.4103 35.6136 31.8527" stroke="white" stroke-width="2.34" stroke-linecap="round" stroke-linejoin="round"/>
<path d="M30.1504 27.948L30.1289 27.9265L30.1162 28.0242C29.8027 30.5027 27.6886 32.4196 25.125 32.4197C22.3455 32.4197 20.0919 30.166 20.0918 27.3865C20.0918 24.8884 21.9129 22.8153 24.2998 22.4216H24.3018L30.4336 21.1003L30.1504 27.948ZM27.6035 23.9529C27.5735 23.9508 27.5425 23.964 27.5146 23.9802C27.3025 24.1041 26.8297 24.4544 26.4131 24.7712C26.2041 24.9302 26.0079 25.0816 25.8643 25.1931C25.7925 25.2488 25.7332 25.294 25.6924 25.3259C25.6721 25.3418 25.6563 25.3546 25.6455 25.363C25.6401 25.3673 25.6356 25.3706 25.6328 25.3728C25.6315 25.3739 25.6306 25.3752 25.6299 25.3757H25.6289L25.624 25.3806L22.709 28.3757L22.708 28.3767C22.456 28.6495 22.4048 29.0655 22.6123 29.3777C22.7201 29.5395 22.8587 29.6248 23.0049 29.6589C23.1495 29.6926 23.2996 29.6765 23.4326 29.6414C23.5657 29.6062 23.6847 29.551 23.7705 29.5056C23.8136 29.4828 23.8488 29.462 23.873 29.447C23.8851 29.4395 23.8949 29.4337 23.9014 29.4294C23.9043 29.4275 23.9065 29.4257 23.9082 29.4246C23.9091 29.424 23.9107 29.4229 23.9111 29.4226L23.9121 29.4236L23.9209 29.4148V29.4138L23.9219 29.4128C23.9229 29.4116 23.9247 29.4093 23.9268 29.407C23.9311 29.402 23.938 29.3941 23.9463 29.3845C23.9629 29.3653 23.9875 29.3374 24.0186 29.3015C24.0811 29.2291 24.1705 29.1243 24.2793 28.9978C24.4969 28.7449 24.7911 28.4027 25.0957 28.0437C25.6873 27.3465 26.3227 26.5827 26.5186 26.2986H26.5215L26.5352 26.2771C26.7102 26.0146 27.0772 25.3943 27.3477 24.8708C27.4825 24.6098 27.595 24.3694 27.6475 24.2087C27.6606 24.1685 27.6705 24.1318 27.6758 24.1003C27.6808 24.0704 27.6822 24.0396 27.6748 24.0134C27.6708 23.9996 27.6637 23.9844 27.6504 23.9724C27.6366 23.9601 27.6201 23.9541 27.6035 23.9529Z" fill="white" stroke="white" stroke-width="0.0976536"/>
</svg>
