<svg width="50" height="50" viewBox="0 0 50 50" fill="none" xmlns="http://www.w3.org/2000/svg">
<rect width="50" height="50" rx="25" fill="#0C8AE5"/>
<path d="M39.5549 21.8764C32.7957 23.4668 33.4253 15.9125 34.5849 11.9365C35.4134 11.9365 37.6668 12.6323 40.0524 15.4155C42.4379 18.1987 40.7147 20.8824 39.5549 21.8764Z" fill="white"/>
<path d="M39.82 21.8769C39.6543 21.3799 39.0248 19.9883 37.832 18.3979" stroke="#0C8AE5" stroke-width="0.993989" stroke-linecap="round"/>
<path d="M18.3616 26.3994L26.7656 17.1107C26.9612 16.8946 27.3188 17.0585 27.2827 17.3478L26.4059 24.3616H31.7183C31.9736 24.3616 32.1109 24.6615 31.944 24.8547L23.5707 34.5501C23.3779 34.7734 23.0125 34.6109 23.0491 34.3182L23.921 27.3435L18.558 26.8966C18.3119 26.8761 18.1959 26.5825 18.3616 26.3994Z" fill="white"/>
<path d="M40.8136 25.3556C40.8136 33.8645 33.9158 40.7624 25.4068 40.7624C16.8979 40.7624 10 33.8645 10 25.3556C10 16.8466 16.8979 9.94873 25.4068 9.94873C27.714 9.94873 29.9028 10.4559 31.8677 11.3648" stroke="white" stroke-width="1.98798" stroke-linecap="round"/>
</svg>
