<svg width="50" height="50" viewBox="0 0 50 50" fill="none" xmlns="http://www.w3.org/2000/svg">
<path d="M44.9619 6C45.1803 8.62046 44.5686 14.7787 40.376 18.4473C36.1835 22.1156 31.6417 21.2855 29.8945 20.4121C28.8028 20.6305 26.6184 21.5914 26.6182 23.6875C32.7323 24.3426 44.9613 26.8323 44.9619 31.5488C44.9619 37.4448 35.7904 39.4105 33.1699 44.6514H5C6.52858 42.0309 11.8132 36.2663 20.7227 34.1699C24.2166 33.5148 30.2868 31.6803 26.6182 29.584C22.0326 26.9638 15.4824 26.9634 16.792 23.0332C17.8402 19.8887 23.3434 19.5385 25.9639 19.7568C25.0904 20.4119 23.7363 21.985 25.3086 23.0332H25.9639C26.8373 21.2863 29.6318 17.137 33.8242 14.5166C38.0169 11.8962 40.3761 10.8043 41.0312 10.5859C37.9741 11.4594 31.0732 14.1234 27.9287 17.792C27.0552 16.2634 26.4874 12.4199 31.2041 9.27539C37.1001 5.34475 41.0313 7.96532 44.9619 6ZM26.6826 38.2393C26.5691 38.0135 26.2935 37.9214 26.0674 38.0342C23.9157 39.1101 22.0419 40.7169 21.3623 41.3965C21.1838 41.5754 21.1839 41.865 21.3623 42.0439C21.5414 42.223 21.8326 42.223 22.0117 42.0439C22.6428 41.413 24.4369 39.8755 26.4766 38.8555C26.7029 38.7423 26.7955 38.4657 26.6826 38.2393ZM33.498 30.499C32.9983 30.9988 33.6514 31.535 33.498 31.999C33.1852 32.9407 32.8711 32.8962 32.3037 33.7393C31.5761 34.8202 30.1913 35.9931 29.1143 36.7471C28.9069 36.8922 28.8571 37.1793 29.002 37.3867C29.1474 37.5935 29.4324 37.644 29.6396 37.499C30.746 36.7245 32.2427 35.4735 33.0654 34.251C33.4699 33.65 34.3218 32.6912 34.498 31.999C34.498 30.9996 34.4977 30.499 33.498 30.499ZM29.0566 26.9199C28.8114 26.8591 28.5616 27.0089 28.5 27.2539C28.4386 27.4993 28.5888 27.7488 28.834 27.8105C29.2587 27.9167 29.9317 28.1089 30.5576 28.3369C30.8702 28.4508 31.1646 28.5714 31.4072 28.6914C31.6595 28.8162 31.821 28.9237 31.8975 29C32.0765 29.1788 32.3659 29.1788 32.5449 29C32.7239 28.821 32.7238 28.5316 32.5449 28.3525C32.3593 28.167 32.0884 28.0057 31.8145 27.8701C31.5307 27.7298 31.2019 27.5961 30.8711 27.4756C30.209 27.2343 29.5051 27.032 29.0566 26.9199ZM24.1416 24.5625C23.9018 24.4831 23.6417 24.6129 23.5615 24.8525C23.4818 25.0926 23.6127 25.3524 23.8525 25.4326C24.503 25.6495 26.0496 26.2099 27.0674 26.7188C27.2937 26.8316 27.5693 26.7388 27.6826 26.5127C27.7953 26.2863 27.7029 26.0096 27.4766 25.8965C26.3986 25.3577 24.8016 24.7825 24.1416 24.5625ZM23.3418 21.9189C23.2208 21.919 23.0656 21.949 22.917 22.0029C22.7629 22.0589 22.5756 22.1548 22.415 22.3105C22.2489 22.4719 22.114 22.6969 22.0801 22.9873C22.047 23.2714 22.1161 23.5747 22.2744 23.8916C22.3877 24.1181 22.6631 24.2108 22.8896 24.0977C23.116 23.9844 23.2077 23.7089 23.0947 23.4824C22.9918 23.2764 22.9844 23.1534 22.9912 23.0938C22.9974 23.041 23.0178 23.0027 23.0537 22.9678C23.0956 22.9273 23.1592 22.8921 23.2305 22.8662C23.3064 22.8387 23.3528 22.835 23.3418 22.835C23.5949 22.8348 23.8008 22.6301 23.8008 22.377C23.8005 22.124 23.5948 21.9191 23.3418 21.9189Z" fill="#06A85B"/>
</svg>
