<svg width="60" height="60" viewBox="0 0 60 60" fill="none" xmlns="http://www.w3.org/2000/svg">
<path d="M48.0694 43.0788L41.5843 35.137H42.8571C45.0204 35.137 46.2158 32.6204 44.8462 30.9459L38.3611 22.9992H39.6726C41.8843 22.9992 43.1087 20.4293 41.7053 18.7113L32.118 6.96551C31.0678 5.67816 29.098 5.67816 28.0478 6.96551L18.4557 18.7113C17.057 20.4245 18.2766 22.9992 20.4883 22.9992H21.2143L14.7292 30.9459C13.3596 32.6252 14.555 35.137 16.7183 35.137H18.025L11.5447 43.0788C10.267 44.642 11.3802 46.9892 13.3983 46.9892H25.6087V52.6129C25.6087 53.8518 26.6105 54.8536 27.8494 54.8536H32.1034C33.3424 54.8536 34.3442 53.8518 34.3442 52.6129V46.9892H46.2061C48.2242 46.9892 49.3373 44.6468 48.0597 43.0788H48.0694Z" fill="#5BA653"/>
</svg>
