<svg width="50" height="50" viewBox="0 0 50 50" fill="none" xmlns="http://www.w3.org/2000/svg">
<path d="M17.876 44.3604C17.876 45.8178 16.6947 46.9998 15.2373 47H7.31934C6.59083 46.9999 6.00026 46.4091 6 45.6807C6 44.952 6.59066 44.3605 7.31934 44.3604H17.876ZM37.7441 3.71289C38.1803 9.33217 38.6896 20.0759 35.6953 24.5674C31.7366 30.5054 24.7448 33.1438 17.8809 31.8242C16.5612 32.4841 13.9219 34.9921 13.9219 39.7422C13.9204 40.6219 11.2807 41.7211 10.6191 39.082C9.95977 38.2019 9.96906 35.7832 11.2812 29.1855C11.6747 27.2061 7.32315 22.5874 12.6035 13.3506C15.8985 9.39208 19.3288 7.41319 27.7734 7.41309C34.7496 7.41309 37.4037 5.31157 37.7441 3.71289ZM30.4102 13.3506C28.4307 15.9897 21.1726 19.2894 17.2139 23.248C14.0471 26.4151 12.3754 32.9251 11.9355 35.7842C13.2549 37.1033 13.915 33.1449 15.2344 30.5059C16.5539 27.8668 18.5337 23.2481 23.8115 19.9492C28.0342 17.3101 29.9703 14.4502 30.4102 13.3506Z" fill="#636CCC"/>
<path d="M41.2582 48.0976V46.9913L43.7294 45.0086C44.3041 44.5344 44.6633 44.2327 44.6633 43.7586C44.6633 43.2701 44.2036 42.9827 43.6289 42.9827C43.0111 42.9827 42.6088 43.2988 42.6088 43.8592H41.1289C41.1289 42.5661 42.1777 41.7759 43.6432 41.7759C45.1518 41.7759 46.1288 42.6379 46.1288 43.7442C46.1288 44.635 45.5972 45.2816 44.3903 46.1005L43.4708 46.7901V46.8332H46.2006V48.0976H41.2582Z" fill="#636CCC"/>
<path d="M40.5862 41.1006C40.5862 44.4913 38.4742 46.4453 35.73 46.4453C32.957 46.4453 30.8594 44.4769 30.8594 41.1006C30.8594 37.7098 32.957 35.7559 35.73 35.7559C38.4742 35.7559 40.5862 37.7098 40.5862 41.1006ZM38.3879 41.1006C38.3879 38.8736 37.3391 37.6667 35.73 37.6667C34.1208 37.6667 33.0576 38.8736 33.0576 41.1006C33.0576 43.3275 34.1208 44.5344 35.73 44.5344C37.3391 44.5344 38.3879 43.3275 38.3879 41.1006Z" fill="#636CCC"/>
<path d="M27.9636 39.5201C27.7912 38.3707 26.9004 37.6667 25.6935 37.6667C24.07 37.6667 23.0068 38.9167 23.0068 41.1006C23.0068 43.3419 24.0844 44.5344 25.6792 44.5344C26.8717 44.5344 27.7481 43.8735 27.9636 42.7528L30.1475 42.7672C29.9032 44.6924 28.2941 46.4453 25.6504 46.4453C22.8631 46.4453 20.8086 44.4913 20.8086 41.1006C20.8086 37.7098 22.9063 35.7559 25.6504 35.7559C28.0498 35.7559 29.8601 37.1351 30.1475 39.5201H27.9636Z" fill="#636CCC"/>
</svg>
