<svg width="50" height="50" viewBox="0 0 50 50" fill="none" xmlns="http://www.w3.org/2000/svg">
<path d="M25.7601 26.1084V32.5205C26.6152 31.4516 28.1967 28.6732 27.684 26.1084C30.0354 26.536 34.866 28.6731 35.3793 33.8027C35.593 35.5127 35.6359 38.9332 34.097 38.9336H14.8578C14.644 38.2923 14.2162 36.3678 14.2162 33.8027C14.2167 30.5965 19.9832 26.1085 21.9095 26.1084C21.6959 27.1775 21.9102 29.9558 24.475 32.5205V26.1084H25.7601ZM11.0111 31.2383H12.9349C12.2936 32.0934 11.1389 34.5726 11.6517 37.6504H5.23963C4.59838 35.299 4.85478 30.0833 11.0111 28.0312V31.2383ZM38.1986 27.3906C45.164 29.5795 45.4544 35.1422 44.7289 37.6504H37.473C38.0534 34.3673 36.7474 31.7227 36.0219 30.8105H38.1986V27.3906ZM13.5756 29.3145H12.2924V28.0312H13.5756V29.3145ZM37.3051 28.6729H36.0228V27.3906H37.3051V28.6729ZM13.5746 17.1299C16.0538 17.13 18.0638 19.14 18.0638 21.6191C18.0638 24.0982 16.0537 26.1073 13.5746 26.1074C11.0954 26.1074 9.08542 24.0982 9.08533 21.6191C9.08533 19.14 11.0953 17.1299 13.5746 17.1299ZM36.6625 17.1299C39.1417 17.1299 41.1517 19.14 41.1517 21.6191C41.1516 24.0982 39.1417 26.1074 36.6625 26.1074C34.1835 26.1072 32.1743 24.0981 32.1742 21.6191C32.1742 19.1402 34.1834 17.1301 36.6625 17.1299ZM25.1195 12C28.3071 12.0001 30.891 14.584 30.891 17.7715C30.891 20.9589 28.3071 23.5429 25.1195 23.543C21.9319 23.543 19.348 20.9589 19.348 17.7715C19.348 14.584 21.9319 12 25.1195 12Z" fill="#06A85B"/>
</svg>
