<svg width="50" height="50" viewBox="0 0 50 50" fill="none" xmlns="http://www.w3.org/2000/svg">
<rect width="50" height="50" rx="25" fill="#06A85B"/>
<path d="M34.375 24.0615C37.4815 24.0615 39.9999 26.5801 40 29.6865C39.9998 31.694 38.947 33.4541 37.3643 34.4492L33.9062 39.0605L30.7139 33.9531C29.5132 32.9217 28.7502 31.3935 28.75 29.6865C28.7501 26.5806 31.2691 24.0622 34.375 24.0615ZM31.4082 10C34.0806 10 36.2471 12.1665 36.2471 14.8389V18.4375H37.1582C37.6925 18.4377 38.126 18.8709 38.126 19.4053V22.1562C38.126 22.6329 37.7809 23.0273 37.3271 23.1074C36.4193 22.7171 35.419 22.5001 34.3682 22.5C34.0532 22.5 33.7422 22.5209 33.4375 22.5586V17.5303C33.4375 16.9958 33.0042 16.5625 32.4697 16.5625H15.6553C15.121 16.5627 14.6875 16.996 14.6875 17.5303V24.0312C14.6875 24.5656 15.121 24.9988 15.6553 24.999H28.7803C27.5918 26.3261 26.8682 28.0785 26.8682 30C26.8683 32.0765 27.7152 33.9537 29.0791 35.3115H18.4375V36.249C18.4373 37.2843 17.5979 38.124 16.5625 38.124C15.5273 38.1238 14.6877 37.2842 14.6875 36.249V35.3086C13.6455 35.2778 12.8096 34.4254 12.8096 33.376V23.124H10.9678C10.4335 23.1238 10 22.6906 10 22.1562V19.4053C10 18.8709 10.4335 18.4377 10.9678 18.4375H12.8096V14.8389C12.8096 12.1666 14.9763 10.0002 17.6484 10H31.4082ZM34.377 26.874C32.8241 26.8745 31.5645 28.1337 31.5645 29.6865C31.5646 31.2393 32.8241 32.4986 34.377 32.499C35.9302 32.499 37.1893 31.2396 37.1895 29.6865C37.1894 28.1334 35.9302 26.874 34.377 26.874ZM16.5625 27.8115C15.5273 27.8117 14.6877 28.6514 14.6875 29.6865C14.6875 30.7219 15.5272 31.5613 16.5625 31.5615C17.598 31.5615 18.4375 30.722 18.4375 29.6865C18.4373 28.6512 17.5979 27.8115 16.5625 27.8115ZM21.249 12.8125C20.7316 12.8128 20.3116 13.2325 20.3115 13.75C20.3115 14.2676 20.7315 14.6872 21.249 14.6875H26.874C27.3918 14.6875 27.8115 14.2677 27.8115 13.75C27.8115 13.2323 27.3917 12.8125 26.874 12.8125H21.249Z" fill="white"/>
</svg>
