<svg width="30" height="30" viewBox="0 0 30 30" fill="none" xmlns="http://www.w3.org/2000/svg">
<path d="M15.31 14.279C16.6772 14.279 17.9884 14.8221 18.9552 15.7889C19.9219 16.7556 20.465 18.0668 20.465 19.434V25.62H10.155V19.434C10.155 18.0668 10.6981 16.7556 11.6649 15.7889C12.6316 14.8221 13.9428 14.279 15.31 14.279ZM8.38993 17.3782C8.22586 17.9316 8.12893 18.5028 8.10125 19.0794L8.093 19.434V25.62H5V20.9805C4.9998 20.0914 5.32789 19.2334 5.92134 18.5713C6.51479 17.9091 7.33181 17.4894 8.21569 17.3926L8.39096 17.3782H8.38993ZM22.2301 17.3782C23.1476 17.4341 24.0092 17.838 24.6391 18.5074C25.2691 19.1768 25.6199 20.0613 25.62 20.9805V25.62H22.527V19.434C22.527 18.7195 22.4239 18.0298 22.2301 17.3782ZM8.6085 11.186C9.2921 11.186 9.9477 11.4576 10.4311 11.9409C10.9144 12.4243 11.186 13.0799 11.186 13.7635C11.186 14.4471 10.9144 15.1027 10.4311 15.5861C9.9477 16.0695 9.2921 16.341 8.6085 16.341C7.92491 16.341 7.26931 16.0695 6.78593 15.5861C6.30256 15.1027 6.031 14.4471 6.031 13.7635C6.031 13.0799 6.30256 12.4243 6.78593 11.9409C7.26931 11.4576 7.92491 11.186 8.6085 11.186V11.186ZM22.0115 11.186C22.6951 11.186 23.3507 11.4576 23.8341 11.9409C24.3175 12.4243 24.589 13.0799 24.589 13.7635C24.589 14.4471 24.3175 15.1027 23.8341 15.5861C23.3507 16.0695 22.6951 16.341 22.0115 16.341C21.3279 16.341 20.6723 16.0695 20.189 15.5861C19.7056 15.1027 19.434 14.4471 19.434 13.7635C19.434 13.0799 19.7056 12.4243 20.189 11.9409C20.6723 11.4576 21.3279 11.186 22.0115 11.186V11.186ZM15.31 5C16.4038 5 17.4527 5.43449 18.2261 6.20789C18.9995 6.98129 19.434 8.03025 19.434 9.124C19.434 10.2178 18.9995 11.2667 18.2261 12.0401C17.4527 12.8135 16.4038 13.248 15.31 13.248C14.2163 13.248 13.1673 12.8135 12.3939 12.0401C11.6205 11.2667 11.186 10.2178 11.186 9.124C11.186 8.03025 11.6205 6.98129 12.3939 6.20789C13.1673 5.43449 14.2163 5 15.31 5V5Z" fill="#00A4AC"/>
</svg>
