<svg width="50" height="50" viewBox="0 0 50 50" fill="none" xmlns="http://www.w3.org/2000/svg">
<path d="M34.2529 24.7837C39.6485 24.7839 44.0225 29.1402 44.0225 34.5142C44.0223 39.888 39.6485 44.2444 34.2529 44.2446C28.8573 44.2446 24.4826 39.8881 24.4824 34.5142C24.4824 29.1401 28.8572 24.7838 34.2529 24.7837ZM6.01074 30.188C6.32603 30.5718 6.76879 30.9687 7.32617 31.3599C7.35838 31.3299 7.39154 31.2997 7.4248 31.27C7.77316 31.5807 8.18069 31.8747 8.63867 32.1509C11.0772 33.4299 14.7915 34.4793 19.3721 34.5103C20.3812 34.4982 21.3615 34.4322 22.3008 34.3208C22.3524 36.1931 22.822 37.9612 23.6162 39.5386C22.1887 39.7841 20.642 39.9194 19.0264 39.9194C12.8049 39.9194 7.60479 37.9266 6.31152 35.2642C6.20287 35.1914 6.10161 35.1211 6.01074 35.0532V34.2046C6.00432 34.1281 6.00002 34.0504 6 33.9731C6.00003 33.8953 6.00421 33.8168 6.01074 33.7397V30.188ZM33.1729 38.8394H35.3438V35.5952L33.1719 34.5132L33.1729 38.8394ZM28.8252 38.8384H30.9951V36.6763L28.8252 35.5942V38.8384ZM37.501 33.4312V38.8384H39.6719V31.8091L37.501 33.4312ZM35.2764 32.769L32.501 31.1089L32.2041 31.4644L29.4902 34.7085L30.3232 35.4009L32.7393 32.5122L35.3906 34.0972L39.4863 30.6001L38.7803 29.7778L35.2764 32.769ZM6.01074 22.6196C6.3259 23.0033 6.76813 23.4004 7.3252 23.7915C7.35743 23.7615 7.39053 23.7314 7.42383 23.7017C7.77387 24.014 8.18375 24.3091 8.64453 24.5864C11.0769 25.8607 14.7763 26.9058 19.3369 26.9419C21.3633 26.9202 23.2744 26.686 24.9697 26.2876C23.6546 27.9506 22.7547 29.9545 22.4307 32.146C21.3455 32.2798 20.2042 32.3511 19.0264 32.3511C12.8065 32.351 7.60751 30.3592 6.3125 27.6978C6.20325 27.6247 6.10205 27.5531 6.01074 27.4849V26.6362C6.00427 26.5593 6 26.4815 6 26.4038C6.00003 26.3262 6.00423 26.2483 6.01074 26.1714V22.6196ZM32.0645 18.8364C32.0604 18.8374 32.0558 18.8374 32.0518 18.8384C32.0483 22.1212 26.2186 24.7817 19.0264 24.7817C11.8324 24.7817 6.00046 22.1194 6 18.8354C6.00003 18.7556 6.00387 18.6753 6.01074 18.5962V13.9712C6.45561 14.5127 7.15299 15.0805 8.07129 15.6206C8.08419 15.6115 8.09735 15.6014 8.11035 15.5923C8.28115 15.7118 8.46174 15.8286 8.65039 15.9419C11.0632 17.2044 14.7206 18.2406 19.2266 18.2925C22.473 18.2701 25.4295 17.7034 27.6846 16.7856C27.8697 16.7096 28.0499 16.632 28.2246 16.5532C28.8664 16.2606 29.4437 15.9404 29.9414 15.5923C29.9563 15.6027 29.9715 15.614 29.9863 15.6245C30.9691 15.0203 31.6659 14.4247 32.0645 13.9712V18.8364ZM19.0381 4.23975C26.2317 4.23982 32.0633 6.90233 32.0645 10.186C32.0645 13.4702 26.2324 16.1332 19.0381 16.1333C11.8437 16.1333 6.01074 13.4702 6.01074 10.186C6.01186 6.90228 11.8444 4.23975 19.0381 4.23975Z" fill="#636CCC"/>
</svg>
