<svg width="34" height="34" viewBox="0 0 34 34" fill="none" xmlns="http://www.w3.org/2000/svg">
<circle cx="17" cy="17" r="17" fill="#E7F4FE"/>
<path d="M16.3369 10.8389C16.9821 10.8389 17.3046 12.452 17.3047 13.4199C17.305 14.1935 18.1653 14.3875 18.5957 14.3877H20.5312C21.4989 14.3877 21.5 15.3557 21.5 15.6787C21.4988 15.9362 20.8536 16.001 20.5312 16.001C21.3056 17.0333 21.5 19.6576 21.5 20.8408C24.0799 21.8083 23.7589 22.4536 24.4033 23.0986C24.9196 23.6148 24.6184 23.9598 24.4033 24.0674H23.6758C23.729 24.2738 23.7607 24.4899 23.7607 24.7129C23.7606 26.1381 22.605 27.2936 21.1797 27.2939C19.7543 27.2938 18.5978 26.1382 18.5977 24.7129V24.7119H14.4014L14.0801 24.6924C14.0802 24.699 14.082 24.7062 14.082 24.7129C14.0819 26.1382 12.9264 27.2938 11.501 27.2939C10.0756 27.2937 8.92005 26.1382 8.91992 24.7129C8.91994 24.6039 8.92827 24.4961 8.94141 24.3906L8.91504 24.3896C8.14187 24.3893 7.94744 23.9593 7.94727 23.7441C7.68991 22.7122 8.91516 21.3788 9.56055 20.8408H8.91504V20.5176H14.7236V23.7441H15.6914L16.3369 19.873L14.0781 19.5498C11.7561 19.2915 11.8191 17.7217 12.1416 16.9688L13.1104 14.0654C13.3684 11.4857 14.5079 10.8394 15.0459 10.8389H16.3369ZM11.5107 23.4219C10.7982 23.4221 10.2209 24.0004 10.2207 24.7129C10.221 25.4253 10.7983 26.0027 11.5107 26.0029C12.2232 26.0027 12.8015 25.4253 12.8018 24.7129C12.8016 24.0004 12.2233 23.4221 11.5107 23.4219ZM21.1895 23.4219C20.4768 23.422 19.8986 24.0004 19.8984 24.7129C19.8987 25.4254 20.4769 26.0028 21.1895 26.0029C21.9018 26.0026 22.4792 25.4252 22.4795 24.7129C22.4793 24.0005 21.9019 23.4222 21.1895 23.4219ZM16.0156 14.3877C16.0155 15.4199 15.5852 16.7532 15.3701 17.291C15.9077 17.506 17.1123 18.0006 17.6289 18.2588C18.145 18.5168 18.0596 19.4416 17.9521 19.8721L17.3066 23.7441H18.5967C18.5971 23.6352 18.792 22.8377 19.5654 20.5176C20.3397 18.1948 19.8881 16.323 19.5654 15.6777H17.6289C17.3699 15.6762 16.4455 14.8175 16.0156 14.3877ZM26.998 20.1963H22.4805V15.0342H26.998V20.1963ZM11.5176 18.9053H9.58105V20.1953H8.93555V18.9053H7V13.7432H11.5176V18.9053ZM23.7695 17.6152H24.7383L24.0928 19.2285L26.0283 17.292H24.7383L25.0605 15.6787L23.7695 17.6152ZM8.28906 16.3232H9.25684L8.61133 17.9365L10.5479 16.001H9.25684L9.58008 14.3877L8.28906 16.3232ZM16.6738 6C17.2116 6 18.3522 6.25856 18.6104 7.29102H19.2559C19.3635 7.29111 19.5781 7.35536 19.5781 7.61328C19.5781 7.87114 19.3635 7.93545 19.2559 7.93555H16.6738C16.6738 8.25813 16.8033 8.90308 17.3193 8.90332C17.8356 8.90332 17.9648 8.6886 17.9648 8.58105H18.6104C18.6104 9.22632 18.2876 10.5165 16.9971 10.5166C15.3837 10.5166 14.7383 8.90347 14.7383 7.93555C14.7384 7.29023 15.1257 6.00026 16.6738 6Z" fill="#06A85B"/>
</svg>
