<svg width="50" height="50" viewBox="0 0 50 50" fill="none" xmlns="http://www.w3.org/2000/svg">
<rect width="50" height="50" rx="25" fill="#EC8913"/>
<path d="M24.6739 8.99399C25.1457 8.64519 25.805 8.67046 26.25 9.06919C29.3418 11.8408 33.1715 13.6254 37.2569 14.201C37.8735 14.2881 38.3319 14.8156 38.3321 15.4383V25.6903C38.3321 29.4444 36.6139 32.636 34.25 35.1922C31.8916 37.7426 28.8323 39.729 25.9629 41.1239C25.6195 41.2908 25.2182 41.2924 24.8741 41.1268C21.9747 39.7313 18.909 37.7435 16.5538 35.1913C14.1928 32.6328 12.4899 29.4405 12.5 25.6874V15.4383C12.5002 14.8154 12.9594 14.2879 13.5762 14.201C17.6614 13.6254 21.4904 11.8407 24.5821 9.06919L24.6739 8.99399ZM25.4161 11.6424C22.3949 14.107 18.8163 15.7751 15 16.4969V25.6942C14.9921 28.636 16.3168 31.2486 18.3907 33.4959C20.331 35.5985 22.8786 37.3228 25.4131 38.6043C27.9256 37.3224 30.47 35.5983 32.4151 33.495C34.4954 31.2453 35.8321 28.6313 35.8321 25.6903V16.4969C32.0159 15.775 28.4372 14.107 25.4161 11.6424ZM21.6661 22.0829C23.666 19.7498 29.3039 19.444 31.6651 19.5829C31.804 21.3884 31.4991 25.7498 29.1661 28.7499C26.8331 31.7496 23.4722 31.1112 22.0831 30.4168L20.8331 31.6668C20.1664 32.0002 19.722 31.5276 19.5831 31.2499L27.0821 23.3329L20.4161 28.7499C20.1383 27.4998 19.6662 24.4162 21.6661 22.0829Z" fill="white"/>
</svg>
