<svg width="50" height="50" viewBox="0 0 50 50" fill="none" xmlns="http://www.w3.org/2000/svg">
<rect width="50" height="50" rx="25" fill="#636CCC"/>
<path d="M14.5166 33.4873C15.8305 33.4875 16.8955 34.5532 16.8955 35.8672C16.8953 37.1809 15.8303 38.2459 14.5166 38.2461C13.2027 38.2461 12.137 37.1811 12.1367 35.8672C12.1367 34.5531 13.2025 33.4873 14.5166 33.4873Z" fill="white" stroke="white" stroke-width="0.0938977"/>
<path d="M24.6572 35.1943C25.9711 35.1946 27.0361 36.2603 27.0361 37.5742C27.0359 38.888 25.971 39.9529 24.6572 39.9531C23.3433 39.9531 22.2776 38.8881 22.2773 37.5742C22.2773 36.2601 23.3431 35.1943 24.6572 35.1943Z" fill="white" stroke="white" stroke-width="0.0938977"/>
<path d="M34.2002 33.5537C35.5141 33.5539 36.5791 34.6197 36.5791 35.9336C36.5789 37.2473 35.5139 38.3123 34.2002 38.3125C32.8863 38.3125 31.8206 37.2475 31.8203 35.9336C31.8203 34.6195 32.8861 33.5537 34.2002 33.5537Z" fill="white" stroke="white" stroke-width="0.0938977"/>
<path d="M21.2218 28.9551L14.9297 35.4481" stroke="white" stroke-width="2.25" stroke-miterlimit="10" stroke-linecap="round"/>
<path d="M24.5005 37.121L24.3672 33.105" stroke="white" stroke-width="2.25" stroke-miterlimit="10" stroke-linecap="round"/>
<path d="M29.4258 30.9292L32.839 34.3771" stroke="white" stroke-width="2.25" stroke-miterlimit="10" stroke-linecap="round"/>
<path d="M15.3682 30.7291C12.3371 30.7291 9.87891 28.2718 9.87891 25.2398C9.87891 22.2079 12.3362 19.7506 15.3682 19.7506C15.3682 19.7506 15.0668 19.6501 15.1006 17.3073C15.1484 13.9618 18.3748 11.25 22.4133 11.25C25.4988 11.25 28.1383 12.8331 29.2124 15.0726L29.7599 15.4341C33.2942 15.4341 34.974 17.0238 35.3383 19.6623L35.5449 19.7956C37.9299 20.7938 39.5656 22.8417 39.5656 25.206C39.5656 27.9816 37.3571 31.1638 34.2444 30.6277" stroke="white" stroke-width="2.25" stroke-linecap="round" stroke-linejoin="round"/>
<path d="M28.9922 26.873L28.9707 26.8525L28.959 26.9453C28.6577 29.3287 26.6253 31.1727 24.1602 31.1729C21.4875 31.1729 19.3204 29.0056 19.3203 26.333C19.3203 23.9311 21.0713 21.9382 23.3662 21.5596L23.3691 21.5586L29.2637 20.2891L28.9922 26.873ZM26.543 23.0312C26.5141 23.0293 26.4839 23.0419 26.457 23.0576C26.2529 23.1769 25.7989 23.5139 25.3984 23.8184C25.1976 23.971 25.0092 24.1164 24.8711 24.2236C24.802 24.2773 24.7453 24.3219 24.7061 24.3525C24.6864 24.3679 24.6706 24.3795 24.6602 24.3877C24.655 24.3917 24.6511 24.3954 24.6484 24.3975C24.6473 24.3984 24.6461 24.3989 24.6455 24.3994H24.6445L24.6396 24.4043L21.8369 27.2842L21.8359 27.2852C21.5936 27.5475 21.5444 27.9478 21.7441 28.248C21.8478 28.4036 21.9805 28.4858 22.1211 28.5186C22.2602 28.551 22.4043 28.5347 22.5322 28.501C22.6605 28.4671 22.7758 28.4148 22.8584 28.3711C22.8997 28.3492 22.9328 28.3289 22.9561 28.3145C22.9676 28.3073 22.9771 28.302 22.9834 28.2979C22.9863 28.2959 22.9886 28.2941 22.9902 28.293L22.9922 28.291H22.9932L22.9941 28.292L23.002 28.2832V28.2822L23.0039 28.2812C23.005 28.28 23.0058 28.2777 23.0078 28.2754C23.0119 28.2707 23.0184 28.264 23.0264 28.2549C23.0424 28.2364 23.0657 28.2086 23.0957 28.1738C23.1559 28.1042 23.243 28.0044 23.3477 27.8828C23.5569 27.6396 23.839 27.31 24.1318 26.9648C24.7006 26.2945 25.3116 25.5603 25.5 25.2871H25.502L25.5166 25.2656C25.685 25.013 26.037 24.4172 26.2969 23.9141C26.4265 23.6631 26.5345 23.4319 26.585 23.2773C26.5975 23.2388 26.6072 23.204 26.6123 23.1738C26.6172 23.1449 26.6195 23.1141 26.6123 23.0889C26.6085 23.0757 26.6015 23.0612 26.5889 23.0498C26.5756 23.0379 26.559 23.0324 26.543 23.0312Z" fill="white" stroke="white" stroke-width="0.0938977"/>
</svg>
