<svg width="40" height="40" viewBox="0 0 40 40" fill="none" xmlns="http://www.w3.org/2000/svg">
<circle cx="20" cy="20" r="20" fill="#EDF6F8"/>
<path d="M27.7236 23.2002H29C30.6568 23.2002 31.9999 24.5434 32 26.2002V27.5996C32 28.5766 31.2992 29.3886 30.373 29.5635C30.1947 30.9379 29.0227 32 27.5996 32C26.1892 31.9998 25.0262 30.9563 24.832 29.5996H15.9678C15.7736 30.9564 14.6106 31.9999 13.2002 32C11.7828 32 10.6133 30.9466 10.4277 29.5801C9.06152 29.4237 8.00014 28.2655 8 26.8574C8.00011 24.8377 9.63751 23.2002 11.6572 23.2002H11.8994L15.2002 18.7998H24L27.7236 23.2002ZM13.2021 28C12.5395 28 12.0021 28.5375 12.002 29.2002C12.0021 29.8628 12.5395 30.4004 13.2021 30.4004C13.8646 30.4001 14.4022 29.8627 14.4023 29.2002C14.4022 28.5377 13.8646 28.0003 13.2021 28ZM27.6016 28C26.9391 28.0002 26.4024 28.5377 26.4023 29.2002C26.4024 29.8627 26.9391 30.4002 27.6016 30.4004C28.2641 30.4002 28.8017 29.8627 28.8018 29.2002C28.8017 28.5377 28.2641 28.0002 27.6016 28ZM13.6025 25.2793C13.0255 25.2794 12.5831 25.5236 12.2725 25.8184C11.9677 26.1078 11.7809 26.4538 11.6992 26.6982L12.3066 26.9014C12.3586 26.7459 12.4918 26.4922 12.7129 26.2822C12.9288 26.0773 13.2202 25.92 13.6025 25.9199C13.9849 25.92 14.2763 26.0773 14.4922 26.2822C14.7133 26.4922 14.8465 26.7459 14.8984 26.9014L15.5068 26.6982C15.4253 26.4539 15.2382 26.1078 14.9336 25.8184C14.623 25.5235 14.1796 25.2794 13.6025 25.2793ZM27.2031 25.2793C26.626 25.2793 26.1827 25.5236 25.8721 25.8184C25.5674 26.1078 25.3804 26.4538 25.2988 26.6982L25.9062 26.9014C25.9581 26.746 26.0914 26.4922 26.3125 26.2822C26.5285 26.0773 26.8206 25.9199 27.2031 25.9199C27.5853 25.9201 27.8769 26.0773 28.0928 26.2822C28.3138 26.4922 28.4472 26.746 28.499 26.9014L29.1064 26.6982C29.0249 26.4539 28.8379 26.1078 28.5332 25.8184C28.2227 25.5236 27.78 25.2795 27.2031 25.2793ZM13.6016 24H19.2021V20H16.2148L13.6016 24ZM20.8018 24H26.4023L23.7891 20H20.8018V24ZM10.7988 16.7998C11.1481 13.6091 13.9986 13.4019 15.5986 13.6973C14.5518 14.4066 14.2901 16.061 14.29 16.7998H10.7988ZM20.3994 12.4004C22.9589 12.7206 23.5986 15.4665 23.5986 16.7998H15.1992C15.1993 13.6003 17.5987 12.5339 18.7988 12.4004C18.799 12.6671 18.9594 13.1999 19.5986 13.2002C20.2383 13.2002 20.3993 12.6672 20.3994 12.4004ZM23.999 13.6973C25.599 13.4018 28.4495 13.6088 28.7988 16.7998H25.3086C25.3085 16.061 25.0462 14.4064 23.999 13.6973ZM14.3994 9.59961C15.2829 9.59982 15.999 10.3167 15.999 11.2002C15.9989 12.0836 15.2828 12.7996 14.3994 12.7998C13.5159 12.7997 12.7989 12.0837 12.7988 11.2002C12.7988 10.3166 13.5158 9.59971 14.3994 9.59961ZM25.5986 9.59961C26.4823 9.59961 27.1992 10.3165 27.1992 11.2002C27.1991 12.0838 26.4822 12.7998 25.5986 12.7998C24.7153 12.7995 23.9991 12.0836 23.999 11.2002C23.999 10.3167 24.7152 9.59993 25.5986 9.59961ZM19.5986 8C20.7032 8 21.5986 8.89543 21.5986 10C21.5986 11.1046 20.7032 12 19.5986 12C18.4943 11.9997 17.5986 11.1044 17.5986 10C17.5986 8.89563 18.4943 8.00032 19.5986 8Z" fill="#268097"/>
</svg>
