<svg width="30" height="30" viewBox="0 0 30 30" fill="none" xmlns="http://www.w3.org/2000/svg">
<path d="M8.82422 9.78516C8.83369 9.77561 8.84766 9.75684 8.84766 9.75684L22.2861 23.1992L22.2959 23.2041C22.2868 23.2132 22.2725 23.2266 22.2715 23.2275L25.5508 26.5068L24.3145 27.7432L21.2578 24.6875V25.1611C21.2578 25.7392 20.7882 26.2031 20.2148 26.2031H11.6006C11.0226 26.203 10.5586 25.7344 10.5586 25.1611V23.9248C9.07083 23.3136 8.02359 21.8541 8.02344 20.1484V12.2119C8.02344 11.975 8.04705 11.7422 8.08496 11.5195L5 8.43457L6.2373 7.19824L8.82422 9.78516ZM19.8564 3C20.3208 3.00001 20.7002 3.37941 20.7002 3.84375C20.7001 4.30805 20.3208 4.68749 19.8564 4.6875H19.4209V8.12695H19.6006C21.8513 8.12697 23.6807 9.95162 23.6807 12.207V20.1436C23.6806 20.7263 23.5519 21.276 23.334 21.7734L10.1758 8.61523C10.7539 8.30251 11.4081 8.12207 12.1094 8.12207H12.4033V4.6875H11.9668C11.5025 4.68744 11.1231 4.30802 11.123 3.84375C11.123 3.37944 11.5025 3.00006 11.9668 3H19.8564ZM13.6865 4.6875V8.12207H15.3359V6.6582H15C14.7536 6.6582 14.5498 6.4544 14.5498 6.20801C14.5498 5.96164 14.7536 5.75781 15 5.75781H16.5205C16.7669 5.75781 16.9707 5.96164 16.9707 6.20801C16.9707 6.4544 16.7669 6.6582 16.5205 6.6582H16.2412V8.12207H18.1172V4.6875H13.6865Z" fill="#6A90E1"/>
</svg>
