<svg width="34" height="34" viewBox="0 0 34 34" fill="none" xmlns="http://www.w3.org/2000/svg">
<circle cx="17" cy="17" r="17" fill="#ECF2FE"/>
<path d="M22.8184 24.0908H10.4541L9 13.9092H24.2725L22.8184 24.0908ZM14.0908 15.3633C13.6895 15.3635 13.3635 15.6895 13.3633 16.0908V21.9082C13.3633 22.3097 13.6894 22.6355 14.0908 22.6357C14.4925 22.6357 14.8183 22.3098 14.8184 21.9082V16.0908C14.8182 15.6893 14.4924 15.3633 14.0908 15.3633ZM17 15.3633C16.5986 15.3635 16.2727 15.6894 16.2725 16.0908V21.9082C16.2725 22.3097 16.5985 22.6356 17 22.6357C17.4016 22.6357 17.7275 22.3098 17.7275 21.9082V16.0908C17.7273 15.6893 17.4015 15.3633 17 15.3633ZM19.9092 15.3633C19.5078 15.3635 19.1818 15.6894 19.1816 16.0908V21.9082C19.1817 22.3097 19.5077 22.6356 19.9092 22.6357C20.3108 22.6357 20.6367 22.3098 20.6367 21.9082V16.0908C20.6365 15.6894 20.3107 15.3633 19.9092 15.3633ZM24 12H9V11H24V12Z" fill="#268097"/>
</svg>
