<svg width="34" height="34" viewBox="0 0 34 34" fill="none" xmlns="http://www.w3.org/2000/svg">
<circle cx="17" cy="17" r="17" fill="#F2EAFE"/>
<g clip-path="url(#clip0_274_5177)">
<path d="M23.4154 23.3332H10.582V24.2498C10.582 24.493 10.4855 24.7261 10.3135 24.898C10.1416 25.0699 9.90848 25.1665 9.66536 25.1665H8.7487C8.50558 25.1665 8.27243 25.0699 8.10052 24.898C7.92861 24.7261 7.83203 24.493 7.83203 24.2498V15.9998L10.1356 9.85634C10.2666 9.50681 10.5012 9.2056 10.808 8.99298C11.1148 8.78036 11.4793 8.66646 11.8525 8.6665H22.1449C22.5181 8.66646 22.8825 8.78036 23.1894 8.99298C23.4962 9.2056 23.7308 9.50681 23.8618 9.85634L26.1654 15.9998V24.2498C26.1654 24.493 26.0688 24.7261 25.8969 24.898C25.725 25.0699 25.4918 25.1665 25.2487 25.1665H24.332C24.0889 25.1665 23.8558 25.0699 23.6838 24.898C23.5119 24.7261 23.4154 24.493 23.4154 24.2498V23.3332ZM9.79003 15.9998H24.2074L22.1449 10.4998H11.8525L9.79003 15.9998ZM11.957 20.5832C12.3217 20.5832 12.6714 20.4383 12.9293 20.1804C13.1872 19.9226 13.332 19.5728 13.332 19.2082C13.332 18.8435 13.1872 18.4938 12.9293 18.2359C12.6714 17.978 12.3217 17.8332 11.957 17.8332C11.5924 17.8332 11.2426 17.978 10.9848 18.2359C10.7269 18.4938 10.582 18.8435 10.582 19.2082C10.582 19.5728 10.7269 19.9226 10.9848 20.1804C11.2426 20.4383 11.5924 20.5832 11.957 20.5832V20.5832ZM22.0404 20.5832C22.405 20.5832 22.7548 20.4383 23.0126 20.1804C23.2705 19.9226 23.4154 19.5728 23.4154 19.2082C23.4154 18.8435 23.2705 18.4938 23.0126 18.2359C22.7548 17.978 22.405 17.8332 22.0404 17.8332C21.6757 17.8332 21.326 17.978 21.0681 18.2359C20.8102 18.4938 20.6654 18.8435 20.6654 19.2082C20.6654 19.5728 20.8102 19.9226 21.0681 20.1804C21.326 20.4383 21.6757 20.5832 22.0404 20.5832V20.5832Z" fill="#9637FB"/>
</g>
<defs>
<clipPath id="clip0_274_5177">
<rect width="22" height="22" fill="white" transform="translate(6 5)"/>
</clipPath>
</defs>
</svg>
