<svg width="18" height="19" viewBox="0 0 18 19" fill="none" xmlns="http://www.w3.org/2000/svg">
<path d="M11 0C13.7614 6.44256e-08 16 2.23858 16 5V15C16 15.8335 15.4895 16.5462 14.7646 16.8467L16 18H17.5C17.7761 18 18 18.2239 18 18.5C18 18.7761 17.7761 19 17.5 19H0.5C0.223858 19 0 18.7761 0 18.5C0 18.2239 0.223858 18 0.5 18H3L4.07129 17H4C2.89543 17 2 16.1046 2 15V5C2 2.23858 4.23858 6.44256e-08 7 0H11ZM4.71387 18H14.2861L13.6436 17H5.35645L4.71387 18ZM5.5 12C4.67157 12 4 12.6716 4 13.5C4 14.3284 4.67157 15 5.5 15C6.32843 15 7 14.3284 7 13.5C7 12.6716 6.32843 12 5.5 12ZM12.5 12C11.6716 12 11 12.6716 11 13.5C11 14.3284 11.6716 15 12.5 15C13.3284 15 14 14.3284 14 13.5C14 12.6716 13.3284 12 12.5 12ZM8.5 11C8.22386 11 8 11.2239 8 11.5C8 11.7761 8.22386 12 8.5 12H9.5C9.77614 12 10 11.7761 10 11.5C10 11.2239 9.77614 11 9.5 11H8.5ZM4 4C3.44772 4 3 4.44772 3 5V9C3 9.55228 3.44772 10 4 10H14C14.5523 10 15 9.55228 15 9V5C15 4.44772 14.5523 4 14 4H4ZM6.5 2C6.22386 2 6 2.22386 6 2.5C6 2.77614 6.22386 3 6.5 3H11.5C11.7761 3 12 2.77614 12 2.5C12 2.22386 11.7761 2 11.5 2H6.5Z" fill="#1F687A"/>
</svg>
