<svg width="40" height="40" viewBox="0 0 40 40" fill="none" xmlns="http://www.w3.org/2000/svg">
<circle cx="20" cy="20" r="20" fill="#EAF6EC"/>
<path d="M12.9102 22.8174C14.4328 22.8176 15.6678 24.0526 15.668 25.5752C15.6678 27.0978 14.4328 28.3318 12.9102 28.332C11.3873 28.332 10.1526 27.0979 10.1523 25.5752C10.1525 24.0525 11.3873 22.8174 12.9102 22.8174ZM27.0918 22.8174C28.6145 22.8174 29.8492 24.0517 29.8496 25.5742C29.8496 27.0971 28.6148 28.332 27.0918 28.332C25.569 28.3318 24.334 27.097 24.334 25.5742C24.3344 24.0519 25.5693 22.8176 27.0918 22.8174ZM12.9102 24.3926C12.2577 24.3926 11.7289 24.9219 11.7285 25.5742C11.7285 26.2269 12.2575 26.7559 12.9102 26.7559C13.5628 26.7558 14.0918 26.2268 14.0918 25.5742C14.0914 24.9219 13.5625 24.3927 12.9102 24.3926ZM27.0918 24.3926C26.4397 24.393 25.9105 24.9221 25.9102 25.5742C25.9102 26.2266 26.4394 26.7555 27.0918 26.7559C27.7445 26.7559 28.2744 26.2269 28.2744 25.5742C28.274 24.9219 27.7443 24.3926 27.0918 24.3926ZM29.21 11C30.8668 11 32.21 12.3431 32.21 14V23.0283C32.6819 23.3005 33 23.8096 33 24.3936C32.9999 25.2636 32.2948 25.9685 31.4248 25.9688H30.6143C30.6286 25.8393 30.6367 25.7075 30.6367 25.5742C30.6364 23.6166 29.0495 22.0295 27.0918 22.0293C25.1339 22.0293 23.5463 23.6165 23.5459 25.5742C23.5459 25.7075 23.554 25.8393 23.5684 25.9688H16.4336C16.4479 25.8393 16.4561 25.7075 16.4561 25.5742C16.4557 23.6166 14.868 22.0294 12.9102 22.0293C10.9524 22.0295 9.36559 23.6166 9.36523 25.5742C9.36523 25.7075 9.37337 25.8393 9.3877 25.9688H8.5752C7.70524 25.9685 7.00007 25.2636 7 24.3936C7 23.8112 7.31628 23.303 7.78613 23.0303V14C7.78613 12.3432 9.1293 11 10.7861 11H29.21ZM19.6074 22.3447H20.5537L19.9229 23.9199L21.8135 22.0293H20.5537L20.8682 20.4541L19.6074 22.3447ZM10.0039 19H16.0039V13H10.0039V19ZM16.9824 19H22.9824V13H16.9824V19ZM23.8496 19H29.8496V13H23.8496V19Z" fill="#06A85B"/>
</svg>
