<svg width="50" height="50" viewBox="0 0 50 50" fill="none" xmlns="http://www.w3.org/2000/svg">
<path d="M36.0427 37.2393C37.2453 37.2393 38.0752 37.7347 38.7214 38.0723C39.3561 38.4038 39.9564 38.6806 40.9509 38.6807C41.772 38.6807 42.2528 38.4952 42.5486 38.3105C42.8551 38.1191 43.04 37.8856 43.239 37.625C43.5681 37.1947 44.1833 37.1126 44.614 37.4414C45.0446 37.7704 45.1274 38.3856 44.7986 38.8164C44.5887 39.0912 44.2214 39.5799 43.5876 39.9756C42.9427 40.3782 42.093 40.6445 40.9509 40.6445C39.4922 40.6445 38.5586 40.2019 37.8132 39.8125C37.0791 39.429 36.6805 39.2021 36.0427 39.2021C35.3534 39.2022 35.1201 39.3651 34.3611 39.6602C33.5671 39.9688 32.5411 40.2509 30.5867 40.251C28.6241 40.2509 27.7117 39.9653 26.9568 39.6514C26.5946 39.5007 26.4023 39.4072 26.1267 39.3301C25.8748 39.2596 25.5387 39.2021 24.9997 39.2021C23.9621 39.2022 23.4894 39.4073 22.8181 39.6621C22.0496 39.9538 21.1618 40.251 19.4783 40.251C17.5153 40.2509 16.6158 39.9661 15.8718 39.6484C15.5162 39.4966 15.3357 39.405 15.0691 39.3291C14.8262 39.26 14.496 39.2021 13.9568 39.2021C13.414 39.2022 13.1103 39.2605 12.9158 39.3213C12.7144 39.3843 12.5866 39.4602 12.3191 39.6064C12.0469 39.7552 11.7047 39.9294 11.199 40.0566C10.7071 40.1803 10.0989 40.251 9.27904 40.251C8.439 40.2509 7.5723 40.0925 6.88646 39.8926C6.54241 39.7923 6.21963 39.6753 5.95384 39.5479C5.82177 39.4845 5.68576 39.41 5.56224 39.3242C5.4564 39.2507 5.27892 39.1143 5.14818 38.9043C4.8621 38.4443 5.003 37.8393 5.46263 37.5527C5.87108 37.2986 6.39315 37.3812 6.70579 37.7246C6.72554 37.7363 6.75664 37.7544 6.80247 37.7764C6.94638 37.8454 7.16289 37.9284 7.43529 38.0078C7.98262 38.1673 8.66232 38.2871 9.27904 38.2871C9.99279 38.2871 10.4301 38.2251 10.7195 38.1523C10.9946 38.0832 11.1707 37.9959 11.3777 37.8828C11.5891 37.7672 11.903 37.5816 12.3288 37.4482C12.7621 37.3127 13.2735 37.2393 13.9568 37.2393C14.6443 37.2393 15.159 37.3141 15.6062 37.4414C16.0292 37.5619 16.3858 37.7328 16.6433 37.8428C17.1262 38.0489 17.7612 38.2871 19.4783 38.2871C20.862 38.2871 21.5091 38.0593 22.1208 37.8271C22.8295 37.5582 23.5841 37.2393 24.9997 37.2393C25.6877 37.2393 26.2045 37.3135 26.655 37.4395C27.0815 37.5588 27.4434 37.7277 27.7107 37.8389C28.215 38.0486 28.8698 38.2871 30.5867 38.2871C32.3122 38.2871 33.0954 38.0453 33.6492 37.8301C34.2376 37.6013 34.8923 37.2393 36.0427 37.2393ZM36.0427 30.4912C37.2453 30.4912 38.0752 30.9866 38.7214 31.3242C39.3561 31.6558 39.9565 31.9326 40.9509 31.9326C41.772 31.9326 42.2528 31.7471 42.5486 31.5625C42.8552 31.371 43.0399 31.1376 43.239 30.877C43.568 30.4464 44.1832 30.3636 44.614 30.6924C45.0448 31.0214 45.1275 31.6375 44.7986 32.0684C44.5887 32.3431 44.2211 32.831 43.5876 33.2266C42.9427 33.6292 42.093 33.8965 40.9509 33.8965C39.492 33.8964 38.5587 33.4529 37.8132 33.0635C37.0791 32.68 36.6805 32.4541 36.0427 32.4541C35.3535 32.4542 35.1199 32.6161 34.3611 32.9111C33.5671 33.2198 32.5411 33.5019 30.5867 33.502C28.6241 33.5019 27.7117 33.2173 26.9568 32.9033C26.5945 32.7526 26.4023 32.6592 26.1267 32.582C25.8748 32.5116 25.5387 32.4541 24.9997 32.4541C23.9621 32.4542 23.4894 32.6593 22.8181 32.9141C22.0496 33.2057 21.1617 33.502 19.4783 33.502C17.5153 33.5019 16.6158 33.2171 15.8718 32.8994C15.5163 32.7476 15.3356 32.657 15.0691 32.5811C14.8262 32.5119 14.4961 32.4541 13.9568 32.4541C13.414 32.4541 13.1103 32.5115 12.9158 32.5723C12.7143 32.6353 12.5867 32.7111 12.3191 32.8574C12.0468 33.0062 11.7049 33.1813 11.199 33.3086C10.7071 33.4323 10.0989 33.502 9.27904 33.502C8.43905 33.5019 7.57229 33.3444 6.88646 33.1445C6.54241 33.0442 6.21963 32.9262 5.95384 32.7988C5.82184 32.7355 5.68569 32.6619 5.56224 32.5762C5.45635 32.5026 5.27903 32.3656 5.14818 32.1553C4.86205 31.6952 5.0028 31.0902 5.46263 30.8037C5.87108 30.5496 6.39315 30.6332 6.70579 30.9766C6.72556 30.9882 6.75675 31.0064 6.80247 31.0283C6.94637 31.0973 7.16297 31.1794 7.43529 31.2588C7.98264 31.4183 8.66227 31.5381 9.27904 31.5381C9.9927 31.5381 10.4301 31.477 10.7195 31.4043C10.9946 31.3351 11.1707 31.2479 11.3777 31.1348C11.5891 31.0192 11.9029 30.8326 12.3288 30.6992C12.762 30.5637 13.2736 30.4912 13.9568 30.4912C14.6443 30.4912 15.159 30.5651 15.6062 30.6924C16.0292 30.8128 16.3858 30.9838 16.6433 31.0938C17.1262 31.2999 17.7612 31.538 19.4783 31.5381C20.8621 31.5381 21.5091 31.3103 22.1208 31.0781C22.8295 30.8092 23.5842 30.4913 24.9997 30.4912C25.6877 30.4912 26.2045 30.5654 26.655 30.6914C27.0814 30.8107 27.4435 30.9787 27.7107 31.0898C28.215 31.2996 28.8697 31.5381 30.5867 31.5381C32.3122 31.5381 33.0954 31.2972 33.6492 31.082C34.2376 30.8533 34.8922 30.4913 36.0427 30.4912ZM25.0007 10C35.1654 10 43.4059 13.8454 43.406 18.5889C43.406 19.7345 42.9238 20.8268 42.0515 21.8262C42.9126 22.5559 43.1609 23.5588 43.1609 24.1104V28.4043C43.1609 28.9464 42.7215 29.3857 42.1794 29.3857C41.6375 29.3855 41.199 28.9463 41.199 28.4043V24.1104C41.199 24.068 41.1772 23.8877 41.0671 23.6797C40.9716 23.4993 40.8163 23.3139 40.5603 23.1738C37.2983 25.5783 31.5502 27.1777 25.0007 27.1777C18.9375 27.1777 13.56 25.8082 10.2068 23.6973C10.1727 23.72 10.1379 23.7429 10.1003 23.7617C9.81622 23.904 9.64972 24.1029 9.54857 24.2939C9.43865 24.5016 9.41678 24.681 9.41673 24.7236V29.0186C9.41658 29.5605 8.97722 29.9999 8.43529 30C7.89326 30 7.45399 29.5605 7.45384 29.0186V24.7236C7.45389 24.174 7.69974 23.1753 8.55345 22.4463C7.30153 21.2862 6.59544 19.9763 6.59544 18.5889C6.59556 13.8454 14.836 10 25.0007 10ZM36.9753 14.2012C37.9469 14.9636 38.4976 15.8288 38.4978 16.748C38.4978 19.7975 32.4549 22.2695 25.0007 22.2695C17.5466 22.2695 11.5036 19.7975 11.5036 16.748C11.5038 15.829 12.0539 14.9635 13.0251 14.2012C12.9554 14.2326 12.8856 14.263 12.8171 14.2949C9.64113 15.7771 8.55839 17.4329 8.55833 18.5889C8.55833 19.7448 9.64096 21.4016 12.8171 22.8838C15.8338 24.2915 20.1394 25.2148 25.0007 25.2148C29.8621 25.2148 34.1676 24.2915 37.1843 22.8838C40.3605 21.4016 41.4431 19.7448 41.4431 18.5889C41.443 17.4329 40.3603 15.7771 37.1843 14.2949C37.1156 14.2629 37.0454 14.2327 36.9753 14.2012Z" fill="#EC8913"/>
</svg>
