<svg width="50" height="50" viewBox="0 0 50 50" fill="none" xmlns="http://www.w3.org/2000/svg">
<path d="M37.8926 41.2958C38.1798 40.8992 38.734 40.8098 39.1308 41.0966C39.5275 41.3837 39.6167 41.938 39.3301 42.3349C39.1778 42.5453 38.8958 42.943 38.4062 43.2655C37.9034 43.5966 37.2446 43.8114 36.375 43.8114C35.2597 43.8113 34.5437 43.4509 33.9912 43.1464C33.4449 42.8453 33.2002 42.7021 32.7978 42.7021C32.3466 42.7021 32.221 42.8042 31.6484 43.039C31.0449 43.2864 30.2714 43.5087 28.8213 43.5087C27.3624 43.5087 26.6697 43.2829 26.0937 43.0302C25.8198 42.91 25.6969 42.8466 25.5117 42.7919C25.3495 42.7441 25.1248 42.7021 24.749 42.7021C24.0349 42.7021 23.7209 42.8471 23.2343 43.0419C22.6585 43.2725 21.9858 43.5086 20.7256 43.5087C19.2671 43.5087 18.5824 43.2834 18.0136 43.0273C17.7441 42.9058 17.6293 42.8444 17.4511 42.7909C17.2962 42.7444 17.0767 42.7021 16.7011 42.7021C16.3212 42.7021 16.1221 42.7457 16.0058 42.7841C15.8821 42.8249 15.8081 42.8715 15.6074 42.9872C15.4033 43.1049 15.1363 43.2491 14.7431 43.3534C14.3627 43.4543 13.9003 43.5087 13.291 43.5087C12.6537 43.5087 12.0008 43.3827 11.4863 43.2245C11.2279 43.1451 10.982 43.0502 10.7763 42.9462C10.6743 42.8946 10.5656 42.8327 10.4658 42.7597C10.38 42.6968 10.2317 42.5768 10.123 42.3925C9.87438 41.9705 10.0155 41.4265 10.4375 41.1777C10.805 40.9612 11.2641 41.041 11.541 41.3437C11.5503 41.3489 11.5623 41.3557 11.5771 41.3632C11.6699 41.4101 11.8164 41.4697 12.0068 41.5282C12.391 41.6464 12.8667 41.7342 13.291 41.7343C13.799 41.7343 14.0992 41.6877 14.2881 41.6376C14.4639 41.5909 14.5747 41.5327 14.7197 41.4491C14.8679 41.3637 15.1164 41.2087 15.4502 41.0985C15.7914 40.986 16.1873 40.9286 16.7011 40.9286C17.2184 40.9287 17.6133 40.9874 17.9609 41.0917C18.2856 41.1892 18.5646 41.3291 18.7422 41.4091C19.0675 41.5556 19.502 41.7343 20.7256 41.7343C21.7 41.7342 22.1451 41.5666 22.5752 41.3944C23.0945 41.1865 23.6752 40.9287 24.749 40.9286C25.2673 40.9286 25.6649 40.9875 26.0146 41.0907C26.3406 41.187 26.6209 41.325 26.8056 41.4062C27.1477 41.5563 27.5974 41.7343 28.8213 41.7343C30.0534 41.7343 30.5977 41.5527 30.9765 41.3974C31.3861 41.2294 31.9084 40.9287 32.7978 40.9286C33.7367 40.9286 34.3871 41.3403 34.8467 41.5937C35.3001 41.8436 35.7023 42.0369 36.375 42.037C36.9358 42.037 37.2468 41.9035 37.4297 41.7831C37.6253 41.6542 37.7469 41.497 37.8926 41.2958ZM32.7978 35.3827C33.7366 35.3827 34.3871 35.7944 34.8467 36.0478C35.3001 36.2977 35.7023 36.492 36.375 36.4921C36.9359 36.4921 37.2469 36.3576 37.4297 36.2372C37.6252 36.1084 37.747 35.951 37.8926 35.7499C38.1798 35.3537 38.7342 35.2642 39.1308 35.5507C39.5275 35.8379 39.6169 36.3931 39.3301 36.79C39.1777 37.0004 38.8958 37.3981 38.4062 37.7206C37.9034 38.0516 37.2445 38.2665 36.375 38.2665C35.2598 38.2664 34.5436 37.906 33.9912 37.6015C33.4447 37.3003 33.2002 37.1571 32.7978 37.1571C32.3466 37.1572 32.221 37.2593 31.6484 37.4941C31.045 37.7414 30.2712 37.9628 28.8213 37.9628C27.3625 37.9628 26.6696 37.738 26.0937 37.4853C25.8198 37.365 25.6969 37.3017 25.5117 37.247C25.3495 37.1991 25.1249 37.1571 24.749 37.1571C24.0349 37.1572 23.7208 37.3012 23.2343 37.496C22.6585 37.7266 21.9859 37.9627 20.7256 37.9628C19.2672 37.9628 18.5824 37.7385 18.0136 37.4823C17.7441 37.3609 17.6293 37.2995 17.4511 37.246C17.2962 37.1995 17.0768 37.1572 16.7011 37.1571C16.3213 37.1571 16.1221 37.1998 16.0058 37.2382C15.8821 37.2791 15.8082 37.3265 15.6074 37.4423C15.4033 37.56 15.1363 37.7032 14.7431 37.8075C14.3627 37.9084 13.9003 37.9628 13.291 37.9628C12.6537 37.9628 12.0008 37.8368 11.4863 37.6786C11.2279 37.5991 10.982 37.5043 10.7763 37.4003C10.6743 37.3487 10.5656 37.2878 10.4658 37.2148C10.3801 37.152 10.2318 37.0319 10.123 36.8476C9.8743 36.4256 10.0146 35.8807 10.4365 35.6318C10.8041 35.4151 11.264 35.495 11.541 35.7978C11.5503 35.803 11.5623 35.8098 11.5771 35.8173C11.6699 35.8642 11.8164 35.9247 12.0068 35.9833C12.391 36.1015 12.8667 36.1883 13.291 36.1884C13.799 36.1884 14.0992 36.1428 14.2881 36.0927C14.4639 36.046 14.5748 35.9878 14.7197 35.9042C14.8679 35.8188 15.1164 35.6628 15.4502 35.5527C15.7913 35.4401 16.1874 35.3827 16.7011 35.3827C17.2185 35.3828 17.6132 35.4425 17.9609 35.5468C18.2857 35.6443 18.5646 35.7842 18.7422 35.8642C19.0675 36.0107 19.5021 36.1884 20.7256 36.1884C21.7 36.1883 22.1452 36.0207 22.5752 35.8485C23.0944 35.6406 23.6753 35.3828 24.749 35.3827C25.2673 35.3827 25.6649 35.4426 26.0146 35.5458C26.3405 35.6421 26.6209 35.7792 26.8056 35.8603C27.1477 36.0104 27.5974 36.1884 28.8213 36.1884C30.0534 36.1884 30.5977 36.0078 30.9765 35.8525C31.3861 35.6845 31.9083 35.3828 32.7978 35.3827ZM22.709 7.49992C23.8636 5.5 26.7505 5.50006 27.9052 7.49992L39.9961 28.4433C41.1505 30.4431 39.7075 32.9429 37.3984 32.9433H13.2168C10.9074 32.9433 9.46352 30.4433 10.6181 28.4433L22.709 7.49992ZM25.8623 25.1806C24.9439 25.1808 24.1984 25.9252 24.1982 26.8437C24.1982 27.7623 24.9438 28.5075 25.8623 28.5077C26.7807 28.5074 27.5254 27.7622 27.5254 26.8437C27.5252 25.9253 26.7806 25.1809 25.8623 25.1806ZM25.8623 14.0898C24.9438 14.0899 24.1983 14.8353 24.1982 15.7538V22.4081C24.1984 23.3265 24.9439 24.071 25.8623 24.0712C26.7806 24.0709 27.5252 23.3265 27.5254 22.4081V15.7538C27.5253 14.8354 26.7806 14.0901 25.8623 14.0898Z" fill="#EC8913"/>
</svg>
