<svg width="34" height="34" viewBox="0 0 34 34" fill="none" xmlns="http://www.w3.org/2000/svg">
<circle cx="17" cy="17" r="17" fill="#FEF0E6"/>
<path d="M23.6133 23.4551C24.2956 23.4551 24.7661 23.7362 25.1328 23.9277C25.493 24.1159 25.834 24.2734 26.3984 24.2734C26.8641 24.2734 27.1369 24.1672 27.3047 24.0625C27.4784 23.9539 27.5834 23.8216 27.6963 23.6738C27.883 23.4297 28.2322 23.3828 28.4765 23.5693C28.7208 23.756 28.7675 24.1052 28.581 24.3496C28.462 24.5055 28.2532 24.7823 27.8935 25.0068C27.5277 25.2352 27.0462 25.3876 26.3984 25.3877C25.5706 25.3877 25.0402 25.136 24.6172 24.915C24.2007 24.6975 23.9751 24.5684 23.6133 24.5684C23.2221 24.5684 23.0896 24.6608 22.6592 24.8281C22.2087 25.0032 21.6264 25.164 20.5176 25.1641C19.404 25.164 18.8863 25.0014 18.458 24.8232C18.2527 24.7378 18.1434 24.6853 17.9873 24.6416C17.8444 24.6016 17.6535 24.5684 17.3476 24.5684C16.7588 24.5684 16.4903 24.6855 16.1094 24.8301C15.6734 24.9955 15.1697 25.1641 14.2148 25.1641C13.1012 25.164 12.591 25.0015 12.1689 24.8213C11.9671 24.7351 11.8641 24.6837 11.7129 24.6406C11.5751 24.6014 11.3878 24.5684 11.082 24.5684C10.7741 24.5684 10.6016 24.6012 10.4912 24.6357C10.377 24.6715 10.3049 24.715 10.1533 24.7979C9.99886 24.8823 9.80448 24.9815 9.51756 25.0537C9.23849 25.1239 8.89289 25.1641 8.42771 25.1641C7.95115 25.164 7.45937 25.0734 7.07029 24.96C6.87516 24.9031 6.69175 24.8369 6.54099 24.7646C6.46615 24.7288 6.38931 24.6863 6.31931 24.6377C6.25923 24.596 6.15819 24.5187 6.08396 24.3994C5.92164 24.1384 6.00185 23.7954 6.26267 23.6328C6.49442 23.4886 6.79036 23.5356 6.96775 23.7305C6.97892 23.7371 6.99652 23.7473 7.02244 23.7598C7.10408 23.7989 7.22728 23.8456 7.38181 23.8906C7.69231 23.9811 8.07783 24.0488 8.42771 24.0488C8.83247 24.0488 9.0809 24.0149 9.2451 23.9736C9.40104 23.9344 9.50086 23.8844 9.61814 23.8203C9.73809 23.7548 9.91647 23.6489 10.1582 23.5732C10.404 23.4963 10.6943 23.4551 11.082 23.4551C11.472 23.4551 11.7638 23.4971 12.0176 23.5693C12.2577 23.6377 12.4603 23.7345 12.6064 23.7969C12.8804 23.9138 13.2406 24.0488 14.2148 24.0488C14.9999 24.0488 15.3668 23.9198 15.7138 23.7881C16.116 23.6355 16.5444 23.4551 17.3476 23.4551C17.738 23.4551 18.0315 23.4969 18.2871 23.5684C18.5289 23.636 18.7342 23.7319 18.8857 23.7949C19.1719 23.9139 19.5434 24.0488 20.5176 24.0488C21.4965 24.0488 21.9407 23.9121 22.2549 23.79C22.5888 23.6603 22.9603 23.4551 23.6133 23.4551ZM23.6133 19.626C24.2956 19.626 24.7661 19.9071 25.1328 20.0986C25.4929 20.2868 25.8341 20.4434 26.3984 20.4434C26.8641 20.4433 27.1369 20.3381 27.3047 20.2334C27.4784 20.1248 27.5834 19.9925 27.6963 19.8447C27.883 19.6005 28.2322 19.5537 28.4765 19.7402C28.7208 19.9269 28.7676 20.2761 28.581 20.5205C28.462 20.6764 28.2532 20.9532 27.8935 21.1777C27.5277 21.4061 27.0462 21.5576 26.3984 21.5576C25.5706 21.5576 25.0402 21.3069 24.6172 21.0859C24.2007 20.8684 23.9751 20.7393 23.6133 20.7393C23.2221 20.7393 23.0897 20.8317 22.6592 20.999C22.2087 21.1741 21.6264 21.334 20.5176 21.334C19.404 21.334 18.8863 21.1723 18.458 20.9941C18.2527 20.9087 18.1434 20.8562 17.9873 20.8125C17.8444 20.7725 17.6535 20.7393 17.3476 20.7393C16.7588 20.7393 16.4903 20.8564 16.1094 21.001C15.6734 21.1664 15.1696 21.334 14.2148 21.334C13.1012 21.334 12.591 21.1724 12.1689 20.9922C11.9671 20.906 11.8641 20.8546 11.7129 20.8115C11.5751 20.7723 11.3878 20.7393 11.082 20.7393C10.7741 20.7393 10.6016 20.7721 10.4912 20.8066C10.377 20.8424 10.3049 20.8859 10.1533 20.9688C9.99886 21.0532 9.8045 21.1524 9.51756 21.2246C9.23849 21.2948 8.89289 21.334 8.42771 21.334C7.95115 21.3339 7.45937 21.2443 7.07029 21.1309C6.87515 21.074 6.69176 21.0078 6.54099 20.9355C6.46613 20.8996 6.38932 20.8572 6.31931 20.8086C6.25925 20.7669 6.1582 20.6896 6.08396 20.5703C5.92165 20.3093 6.00189 19.9663 6.26267 19.8037C6.49442 19.6595 6.79036 19.7065 6.96775 19.9014C6.97893 19.908 6.99653 19.9182 7.02244 19.9307C7.10409 19.9698 7.22727 20.0165 7.38181 20.0615C7.69231 20.152 8.07783 20.2197 8.42771 20.2197C8.83263 20.2197 9.0809 20.1848 9.2451 20.1436C9.40102 20.1043 9.50088 20.0553 9.61814 19.9912C9.73809 19.9257 9.91649 19.8198 10.1582 19.7441C10.404 19.6672 10.6943 19.626 11.082 19.626C11.472 19.626 11.7638 19.668 12.0176 19.7402C12.2577 19.8086 12.4603 19.9054 12.6064 19.9678C12.8804 20.0847 13.2406 20.2197 14.2148 20.2197C14.9998 20.2197 15.3668 20.0907 15.7138 19.959C16.116 19.8064 16.5444 19.626 17.3476 19.626C17.738 19.626 18.0315 19.6678 18.2871 19.7393C18.5289 19.8069 18.7342 19.9028 18.8857 19.9658C19.1719 20.0848 19.5435 20.2197 20.5176 20.2197C21.4965 20.2197 21.9407 20.083 22.2549 19.9609C22.5888 19.8312 22.9603 19.626 23.6133 19.626ZM17.3506 8C23.1178 8 27.7928 10.1817 27.7929 12.873C27.7929 13.5236 27.5181 14.1426 27.0224 14.71C27.5106 15.1239 27.6513 15.693 27.6513 16.0059V18.4424C27.6513 18.7499 27.4022 18.9989 27.0947 18.999C26.7871 18.999 26.5381 18.75 26.5381 18.4424V16.0059C26.538 15.9818 26.5253 15.8797 26.4629 15.7617C26.4087 15.6595 26.3207 15.555 26.1758 15.4756C24.3245 16.8388 21.0648 17.7461 17.3506 17.7461C13.9083 17.7461 10.8554 16.9685 8.9531 15.7695C8.93392 15.7823 8.91566 15.797 8.89451 15.8076C8.73331 15.8883 8.63844 16.001 8.58103 16.1094C8.51871 16.2271 8.50687 16.3292 8.50681 16.3535V18.79C8.50681 19.0976 8.25679 19.3467 7.9492 19.3467C7.64183 19.3464 7.39256 19.0975 7.39256 18.79V16.3535C7.39261 16.0413 7.53263 15.4733 8.01853 15.0596C7.30902 14.4017 6.90818 13.6598 6.90818 12.873C6.90828 10.1818 11.5835 8.00006 17.3506 8ZM24.1377 10.3799C24.692 10.8134 25.0058 11.3059 25.0058 11.8291C25.0054 13.5591 21.5776 14.9619 17.3486 14.9619C13.1196 14.9619 9.69088 13.5591 9.69041 11.8291C9.69041 11.3083 10.002 10.8179 10.5517 10.3857C10.5138 10.4029 10.4757 10.4191 10.4385 10.4365C8.63644 11.2774 8.02152 12.2172 8.02146 12.873C8.02146 13.5289 8.63636 14.4686 10.4385 15.3096C12.15 16.1082 14.5925 16.6328 17.3506 16.6328C20.1089 16.6328 22.552 16.1083 24.2636 15.3096C26.0657 14.4686 26.6797 13.5289 26.6797 12.873C26.6796 12.2172 26.0656 11.2774 24.2636 10.4365C24.2222 10.4172 24.1799 10.3989 24.1377 10.3799Z" fill="#EC8913"/>
</svg>
