<svg width="34" height="34" viewBox="0 0 34 34" fill="none" xmlns="http://www.w3.org/2000/svg">
<circle cx="17" cy="17" r="17" fill="#E7F4FE"/>
<path d="M26.7176 25.3748C26.8873 25.1529 27.2045 25.1106 27.4266 25.2801C27.6486 25.4497 27.6917 25.7669 27.5223 25.9891C27.4141 26.1308 27.2241 26.3827 26.8973 26.5868C26.5647 26.7943 26.1268 26.9325 25.5379 26.9325C24.7856 26.9324 24.3041 26.7036 23.9197 26.5028C23.5414 26.3051 23.3363 26.1884 23.0076 26.1883C22.652 26.1883 22.531 26.2725 22.1395 26.4246C21.7301 26.5837 21.2007 26.7284 20.1932 26.7284C19.1814 26.7283 18.7113 26.5816 18.3221 26.4198C18.1352 26.342 18.0355 26.2945 17.8934 26.2547C17.7636 26.2184 17.5909 26.1883 17.3133 26.1883C16.7782 26.1883 16.5344 26.2943 16.1883 26.4256C15.792 26.576 15.3337 26.7284 14.4656 26.7284C13.4536 26.7283 12.9899 26.5816 12.6063 26.4178C12.4229 26.3395 12.3297 26.2929 12.1922 26.2537C12.067 26.2181 11.897 26.1883 11.619 26.1883C11.339 26.1883 11.1822 26.2175 11.0818 26.2489C10.978 26.2814 10.9123 26.3209 10.7742 26.3963C10.6338 26.4731 10.457 26.5631 10.1961 26.6287C9.94258 26.6924 9.62931 26.7283 9.20685 26.7284C8.77364 26.7284 8.32616 26.6469 7.97247 26.5438C7.79523 26.4921 7.62895 26.4317 7.492 26.366C7.42394 26.3334 7.35351 26.295 7.28986 26.2508C7.23521 26.2128 7.14332 26.1422 7.07599 26.034C6.92875 25.7968 7.00205 25.4854 7.23907 25.3377C7.44969 25.2067 7.71849 25.2495 7.8797 25.4266C7.88988 25.4326 7.906 25.4417 7.9295 25.453C8.00368 25.4885 8.1153 25.5312 8.25568 25.5721C8.53795 25.6544 8.88879 25.7157 9.20685 25.7157C9.57446 25.7157 9.79982 25.6848 9.94903 25.6473C10.0909 25.6116 10.1822 25.566 10.2889 25.5076C10.3979 25.4481 10.5597 25.3527 10.7791 25.284C11.0026 25.2141 11.2665 25.1766 11.619 25.1766C11.9732 25.1766 12.2381 25.2146 12.4686 25.2801C12.6867 25.3422 12.8709 25.4304 13.0037 25.4871C13.2527 25.5934 13.5804 25.7156 14.4656 25.7157C15.1788 25.7157 15.5126 25.599 15.8279 25.4793C16.1934 25.3406 16.5832 25.1766 17.3133 25.1766C17.6679 25.1766 17.9346 25.2142 18.1668 25.2791C18.3866 25.3406 18.573 25.4279 18.7108 25.4852C18.9708 25.5933 19.3082 25.7156 20.1932 25.7157C21.0831 25.7157 21.4877 25.5913 21.7733 25.4803C22.0766 25.3623 22.4146 25.1766 23.0076 25.1766C23.6276 25.1767 24.0553 25.4313 24.3885 25.6053C24.7157 25.7763 25.0251 25.9197 25.5379 25.9198C25.9613 25.9198 26.2096 25.8236 26.3621 25.7284C26.52 25.6297 26.615 25.5091 26.7176 25.3748ZM26.7176 22.6483C26.8873 22.4264 27.2045 22.3841 27.4266 22.5535C27.6486 22.7231 27.6916 23.0404 27.5223 23.2625C27.4141 23.4042 27.2241 23.6561 26.8973 23.8602C26.5647 24.0678 26.1268 24.2059 25.5379 24.2059C24.7856 24.2059 24.3041 23.977 23.9197 23.7762C23.5414 23.5786 23.3363 23.4618 23.0076 23.4618C22.652 23.4618 22.531 23.5459 22.1395 23.6981C21.7301 23.8572 21.2008 24.0028 20.1932 24.0028C19.1814 24.0027 18.7113 23.8551 18.3221 23.6932C18.1353 23.6155 18.0355 23.5679 17.8934 23.5282C17.7636 23.4919 17.5908 23.4618 17.3133 23.4618C16.7782 23.4618 16.5344 23.5677 16.1883 23.6991C15.792 23.8495 15.3337 24.0028 14.4656 24.0028C13.4536 24.0027 12.9899 23.855 12.6063 23.6912C12.4229 23.613 12.3297 23.5663 12.1922 23.5272C12.067 23.4915 11.897 23.4618 11.619 23.4618C11.339 23.4618 11.1822 23.4919 11.0818 23.5233C10.9781 23.5558 10.9121 23.5944 10.7742 23.6698C10.6338 23.7465 10.457 23.8366 10.1961 23.9022C9.94258 23.9659 9.62933 24.0028 9.20685 24.0028C8.77364 24.0028 8.32616 23.9203 7.97247 23.8172C7.79524 23.7655 7.62894 23.7051 7.492 23.6395C7.42397 23.6069 7.35349 23.5694 7.28986 23.5252C7.23526 23.4873 7.14347 23.4159 7.07599 23.3075C6.92883 23.0702 7.00208 22.7588 7.23907 22.6112C7.44968 22.4802 7.7185 22.523 7.8797 22.7C7.88987 22.706 7.90599 22.7151 7.9295 22.7264C8.00367 22.762 8.11532 22.8046 8.25568 22.8455C8.53795 22.9278 8.88879 22.9901 9.20685 22.9901C9.57449 22.9901 9.79982 22.9582 9.94903 22.9207C10.0909 22.8851 10.1822 22.8394 10.2889 22.7811C10.3979 22.7215 10.5597 22.6261 10.7791 22.5575C11.0026 22.4875 11.2665 22.45 11.619 22.45C11.9732 22.45 12.2381 22.488 12.4686 22.5535C12.6867 22.6156 12.8709 22.7039 13.0037 22.7606C13.2527 22.8669 13.5804 22.99 14.4656 22.9901C15.1788 22.9901 15.5126 22.8724 15.8279 22.7528C16.1934 22.6141 16.5832 22.45 17.3133 22.45C17.6679 22.45 17.9346 22.4876 18.1668 22.5526C18.3866 22.6141 18.573 22.7013 18.7108 22.7586C18.9708 22.8668 19.3082 22.99 20.1932 22.9901C21.0831 22.9901 21.4877 22.8657 21.7733 22.7547C22.0767 22.6368 22.4144 22.45 23.0076 22.45C23.6276 22.4501 24.0553 22.7047 24.3885 22.8787C24.7158 23.0497 25.0251 23.1932 25.5379 23.1932C25.9613 23.1932 26.2096 23.097 26.3621 23.0018C26.52 22.9031 26.615 22.7826 26.7176 22.6483ZM26.7176 19.4266C26.8873 19.2047 27.2045 19.1625 27.4266 19.3319C27.6486 19.5014 27.6916 19.8187 27.5223 20.0409C27.4141 20.1825 27.2241 20.4345 26.8973 20.6385C26.5647 20.8461 26.1268 20.9842 25.5379 20.9842C24.7856 20.9842 24.3041 20.7553 23.9197 20.5545C23.5414 20.3569 23.3363 20.2402 23.0076 20.2401C22.652 20.2401 22.531 20.3242 22.1395 20.4764C21.7301 20.6355 21.2008 20.7811 20.1932 20.7811C19.1814 20.781 18.7113 20.6334 18.3221 20.4715C18.1353 20.3938 18.0355 20.3463 17.8934 20.3065C17.7636 20.2702 17.5908 20.2401 17.3133 20.2401C16.7782 20.2401 16.5344 20.346 16.1883 20.4774C15.792 20.6278 15.3337 20.7811 14.4656 20.7811C13.4536 20.7811 12.9899 20.6334 12.6063 20.4696C12.4229 20.3913 12.3297 20.3447 12.1922 20.3055C12.067 20.2699 11.897 20.2401 11.619 20.2401C11.339 20.2401 11.1822 20.2702 11.0818 20.3016C10.9781 20.3341 10.9121 20.3727 10.7742 20.4481C10.6338 20.5248 10.457 20.6149 10.1961 20.6805C9.94258 20.7442 9.62933 20.7811 9.20685 20.7811C8.77364 20.7811 8.32616 20.6986 7.97247 20.5955C7.79524 20.5439 7.62894 20.4834 7.492 20.4178C7.42396 20.3852 7.35349 20.3477 7.28986 20.3035C7.23526 20.2656 7.14347 20.1942 7.07599 20.0858C6.92883 19.8486 7.00209 19.5371 7.23907 19.3895C7.44968 19.2585 7.7185 19.3013 7.8797 19.4784C7.88987 19.4844 7.90599 19.4934 7.9295 19.5047C8.00367 19.5403 8.11532 19.5829 8.25568 19.6239C8.53795 19.7061 8.88879 19.7684 9.20685 19.7684C9.57449 19.7684 9.79982 19.7365 9.94903 19.6991C10.0909 19.6634 10.1822 19.6177 10.2889 19.5594C10.3979 19.4998 10.5597 19.4045 10.7791 19.3358C11.0026 19.2659 11.2665 19.2284 11.619 19.2284C11.9732 19.2284 12.2381 19.2663 12.4686 19.3319C12.6867 19.3939 12.8709 19.4822 13.0037 19.5389C13.2527 19.6452 13.5804 19.7684 14.4656 19.7684C15.1788 19.7684 15.5126 19.6507 15.8279 19.5311C16.1934 19.3924 16.5832 19.2284 17.3133 19.2284C17.6679 19.2284 17.9346 19.2659 18.1668 19.3309C18.3866 19.3924 18.573 19.4797 18.7108 19.5369C18.9708 19.6451 19.3082 19.7683 20.1932 19.7684C21.0831 19.7684 21.4877 19.644 21.7733 19.533C22.0767 19.4151 22.4144 19.2284 23.0076 19.2284C23.6276 19.2284 24.0553 19.483 24.3885 19.6571C24.7158 19.828 25.0251 19.9715 25.5379 19.9715C25.9613 19.9715 26.2096 19.8753 26.3621 19.7801C26.52 19.6814 26.615 19.5609 26.7176 19.4266Z" fill="#256EF4"/>
<path d="M16.998 7C18.1763 8.32564 20.4983 11.5416 20.626 14.0576C20.63 14.1281 20.6338 14.199 20.6338 14.2705C20.6338 16.2781 19.0055 17.9051 16.998 17.9053C14.9904 17.9052 13.3633 16.2782 13.3633 14.2705C13.3633 13.9513 13.4042 13.6417 13.4814 13.3467C13.909 11.4077 15.4521 8.546 16.998 7ZM19.0176 13.8643C18.7931 13.752 18.5195 13.8429 18.4072 14.0674C18.1937 14.4943 17.9925 14.7897 17.7539 15.0283C17.5153 15.2669 17.2199 15.4682 16.793 15.6816C16.5686 15.7938 16.4779 16.0666 16.5898 16.291C16.702 16.5153 16.9748 16.607 17.1992 16.4951C17.681 16.2542 18.0671 16.0003 18.3965 15.6709C18.7259 15.3415 18.9798 14.9554 19.2207 14.4736C19.3326 14.2493 19.2417 13.9766 19.0176 13.8643Z" fill="#256EF4"/>
</svg>
