<svg width="34" height="34" viewBox="0 0 34 34" fill="none" xmlns="http://www.w3.org/2000/svg">
<circle cx="17" cy="17" r="17" fill="#E7F4FE"/>
<path d="M23.0068 23C23.6269 23 24.0554 23.2556 24.3887 23.4297C24.7158 23.6006 25.0254 23.7432 25.5381 23.7432C25.9611 23.7432 26.2088 23.6479 26.3613 23.5528C26.5194 23.4541 26.6151 23.3336 26.7178 23.1993C26.8874 22.9772 27.2046 22.9341 27.4267 23.1036C27.6489 23.2732 27.6921 23.5914 27.5224 23.8135C27.4143 23.9552 27.2241 24.2062 26.8974 24.4102C26.5649 24.6178 26.1269 24.7559 25.5381 24.7559C24.7857 24.7559 24.3043 24.527 23.9199 24.3262C23.5414 24.1285 23.3357 24.0118 23.0068 24.0118C22.6516 24.0118 22.531 24.096 22.1396 24.2481C21.7302 24.4072 21.2011 24.5528 20.1933 24.5528C19.1818 24.5527 18.7114 24.406 18.3222 24.2442C18.1354 24.1665 18.0357 24.1179 17.8935 24.0782C17.7638 24.0419 17.591 24.0118 17.3135 24.0118C16.7783 24.0118 16.5337 24.1177 16.1875 24.2491C15.7913 24.3994 15.3337 24.5528 14.4658 24.5528C13.4539 24.5528 12.99 24.406 12.6064 24.2422C12.4231 24.1639 12.3298 24.1163 12.1924 24.0772C12.0672 24.0415 11.8971 24.0118 11.6191 24.0118C11.3392 24.0118 11.1823 24.0419 11.082 24.0733C10.9781 24.1058 10.9124 24.1453 10.7744 24.2207C10.634 24.2975 10.4571 24.3866 10.1963 24.4522C9.94274 24.5159 9.62954 24.5528 9.20702 24.5528C8.77381 24.5528 8.32633 24.4713 7.97264 24.3682C7.79537 24.3165 7.62915 24.2561 7.49217 24.1905C7.42406 24.1578 7.35373 24.1195 7.29002 24.0752C7.23544 24.0373 7.14363 23.9669 7.07616 23.8584C6.92861 23.6212 7.00209 23.3089 7.23924 23.1612C7.44981 23.0304 7.71874 23.0731 7.87987 23.25C7.89004 23.256 7.90614 23.2651 7.92967 23.2764C8.00387 23.312 8.11539 23.3556 8.25584 23.3965C8.5381 23.4788 8.889 23.5401 9.20702 23.5401C9.57475 23.5401 9.80002 23.5082 9.9492 23.4707C10.0911 23.4351 10.1823 23.3904 10.289 23.3321C10.3981 23.2725 10.5597 23.1762 10.7793 23.1075C11.0027 23.0376 11.2668 23 11.6191 23C11.9733 23.0001 12.2383 23.038 12.4687 23.1036C12.6869 23.1656 12.8711 23.2539 13.0039 23.3106C13.2529 23.4169 13.5804 23.5401 14.4658 23.5401C15.1792 23.5401 15.5127 23.4225 15.8281 23.3028C16.1936 23.1641 16.5834 23 17.3135 23C17.6679 23.0001 17.9338 23.0386 18.166 23.1036C18.3859 23.1651 18.5731 23.2513 18.7109 23.3086C18.971 23.4168 19.3083 23.54 20.1933 23.5401C21.0829 23.5401 21.4869 23.4157 21.7724 23.3047C22.0758 23.1868 22.4137 23.0001 23.0068 23ZM23.0068 19C23.6268 19 24.0545 19.2556 24.3877 19.4297C24.715 19.6007 25.0252 19.7432 25.5381 19.7432C25.9611 19.7432 26.2088 19.6479 26.3613 19.5528C26.5195 19.454 26.6151 19.3337 26.7178 19.1993C26.8874 18.9772 27.2046 18.9341 27.4267 19.1036C27.6489 19.2732 27.6911 19.5914 27.5215 19.8135C27.4132 19.9552 27.2238 20.2064 26.8974 20.4102C26.5649 20.6178 26.1269 20.7559 25.5381 20.7559C24.7857 20.7559 24.3043 20.527 23.9199 20.3262C23.5414 20.1285 23.3356 20.0118 23.0068 20.0118C22.6515 20.0118 22.531 20.096 22.1396 20.2481C21.7302 20.4072 21.2012 20.5528 20.1933 20.5528C19.1818 20.5527 18.7114 20.406 18.3222 20.2442C18.1354 20.1665 18.0357 20.1179 17.8935 20.0782C17.7638 20.0419 17.5909 20.0118 17.3135 20.0118C16.7783 20.0118 16.5337 20.1177 16.1875 20.2491C15.7913 20.3994 15.3337 20.5528 14.4658 20.5528C13.4539 20.5528 12.99 20.406 12.6064 20.2422C12.4231 20.1639 12.3298 20.1163 12.1924 20.0772C12.0672 20.0415 11.8971 20.0118 11.6191 20.0118C11.3392 20.0118 11.1824 20.0419 11.082 20.0733C10.9781 20.1058 10.9124 20.1453 10.7744 20.2207C10.634 20.2975 10.4572 20.3866 10.1963 20.4522C9.94274 20.5159 9.62955 20.5528 9.20702 20.5528C8.77381 20.5528 8.32633 20.4713 7.97264 20.3682C7.79536 20.3165 7.62916 20.2561 7.49217 20.1905C7.42405 20.1578 7.35373 20.1195 7.29002 20.0752C7.23543 20.0373 7.14363 19.9669 7.07616 19.8584C6.92861 19.6212 7.00209 19.3089 7.23924 19.1612C7.4498 19.0304 7.71875 19.0731 7.87987 19.25C7.89004 19.256 7.90613 19.2651 7.92967 19.2764C8.00387 19.312 8.11539 19.3556 8.25584 19.3965C8.53809 19.4788 8.88901 19.5401 9.20702 19.5401C9.57477 19.5401 9.80002 19.5082 9.9492 19.4707C10.0911 19.4351 10.1823 19.3904 10.289 19.3321C10.3981 19.2725 10.5598 19.1762 10.7793 19.1075C11.0027 19.0376 11.2668 19 11.6191 19C11.9733 19.0001 12.2383 19.038 12.4687 19.1036C12.6869 19.1656 12.8711 19.2539 13.0039 19.3106C13.2529 19.4169 13.5804 19.5401 14.4658 19.5401C15.1792 19.5401 15.5127 19.4225 15.8281 19.3028C16.1936 19.1641 16.5834 19 17.3135 19C17.6679 19.0001 17.9338 19.0386 18.166 19.1036C18.3859 19.1651 18.5731 19.2513 18.7109 19.3086C18.971 19.4168 19.3082 19.54 20.1933 19.5401C21.0829 19.5401 21.4869 19.4157 21.7724 19.3047C22.0758 19.1868 22.4137 19.0001 23.0068 19Z" fill="#256EF4"/>
<path d="M24.5 10C24.7761 10 25 10.2239 25 10.5V17.6953C24.8752 17.724 24.7236 17.7432 24.5381 17.7432C24.0252 17.7432 23.715 17.6007 23.3877 17.4297C23.0545 17.2556 22.6268 17 22.0068 17C21.4137 17.0001 21.0759 17.1868 20.7725 17.3047C20.5926 17.3746 20.3657 17.449 20 17.4951V10.5C20 10.2239 20.2239 10 20.5 10H24.5ZM18.5 7C18.7761 7 19 7.22386 19 7.5V17.5361C18.2572 17.5195 17.9511 17.4085 17.7109 17.3086C17.5731 17.2513 17.3859 17.165 17.166 17.1035C16.9339 17.0386 16.6679 17 16.3135 17C15.5834 17 15.1936 17.164 14.8281 17.3027C14.5127 17.4224 14.1793 17.54 13.4658 17.54C13.2897 17.54 13.1357 17.533 13 17.5244V7.5C13 7.22386 13.2239 7 13.5 7H18.5ZM11.5 12C11.7761 12 12 12.2239 12 12.5V17.3086C11.8675 17.2518 11.6847 17.165 11.4688 17.1035C11.2383 17.038 10.9733 17 10.6191 17C10.2668 17 10.0027 17.0375 9.7793 17.1074C9.55979 17.1761 9.39808 17.2724 9.28906 17.332C9.19575 17.383 9.11371 17.4218 9 17.4551V12.5C9 12.2239 9.22386 12 9.5 12H11.5ZM14.4004 15C14.1795 15 14 15.1795 14 15.4004V16.2002C14.0001 16.421 14.1795 16.5996 14.4004 16.5996H15C15.2208 16.5996 15.4003 16.421 15.4004 16.2002V15.4004C15.4004 15.1795 15.2209 15 15 15H14.4004ZM17.002 15C16.781 15 16.6016 15.1795 16.6016 15.4004V16.2002C16.6017 16.421 16.7811 16.5996 17.002 16.5996H17.6016C17.8224 16.5996 18.0018 16.421 18.002 16.2002V15.4004C18.002 15.1795 17.8225 15 17.6016 15H17.002ZM22.4004 14C22.1795 14 22 14.1795 22 14.4004V15.2002C22.0001 15.421 22.1795 15.5996 22.4004 15.5996H23C23.2208 15.5996 23.4003 15.421 23.4004 15.2002V14.4004C23.4004 14.1795 23.2209 14 23 14H22.4004ZM10.4004 13C10.1795 13 10 13.1795 10 13.4004V14.2002C10.0001 14.421 10.1795 14.5996 10.4004 14.5996H11C11.2208 14.5996 11.4003 14.421 11.4004 14.2002V13.4004C11.4004 13.1795 11.2209 13 11 13H10.4004ZM14.4004 12C14.1795 12 14 12.1795 14 12.4004V13.2002C14.0001 13.421 14.1795 13.5996 14.4004 13.5996H15C15.2208 13.5996 15.4003 13.421 15.4004 13.2002V12.4004C15.4004 12.1795 15.2209 12 15 12H14.4004ZM17.002 12C16.781 12 16.6016 12.1795 16.6016 12.4004V13.2002C16.6017 13.421 16.7811 13.5996 17.002 13.5996H17.6016C17.8224 13.5996 18.0018 13.421 18.002 13.2002V12.4004C18.002 12.1795 17.8225 12 17.6016 12H17.002ZM22.4004 11C22.1795 11 22 11.1795 22 11.4004V12.2002C22.0001 12.421 22.1795 12.5996 22.4004 12.5996H23C23.2208 12.5996 23.4003 12.421 23.4004 12.2002V11.4004C23.4004 11.1795 23.2209 11 23 11H22.4004ZM14.4004 9C14.1795 9 14 9.17948 14 9.40039V10.2002C14.0001 10.421 14.1795 10.5996 14.4004 10.5996H15C15.2208 10.5996 15.4003 10.421 15.4004 10.2002V9.40039C15.4004 9.17948 15.2209 9 15 9H14.4004ZM17.002 9C16.781 9 16.6016 9.17948 16.6016 9.40039V10.2002C16.6017 10.421 16.7811 10.5996 17.002 10.5996H17.6016C17.8224 10.5996 18.0018 10.421 18.002 10.2002V9.40039C18.002 9.17948 17.8225 9 17.6016 9H17.002Z" fill="#256EF4"/>
</svg>
