<svg width="20" height="20" viewBox="0 0 20 20" fill="none" xmlns="http://www.w3.org/2000/svg">
<path d="M2.23377 12.9233C2.11688 13.0514 2.03975 13.2107 2.01174 13.3818C1.98374 13.553 2.00607 13.7286 2.07603 13.8872C2.14599 14.0459 2.26055 14.1809 2.40579 14.2756C2.55102 14.3704 2.72066 14.4209 2.89408 14.421H17.2099C17.3833 14.4211 17.5529 14.3708 17.6983 14.2762C17.8436 14.1816 17.9583 14.0468 18.0284 13.8882C18.0986 13.7297 18.1211 13.5541 18.0934 13.383C18.0656 13.2118 17.9887 13.0524 17.872 12.9242C16.682 11.6975 15.4204 10.3938 15.4204 6.36842C15.4204 4.94463 14.8548 3.57915 13.848 2.57237C12.8412 1.5656 11.4758 1 10.052 1C8.62818 1 7.2627 1.5656 6.25593 2.57237C5.24916 3.57915 4.68356 4.94463 4.68356 6.36842C4.68356 10.3938 3.42108 11.6975 2.23377 12.9233Z" stroke="#444444" stroke-width="1.6" stroke-linecap="round" stroke-linejoin="round"/>
<path d="M8.5 17.1055C8.65707 17.3775 8.88296 17.6034 9.15499 17.7604C9.42701 17.9175 9.73558 18.0001 10.0497 18.0001C10.3638 18.0001 10.6724 17.9175 10.9444 17.7604C11.2164 17.6034 11.4423 17.3775 11.5994 17.1055" stroke="#444444" stroke-width="1.6" stroke-linecap="round" stroke-linejoin="round"/>
</svg>
