<svg width="24" height="24" viewBox="0 0 24 24" fill="none" xmlns="http://www.w3.org/2000/svg">
<path d="M16 21V3H7V21" stroke="#5B6F8D"/>
<path d="M7 11H2V21" stroke="#5B6F8D"/>
<path d="M16 11H21V21" stroke="#5B6F8D"/>
<rect x="4" y="13" width="1" height="1" fill="#5B6F8D"/>
<rect x="18" y="13" width="1" height="1" fill="#5B6F8D"/>
<rect x="10" y="6" width="1" height="1" fill="#5B6F8D"/>
<rect x="12" y="6" width="1" height="1" fill="#5B6F8D"/>
<rect x="4" y="15" width="1" height="1" fill="#5B6F8D"/>
<rect x="18" y="15" width="1" height="1" fill="#5B6F8D"/>
<rect x="10" y="8" width="1" height="1" fill="#5B6F8D"/>
<rect x="12" y="8" width="1" height="1" fill="#5B6F8D"/>
<rect x="4" y="17" width="1" height="1" fill="#5B6F8D"/>
<rect x="18" y="17" width="1" height="1" fill="#5B6F8D"/>
<rect x="10" y="10" width="1" height="1" fill="#5B6F8D"/>
<rect x="12" y="10" width="1" height="1" fill="#5B6F8D"/>
<rect x="10" y="12" width="1" height="1" fill="#5B6F8D"/>
<rect x="12" y="12" width="1" height="1" fill="#5B6F8D"/>
<path d="M1 20.5H10.5V16H12.5V20.5H23" stroke="#5B6F8D" stroke-linecap="round" stroke-linejoin="round"/>
</svg>
