<svg width="34" height="34" viewBox="0 0 34 34" fill="none" xmlns="http://www.w3.org/2000/svg">
<circle cx="17" cy="17" r="17" fill="#ECF2FE"/>
<path d="M19.4521 20.6255C19.4709 20.6255 19.4865 20.6384 19.4883 20.6558C19.5117 20.8995 19.5678 21.0917 19.5703 21.3452C19.5717 21.4916 19.588 21.656 19.6172 21.8365C19.6705 22.1711 19.6372 22.4537 19.7178 22.7779C19.7185 22.7816 19.719 22.7848 19.7197 22.7886L19.872 24.5406C19.8746 24.5628 19.8552 24.5825 19.831 24.5825H18.0781C18.0466 24.5825 18.0217 24.6062 18.0215 24.6353V26.774C18.0217 26.7933 18.0388 26.8081 18.0595 26.8081C18.2051 26.8074 18.8796 26.8067 20.083 26.8042C20.619 26.8028 20.7052 27.1755 20.626 27.6216C20.6212 27.6483 20.6089 27.6727 20.5928 27.6948C20.4433 27.898 20.2791 27.9995 20.1015 27.9995C17.3319 28.0009 15.4756 27.9989 14.5322 27.9937C14.5102 27.9937 14.488 27.9921 14.4668 27.9868C14.0615 27.8915 13.9019 27.6375 13.9892 27.2251C14.066 26.8636 14.3364 26.7891 14.7265 26.8013C14.9164 26.8065 15.5127 26.806 16.5156 26.7993C16.5358 26.7986 16.5527 26.7829 16.5527 26.7652V24.645C16.5527 24.6109 16.5224 24.5835 16.4853 24.5835H14.7939C14.7633 24.5835 14.7387 24.5596 14.7412 24.5318L15.0429 20.648L15.0517 20.6314C15.0566 20.6275 15.0636 20.6255 15.0703 20.6255H19.4521ZM14.1504 20.6265C14.1794 20.6266 14.2018 20.6496 14.2002 20.6763L13.8994 24.5415C13.8979 24.5631 13.8789 24.5796 13.8554 24.5796H9.33494C9.31729 24.5796 9.29841 24.5765 9.2822 24.5698C8.862 24.4115 9.018 24.0291 9.08103 23.7271C9.2669 22.8353 9.46832 21.8278 9.68552 20.7046C9.69348 20.6595 9.73614 20.6266 9.78611 20.6265H14.1504ZM24.6972 20.6255C24.7287 20.6257 24.7554 20.6454 24.7627 20.6734L25.6074 24.1822C25.6164 24.218 25.6147 24.2554 25.6035 24.2906C25.5412 24.4794 25.4184 24.5743 25.2344 24.5757C24.6805 24.5802 23.1931 24.5817 20.7744 24.5796C20.7526 24.5795 20.7341 24.5645 20.7314 24.5445L20.3496 20.6704C20.3471 20.6468 20.3669 20.6255 20.3935 20.6255H24.6972ZM19.0644 16.0484C19.0774 16.0484 19.088 16.058 19.0898 16.0698L19.4648 19.8618C19.466 19.8749 19.4541 19.8872 19.4394 19.8872H15.1162C15.1018 19.8872 15.0901 19.8754 15.0908 19.8618L15.3867 16.0698C15.3876 16.0581 15.3992 16.0484 15.4121 16.0484H19.0644ZM14.622 16.0474C14.6479 16.0481 14.6685 16.0684 14.666 16.0913C14.6418 16.3265 14.5812 16.551 14.5722 16.7935C14.5632 17.0411 14.5424 17.2414 14.5107 17.3931C14.4697 17.5917 14.4977 17.8425 14.4599 18.0122C14.3848 18.3489 14.4146 18.6517 14.3515 19.0347C14.3314 19.162 14.3173 19.3508 14.3115 19.6011C14.3108 19.6108 14.3097 19.6197 14.3076 19.6294L14.2578 19.8501C14.2537 19.8708 14.2334 19.8851 14.2109 19.8853H9.91013C9.86907 19.8853 9.83724 19.8512 9.84373 19.814C10.0782 18.5661 10.3084 17.4237 10.5332 16.3863C10.5818 16.1639 10.7191 16.051 10.9453 16.0503C12.4188 16.0451 13.6442 16.0439 14.622 16.0474ZM19.9219 16.063L23.7549 16.064C23.7801 16.064 23.8017 16.0801 23.8056 16.1031L24.5273 19.8286C24.5331 19.8574 24.5077 19.8841 24.4765 19.8843H20.289C20.2624 19.8843 20.2404 19.866 20.2383 19.8413L19.8701 16.1157C19.8676 16.0876 19.8909 16.063 19.9219 16.063Z" fill="#256EF4"/>
<path d="M18.3893 10.1634C18.3893 9.38565 17.7586 8.75519 16.9806 8.75519C16.2026 8.75519 15.5719 9.38565 15.5719 10.1634C15.5719 10.9411 16.2026 11.5715 16.9806 11.5715C17.7586 11.5715 18.3893 10.9411 18.3893 10.1634ZM19.3284 10.1634C19.3284 11.4595 18.2773 12.5103 16.9806 12.5103C15.684 12.5103 14.6328 11.4595 14.6328 10.1634C14.6328 8.86717 15.684 7.81641 16.9806 7.81641C18.2773 7.81641 19.3284 8.86717 19.3284 10.1634Z" fill="#256EF4"/>
<path d="M16.5117 7.11226V5.46939C16.5117 5.21015 16.7219 5 16.9813 5C17.2406 5 17.4508 5.21015 17.4508 5.46939V7.11226C17.4508 7.37149 17.2406 7.58165 16.9813 7.58165C16.7219 7.58165 16.5117 7.37149 16.5117 7.11226Z" fill="#256EF4"/>
<path d="M20.1526 9.80908L21.7961 9.80908C22.0554 9.80908 22.2656 10.0192 22.2656 10.2785C22.2656 10.5377 22.0554 10.7479 21.7961 10.7479L20.1526 10.7479C19.8933 10.7479 19.683 10.5377 19.683 10.2785C19.683 10.0192 19.8933 9.80908 20.1526 9.80908Z" fill="#256EF4"/>
<path d="M14.416 8.37003L13.2539 7.20837C13.0705 7.02506 13.0705 6.72787 13.2539 6.54456C13.4373 6.36126 13.7346 6.36126 13.918 6.54456L15.0801 7.70622C15.2635 7.88953 15.2635 8.18672 15.0801 8.37003C14.8967 8.55333 14.5994 8.55333 14.416 8.37003Z" fill="#256EF4"/>
<path d="M15.0723 12.8551L13.9102 14.0167C13.7268 14.2 13.4295 14.2 13.2461 14.0167C13.0627 13.8334 13.0627 13.5362 13.2461 13.3529L14.4082 12.1913C14.5916 12.008 14.8889 12.008 15.0723 12.1913C15.2557 12.3746 15.2557 12.6718 15.0723 12.8551Z" fill="#256EF4"/>
<path d="M16.5117 15.0922V13.4494C16.5117 13.1901 16.7219 12.98 16.9813 12.98C17.2406 12.98 17.4508 13.1901 17.4508 13.4494V15.0922C17.4508 15.3515 17.2406 15.5616 16.9813 15.5616C16.7219 15.5616 16.5117 15.3515 16.5117 15.0922Z" fill="#256EF4"/>
<path d="M12.1721 9.80908L13.8156 9.80908C14.0749 9.80908 14.2852 10.0192 14.2852 10.2785C14.2852 10.5377 14.0749 10.7479 13.8156 10.7479L12.1721 10.7479C11.9128 10.7479 11.7026 10.5377 11.7026 10.2785C11.7026 10.0192 11.9128 9.80908 12.1721 9.80908Z" fill="#256EF4"/>
<path d="M20.0606 14.0126L18.8984 12.8509C18.7151 12.6676 18.7151 12.3704 18.8984 12.1871C19.0818 12.0038 19.3791 12.0038 19.5625 12.1871L20.7246 13.3488C20.908 13.5321 20.908 13.8293 20.7246 14.0126C20.5413 14.1959 20.2439 14.1959 20.0606 14.0126Z" fill="#256EF4"/>
<path d="M20.7207 7.21249L19.5586 8.37415C19.3752 8.55746 19.0779 8.55746 18.8945 8.37415C18.7111 8.19085 18.7111 7.89365 18.8945 7.71035L20.0567 6.54869C20.24 6.36538 20.5373 6.36538 20.7207 6.54869C20.9041 6.73199 20.9041 7.02919 20.7207 7.21249Z" fill="#256EF4"/>
</svg>
