<svg preserveAspectRatio="none" width="100%" height="100%" overflow="visible" style="display: block;" viewBox="0 0 16 16.1" fill="none" xmlns="http://www.w3.org/2000/svg">
<g id="Group 1171275331">
<path id="Vector 1095" d="M2.5 11H5.5V15.0434C5.5 15.2956 5.29557 15.5 5.0434 15.5C3.88009 15.5 2.90281 14.6253 2.77434 13.4691L2.5 11Z" stroke="var(--stroke-0, white)" stroke-width="1.2"/>
<path id="Rectangle 34627669" d="M3 4.59961H5.40039V10.9004H3C1.67452 10.9004 0.599609 9.82548 0.599609 8.5V7C0.599609 5.67452 1.67452 4.59961 3 4.59961Z" stroke="var(--stroke-0, white)" stroke-width="1.2"/>
<path id="Rectangle 34627671" d="M14 6.09961H12.5996V8.90039H14C14.7732 8.90039 15.4004 8.2732 15.4004 7.5C15.4004 6.7268 14.7732 6.09961 14 6.09961Z" stroke="var(--stroke-0, white)" stroke-width="1.2"/>
<path id="Rectangle 34627670" d="M11.8086 1.33203C12.075 1.18699 12.4002 1.37932 12.4004 1.68262V13.4053C12.4003 13.7002 12.0917 13.8937 11.8262 13.7656L5.82617 10.8623C5.6881 10.7955 5.59961 10.6553 5.59961 10.502V4.94922C5.59961 4.80276 5.67998 4.66771 5.80859 4.59766L11.8086 1.33203Z" stroke="var(--stroke-0, white)" stroke-width="1.2"/>
</g>
</svg>
