<svg width="44" height="42" viewBox="0 0 44 42" fill="none" xmlns="http://www.w3.org/2000/svg">
<path d="M22.0001 32.3555C17.5848 34.5413 13.9573 32.1927 13.1067 31.5603C10.2324 29.3888 8.26907 26.1044 7.8834 22.3597C7.80177 21.7214 7.8137 20.9997 7.8137 20.9997C7.8137 13.6544 13.8558 7.70003 21.3088 7.70003C28.7618 7.70003 34.8039 13.6544 34.8039 20.9997C32.2626 19.2402 28.7952 18.9438 25.7931 19.6561C24.7616 19.8846 23.7248 20.2716 22.7457 20.6597C19.7143 21.7441 16.4248 22.9993 13.1349 22.3728C12.0506 22.1483 11.0721 21.6535 10.1188 21.1564C13.4238 22.9063 16.0898 22.4995 19.5074 21.3336C20.5277 20.9842 21.5298 20.5862 22.5195 20.161C25.754 18.581 29.79 17.865 33.3198 19.0691C26.8351 11.858 18.4912 17.5656 11.6205 20.0407C11.3739 20.1222 9.42472 20.722 8.56578 19.6261C8.56578 19.6261 8.47058 20.1947 8.68294 20.8754C9.70217 24.7923 13.3096 25.9173 14.0123 26.1012C14.73 26.2682 15.5192 26.3893 16.3909 26.4404C19.4212 26.57 22.5754 25.4364 25.6211 24.1671C25.6211 24.1671 25.6257 24.1652 25.6325 24.1625C25.6504 24.1551 25.6683 24.1478 25.6859 24.1404C25.8853 24.0583 26.5362 23.8009 27.3884 23.5638C27.3884 23.5638 36.0605 20.6589 41.5612 27.5429C42.2458 25.4838 42.6173 23.2848 42.6173 20.9997C42.6171 9.40211 33.0771 0 21.3085 0C9.53998 0 0 9.40212 0 21C0 32.5979 9.54025 42 21.3085 42C28.6905 42 35.1931 38.2989 39.017 32.6786C39.0181 32.6786 39.0189 32.6786 39.02 32.6786C41.1978 29.7815 44 30.2548 44 30.2548C36.2386 22.6593 27.0583 29.8515 22.0001 32.3555Z" fill="#034EA1"/>
<path d="M22.0001 32.3555C17.5848 34.5413 13.9573 32.1927 13.1067 31.5603C10.2324 29.3888 8.26907 26.1044 7.8834 22.3597C7.80177 21.7214 7.8137 20.9997 7.8137 20.9997C7.8137 13.6544 13.8558 7.70003 21.3088 7.70003C28.7618 7.70003 34.8039 13.6544 34.8039 20.9997C32.2626 19.2402 28.7952 18.9438 25.7931 19.6561C24.7616 19.8846 23.7248 20.2716 22.7457 20.6597C19.7143 21.7441 16.4248 22.9993 13.1349 22.3728C12.0506 22.1483 11.0721 21.6535 10.1188 21.1564C13.4238 22.9063 16.0898 22.4995 19.5074 21.3336C20.5277 20.9842 21.5298 20.5862 22.5195 20.161C25.754 18.581 29.79 17.865 33.3198 19.0691C26.8351 11.858 18.4912 17.5656 11.6205 20.0407C11.3739 20.1222 9.42472 20.722 8.56578 19.6261C8.56578 19.6261 8.47058 20.1947 8.68294 20.8754C9.70217 24.7923 13.3096 25.9173 14.0123 26.1012C14.73 26.2682 15.5192 26.3893 16.3909 26.4404C19.4212 26.57 22.5754 25.4364 25.6211 24.1671C25.6211 24.1671 25.6257 24.1652 25.6325 24.1625C25.6504 24.1551 25.6683 24.1478 25.6859 24.1404C25.8853 24.0583 26.5362 23.8009 27.3884 23.5638C27.3884 23.5638 36.0605 20.6589 41.5612 27.5429C42.2458 25.4838 42.6173 23.2848 42.6173 20.9997C42.6171 9.40211 33.0771 0 21.3085 0C9.53998 0 0 9.40212 0 21C0 32.5979 9.54025 42 21.3085 42C28.6905 42 35.1931 38.2989 39.017 32.6786C39.0181 32.6786 39.0189 32.6786 39.02 32.6786C41.1978 29.7815 44 30.2548 44 30.2548C36.2386 22.6593 27.0583 29.8515 22.0001 32.3555Z" fill="url(#paint0_linear_267_3152)"/>
<defs>
<linearGradient id="paint0_linear_267_3152" x1="8" y1="-2.5" x2="36.153" y2="38.8959" gradientUnits="userSpaceOnUse">
<stop stop-color="#0094E0"/>
<stop offset="1" stop-color="#005EA1"/>
</linearGradient>
</defs>
</svg>
