<svg preserveAspectRatio="none" width="100%" height="100%" overflow="visible" style="display: block;" viewBox="0 0 19.2002 18.5986" fill="none" xmlns="http://www.w3.org/2000/svg">
<path id="Union" d="M15.6006 8.99902C17.5885 8.9992 19.1999 10.6109 19.2002 12.5986C19.2001 13.8837 18.526 15.0106 17.5127 15.6475L15.2998 18.5986L13.2568 15.3301C12.4883 14.6699 12 13.6912 12 12.5986C12.0003 10.6109 13.6128 8.99933 15.6006 8.99902ZM13.7012 0C15.4114 0 16.7978 1.38642 16.7979 3.09668V5.39941H17.3809C17.7229 5.39941 18 5.67747 18 6.01953V7.78027C18 8.08626 17.7779 8.33752 17.4863 8.3877C16.9059 8.13855 16.2664 8 15.5947 8C15.3934 8.00003 15.1948 8.013 15 8.03711V4.81934C14.9999 4.47746 14.7227 4.19933 14.3809 4.19922H3.61914C3.27738 4.19948 3.00013 4.47755 3 4.81934V8.98047C3.00022 9.32218 3.27744 9.59935 3.61914 9.59961H12.0186C11.2584 10.4488 10.795 11.5705 10.7949 12.7998C10.795 14.1286 11.3371 15.3302 12.21 16.1992H5.40039V16.7988C5.40039 17.4615 4.86287 17.999 4.2002 17.999C3.53757 17.9989 3 17.4615 3 16.7988V16.1973C2.33323 16.1776 1.79806 15.6324 1.79785 14.9609V8.39941H0.619141C0.277295 8.39916 1.59437e-06 8.12218 0 7.78027V6.01953C0 5.67763 0.277294 5.39967 0.619141 5.39941H1.79785V3.09668C1.79791 1.38666 3.1846 0.000394909 4.89453 0H13.7012ZM15.6016 10.7988C14.6078 10.799 13.8021 11.605 13.8018 12.5986C13.8018 13.5926 14.6076 14.3983 15.6016 14.3984C16.5957 14.3984 17.4014 13.5927 17.4014 12.5986C17.401 11.6049 16.5954 10.7988 15.6016 10.7988ZM4.2002 11.3994C3.53763 11.3995 3.00013 11.9371 3 12.5996C3.0001 13.2622 3.53761 13.7997 4.2002 13.7998C4.86281 13.7997 5.40029 13.2622 5.40039 12.5996C5.40026 11.9371 4.86279 11.3995 4.2002 11.3994ZM7.19922 1.7998C6.86831 1.80008 6.59996 2.06853 6.59961 2.39941C6.59961 2.7306 6.86809 2.99973 7.19922 3H10.7998C11.131 2.99986 11.3994 2.73068 11.3994 2.39941C11.3991 2.06844 11.1308 1.79994 10.7998 1.7998H7.19922Z" fill="var(--fill-0, white)"/>
</svg>
