<svg preserveAspectRatio="none" width="100%" height="100%" overflow="visible" style="display: block;" viewBox="0 0 16.5323 20.7999" fill="none" xmlns="http://www.w3.org/2000/svg">
<path id="Union" d="M7.79105 0.15618C8.09294 -0.0669923 8.51504 -0.0509434 8.79983 0.204032C10.7785 1.97778 13.2293 3.11977 15.8438 3.48821C16.2386 3.54383 16.5323 3.88246 16.5323 4.28118V10.8417C16.5323 13.2444 15.4328 15.2868 13.92 16.9228C12.4105 18.5551 10.4527 19.8269 8.61624 20.7197C8.39652 20.8264 8.14009 20.8265 7.91995 20.7206C6.06434 19.8275 4.10114 18.5562 2.59378 16.9228C1.08278 15.2854 -0.00653421 13.2418 2.95028e-05 10.8398V4.28118C2.95028e-05 3.88247 0.293719 3.54384 0.688506 3.48821C3.30316 3.11984 5.75371 1.97788 7.73245 0.204032L7.79105 0.15618ZM8.26663 1.85052C6.33303 3.4279 4.04215 4.49596 1.59964 4.95794V10.8447C1.59461 12.7273 2.44335 14.3986 3.77054 15.8368C5.01236 17.1825 6.64253 18.2862 8.26468 19.1064C9.87248 18.286 11.5004 17.1828 12.7451 15.8368C14.0766 14.397 14.9326 12.724 14.9326 10.8417V4.95794C12.4902 4.49594 10.2002 3.42786 8.26663 1.85052ZM5.86624 8.53313C7.14615 7.03991 10.7545 6.84467 12.2657 6.93352C12.3545 8.08923 12.1591 10.8799 10.666 12.7997C9.17286 14.7197 7.02179 14.3115 6.13284 13.8671L5.33304 14.6669C4.90667 14.8801 4.62232 14.5781 4.53323 14.4003L9.33304 9.33294L5.06644 12.7997C4.88866 11.9996 4.5864 10.0264 5.86624 8.53313Z" fill="var(--fill-0, white)"/>
</svg>
