<svg preserveAspectRatio="none" width="100%" height="100%" overflow="visible" style="display: block;" viewBox="0 0 32 32" fill="none" xmlns="http://www.w3.org/2000/svg">
<g id="Group 1000003147">
<circle id="Ellipse 1407" cx="16" cy="16" r="16" fill="var(--fill-0, #256EF4)"/>
<path id="Union" d="M23.3555 22.6378C23.9323 22.6379 24.3252 22.9756 24.3252 23.4298C24.3251 23.7857 24.1164 24.0313 23.6377 24.4425L23.0791 24.9269V24.9454H24.4053V25.339H22.3916V24.9952L23.4102 24.0929C23.7109 23.8289 23.8711 23.6628 23.8711 23.4357C23.8711 23.1779 23.6433 23.0187 23.3486 23.0187C23.0421 23.0188 22.8332 23.1962 22.833 23.4659H22.373C22.3733 22.969 22.7848 22.6378 23.3555 22.6378ZM12 24.0001C12 24.6313 11.4886 25.1427 10.8574 25.1427H7.42871C7.11318 25.1426 6.85742 24.8869 6.85742 24.5714C6.8575 24.2559 7.11323 24.0002 7.42871 24.0001H12ZM15.999 20.0655C16.8952 20.0655 17.6262 20.6058 17.792 21.5265H17.2393C17.1103 20.9127 16.5821 20.5812 15.999 20.5812C15.1952 20.5814 14.5695 21.2013 14.5693 22.3487C14.5693 23.4964 15.1951 24.1171 15.999 24.1173C16.5822 24.1173 17.1042 23.7855 17.2393 23.1778H17.792C17.6324 24.0863 16.9014 24.6329 15.999 24.6329C14.8575 24.6327 14.0352 23.7543 14.0352 22.3487C14.0353 20.9434 14.8576 20.0658 15.999 20.0655ZM20.1045 20.0655C21.24 20.0655 22.0692 20.9433 22.0693 22.3487C22.0693 23.7544 21.2401 24.6329 20.1045 24.6329C18.963 24.6327 18.1406 23.7543 18.1406 22.3487C18.1408 20.9434 18.9631 20.0658 20.1045 20.0655ZM20.1045 20.5812C19.3007 20.5814 18.6749 21.2013 18.6748 22.3487C18.6748 23.4964 19.3006 24.1171 20.1045 24.1173C20.9086 24.1173 21.5352 23.4966 21.5352 22.3487C21.535 21.2011 20.9085 20.5812 20.1045 20.5812ZM20.6025 6.39757C20.7914 8.83089 21.0124 13.4837 19.7158 15.4288C18.0016 18.0002 14.9733 19.1428 12.001 18.5714C11.4295 18.8572 10.2871 19.9431 10.2871 22.0001C10.2865 22.3811 9.14297 22.8568 8.85645 21.714C8.57102 21.3327 8.5754 20.2855 9.14355 17.4288C9.31399 16.5717 7.42917 14.5714 9.71582 10.5714C11.1427 8.85723 12.6282 8.00012 16.2852 8.00011C19.3061 8.00008 20.4552 7.08986 20.6025 6.39757ZM17.4297 10.5714C16.5726 11.7142 13.4302 13.1433 11.7158 14.8575C10.3444 16.229 9.62017 19.0481 9.42969 20.2862C10.001 20.8571 10.287 19.1428 10.8584 18.0001C11.4298 16.8572 12.2869 14.8573 14.5723 13.4288C16.4008 12.286 17.2392 11.0476 17.4297 10.5714Z" fill="var(--fill-0, white)"/>
</g>
</svg>
