<svg width="264" height="60" viewBox="0 0 264 60" fill="none" xmlns="http://www.w3.org/2000/svg">
  <path d="M54.3624 13.8721C31.1154 11.2664 11.2146 18.6491 1 23.6433V60H262V4.1005C245.093 3.44908 235.583 10.2891 205.996 13.8719C176.409 17.4548 150.52 3.00007 129.387 3C107.494 2.99992 83.4211 17.1292 54.3624 13.8721Z" fill="url(#gmk_c_grad)" fill-opacity="0.8"/>
  <path d="M1 23.6433C11.2146 18.6491 31.1154 11.2664 54.3624 13.8721C83.4211 17.1292 107.494 2.99992 129.387 3C150.52 3.00007 176.409 17.4548 205.996 13.8719C235.583 10.2891 245.093 3.44908 262 4.1005" stroke="#0C8AE5" stroke-width="1.5"/>
  <circle cx="3" cy="24" r="3" fill="#0B78CB"/>
  <circle cx="73" cy="13" r="3" fill="#0B78CB"/>
  <circle cx="137" cy="3" r="3" fill="#0B78CB"/>
  <circle cx="199" cy="14" r="3" fill="#0B78CB"/>
  <circle cx="261" cy="4" r="3" fill="#0B78CB"/>
  <defs>
    <linearGradient id="gmk_c_grad" x1="131.5" y1="3" x2="131.5" y2="60" gradientUnits="userSpaceOnUse">
      <stop stop-color="#C0DFFF"/>
      <stop offset="1" stop-color="#FDFEFF"/>
    </linearGradient>
  </defs>
</svg>
