<svg preserveAspectRatio="none" width="100%" height="100%" overflow="visible" style="display: block;" viewBox="0 0 261.239 57.5" fill="none" xmlns="http://www.w3.org/2000/svg">
<g id="Group 1000003155">
<g id="Group 1000003154">
<path id="Vector 1064" d="M53.582 11.3721C30.335 8.76637 10.4342 16.1491 0.219623 21.1433V57.5H261.22V1.6005C244.313 0.949075 234.803 7.78907 205.216 11.3719C175.629 14.9548 149.74 0.500074 128.606 0.5C106.714 0.499923 82.6407 14.6292 53.582 11.3721Z" fill="url(#paint0_linear_1849_36913)" fill-opacity="0.8"/>
</g>
<path id="Vector 1065" d="M0.219623 21.1433C10.4342 16.1491 30.335 8.76637 53.582 11.3721C82.6407 14.6292 106.714 0.499923 128.606 0.5C149.74 0.500074 175.629 14.9548 205.216 11.3719C234.803 7.78907 244.313 0.949075 261.22 1.6005" stroke="var(--stroke-0, #0C8AE5)"/>
</g>
<defs>
<linearGradient id="paint0_linear_1849_36913" x1="130.72" y1="0.5" x2="130.72" y2="57.5" gradientUnits="userSpaceOnUse">
<stop stop-color="#C0DFFF"/>
<stop offset="1" stop-color="#FDFEFF"/>
</linearGradient>
</defs>
</svg>
