<svg preserveAspectRatio="none" width="100%" height="100%" overflow="visible" style="display: block;" viewBox="0 0 80 80" fill="none" xmlns="http://www.w3.org/2000/svg">
<g id="Frame 1321322714" clip-path="url(#clip0_1849_36777)">
<circle id="Ellipse 1419" cx="40" cy="40" r="39.5" fill="var(--fill-0, #EEEFFF)" stroke="var(--stroke-0, #D2D6FF)"/>
<g id="Layer 1">
<path id="Vector" d="M25.4824 51.1592C27.3193 51.1593 28.8083 52.6519 28.8086 54.4932C28.8086 56.3346 27.3194 57.828 25.4824 57.8281C23.6453 57.8281 22.1553 56.3347 22.1553 54.4932C22.1555 52.6519 23.6455 51.1592 25.4824 51.1592Z" fill="var(--fill-0, #636CCC)" stroke="var(--stroke-0, white)" stroke-width="0.131575"/>
<path id="Vector_2" d="M39.6582 53.5518C41.4951 53.5519 42.9841 55.0445 42.9844 56.8857C42.9844 58.7272 41.4952 60.2206 39.6582 60.2207C37.8211 60.2207 36.3311 58.7273 36.3311 56.8857C36.3313 55.0445 37.8213 53.5518 39.6582 53.5518Z" fill="var(--fill-0, #636CCC)" stroke="var(--stroke-0, white)" stroke-width="0.131575"/>
<path id="Vector_3" d="M53.0059 51.2529C54.8427 51.253 56.3318 52.7457 56.332 54.5869C56.332 56.4284 54.8429 57.9218 53.0059 57.9219C51.1688 57.9219 49.6787 56.4284 49.6787 54.5869C49.679 52.7456 51.1689 51.2529 53.0059 51.2529Z" fill="var(--fill-0, #636CCC)" stroke="var(--stroke-0, white)" stroke-width="0.131575"/>
<path id="Vector_4" d="M34.0296 45.3975L26.0625 53.9074" stroke="var(--stroke-0, #636CCC)" stroke-width="3.15282" stroke-miterlimit="10" stroke-linecap="round"/>
<path id="Vector_5" d="M39.4446 56.2524L39.2578 50.625" stroke="var(--stroke-0, #636CCC)" stroke-width="3.15282" stroke-miterlimit="10" stroke-linecap="round"/>
<path id="Vector_6" d="M46.3281 47.5762L51.1003 52.4076" stroke="var(--stroke-0, #636CCC)" stroke-width="3.15282" stroke-miterlimit="10" stroke-linecap="round"/>
<path id="Vector_7" d="M26.6749 47.2951C22.437 47.2951 19 43.8518 19 39.6033C19 35.3547 22.4357 31.9114 26.6749 31.9114C26.6749 31.9114 26.2535 31.7707 26.3007 28.4879C26.3677 23.7999 30.8786 20 36.5251 20C40.8391 20 44.5295 22.2183 46.0314 25.3564L46.7968 25.863C51.7384 25.863 54.087 28.0905 54.5964 31.7878L54.8852 31.9746C58.2199 33.3732 60.5068 36.2429 60.5068 39.5559C60.5068 43.4453 57.419 47.9043 53.067 47.153" stroke="var(--stroke-0, #636CCC)" stroke-width="3.15282" stroke-linecap="round" stroke-linejoin="round"/>
<path id="Vector_8" d="M37.845 34.3813C34.6049 34.9168 32.1328 37.7364 32.1328 41.135C32.1328 44.9165 35.1917 47.9821 38.9648 47.9821C42.4452 47.9821 45.3151 45.3743 45.7404 42.0021L45.7811 42.0416L46.171 32.584L37.845 34.3813ZM40.8055 39.6035C40.3381 40.3074 37.2962 43.8244 37.2962 43.8244C37.2962 43.8244 36.1842 44.5981 35.642 43.7823C35.3808 43.3889 35.4438 42.8613 35.7641 42.5139L39.683 38.4785C39.683 38.4785 41.6483 36.9312 42.2102 36.6023C42.7721 36.2733 41.2741 38.9009 40.8068 39.6035H40.8055Z" fill="var(--fill-0, #636CCC)"/>
</g>
</g>
<defs>
<clipPath id="clip0_1849_36777">
<rect width="80" height="80" fill="white"/>
</clipPath>
</defs>
</svg>
