<svg preserveAspectRatio="none" width="100%" height="100%" overflow="visible" style="display: block;" viewBox="0 0 47.9905 47.9905" fill="none" xmlns="http://www.w3.org/2000/svg">
<g id="Group 1000002932">
<path id="Vector 923" d="M44.6948 18.9048C34.8058 21.2316 35.7269 10.1793 37.4235 4.36224C38.6356 4.36224 41.9325 5.38022 45.4227 9.45215C48.9129 13.5241 46.3917 17.4506 44.6948 18.9048Z" fill="var(--fill-0, #0C8AE5)"/>
<path id="Vector 924" d="M45.0814 18.9055C44.8391 18.1784 43.918 16.1424 42.1729 13.8156" stroke="var(--stroke-0, #0C8AE5)" stroke-width="1.45426" stroke-linecap="round"/>
<path id="Ellipse 1367" d="M13.6867 25.5229L25.9823 11.9331C26.2684 11.6168 26.7916 11.8567 26.7387 12.2799L25.456 22.5415H33.2283C33.6018 22.5415 33.8026 22.9802 33.5585 23.2629L21.3079 37.4478C21.0258 37.7745 20.4913 37.5368 20.5448 37.1085L21.8203 26.9042L13.974 26.2504C13.6139 26.2204 13.4443 25.7908 13.6867 25.5229Z" fill="var(--fill-0, #0C8AE5)"/>
<path id="Ellipse 1366" d="M46.5363 23.9953C46.5363 36.4443 36.4443 46.5363 23.9953 46.5363C11.5462 46.5363 1.45426 36.4443 1.45426 23.9953C1.45426 11.5462 11.5462 1.45426 23.9953 1.45426C27.3709 1.45426 30.5732 2.19626 33.448 3.52606" stroke="var(--stroke-0, #0C8AE5)" stroke-width="2.90852" stroke-linecap="round"/>
</g>
</svg>
