<svg preserveAspectRatio="none" width="100%" height="100%" overflow="visible" style="display: block;" viewBox="0 0 80 80" fill="none" xmlns="http://www.w3.org/2000/svg">
<g id="Component 1422">
<rect id="Rectangle 34627389" x="0.5" y="0.5" width="79" height="79" rx="39.5" fill="var(--fill-0, #EAF6EC)" stroke="var(--stroke-0, #D8EEDD)"/>
<path id="Union" d="M54.3244 39.5312C59.0809 39.5315 62.9366 43.3877 62.9367 48.1445C62.9367 51.2205 61.3231 53.9177 58.8976 55.4414L53.6037 62.502L48.7121 54.6768C46.8753 53.0971 45.7111 50.7572 45.7111 48.1445C45.7111 43.3875 49.5676 39.5312 54.3244 39.5312ZM49.7785 18C53.8705 18 57.1876 21.3172 57.1876 25.4092V30.9199H58.5822C59.4004 30.9199 60.0644 31.5831 60.0646 32.4014V36.6162C60.0644 37.3464 59.5354 37.9512 58.84 38.0732C57.4494 37.4752 55.9175 37.1426 54.3078 37.1426C53.8259 37.1426 53.3512 37.1757 52.8849 37.2334V29.5303C52.8847 28.7121 52.2217 28.0489 51.4035 28.0488H25.6574C24.8393 28.049 24.1762 28.7122 24.1759 29.5303V39.4873C24.1761 40.3054 24.8392 40.9686 25.6574 40.9688H45.7531C43.9329 43.0009 42.8244 45.684 42.8244 48.627C42.8244 51.8059 44.1179 54.6808 46.2052 56.7598H29.9181V58.1953C29.9181 59.7808 28.6325 61.0663 27.047 61.0664C25.4616 61.0663 24.1759 59.7808 24.1759 58.1953V56.7568C22.5803 56.7097 21.3009 55.4029 21.3009 53.7959V38.0977H18.4826C17.6643 38.0975 17.0003 37.4344 17.0001 36.6162V32.4023C17.0001 31.584 17.6643 30.9201 18.4826 30.9199H21.3009V25.4092C21.301 21.3173 24.6183 18.0002 28.7101 18H49.7785ZM54.3263 43.8398C51.9479 43.8398 50.0197 45.768 50.0197 48.1465C50.0197 50.525 51.9479 52.4531 54.3263 52.4531C56.7046 52.453 58.6329 50.5249 58.6329 48.1465C58.6329 45.7681 56.7046 43.84 54.3263 43.8398ZM27.047 45.2754C25.4615 45.2755 24.1759 46.5609 24.1759 48.1465C24.1759 49.7321 25.4615 51.0175 27.047 51.0176C28.6325 51.0175 29.9181 49.7321 29.9181 48.1465C29.9181 46.5609 28.6325 45.2755 27.047 45.2754ZM34.2247 22.3066C33.432 22.3067 32.7892 22.9494 32.7892 23.7422C32.7892 24.535 33.432 25.1777 34.2247 25.1777H42.8371C43.6299 25.1777 44.2726 24.535 44.2726 23.7422C44.2726 22.9494 43.6299 22.3066 42.8371 22.3066H34.2247Z" fill="var(--fill-0, #228738)"/>
</g>
</svg>
