<svg preserveAspectRatio="none" width="100%" height="100%" overflow="visible" style="display: block;" viewBox="0 0 80 80" fill="none" xmlns="http://www.w3.org/2000/svg">
<g id="Frame 1321323234" clip-path="url(#clip0_1849_36803)">
<circle id="Ellipse 1419" cx="40" cy="40" r="39.4286" fill="var(--fill-0, #FFF2E3)" stroke="var(--stroke-0, #FFE3C3)" stroke-width="1.14286"/>
<path id="Union" d="M38.7079 15.3751C39.433 14.8392 40.446 14.8778 41.1298 15.4904C45.881 19.7494 51.7658 22.4916 58.0439 23.3761C58.9916 23.5098 59.6962 24.3212 59.6962 25.2784V41.0314C59.6962 46.8002 57.0563 51.7049 53.4238 55.6329C49.7994 59.552 45.0977 62.6047 40.6884 64.7482C40.1607 65.0046 39.5442 65.0064 39.0155 64.7521C34.56 62.6077 29.8478 59.5538 26.2284 55.632C22.6002 51.7004 19.9841 46.794 19.9999 41.0265V25.2784C19.9999 24.3211 20.7053 23.5096 21.6532 23.3761C27.9312 22.4916 33.8152 19.7493 38.5663 15.4904L38.7079 15.3751ZM39.8486 19.4445C35.2058 23.2318 29.7064 25.7962 23.8417 26.9054V41.0372C23.8294 45.5578 25.8658 49.5722 29.0527 53.0255C32.0344 56.2565 35.9488 58.9058 39.8437 60.8751C43.7044 58.9053 47.6135 56.2564 50.6025 53.0245C53.7994 49.5675 55.8554 45.5508 55.8554 41.0314V26.9054C49.9907 25.7962 44.4913 23.2317 39.8486 19.4445ZM34.0839 35.4894C37.1571 31.904 45.8217 31.4342 49.4501 31.6476C49.6635 34.4221 49.1948 41.1245 45.6093 45.7345C42.0238 50.3444 36.8588 49.3622 34.7245 48.295L32.8036 50.2159C31.7792 50.7282 31.0962 50.0022 30.8827 49.5753L42.4072 37.4103L32.163 45.7345C31.7362 43.8137 31.0107 39.0749 34.0839 35.4894Z" fill="var(--fill-0, #F28300)"/>
</g>
<defs>
<clipPath id="clip0_1849_36803">
<rect width="80" height="80" fill="white"/>
</clipPath>
</defs>
</svg>
