<svg width="24" height="24" viewBox="0 0 24 24" fill="none" xmlns="http://www.w3.org/2000/svg">
<path d="M12 0C18.6274 0 24 5.37258 24 12C24 18.6274 18.6274 24 12 24C5.37258 24 0 18.6274 0 12C0 5.37258 5.37258 0 12 0ZM12 1C5.92487 1 1 5.92487 1 12C1 18.0751 5.92487 23 12 23C18.0751 23 23 18.0751 23 12C23 5.92487 18.0751 1 12 1ZM12 10.667C12.5523 10.667 13 11.1147 13 11.667V16.334C12.9996 16.8859 12.552 17.334 12 17.334C11.448 17.334 11.0004 16.8859 11 16.334V11.667C11 11.1147 11.4477 10.667 12 10.667ZM12.0117 6C12.564 6.00003 13.0117 6.44773 13.0117 7C13.0117 7.55227 12.564 7.99997 12.0117 8H12C11.4477 8 11 7.55228 11 7C11 6.44772 11.4477 6 12 6H12.0117Z" fill="#B1B8BE"/>
</svg>
