<svg width="30" height="30" viewBox="0 0 30 30" fill="none" xmlns="http://www.w3.org/2000/svg">
<rect x="0.5" y="0.5" width="29" height="29" rx="14.5" fill="white" stroke="#D6E0EB"/>
<path d="M20.625 14.4375C22.489 14.4375 24 15.9486 24 17.8125C23.9997 19.0165 23.368 20.0718 22.4189 20.6689L20.3438 23.4375L18.4277 20.3721C17.7076 19.7533 17.2503 18.8363 17.25 17.8125C17.25 15.9489 18.7614 14.4379 20.625 14.4375ZM18.8447 6C20.4481 6 21.748 7.29991 21.748 8.90332V11.0625H22.2949C22.6154 11.0626 22.8748 11.3221 22.875 11.6426V13.2939C22.875 13.5795 22.669 13.8156 22.3975 13.8643C21.8525 13.6299 21.2518 13.5001 20.6211 13.5C20.4321 13.5 20.2453 13.5125 20.0625 13.5352V10.5176C20.0622 10.1971 19.802 9.9375 19.4814 9.9375H9.39355C9.07312 9.9376 8.81276 10.1972 8.8125 10.5176V14.4189C8.8125 14.7396 9.07296 14.9999 9.39355 15H17.2676C16.5548 15.7962 16.1211 16.8474 16.1211 18C16.1212 19.2457 16.6291 20.3719 17.4473 21.1865H11.0625V21.749C11.0625 22.3703 10.5588 22.874 9.9375 22.874C9.31632 22.8739 8.8125 22.3702 8.8125 21.749V21.1846C8.18729 21.1661 7.68555 20.6551 7.68555 20.0254V13.875H6.58105C6.26048 13.8749 6 13.6145 6 13.2939V11.6426C6.00019 11.3221 6.2606 11.0626 6.58105 11.0625H7.68555V8.90332C7.68555 7.30006 8.98566 6.00024 10.5889 6H18.8447ZM20.626 16.125C19.6943 16.1254 18.9385 16.8808 18.9385 17.8125C18.9388 18.7439 19.6945 19.4996 20.626 19.5C21.5577 19.5 22.3131 18.7441 22.3135 17.8125C22.3135 16.8806 21.558 16.125 20.626 16.125ZM9.9375 16.6875C9.31631 16.6876 8.81252 17.1913 8.8125 17.8125C8.8127 18.4335 9.31642 18.9374 9.9375 18.9375C10.5587 18.9375 11.0623 18.4336 11.0625 17.8125C11.0625 17.1912 10.5588 16.6875 9.9375 16.6875ZM12.75 7.6875C12.4395 7.6876 12.1875 7.93944 12.1875 8.25C12.1875 8.56058 12.4394 8.8124 12.75 8.8125H16.125C16.4355 8.81227 16.6875 8.56051 16.6875 8.25C16.6875 7.93952 16.4354 7.68773 16.125 7.6875H12.75Z" fill="#06A85B"/>
</svg>
