<svg width="30" height="30" viewBox="0 0 30 30" fill="none" xmlns="http://www.w3.org/2000/svg">
<rect x="0.75" y="0.75" width="28.5" height="28.5" rx="14.25" fill="white" stroke="#ECF2FE" stroke-width="1.5"/>
<path d="M14.8047 5.39637C15.0878 5.18725 15.4831 5.20219 15.75 5.4413C17.605 7.1042 19.9025 8.17499 22.3535 8.5204C22.7237 8.57254 22.9991 8.88976 22.9991 9.26356V15.414C22.9991 17.6664 21.9681 19.5814 20.5498 21.1151C19.1348 22.6453 17.2997 23.8378 15.5782 24.6747C15.3721 24.7749 15.1313 24.775 14.9248 24.6757C13.1852 23.8384 11.3448 22.6465 9.93167 21.1151C8.51508 19.58 7.49385 17.6639 7.50003 15.412V9.26356C7.50003 8.88976 7.77541 8.57254 8.14554 8.5204C10.5967 8.17506 12.894 7.10423 14.7491 5.4413L14.8047 5.39637ZM15.25 6.98524C13.4373 8.46403 11.2899 9.46522 9.00003 9.89833V15.4169C8.99533 17.1818 9.79001 18.7492 11.0342 20.0975C12.1984 21.3591 13.7273 22.3931 15.2481 23.162C16.7555 22.3928 18.2823 21.3585 19.4492 20.0966C20.6973 18.7468 21.4991 17.1784 21.4991 15.414V9.89833C19.2094 9.46519 17.0626 8.46388 15.25 6.98524ZM13 13.2499C14.2 11.8501 17.5823 11.6666 18.9991 11.7499C19.0824 12.8332 18.899 15.4499 17.4991 17.2499C16.0993 19.0495 14.0835 18.6665 13.25 18.2499L12.5 18.9999C12.1001 19.1999 11.8334 18.9166 11.75 18.7499L16.2491 13.9999L12.25 17.2499C12.0834 16.4999 11.8001 14.6499 13 13.2499Z" fill="#EC8913"/>
</svg>
