<svg width="30" height="30" viewBox="0 0 30 30" fill="none" xmlns="http://www.w3.org/2000/svg">
<rect x="0.75" y="0.75" width="28.5" height="28.5" rx="14.25" stroke="#D6E0EB" stroke-width="1.5"/>
<path d="M23.7321 13.1256C19.6767 14.0798 20.0544 9.54719 20.7502 7.16162C21.2473 7.16162 22.5993 7.5791 24.0306 9.249C25.462 10.9189 24.428 12.5292 23.7321 13.1256Z" fill="#0C8AE5"/>
<path d="M23.892 13.1259C23.7926 12.8278 23.4149 11.9928 22.6992 11.0386" stroke="#E6E8EA" stroke-width="0.596393" stroke-linecap="round"/>
<path d="M11.0162 15.8395L16.0586 10.2663C16.1759 10.1366 16.3905 10.235 16.3688 10.4086L15.8428 14.6168H19.0302C19.1834 14.6168 19.2657 14.7968 19.1656 14.9127L14.1416 20.7299C14.0259 20.8639 13.8067 20.7665 13.8287 20.5908L14.3518 16.406L11.134 16.1379C10.9863 16.1256 10.9168 15.9494 11.0162 15.8395Z" fill="#0C8AE5"/>
<path d="M24.4882 15.2133C24.4882 20.3187 20.3495 24.4574 15.2441 24.4574C10.1387 24.4574 6 20.3187 6 15.2133C6 10.108 10.1387 5.96924 15.2441 5.96924C16.6284 5.96924 17.9417 6.27353 19.1206 6.81888" stroke="#0C8AE5" stroke-width="1.19279" stroke-linecap="round"/>
</svg>
