<svg width="30" height="30" viewBox="0 0 30 30" fill="none" xmlns="http://www.w3.org/2000/svg">
<rect x="0.75" y="0.75" width="28.5" height="28.5" rx="14.25" fill="white" stroke="#ECF2FE" stroke-width="1.5"/>
<path d="M8.70605 20.0923C9.49439 20.0924 10.1338 20.7317 10.1338 21.52C10.1336 22.3083 9.4943 22.9476 8.70605 22.9478C7.91769 22.9478 7.27846 22.3084 7.27832 21.52C7.27832 20.7316 7.9176 20.0923 8.70605 20.0923Z" fill="#636CCC" stroke="#636CCC" stroke-width="0.0563386"/>
<path d="M14.792 21.1167C15.5803 21.1168 16.2197 21.7561 16.2197 22.5444C16.2196 23.3327 15.5802 23.972 14.792 23.9722C14.0036 23.9722 13.3644 23.3328 13.3643 22.5444C13.3643 21.756 14.0035 21.1167 14.792 21.1167Z" fill="#636CCC" stroke="#636CCC" stroke-width="0.0563386"/>
<path d="M20.5186 20.1323C21.3069 20.1325 21.9463 20.7717 21.9463 21.5601C21.9461 22.3483 21.3068 22.9877 20.5186 22.9878C19.7302 22.9878 19.091 22.3484 19.0908 21.5601C19.0908 20.7716 19.7301 20.1323 20.5186 20.1323Z" fill="#636CCC" stroke="#636CCC" stroke-width="0.0563386"/>
<path d="M12.7323 17.373L8.95703 21.2689" stroke="#636CCC" stroke-width="1.35" stroke-miterlimit="10" stroke-linecap="round"/>
<path d="M14.7011 22.2729L14.6211 19.8633" stroke="#636CCC" stroke-width="1.35" stroke-miterlimit="10" stroke-linecap="round"/>
<path d="M17.6523 18.5576L19.7003 20.6264" stroke="#636CCC" stroke-width="1.35" stroke-miterlimit="10" stroke-linecap="round"/>
<path d="M9.21934 18.4374C7.40073 18.4374 5.92578 16.9631 5.92578 15.1439C5.92578 13.3247 7.40016 11.8503 9.21934 11.8503C9.21934 11.8503 9.03849 11.7901 9.05877 10.3844C9.0875 8.37706 11.0233 6.75 13.4464 6.75C15.2977 6.75 16.8814 7.69987 17.5259 9.04354L17.8544 9.26045C19.9749 9.26045 20.9828 10.2143 21.2014 11.7974L21.3254 11.8774C22.7564 12.4763 23.7378 13.705 23.7378 15.1236C23.7378 16.789 22.4127 18.6983 20.5451 18.3766" stroke="#636CCC" stroke-width="1.35" stroke-linecap="round" stroke-linejoin="round"/>
<path d="M17.3936 16.1235L17.3809 16.1118L17.374 16.1675C17.1932 17.5975 15.9733 18.7036 14.4941 18.7036C12.8906 18.7035 11.5908 17.4029 11.5908 15.7993C11.591 14.3583 12.6416 13.1631 14.0186 12.936L14.0195 12.9351L17.5566 12.1724L17.3936 16.1235ZM15.9238 13.8188C15.9066 13.8178 15.889 13.8252 15.873 13.8345C15.7507 13.906 15.4777 14.1078 15.2373 14.2905C15.1167 14.3822 15.0038 14.4703 14.9209 14.5347C14.8798 14.5666 14.8458 14.5925 14.8223 14.6108C14.8106 14.6199 14.8012 14.6274 14.7949 14.6323C14.7918 14.6348 14.7887 14.6369 14.7871 14.6382L14.7852 14.6401L14.7822 14.6421L13.1006 16.3706C12.9551 16.528 12.925 16.7685 13.0449 16.9487C13.1071 17.0421 13.1871 17.0912 13.2715 17.1108C13.3548 17.1302 13.4409 17.1203 13.5176 17.1001C13.5945 17.0798 13.6634 17.0482 13.7129 17.022C13.7377 17.0088 13.7585 16.9974 13.7725 16.9888C13.7793 16.9845 13.7844 16.9805 13.7881 16.978C13.79 16.9768 13.792 16.9758 13.793 16.9751H13.7939V16.9741L13.7949 16.9751L13.7998 16.9692L13.8037 16.9653C13.8062 16.9625 13.8097 16.9581 13.8145 16.9526C13.8241 16.9415 13.8385 16.9256 13.8564 16.9048C13.8925 16.863 13.9441 16.8029 14.0068 16.73C14.1323 16.5841 14.3019 16.3863 14.4775 16.1792C14.8185 15.7773 15.1845 15.3366 15.2979 15.1724H15.2998L15.3086 15.1597C15.4096 15.0082 15.6204 14.6501 15.7764 14.3481C15.8541 14.1976 15.919 14.059 15.9492 13.9663C15.9568 13.9431 15.9628 13.922 15.9658 13.9038C15.9687 13.8865 15.9701 13.8681 15.9658 13.853C15.9635 13.8451 15.9588 13.8364 15.9512 13.8296C15.9432 13.8226 15.9334 13.8195 15.9238 13.8188Z" fill="#636CCC" stroke="#636CCC" stroke-width="0.0563386"/>
</svg>
