<svg width="40" height="40" viewBox="0 0 40 40" fill="none" xmlns="http://www.w3.org/2000/svg">
<rect x="1" y="1" width="38" height="38" rx="19" fill="#636CCC" stroke="white" stroke-width="2"/>
<path d="M11.6094 26.7896C12.6605 26.7897 13.5127 27.6427 13.5127 28.6938C13.5125 29.7448 12.6604 30.597 11.6094 30.5972C10.5582 30.5972 9.70527 29.745 9.70508 28.6938C9.70508 27.6426 10.5581 26.7896 11.6094 26.7896Z" fill="white" stroke="white" stroke-width="0.0751182"/>
<path d="M19.7227 28.1548C20.7738 28.155 21.626 29.0079 21.626 30.0591C21.6258 31.1101 20.7736 31.9622 19.7227 31.9624C18.6715 31.9624 17.8186 31.1102 17.8184 30.0591C17.8184 29.0078 18.6714 28.1548 19.7227 28.1548Z" fill="white" stroke="white" stroke-width="0.0751182"/>
<path d="M27.3594 26.8428C28.4105 26.843 29.2627 27.6959 29.2627 28.7471C29.2625 29.7981 28.4104 30.6502 27.3594 30.6504C26.3082 30.6504 25.4553 29.7982 25.4551 28.7471C25.4551 27.6958 26.3081 26.8428 27.3594 26.8428Z" fill="white" stroke="white" stroke-width="0.0751182"/>
<path d="M16.9751 23.1641L11.9414 28.3585" stroke="white" stroke-width="1.8" stroke-miterlimit="10" stroke-linecap="round"/>
<path d="M19.5989 29.6972L19.4922 26.4844" stroke="white" stroke-width="1.8" stroke-miterlimit="10" stroke-linecap="round"/>
<path d="M23.5391 24.7437L26.2696 27.502" stroke="white" stroke-width="1.8" stroke-miterlimit="10" stroke-linecap="round"/>
<path d="M12.2938 24.5833C9.86894 24.5833 7.90234 22.6174 7.90234 20.1919C7.90234 17.7663 9.86819 15.8004 12.2938 15.8004C12.2938 15.8004 12.0526 15.7201 12.0797 13.8459C12.118 11.1694 14.699 9 17.9299 9C20.3982 9 22.5098 10.2665 23.3692 12.0581L23.8071 12.3473C26.6346 12.3473 27.9784 13.619 28.2699 15.7298L28.4351 15.8365C30.3431 16.635 31.6517 18.2733 31.6517 20.1648C31.6517 22.3853 29.8849 24.9311 27.3948 24.5021" stroke="white" stroke-width="1.8" stroke-linecap="round" stroke-linejoin="round"/>
<path d="M23.1924 21.498L23.1758 21.4824L23.167 21.5566C22.926 23.4634 21.2993 24.9385 19.3271 24.9385C17.189 24.9385 15.4551 23.2046 15.4551 21.0664C15.4551 19.1449 16.8564 17.5509 18.6924 17.248L18.6943 17.2471L23.4102 16.2314L23.1924 21.498ZM21.2334 18.4248C21.2103 18.4233 21.1865 18.4338 21.165 18.4463C21.0018 18.5416 20.6379 18.811 20.3174 19.0547C20.1567 19.1769 20.006 19.2931 19.8955 19.3789C19.8402 19.4218 19.7951 19.4579 19.7637 19.4824C19.7481 19.4946 19.7358 19.5043 19.7275 19.5107C19.7235 19.5139 19.7199 19.5159 19.7178 19.5176L19.7148 19.5205L19.7109 19.5234L17.4688 21.8271L17.4678 21.8281C17.2739 22.038 17.2347 22.3584 17.3945 22.5986C17.4775 22.7231 17.5838 22.7882 17.6963 22.8145C17.8076 22.8404 17.923 22.8278 18.0254 22.8008C18.1278 22.7737 18.2202 22.7322 18.2861 22.6973C18.3191 22.6798 18.3457 22.6639 18.3643 22.6523C18.3736 22.6466 18.3807 22.641 18.3857 22.6377C18.3882 22.6361 18.3903 22.6347 18.3916 22.6338L18.3936 22.6328L18.3945 22.6338L18.4014 22.626L18.4023 22.625C18.4031 22.6241 18.4039 22.6227 18.4053 22.6211C18.4086 22.6173 18.4135 22.6109 18.4199 22.6035C18.4327 22.5887 18.4525 22.5669 18.4766 22.5391C18.5246 22.4834 18.5934 22.4036 18.6768 22.3066C18.8441 22.1121 19.0704 21.8484 19.3047 21.5723C19.7596 21.0361 20.2477 20.4481 20.3984 20.2295H20.4014L20.4121 20.2129C20.5467 20.0109 20.8291 19.5345 21.0371 19.1318C21.1409 18.931 21.2272 18.7457 21.2676 18.6221C21.2776 18.5912 21.285 18.5632 21.2891 18.5391C21.2929 18.5159 21.2948 18.4918 21.2891 18.4717C21.286 18.461 21.2798 18.4497 21.2695 18.4404C21.2589 18.4309 21.2462 18.4257 21.2334 18.4248Z" fill="white" stroke="white" stroke-width="0.0751182"/>
</svg>
