<svg width="40" height="40" viewBox="0 0 40 40" fill="none" xmlns="http://www.w3.org/2000/svg">
<rect x="1" y="1" width="38" height="38" rx="19" fill="white" stroke="#E4E8EB" stroke-width="2"/>
<path d="M11.6094 26.7896C12.6605 26.7897 13.5127 27.6427 13.5127 28.6938C13.5125 29.7448 12.6604 30.597 11.6094 30.5972C10.5582 30.5972 9.70527 29.745 9.70508 28.6938C9.70508 27.6426 10.5581 26.7896 11.6094 26.7896Z" fill="#B3B3B3" stroke="white" stroke-width="0.0751182"/>
<path d="M19.7227 28.1548C20.7738 28.155 21.626 29.0079 21.626 30.0591C21.6258 31.1101 20.7736 31.9622 19.7227 31.9624C18.6715 31.9624 17.8186 31.1102 17.8184 30.0591C17.8184 29.0078 18.6714 28.1548 19.7227 28.1548Z" fill="#B3B3B3" stroke="white" stroke-width="0.0751182"/>
<path d="M27.3594 26.8428C28.4105 26.843 29.2627 27.6959 29.2627 28.7471C29.2625 29.7981 28.4104 30.6502 27.3594 30.6504C26.3082 30.6504 25.4553 29.7982 25.4551 28.7471C25.4551 27.6958 26.3081 26.8428 27.3594 26.8428Z" fill="#B3B3B3" stroke="white" stroke-width="0.0751182"/>
<path d="M16.5 23.5L11.9414 28.3585" stroke="#B3B3B3" stroke-width="1.8" stroke-miterlimit="10" stroke-linecap="round"/>
<path d="M19.5989 29.6972L19.4922 26.4844" stroke="#B3B3B3" stroke-width="1.8" stroke-miterlimit="10" stroke-linecap="round"/>
<path d="M23.5391 24.7437L26.2696 27.502" stroke="#B3B3B3" stroke-width="1.8" stroke-miterlimit="10" stroke-linecap="round"/>
<path d="M12.2938 24.5833C9.86894 24.5833 7.90234 22.6174 7.90234 20.1919C7.90234 17.7663 9.86819 15.8004 12.2938 15.8004C12.2938 15.8004 12.0526 15.7201 12.0797 13.8459C12.118 11.1694 14.699 9 17.9299 9C20.3982 9 22.5098 10.2665 23.3692 12.0581L23.8071 12.3473C26.6346 12.3473 27.9784 13.619 28.2699 15.7298L28.4351 15.8365C30.3431 16.635 31.6517 18.2733 31.6517 20.1648C31.6517 22.3853 29.8849 24.9311 27.3948 24.5021" stroke="#B3B3B3" stroke-width="1.8" stroke-linecap="round" stroke-linejoin="round"/>
<path d="M18.6864 17.2107C16.8324 17.5164 15.418 19.1262 15.418 21.0665C15.418 23.2254 17.1682 24.9756 19.3271 24.9756C21.3185 24.9756 22.9606 23.4868 23.204 21.5615L23.2273 21.5841L23.4504 16.1846L18.6864 17.2107ZM20.3803 20.1921C20.1129 20.594 18.3724 22.6019 18.3724 22.6019C18.3724 22.6019 17.7361 23.0436 17.4259 22.5779C17.2764 22.3533 17.3124 22.052 17.4957 21.8537L19.738 19.5499C19.738 19.5499 20.8625 18.6665 21.184 18.4787C21.5055 18.2909 20.6484 19.791 20.381 20.1921H20.3803Z" fill="#B3B3B3"/>
</svg>
