<svg width="40" height="40" viewBox="0 0 40 40" fill="none" xmlns="http://www.w3.org/2000/svg">
<rect x="0.5" y="0.5" width="39" height="39" rx="19.5" fill="white" stroke="#E4E8EB"/>
<path d="M31.6454 17.5007C26.2381 18.773 26.7418 12.7296 27.6695 9.54883C28.3323 9.54883 30.135 10.1055 32.0435 12.332C33.9519 14.5585 32.5733 16.7055 31.6454 17.5007Z" fill="#B3B3B3"/>
<path d="M30.0265 14.4C30.2021 14.2685 30.4514 14.3045 30.5831 14.4801C31.5592 15.7816 32.0847 16.9322 32.2325 17.3756C32.302 17.5839 32.1889 17.8091 31.9806 17.8785C31.7724 17.9478 31.5471 17.8357 31.4776 17.6275C31.3603 17.2757 30.8785 16.1994 29.9464 14.9566C29.8149 14.781 29.8509 14.5317 30.0265 14.4Z" fill="white"/>
<path d="M14.6869 21.1192L21.4102 13.6883C21.5666 13.5154 21.8527 13.6465 21.8238 13.8779L21.1224 19.489H25.3723C25.5765 19.489 25.6863 19.7289 25.5529 19.8835L18.8542 27.6398C18.6999 27.8184 18.4077 27.6885 18.437 27.4542L19.1344 21.8745L14.844 21.517C14.6472 21.5006 14.5544 21.2657 14.6869 21.1192Z" fill="#B3B3B3"/>
<path d="M7.20312 20.2842C7.20327 13.0381 13.0771 7.1642 20.3232 7.16406C22.2866 7.16406 24.1517 7.59557 25.8262 8.37012C26.2247 8.55452 26.3982 9.02721 26.2139 9.42578C26.0295 9.8243 25.5568 9.99784 25.1582 9.81348C23.6888 9.13381 22.0513 8.75391 20.3232 8.75391C13.9555 8.75405 8.79311 13.9164 8.79297 20.2842C8.79297 26.6521 13.9554 31.8143 20.3232 31.8145C26.6912 31.8145 31.8535 26.6522 31.8535 20.2842C31.8537 19.8451 32.2103 19.4893 32.6494 19.4893C33.0883 19.4895 33.4442 19.8453 33.4443 20.2842C33.4443 27.5305 27.5696 33.4053 20.3232 33.4053C13.077 33.4051 7.20312 27.5304 7.20312 20.2842Z" fill="#B3B3B3"/>
</svg>
