<svg width="50" height="50" viewBox="0 0 50 50" fill="none" xmlns="http://www.w3.org/2000/svg">
<path d="M29.2614 33.289C29.3011 33.2891 29.3327 33.3156 29.3366 33.3525C29.3865 33.8721 29.507 34.2818 29.5124 34.8222C29.5155 35.1342 29.549 35.4846 29.611 35.8691C29.7246 36.5821 29.6542 37.1842 29.8259 37.8749C29.8274 37.883 29.8292 37.8894 29.8308 37.8974L30.155 41.6308C30.1604 41.6783 30.1185 41.7197 30.0671 41.7197H26.3337C26.2662 41.7197 26.2136 41.7707 26.2136 41.833V46.3867C26.2136 46.4281 26.2493 46.4608 26.2937 46.4609C26.602 46.4594 28.0391 46.4573 30.6042 46.4521C31.7457 46.4491 31.9282 47.2429 31.7595 48.1933C31.7495 48.2503 31.7246 48.3032 31.6901 48.3505C31.3719 48.7832 31.0223 48.9999 30.6442 48.9999C24.7451 49.0029 20.791 48.9984 18.7819 48.9873C18.7353 48.9872 18.6894 48.9827 18.6442 48.9716C17.7805 48.7685 17.4403 48.2278 17.6267 47.3486C17.7901 46.5784 18.3662 46.4193 19.197 46.4453C19.6017 46.4564 20.8718 46.4554 23.0075 46.4414C23.0505 46.4399 23.0847 46.4079 23.0847 46.3701V41.8515C23.0845 41.779 23.021 41.7207 22.9421 41.7207H19.3396C19.2745 41.7207 19.2222 41.6704 19.2272 41.6113L19.8708 33.3369V33.3359C19.8726 33.3095 19.8985 33.2891 19.9274 33.289H29.2614ZM40.4265 33.289C40.4938 33.289 40.5506 33.3317 40.5661 33.3916L42.3669 40.8671C42.3861 40.9435 42.3819 41.0227 42.3581 41.0976C42.2253 41.4998 41.9638 41.703 41.572 41.706C40.3928 41.7156 37.2255 41.7183 32.0739 41.7138C32.0272 41.7138 31.9875 41.6806 31.9821 41.6376L31.1687 33.3847C31.1633 33.3343 31.2056 33.289 31.2624 33.289H40.4265ZM17.9685 33.2919C18.0304 33.2921 18.0787 33.3405 18.0749 33.3974H18.0759L17.4333 41.6318C17.4302 41.6777 17.3904 41.7128 17.3405 41.7128H7.71358C7.67601 41.7128 7.63578 41.7064 7.60127 41.6923C6.70605 41.355 7.03832 40.5399 7.17256 39.8964C7.56836 37.9966 7.99714 35.8507 8.45967 33.458C8.47655 33.3616 8.56789 33.2919 8.67451 33.2919H17.9685ZM28.4333 23.538C28.4607 23.5382 28.4832 23.5569 28.487 23.582L29.2849 31.6611C29.2879 31.6892 29.2626 31.7148 29.2312 31.7148H20.0241C19.9934 31.7148 19.9689 31.691 19.9704 31.6621L20.6003 23.5839C20.6018 23.5587 20.6264 23.538 20.654 23.538H28.4333ZM18.9704 23.5361C19.0255 23.5376 19.0684 23.5801 19.0632 23.6289C19.0118 24.13 18.8841 24.6083 18.8649 25.1249C18.8458 25.6527 18.8016 26.0791 18.7341 26.4023C18.6467 26.8254 18.7061 27.3589 18.6257 27.7207C18.4654 28.4382 18.5275 29.0842 18.3933 29.9003C18.3504 30.1716 18.3215 30.574 18.3093 31.1074C18.3077 31.1281 18.3051 31.1472 18.3005 31.1679L18.194 31.6367C18.1856 31.6811 18.1427 31.7128 18.0944 31.7128H8.93526C8.84791 31.7128 8.782 31.6407 8.79561 31.5615C9.295 28.9024 9.78373 26.4674 10.2624 24.2568C10.366 23.7833 10.6579 23.5435 11.1394 23.5419C14.2776 23.5308 16.8877 23.5287 18.9704 23.5361ZM30.2556 23.5703H38.4206C38.4742 23.5703 38.5206 23.6054 38.529 23.6542L40.0642 31.5917C40.0764 31.6533 40.0225 31.7109 39.9558 31.7109H31.0388C30.9823 31.7107 30.9361 31.6715 30.9314 31.6191L30.1462 23.6806C30.141 23.6208 30.1908 23.5694 30.2565 23.5693L30.2556 23.5703Z" fill="#0C8AE5"/>
<path d="M27 11C27 9.34315 25.6569 8 24 8C22.3431 8 21 9.34315 21 11C21 12.6569 22.3431 14 24 14C25.6569 14 27 12.6569 27 11ZM29 11C29 13.7614 26.7614 16 24 16C21.2386 16 19 13.7614 19 11C19 8.23858 21.2386 6 24 6C26.7614 6 29 8.23858 29 11Z" fill="#0C8AE5"/>
<path d="M23 4.5V1C23 0.447715 23.4477 0 24 0C24.5523 0 25 0.447715 25 1V4.5C25 5.05228 24.5523 5.5 24 5.5C23.4477 5.5 23 5.05228 23 4.5Z" fill="#0C8AE5"/>
<path d="M30.7539 10.2451L34.2539 10.2451C34.8062 10.2451 35.2539 10.6928 35.2539 11.2451C35.2539 11.7974 34.8062 12.2451 34.2539 12.2451L30.7539 12.2451C30.2016 12.2451 29.7539 11.7974 29.7539 11.2451C29.7539 10.6928 30.2016 10.2451 30.7539 10.2451Z" fill="#0C8AE5"/>
<path d="M18.5374 7.17954L16.0626 4.70467C15.6721 4.31414 15.6721 3.68098 16.0626 3.29045C16.4531 2.89993 17.0863 2.89993 17.4768 3.29045L19.9517 5.76533C20.3422 6.15585 20.3422 6.78902 19.9517 7.17954C19.5611 7.57006 18.928 7.57006 18.5374 7.17954Z" fill="#0C8AE5"/>
<path d="M19.9359 16.7345L17.461 19.2094C17.0705 19.5999 16.4373 19.5999 16.0468 19.2094C15.6563 18.8189 15.6563 18.1857 16.0468 17.7952L18.5217 15.3203C18.9122 14.9298 19.5454 14.9298 19.9359 15.3203C20.3264 15.7108 20.3264 16.344 19.9359 16.7345Z" fill="#0C8AE5"/>
<path d="M23 21.5V18C23 17.4477 23.4477 17 24 17C24.5523 17 25 17.4477 25 18V21.5C25 22.0523 24.5523 22.5 24 22.5C23.4477 22.5 23 22.0523 23 21.5Z" fill="#0C8AE5"/>
<path d="M13.7539 10.2451L17.2539 10.2451C17.8062 10.2451 18.2539 10.6928 18.2539 11.2451C18.2539 11.7974 17.8062 12.2451 17.2539 12.2451L13.7539 12.2451C13.2016 12.2451 12.7539 11.7974 12.7539 11.2451C12.7539 10.6928 13.2016 10.2451 13.7539 10.2451Z" fill="#0C8AE5"/>
<path d="M30.557 19.2005L28.0821 16.7257C27.6916 16.3351 27.6916 15.702 28.0821 15.3114C28.4726 14.9209 29.1058 14.9209 29.4963 15.3114L31.9712 17.7863C32.3617 18.1768 32.3617 18.81 31.9712 19.2005C31.5807 19.5911 30.9475 19.5911 30.557 19.2005Z" fill="#0C8AE5"/>
<path d="M31.9554 4.71402L29.4805 7.18889C29.09 7.57941 28.4569 7.57941 28.0663 7.18889C27.6758 6.79836 27.6758 6.1652 28.0663 5.77468L30.5412 3.2998C30.9317 2.90928 31.5649 2.90928 31.9554 3.2998C32.3459 3.69033 32.3459 4.32349 31.9554 4.71402Z" fill="#0C8AE5"/>
</svg>
