<svg width="40" height="40" viewBox="0 0 40 40" fill="none" xmlns="http://www.w3.org/2000/svg">
<rect x="1" y="1" width="38" height="38" rx="19" fill="#EC8913" stroke="white" stroke-width="2"/>
<path d="M19.7393 7.19533C20.1167 6.91638 20.644 6.93618 21 7.2549C23.4735 9.47222 26.5374 10.8999 29.8057 11.3604C30.2989 11.43 30.6659 11.8525 30.6661 12.3506V20.5528C30.6659 23.5559 29.2914 26.1094 27.4004 28.1543C25.5137 30.1946 23.066 31.7835 20.7705 32.8994C20.4958 33.033 20.1747 33.0339 19.8995 32.9014C17.58 31.785 15.1274 30.195 13.2432 28.1533C11.3544 26.1065 9.99183 23.5524 10 20.5498V12.3506C10.0002 11.8525 10.3672 11.43 10.8604 11.3604C14.1287 10.8999 17.1926 9.47223 19.6661 7.2549L19.7393 7.19533ZM20.333 9.3135C17.916 11.2852 15.0532 12.6208 12 13.1983V20.5557C11.9937 22.9091 13.0539 24.9991 14.7129 26.7969C16.2651 28.4788 18.3027 29.8577 20.3301 30.8828C22.3401 29.8573 24.3756 28.4786 25.9317 26.7959C27.5959 24.9963 28.6659 22.9054 28.6661 20.5528V13.1983C25.6129 12.6208 22.75 11.2852 20.333 9.3135ZM17.333 17.667C18.9329 15.8004 23.4431 15.5559 25.3321 15.667C25.4431 17.1117 25.1985 20.6002 23.3321 23C21.4655 25.3999 18.7771 24.8886 17.6661 24.333L16.6661 25.333C16.1327 25.5997 15.7772 25.2222 15.6661 25L21.6661 18.667L16.333 23C16.1108 22 15.7332 19.5337 17.333 17.667Z" fill="white"/>
</svg>
