<svg width="40" height="40" viewBox="0 0 40 40" fill="none" xmlns="http://www.w3.org/2000/svg">
<rect x="1" y="1" width="38" height="38" rx="19" fill="#0C8AE5" stroke="white" stroke-width="2"/>
<path d="M31.6454 17.5007C26.2381 18.773 26.7418 12.7296 27.6695 9.54883C28.3323 9.54883 30.135 10.1055 32.0435 12.332C33.9519 14.5585 32.5733 16.7055 31.6454 17.5007Z" fill="white"/>
<path d="M31.856 17.5014C31.7235 17.1038 31.2199 15.9906 30.2656 14.7183" stroke="#0C8AE5" stroke-width="0.795191" stroke-linecap="round"/>
<path d="M14.6869 21.1192L21.4102 13.6883C21.5666 13.5154 21.8527 13.6465 21.8238 13.8779L21.1224 19.489H25.3723C25.5765 19.489 25.6863 19.7289 25.5529 19.8835L18.8542 27.6398C18.6999 27.8184 18.4077 27.6885 18.437 27.4542L19.1344 21.8745L14.844 21.517C14.6472 21.5006 14.5544 21.2657 14.6869 21.1192Z" fill="white"/>
<path d="M32.6509 20.2844C32.6509 27.0916 27.1326 32.6099 20.3255 32.6099C13.5183 32.6099 8 27.0916 8 20.2844C8 13.4773 13.5183 7.95898 20.3255 7.95898C22.1712 7.95898 23.9223 8.36471 25.4942 9.09185" stroke="white" stroke-width="1.59038" stroke-linecap="round"/>
</svg>
