<svg width="40" height="40" viewBox="0 0 40 40" fill="none" xmlns="http://www.w3.org/2000/svg">
<rect x="1" y="1" width="38" height="38" rx="19" fill="#06A85B" stroke="white" stroke-width="2"/>
<path d="M27.5 19.249C29.9852 19.249 31.9998 21.264 32 23.749C31.9998 25.3549 31.1575 26.7624 29.8916 27.5586L27.125 31.249L24.5703 27.1621C23.6101 26.337 23.0002 25.1143 23 23.749C23.0002 21.2644 25.0153 19.2496 27.5 19.249ZM25.127 8C27.2647 8.00014 28.998 9.7333 28.998 11.8711V14.75H29.7266C30.1538 14.7502 30.4997 15.0962 30.5 15.5234V17.7256C30.4999 18.1059 30.2258 18.4211 29.8643 18.4863C29.1373 18.1734 28.3358 18 27.4941 18C27.2422 18 26.9938 18.0157 26.75 18.0459V14.0244C26.75 13.5969 26.4031 13.25 25.9756 13.25H12.5244C12.097 13.2501 11.75 13.5969 11.75 14.0244V19.2256C11.7501 19.653 12.097 19.9999 12.5244 20H23.0234C22.0731 21.0616 21.4942 22.4632 21.4941 24C21.4943 25.6611 22.1716 27.1628 23.2627 28.249H14.75V28.999C14.7499 29.8274 14.0784 30.499 13.25 30.499C12.4218 30.4988 11.7501 29.8272 11.75 28.999V28.2461C10.9165 28.2215 10.2483 27.5405 10.248 26.7012V18.5H8.77441C8.34706 18.4998 8.00013 18.1529 8 17.7256V15.5234C8.00025 15.0962 8.34714 14.7502 8.77441 14.75H10.248V11.8711C10.248 9.73332 11.9814 8.00017 14.1191 8H25.127ZM27.502 21.499C26.2596 21.4992 25.2521 22.5067 25.252 23.749C25.2521 24.9914 26.2596 25.9988 27.502 25.999C28.7445 25.999 29.7518 24.9915 29.752 23.749C29.7518 22.5066 28.7445 21.499 27.502 21.499ZM13.25 22.25C12.4217 22.2502 11.75 22.9217 11.75 23.75C11.7503 24.5781 12.4219 25.2488 13.25 25.249C14.0783 25.249 14.7497 24.5782 14.75 23.75C14.75 22.9216 14.0784 22.25 13.25 22.25ZM16.999 10.25C16.5851 10.2503 16.2491 10.5861 16.249 11C16.249 11.414 16.5851 11.7497 16.999 11.75H21.499C21.9132 11.75 22.249 11.4142 22.249 11C22.249 10.5858 21.9132 10.25 21.499 10.25H16.999Z" fill="white"/>
</svg>
