<svg width="50" height="50" viewBox="0 0 50 50" fill="none" xmlns="http://www.w3.org/2000/svg">
<path d="M0 8C0 3.58172 3.58172 0 8 0H42C46.4183 0 50 3.58172 50 8V42C50 46.4183 46.4183 50 42 50H8C3.58172 50 0 46.4183 0 42V8Z" fill="#F1F5FF"/>
<path d="M23.5234 16.924C26.2411 16.6002 28.99 17.1746 31.3504 18.5597C33.7109 19.9448 35.5532 22.0644 36.5959 24.5949C36.6932 24.8568 36.6932 25.1449 36.5959 25.4069C36.1672 26.4464 35.6005 27.4234 34.9113 28.3119" stroke="#256EF4" stroke-width="2.33333" stroke-linecap="round" stroke-linejoin="round"/>
<path d="M27.4315 27.5193C26.7714 28.1569 25.8873 28.5096 24.9696 28.5017C24.0519 28.4937 23.1741 28.1256 22.5251 27.4767C21.8762 26.8277 21.5081 25.9499 21.5001 25.0322C21.4922 24.1145 21.8449 23.2304 22.4825 22.5703" stroke="#256EF4" stroke-width="2" stroke-linecap="round" stroke-linejoin="round"/>
<path d="M31.3915 31.4154C29.8439 32.3322 28.1172 32.9053 26.3285 33.0959C24.5399 33.2865 22.7312 33.0901 21.0252 32.5201C19.3191 31.9501 17.7557 31.0198 16.4409 29.7923C15.1261 28.5648 14.0907 27.0688 13.405 25.4059C13.3077 25.144 13.3077 24.8559 13.405 24.5939C14.4394 22.0854 16.2594 19.98 18.592 18.5938" stroke="#256EF4" stroke-width="2" stroke-linecap="round" stroke-linejoin="round"/>
<path d="M13.332 13.3359L36.6654 36.6693" stroke="#256EF4" stroke-width="2" stroke-linecap="round" stroke-linejoin="round"/>
</svg>
