<svg width="50" height="50" viewBox="0 0 50 50" fill="none" xmlns="http://www.w3.org/2000/svg">
<path d="M0 8C0 3.58172 3.58172 0 8 0H42C46.4183 0 50 3.58172 50 8V42C50 46.4183 46.4183 50 42 50H8C3.58172 50 0 46.4183 0 42V8Z" fill="#F1F5FF"/>
<path d="M12 15.8571V33.9286C12 34.6005 12.6915 35.05 13.3055 34.7772L16.3595 33.4207C16.5908 33.318 16.7701 33.1253 16.856 32.8872L18.4675 28.4204C18.6003 28.0523 18.9497 27.807 19.341 27.807H34.2857C34.7985 27.807 35.2143 27.3913 35.2143 26.8784V19.1778C35.2143 18.1521 34.3828 17.3207 33.3571 17.3207H24.0154C23.392 17.3207 22.8101 17.0078 22.4663 16.4878L21.3721 14.8329C21.0283 14.3128 20.4464 14 19.823 14H13.8571C12.8315 14 12 14.8315 12 15.8571Z" stroke="#256EF4" stroke-width="2"/>
<path d="M16.5134 21.595L12.4164 33.6664C12.2121 34.2686 12.6598 34.8934 13.2957 34.8934H32.9831C33.3897 34.8934 33.749 34.6289 33.8697 34.2407L37.6253 22.1693C37.8112 21.5716 37.3646 20.9648 36.7386 20.9648H17.3927C16.9949 20.9648 16.6413 21.2183 16.5134 21.595Z" fill="#ECF2FE" stroke="#256EF4" stroke-width="2"/>
</svg>
