<svg width="50" height="50" viewBox="0 0 50 50" fill="none" xmlns="http://www.w3.org/2000/svg">
<path d="M0 8C0 3.58172 3.58172 0 8 0H42C46.4183 0 50 3.58172 50 8V42C50 46.4183 46.4183 50 42 50H8C3.58172 50 0 46.4183 0 42V8Z" fill="#F1F5FF"/>
<path d="M13.332 21.5026C14.2603 21.5026 15.1505 21.8714 15.8069 22.5277C16.4633 23.1841 16.832 24.0743 16.832 25.0026C16.832 25.9309 16.4633 26.8211 15.8069 27.4775C15.1505 28.1339 14.2603 28.5026 13.332 28.5026V30.8359C13.332 31.4548 13.5779 32.0483 14.0154 32.4859C14.453 32.9234 15.0465 33.1693 15.6654 33.1693H34.332C34.9509 33.1693 35.5444 32.9234 35.9819 32.4859C36.4195 32.0483 36.6654 31.4548 36.6654 30.8359V28.5026C35.7371 28.5026 34.8469 28.1339 34.1905 27.4775C33.5341 26.8211 33.1654 25.9309 33.1654 25.0026C33.1654 24.0743 33.5341 23.1841 34.1905 22.5277C34.8469 21.8714 35.7371 21.5026 36.6654 21.5026V19.1693C36.6654 18.5504 36.4195 17.9569 35.9819 17.5194C35.5444 17.0818 34.9509 16.8359 34.332 16.8359H15.6654C15.0465 16.8359 14.453 17.0818 14.0154 17.5194C13.5779 17.9569 13.332 18.5504 13.332 19.1693V21.5026Z" stroke="#256EF4" stroke-width="2" stroke-linecap="round" stroke-linejoin="round"/>
<path d="M22.082 27.9193L27.9154 22.0859" stroke="#256EF4" stroke-width="2" stroke-linecap="round" stroke-linejoin="round"/>
</svg>
