<svg width="24" height="24" viewBox="0 0 24 24" fill="none" xmlns="http://www.w3.org/2000/svg">
<path d="M10.7344 5.0755C13.0638 4.79791 15.42 5.29032 17.4432 6.47755C19.4665 7.66478 21.0456 9.48158 21.9394 11.6505C22.0227 11.875 22.0227 12.122 21.9394 12.3465C21.5719 13.2375 21.0862 14.075 20.4954 14.8365" stroke="#58616A" stroke-width="2" stroke-linecap="round" stroke-linejoin="round"/>
<path d="M14.084 14.1561C13.5182 14.7025 12.7604 15.0049 11.9738 14.9981C11.1872 14.9912 10.4348 14.6757 9.87856 14.1195C9.32233 13.5633 9.00683 12.8109 8.99999 12.0243C8.99316 11.2377 9.29554 10.4799 9.84201 9.91406" stroke="#58616A" stroke-width="2" stroke-linecap="round" stroke-linejoin="round"/>
<path d="M17.4795 17.4978C16.153 18.2836 14.673 18.7748 13.1399 18.9382C11.6068 19.1016 10.0565 18.9333 8.59414 18.4447C7.13182 17.9561 5.7917 17.1587 4.66472 16.1066C3.53773 15.0544 2.65026 13.7722 2.06251 12.3468C1.97916 12.1223 1.97916 11.8753 2.06251 11.6508C2.94914 9.50067 4.50918 7.69606 6.50851 6.50781" stroke="#58616A" stroke-width="2" stroke-linecap="round" stroke-linejoin="round"/>
<path d="M2 2L22 22" stroke="#58616A" stroke-width="2" stroke-linecap="round" stroke-linejoin="round"/>
</svg>
