<svg width="50" height="50" viewBox="0 0 50 50" fill="none" xmlns="http://www.w3.org/2000/svg">
<path d="M0 8C0 3.58172 3.58172 0 8 0H42C46.4183 0 50 3.58172 50 8V42C50 46.4183 46.4183 50 42 50H8C3.58172 50 0 46.4183 0 42V8Z" fill="#F1F5FF"/>
<path d="M16.5713 18.252H25.5V28.0732H16.5713C15.0922 28.0732 13.8928 26.8746 13.8926 25.3955V20.9307C13.8927 19.4514 15.0921 18.252 16.5713 18.252Z" stroke="#256EF4" stroke-width="1.78571"/>
<path d="M20.0059 35.2119L20.0059 28.0693L25.3633 28.0693L25.3633 35.2119C25.3633 36.1981 24.5634 36.998 23.5771 36.998L21.792 36.998C20.8058 36.998 20.0059 36.1981 20.0059 35.2119Z" stroke="#256EF4" stroke-width="1.78571"/>
<path d="M36.4165 12.7781L25.5 18.1419V28.276L36.4227 33.5586C37.1524 33.9115 38 33.3799 38 32.5693V13.7643C38 12.9508 37.1467 12.4193 36.4165 12.7781Z" stroke="#256EF4" stroke-width="1.78571"/>
</svg>
